<svg class="main-svg" xmlns="http://www.w3.org/2000/svg" xmlns:xlink="http://www.w3.org/1999/xlink" width="700" height="500" style="" viewBox="0 0 700 500"><rect x="0" y="0" width="700" height="500" style="fill: rgb(255, 255, 255); fill-opacity: 1;"/><defs id="defs-3f3f24"><g class="clips"><clipPath id="clip3f3f24xyplot" class="plotclip"><rect width="503" height="320"/></clipPath><clipPath class="axesclip" id="clip3f3f24x"><rect x="80" y="0" width="503" height="500"/></clipPath><clipPath class="axesclip" id="clip3f3f24y"><rect x="0" y="100" width="700" height="320"/></clipPath><clipPath class="axesclip" id="clip3f3f24xy"><rect x="80" y="100" width="503" height="320"/></clipPath></g><g class="gradients"/><g class="patterns"/></defs><g class="bglayer"><rect class="bg" x="80" y="100" width="503" height="320" style="fill: rgb(229, 236, 246); fill-opacity: 1; stroke-width: 0;"/></g><g class="layer-below"><g class="imagelayer"/><g class="shapelayer"/></g><g class="cartesianlayer"><g class="subplot xy"><g class="layer-subplot"><g class="shapelayer"/><g class="imagelayer"/></g><g class="minor-gridlayer"><g class="x"/><g class="y"/></g><g class="gridlayer"><g class="x"/><g class="y"><path class="ygrid crisp" transform="translate(0,287.27)" d="M80,0h503" style="stroke: rgb(255, 255, 255); stroke-opacity: 1; stroke-width: 1px;"/><path class="ygrid crisp" transform="translate(0,199.05)" d="M80,0h503" style="stroke: rgb(255, 255, 255); stroke-opacity: 1; stroke-width: 1px;"/><path class="ygrid crisp" transform="translate(0,110.83)" d="M80,0h503" style="stroke: rgb(255, 255, 255); stroke-opacity: 1; stroke-width: 1px;"/></g></g><g class="zerolinelayer"><path class="yzl zl crisp" transform="translate(0,375.48)" d="M80,0h503" style="stroke: rgb(255, 255, 255); stroke-opacity: 1; stroke-width: 2px;"/></g><path class="xlines-below"/><path class="ylines-below"/><g class="overlines-below"/><g class="xaxislayer-below"/><g class="yaxislayer-below"/><g class="overaxes-below"/><g class="plot" transform="translate(80,100)" clip-path="url(#clip3f3f24xyplot)"><g class="violinlayer mlayer"><g class="trace violins" style="opacity: 1;"><path class="violin" d="M91.96,16L91.73,16Q91.61,18.83 91.52,20.25C91.44,21.66 91.34,23.08 91.22,24.49C91.1,25.91 90.96,27.32 90.82,28.74C90.68,30.16 90.52,31.57 90.37,32.99C90.22,34.4 90.06,35.82 89.92,37.23C89.78,38.65 89.65,40.06 89.55,41.48C89.45,42.9 89.36,44.31 89.3,45.73C89.24,47.15 89.2,48.56 89.2,49.98C89.2,51.39 89.23,52.81 89.28,54.22C89.33,55.64 89.42,57.05 89.52,58.47C89.62,59.89 89.75,61.3 89.89,62.72C90.02,64.13 90.18,65.55 90.33,66.96C90.48,68.38 90.64,69.79 90.78,71.21C90.92,72.63 91.06,74.04 91.18,75.46C91.3,76.87 91.41,78.29 91.5,79.7C91.59,81.12 91.65,82.53 91.71,83.95C91.76,85.37 91.8,86.78 91.83,88.2C91.86,89.61 91.87,91.03 91.87,92.44C91.87,93.86 91.86,95.27 91.84,96.69C91.82,98.11 91.78,99.52 91.72,100.94C91.66,102.36 91.59,103.78 91.48,105.19C91.37,106.61 91.24,108.02 91.08,109.43C90.92,110.85 90.72,112.26 90.52,113.68C90.31,115.1 90.08,116.51 89.85,117.93C89.62,119.34 89.37,120.75 89.16,122.17C88.96,123.58 88.76,125 88.62,126.42C88.48,127.83 88.38,129.25 88.33,130.67C88.28,132.08 88.3,133.5 88.34,134.91C88.38,136.33 88.48,137.74 88.57,139.16C88.66,140.58 88.79,141.99 88.9,143.41C89.01,144.82 89.12,146.24 89.22,147.65C89.32,149.07 89.41,150.48 89.49,151.9C89.57,153.32 89.64,154.73 89.71,156.15C89.78,157.56 89.86,158.98 89.93,160.39C90,161.81 90.07,163.22 90.12,164.64C90.17,166.06 90.23,167.47 90.24,168.89C90.25,170.31 90.25,171.72 90.2,173.14C90.15,174.55 90.07,175.97 89.94,177.38C89.81,178.8 89.64,180.22 89.44,181.63C89.24,183.05 88.99,184.47 88.73,185.88C88.47,187.3 88.16,188.71 87.86,190.12C87.56,191.54 87.24,192.95 86.94,194.37C86.64,195.79 86.34,197.2 86.08,198.62C85.82,200.03 85.59,201.44 85.39,202.86C85.2,204.27 85.05,205.69 84.91,207.11C84.77,208.53 84.69,209.94 84.57,211.36C84.45,212.77 84.37,214.19 84.18,215.6C83.99,217.02 83.79,218.44 83.45,219.85C83.11,221.28 82.69,222.7 82.13,224.1C81.56,225.54 80.85,226.96 80.04,228.35C79.2,229.79 78.21,231.2 77.15,232.59C76.05,234.04 74.82,235.44 73.55,236.84C72.25,238.28 70.84,239.69 69.43,241.09C68,242.52 66.49,243.91 65.02,245.33C63.55,246.74 62.04,248.15 60.63,249.58C59.25,250.98 57.83,252.37 56.62,253.83C55.48,255.21 54.32,256.6 53.55,258.07C52.84,259.44 52.19,260.89 52.08,262.32C51.97,263.72 52.25,265.22 52.84,266.57C53.5,268.07 54.76,269.47 56.08,270.81C57.58,272.33 59.55,273.69 61.49,275.06C63.57,276.53 65.94,277.9 68.18,279.31C70.44,280.73 72.82,282.11 74.99,283.56C77.06,284.94 79.14,286.32 80.94,287.8C82.6,289.16 84.17,290.57 85.46,292.05C86.65,293.41 87.66,294.84 88.48,296.3Q89.25,297.67 90.28,300.54L91.96,300.54" style="vector-effect: none; stroke-width: 2px; stroke: rgb(144, 238, 144); stroke-opacity: 1; fill: rgb(144, 238, 144); fill-opacity: 0.5;"/><path class="meanline" d="M75.46808624267578,234.67H91.96" style="fill: none; vector-effect: none; stroke-width: 2px; stroke-dasharray: 4px, 2px; stroke: rgb(144, 238, 144); stroke-opacity: 1;"/><g class="points"><path class="point" transform="translate(38.59,274.81)" d="M3,0A3,3 0 1,1 0,-3A3,3 0 0,1 3,0Z" style="opacity: 1; stroke-width: 0px; fill: rgb(144, 238, 144); fill-opacity: 1;"/><path class="point" transform="translate(32.81,274.13)" d="M3,0A3,3 0 1,1 0,-3A3,3 0 0,1 3,0Z" style="opacity: 1; stroke-width: 0px; fill: rgb(144, 238, 144); fill-opacity: 1;"/><path class="point" transform="translate(40.48,272.79)" d="M3,0A3,3 0 1,1 0,-3A3,3 0 0,1 3,0Z" style="opacity: 1; stroke-width: 0px; fill: rgb(144, 238, 144); fill-opacity: 1;"/><path class="point" transform="translate(31.15,270.54)" d="M3,0A3,3 0 1,1 0,-3A3,3 0 0,1 3,0Z" style="opacity: 1; stroke-width: 0px; fill: rgb(144, 238, 144); fill-opacity: 1;"/><path class="point" transform="translate(34.67,270.31)" d="M3,0A3,3 0 1,1 0,-3A3,3 0 0,1 3,0Z" style="opacity: 1; stroke-width: 0px; fill: rgb(144, 238, 144); fill-opacity: 1;"/><path class="point" transform="translate(39.33,269.41)" d="M3,0A3,3 0 1,1 0,-3A3,3 0 0,1 3,0Z" style="opacity: 1; stroke-width: 0px; fill: rgb(144, 238, 144); fill-opacity: 1;"/><path class="point" transform="translate(35.89,269.41)" d="M3,0A3,3 0 1,1 0,-3A3,3 0 0,1 3,0Z" style="opacity: 1; stroke-width: 0px; fill: rgb(144, 238, 144); fill-opacity: 1;"/><path class="point" transform="translate(38,269.41)" d="M3,0A3,3 0 1,1 0,-3A3,3 0 0,1 3,0Z" style="opacity: 1; stroke-width: 0px; fill: rgb(144, 238, 144); fill-opacity: 1;"/><path class="point" transform="translate(33.58,269.19)" d="M3,0A3,3 0 1,1 0,-3A3,3 0 0,1 3,0Z" style="opacity: 1; stroke-width: 0px; fill: rgb(144, 238, 144); fill-opacity: 1;"/><path class="point" transform="translate(30.87,268.52)" d="M3,0A3,3 0 1,1 0,-3A3,3 0 0,1 3,0Z" style="opacity: 1; stroke-width: 0px; fill: rgb(144, 238, 144); fill-opacity: 1;"/><path class="point" transform="translate(38.26,268.29)" d="M3,0A3,3 0 1,1 0,-3A3,3 0 0,1 3,0Z" style="opacity: 1; stroke-width: 0px; fill: rgb(144, 238, 144); fill-opacity: 1;"/><path class="point" transform="translate(34.24,268.29)" d="M3,0A3,3 0 1,1 0,-3A3,3 0 0,1 3,0Z" style="opacity: 1; stroke-width: 0px; fill: rgb(144, 238, 144); fill-opacity: 1;"/><path class="point" transform="translate(39.7,266.94)" d="M3,0A3,3 0 1,1 0,-3A3,3 0 0,1 3,0Z" style="opacity: 1; stroke-width: 0px; fill: rgb(144, 238, 144); fill-opacity: 1;"/><path class="point" transform="translate(30.86,266.72)" d="M3,0A3,3 0 1,1 0,-3A3,3 0 0,1 3,0Z" style="opacity: 1; stroke-width: 0px; fill: rgb(144, 238, 144); fill-opacity: 1;"/><path class="point" transform="translate(33,265.59)" d="M3,0A3,3 0 1,1 0,-3A3,3 0 0,1 3,0Z" style="opacity: 1; stroke-width: 0px; fill: rgb(144, 238, 144); fill-opacity: 1;"/><path class="point" transform="translate(39.76,265.59)" d="M3,0A3,3 0 1,1 0,-3A3,3 0 0,1 3,0Z" style="opacity: 1; stroke-width: 0px; fill: rgb(144, 238, 144); fill-opacity: 1;"/><path class="point" transform="translate(35.13,262)" d="M3,0A3,3 0 1,1 0,-3A3,3 0 0,1 3,0Z" style="opacity: 1; stroke-width: 0px; fill: rgb(144, 238, 144); fill-opacity: 1;"/><path class="point" transform="translate(32.89,261.77)" d="M3,0A3,3 0 1,1 0,-3A3,3 0 0,1 3,0Z" style="opacity: 1; stroke-width: 0px; fill: rgb(144, 238, 144); fill-opacity: 1;"/><path class="point" transform="translate(34.87,260.87)" d="M3,0A3,3 0 1,1 0,-3A3,3 0 0,1 3,0Z" style="opacity: 1; stroke-width: 0px; fill: rgb(144, 238, 144); fill-opacity: 1;"/><path class="point" transform="translate(36.04,260.2)" d="M3,0A3,3 0 1,1 0,-3A3,3 0 0,1 3,0Z" style="opacity: 1; stroke-width: 0px; fill: rgb(144, 238, 144); fill-opacity: 1;"/><path class="point" transform="translate(37.82,253.91)" d="M3,0A3,3 0 1,1 0,-3A3,3 0 0,1 3,0Z" style="opacity: 1; stroke-width: 0px; fill: rgb(144, 238, 144); fill-opacity: 1;"/><path class="point" transform="translate(36.58,252.78)" d="M3,0A3,3 0 1,1 0,-3A3,3 0 0,1 3,0Z" style="opacity: 1; stroke-width: 0px; fill: rgb(144, 238, 144); fill-opacity: 1;"/><path class="point" transform="translate(34.99,249.86)" d="M3,0A3,3 0 1,1 0,-3A3,3 0 0,1 3,0Z" style="opacity: 1; stroke-width: 0px; fill: rgb(144, 238, 144); fill-opacity: 1;"/><path class="point" transform="translate(32.86,249.86)" d="M3,0A3,3 0 1,1 0,-3A3,3 0 0,1 3,0Z" style="opacity: 1; stroke-width: 0px; fill: rgb(144, 238, 144); fill-opacity: 1;"/><path class="point" transform="translate(36.12,249.19)" d="M3,0A3,3 0 1,1 0,-3A3,3 0 0,1 3,0Z" style="opacity: 1; stroke-width: 0px; fill: rgb(144, 238, 144); fill-opacity: 1;"/><path class="point" transform="translate(35.1,248.51)" d="M3,0A3,3 0 1,1 0,-3A3,3 0 0,1 3,0Z" style="opacity: 1; stroke-width: 0px; fill: rgb(144, 238, 144); fill-opacity: 1;"/><path class="point" transform="translate(37.79,247.39)" d="M3,0A3,3 0 1,1 0,-3A3,3 0 0,1 3,0Z" style="opacity: 1; stroke-width: 0px; fill: rgb(144, 238, 144); fill-opacity: 1;"/><path class="point" transform="translate(35.86,246.71)" d="M3,0A3,3 0 1,1 0,-3A3,3 0 0,1 3,0Z" style="opacity: 1; stroke-width: 0px; fill: rgb(144, 238, 144); fill-opacity: 1;"/><path class="point" transform="translate(34.54,244.92)" d="M3,0A3,3 0 1,1 0,-3A3,3 0 0,1 3,0Z" style="opacity: 1; stroke-width: 0px; fill: rgb(144, 238, 144); fill-opacity: 1;"/><path class="point" transform="translate(33.91,239.07)" d="M3,0A3,3 0 1,1 0,-3A3,3 0 0,1 3,0Z" style="opacity: 1; stroke-width: 0px; fill: rgb(144, 238, 144); fill-opacity: 1;"/><path class="point" transform="translate(37.46,234.13)" d="M3,0A3,3 0 1,1 0,-3A3,3 0 0,1 3,0Z" style="opacity: 1; stroke-width: 0px; fill: rgb(144, 238, 144); fill-opacity: 1;"/><path class="point" transform="translate(34.38,233.68)" d="M3,0A3,3 0 1,1 0,-3A3,3 0 0,1 3,0Z" style="opacity: 1; stroke-width: 0px; fill: rgb(144, 238, 144); fill-opacity: 1;"/><path class="point" transform="translate(37.11,223.56)" d="M3,0A3,3 0 1,1 0,-3A3,3 0 0,1 3,0Z" style="opacity: 1; stroke-width: 0px; fill: rgb(144, 238, 144); fill-opacity: 1;"/><path class="point" transform="translate(36.45,208.73)" d="M3,0A3,3 0 1,1 0,-3A3,3 0 0,1 3,0Z" style="opacity: 1; stroke-width: 0px; fill: rgb(144, 238, 144); fill-opacity: 1;"/><path class="point" transform="translate(35.68,206.26)" d="M3,0A3,3 0 1,1 0,-3A3,3 0 0,1 3,0Z" style="opacity: 1; stroke-width: 0px; fill: rgb(144, 238, 144); fill-opacity: 1;"/><path class="point" transform="translate(35.43,204.91)" d="M3,0A3,3 0 1,1 0,-3A3,3 0 0,1 3,0Z" style="opacity: 1; stroke-width: 0px; fill: rgb(144, 238, 144); fill-opacity: 1;"/><path class="point" transform="translate(36.63,189.18)" d="M3,0A3,3 0 1,1 0,-3A3,3 0 0,1 3,0Z" style="opacity: 1; stroke-width: 0px; fill: rgb(144, 238, 144); fill-opacity: 1;"/><path class="point" transform="translate(36.01,157.04)" d="M3,0A3,3 0 1,1 0,-3A3,3 0 0,1 3,0Z" style="opacity: 1; stroke-width: 0px; fill: rgb(144, 238, 144); fill-opacity: 1;"/><path class="point" transform="translate(36.87,130.96)" d="M3,0A3,3 0 1,1 0,-3A3,3 0 0,1 3,0Z" style="opacity: 1; stroke-width: 0px; fill: rgb(144, 238, 144); fill-opacity: 1;"/><path class="point" transform="translate(35.27,130.29)" d="M3,0A3,3 0 1,1 0,-3A3,3 0 0,1 3,0Z" style="opacity: 1; stroke-width: 0px; fill: rgb(144, 238, 144); fill-opacity: 1;"/><path class="point" transform="translate(36.73,58.59)" d="M3,0A3,3 0 1,1 0,-3A3,3 0 0,1 3,0Z" style="opacity: 1; stroke-width: 0px; fill: rgb(144, 238, 144); fill-opacity: 1;"/><path class="point" transform="translate(36.05,41.73)" d="M3,0A3,3 0 1,1 0,-3A3,3 0 0,1 3,0Z" style="opacity: 1; stroke-width: 0px; fill: rgb(144, 238, 144); fill-opacity: 1;"/></g></g><g class="trace violins" style="opacity: 1;"><path class="violin" d="M91.96,304L95.5,304Q97.48,300.76 98.78,299.24C100.2,297.58 101.94,296.01 103.78,294.49C105.79,292.83 108.11,291.28 110.42,289.73C112.83,288.11 115.5,286.57 117.96,284.97C120.37,283.4 122.94,281.9 125.04,280.22C126.93,278.71 128.92,277.19 130.07,275.46C131.05,273.98 131.85,272.29 131.85,270.7C131.85,269.12 131.03,267.44 130.09,265.95C129.02,264.24 127.19,262.72 125.49,261.19C123.65,259.54 121.44,258.02 119.4,256.44C117.34,254.85 115.15,253.3 113.19,251.68C111.31,250.13 109.46,248.56 107.84,246.92C106.32,245.38 104.92,243.8 103.72,242.17C102.59,240.63 101.62,239.03 100.79,237.41C99.99,235.85 99.35,234.25 98.78,232.65C98.22,231.08 97.79,229.49 97.39,227.9C97,226.32 96.69,224.73 96.41,223.14C96.13,221.56 95.9,219.97 95.71,218.38C95.52,216.8 95.37,215.22 95.26,213.63C95.16,212.05 95.09,210.46 95.08,208.87C95.07,207.28 95.11,205.69 95.21,204.11C95.31,202.52 95.48,200.94 95.7,199.36C95.92,197.77 96.21,196.18 96.52,194.6C96.83,193.01 97.2,191.43 97.54,189.84C97.87,188.26 98.25,186.68 98.53,185.09C98.81,183.51 99.07,181.92 99.22,180.33C99.37,178.75 99.45,177.16 99.43,175.58C99.41,173.99 99.28,172.4 99.09,170.82C98.9,169.23 98.6,167.64 98.28,166.06C97.96,164.47 97.56,162.89 97.18,161.31C96.79,159.72 96.36,158.14 95.97,156.55C95.58,154.96 95.18,153.38 94.83,151.79C94.48,150.21 94.15,148.63 93.87,147.04C93.59,145.46 93.34,143.87 93.13,142.28C92.92,140.7 92.76,139.11 92.62,137.52C92.48,135.94 92.38,134.35 92.3,132.77C92.22,131.18 92.17,129.6 92.12,128.01C92.08,126.42 92.05,124.84 92.03,123.25C92.01,121.67 92,120.08 91.99,118.5C91.98,116.91 91.97,115.33 91.97,113.74C91.97,112.15 91.97,110.57 91.97,108.98C91.97,107.4 91.98,105.81 91.98,104.23C91.99,102.64 91.99,101.06 92,99.47C92.01,97.88 92.02,96.3 92.04,94.71C92.06,93.13 92.1,91.54 92.14,89.96C92.18,88.37 92.23,86.79 92.3,85.2C92.37,83.62 92.46,82.03 92.57,80.45C92.68,78.86 92.8,77.28 92.94,75.69C93.08,74.1 93.24,72.52 93.39,70.93C93.54,69.35 93.71,67.76 93.86,66.18C94.01,64.59 94.16,63.01 94.27,61.42C94.38,59.83 94.47,58.25 94.52,56.66C94.57,55.08 94.58,53.49 94.55,51.91C94.52,50.32 94.45,48.74 94.36,47.15C94.27,45.56 94.14,43.98 94,42.39C93.86,40.81 93.69,39.22 93.54,37.64C93.38,36.05 93.22,34.47 93.07,32.88C92.93,31.29 92.79,29.71 92.67,28.12C92.56,26.54 92.46,24.95 92.38,23.37Q92.3,21.78 92.18,18.61L91.96,18.61" style="vector-effect: none; stroke-width: 2px; stroke: rgb(0, 128, 0); stroke-opacity: 1; fill: rgb(0, 128, 0); fill-opacity: 0.5;"/><path class="meanline" d="M103.86869812011719,242.37H91.96" style="fill: none; vector-effect: none; stroke-width: 2px; stroke-dasharray: 4px, 2px; stroke: rgb(0, 128, 0); stroke-opacity: 1;"/><g class="points"><path class="point" transform="translate(151.94,275.26)" d="M3,0A3,3 0 1,1 0,-3A3,3 0 0,1 3,0Z" style="opacity: 1; stroke-width: 0px; fill: rgb(0, 128, 0); fill-opacity: 1;"/><path class="point" transform="translate(142.72,275.26)" d="M3,0A3,3 0 1,1 0,-3A3,3 0 0,1 3,0Z" style="opacity: 1; stroke-width: 0px; fill: rgb(0, 128, 0); fill-opacity: 1;"/><path class="point" transform="translate(153.99,275.26)" d="M3,0A3,3 0 1,1 0,-3A3,3 0 0,1 3,0Z" style="opacity: 1; stroke-width: 0px; fill: rgb(0, 128, 0); fill-opacity: 1;"/><path class="point" transform="translate(141.06,275.26)" d="M3,0A3,3 0 1,1 0,-3A3,3 0 0,1 3,0Z" style="opacity: 1; stroke-width: 0px; fill: rgb(0, 128, 0); fill-opacity: 1;"/><path class="point" transform="translate(145.84,275.03)" d="M3,0A3,3 0 1,1 0,-3A3,3 0 0,1 3,0Z" style="opacity: 1; stroke-width: 0px; fill: rgb(0, 128, 0); fill-opacity: 1;"/><path class="point" transform="translate(151.99,274.81)" d="M3,0A3,3 0 1,1 0,-3A3,3 0 0,1 3,0Z" style="opacity: 1; stroke-width: 0px; fill: rgb(0, 128, 0); fill-opacity: 1;"/><path class="point" transform="translate(147.5,274.81)" d="M3,0A3,3 0 1,1 0,-3A3,3 0 0,1 3,0Z" style="opacity: 1; stroke-width: 0px; fill: rgb(0, 128, 0); fill-opacity: 1;"/><path class="point" transform="translate(150.11,274.58)" d="M3,0A3,3 0 1,1 0,-3A3,3 0 0,1 3,0Z" style="opacity: 1; stroke-width: 0px; fill: rgb(0, 128, 0); fill-opacity: 1;"/><path class="point" transform="translate(145.26,274.58)" d="M3,0A3,3 0 1,1 0,-3A3,3 0 0,1 3,0Z" style="opacity: 1; stroke-width: 0px; fill: rgb(0, 128, 0); fill-opacity: 1;"/><path class="point" transform="translate(141.95,274.13)" d="M3,0A3,3 0 1,1 0,-3A3,3 0 0,1 3,0Z" style="opacity: 1; stroke-width: 0px; fill: rgb(0, 128, 0); fill-opacity: 1;"/><path class="point" transform="translate(149.93,274.13)" d="M3,0A3,3 0 1,1 0,-3A3,3 0 0,1 3,0Z" style="opacity: 1; stroke-width: 0px; fill: rgb(0, 128, 0); fill-opacity: 1;"/><path class="point" transform="translate(145.18,273.69)" d="M3,0A3,3 0 1,1 0,-3A3,3 0 0,1 3,0Z" style="opacity: 1; stroke-width: 0px; fill: rgb(0, 128, 0); fill-opacity: 1;"/><path class="point" transform="translate(152.86,273.24)" d="M3,0A3,3 0 1,1 0,-3A3,3 0 0,1 3,0Z" style="opacity: 1; stroke-width: 0px; fill: rgb(0, 128, 0); fill-opacity: 1;"/><path class="point" transform="translate(140.04,272.56)" d="M3,0A3,3 0 1,1 0,-3A3,3 0 0,1 3,0Z" style="opacity: 1; stroke-width: 0px; fill: rgb(0, 128, 0); fill-opacity: 1;"/><path class="point" transform="translate(143.19,272.34)" d="M3,0A3,3 0 1,1 0,-3A3,3 0 0,1 3,0Z" style="opacity: 1; stroke-width: 0px; fill: rgb(0, 128, 0); fill-opacity: 1;"/><path class="point" transform="translate(154.86,272.11)" d="M3,0A3,3 0 1,1 0,-3A3,3 0 0,1 3,0Z" style="opacity: 1; stroke-width: 0px; fill: rgb(0, 128, 0); fill-opacity: 1;"/><path class="point" transform="translate(145.8,271.66)" d="M3,0A3,3 0 1,1 0,-3A3,3 0 0,1 3,0Z" style="opacity: 1; stroke-width: 0px; fill: rgb(0, 128, 0); fill-opacity: 1;"/><path class="point" transform="translate(141.45,271.44)" d="M3,0A3,3 0 1,1 0,-3A3,3 0 0,1 3,0Z" style="opacity: 1; stroke-width: 0px; fill: rgb(0, 128, 0); fill-opacity: 1;"/><path class="point" transform="translate(145.52,270.99)" d="M3,0A3,3 0 1,1 0,-3A3,3 0 0,1 3,0Z" style="opacity: 1; stroke-width: 0px; fill: rgb(0, 128, 0); fill-opacity: 1;"/><path class="point" transform="translate(147.66,270.99)" d="M3,0A3,3 0 1,1 0,-3A3,3 0 0,1 3,0Z" style="opacity: 1; stroke-width: 0px; fill: rgb(0, 128, 0); fill-opacity: 1;"/><path class="point" transform="translate(150.25,270.76)" d="M3,0A3,3 0 1,1 0,-3A3,3 0 0,1 3,0Z" style="opacity: 1; stroke-width: 0px; fill: rgb(0, 128, 0); fill-opacity: 1;"/><path class="point" transform="translate(148.36,270.76)" d="M3,0A3,3 0 1,1 0,-3A3,3 0 0,1 3,0Z" style="opacity: 1; stroke-width: 0px; fill: rgb(0, 128, 0); fill-opacity: 1;"/><path class="point" transform="translate(146.64,268.74)" d="M3,0A3,3 0 1,1 0,-3A3,3 0 0,1 3,0Z" style="opacity: 1; stroke-width: 0px; fill: rgb(0, 128, 0); fill-opacity: 1;"/><path class="point" transform="translate(144.47,267.39)" d="M3,0A3,3 0 1,1 0,-3A3,3 0 0,1 3,0Z" style="opacity: 1; stroke-width: 0px; fill: rgb(0, 128, 0); fill-opacity: 1;"/><path class="point" transform="translate(147.79,266.49)" d="M3,0A3,3 0 1,1 0,-3A3,3 0 0,1 3,0Z" style="opacity: 1; stroke-width: 0px; fill: rgb(0, 128, 0); fill-opacity: 1;"/><path class="point" transform="translate(146.88,263.8)" d="M3,0A3,3 0 1,1 0,-3A3,3 0 0,1 3,0Z" style="opacity: 1; stroke-width: 0px; fill: rgb(0, 128, 0); fill-opacity: 1;"/><path class="point" transform="translate(149.03,261.77)" d="M3,0A3,3 0 1,1 0,-3A3,3 0 0,1 3,0Z" style="opacity: 1; stroke-width: 0px; fill: rgb(0, 128, 0); fill-opacity: 1;"/><path class="point" transform="translate(147.58,256.83)" d="M3,0A3,3 0 1,1 0,-3A3,3 0 0,1 3,0Z" style="opacity: 1; stroke-width: 0px; fill: rgb(0, 128, 0); fill-opacity: 1;"/><path class="point" transform="translate(146.43,255.48)" d="M3,0A3,3 0 1,1 0,-3A3,3 0 0,1 3,0Z" style="opacity: 1; stroke-width: 0px; fill: rgb(0, 128, 0); fill-opacity: 1;"/><path class="point" transform="translate(146.19,249.41)" d="M3,0A3,3 0 1,1 0,-3A3,3 0 0,1 3,0Z" style="opacity: 1; stroke-width: 0px; fill: rgb(0, 128, 0); fill-opacity: 1;"/><path class="point" transform="translate(148.77,245.82)" d="M3,0A3,3 0 1,1 0,-3A3,3 0 0,1 3,0Z" style="opacity: 1; stroke-width: 0px; fill: rgb(0, 128, 0); fill-opacity: 1;"/><path class="point" transform="translate(146.33,235.48)" d="M3,0A3,3 0 1,1 0,-3A3,3 0 0,1 3,0Z" style="opacity: 1; stroke-width: 0px; fill: rgb(0, 128, 0); fill-opacity: 1;"/><path class="point" transform="translate(148.85,228.96)" d="M3,0A3,3 0 1,1 0,-3A3,3 0 0,1 3,0Z" style="opacity: 1; stroke-width: 0px; fill: rgb(0, 128, 0); fill-opacity: 1;"/><path class="point" transform="translate(148.17,211.2)" d="M3,0A3,3 0 1,1 0,-3A3,3 0 0,1 3,0Z" style="opacity: 1; stroke-width: 0px; fill: rgb(0, 128, 0); fill-opacity: 1;"/><path class="point" transform="translate(147.31,183.78)" d="M3,0A3,3 0 1,1 0,-3A3,3 0 0,1 3,0Z" style="opacity: 1; stroke-width: 0px; fill: rgb(0, 128, 0); fill-opacity: 1;"/><path class="point" transform="translate(147.12,180.19)" d="M3,0A3,3 0 1,1 0,-3A3,3 0 0,1 3,0Z" style="opacity: 1; stroke-width: 0px; fill: rgb(0, 128, 0); fill-opacity: 1;"/><path class="point" transform="translate(148.32,178.84)" d="M3,0A3,3 0 1,1 0,-3A3,3 0 0,1 3,0Z" style="opacity: 1; stroke-width: 0px; fill: rgb(0, 128, 0); fill-opacity: 1;"/><path class="point" transform="translate(147.68,177.04)" d="M3,0A3,3 0 1,1 0,-3A3,3 0 0,1 3,0Z" style="opacity: 1; stroke-width: 0px; fill: rgb(0, 128, 0); fill-opacity: 1;"/><path class="point" transform="translate(148.55,167.37)" d="M3,0A3,3 0 1,1 0,-3A3,3 0 0,1 3,0Z" style="opacity: 1; stroke-width: 0px; fill: rgb(0, 128, 0); fill-opacity: 1;"/><path class="point" transform="translate(146.86,160.18)" d="M3,0A3,3 0 1,1 0,-3A3,3 0 0,1 3,0Z" style="opacity: 1; stroke-width: 0px; fill: rgb(0, 128, 0); fill-opacity: 1;"/><path class="point" transform="translate(148.47,59.71)" d="M3,0A3,3 0 1,1 0,-3A3,3 0 0,1 3,0Z" style="opacity: 1; stroke-width: 0px; fill: rgb(0, 128, 0); fill-opacity: 1;"/><path class="point" transform="translate(147.72,47.35)" d="M3,0A3,3 0 1,1 0,-3A3,3 0 0,1 3,0Z" style="opacity: 1; stroke-width: 0px; fill: rgb(0, 128, 0); fill-opacity: 1;"/></g></g><g class="trace violins" style="opacity: 1;"><path class="violin" d="M251.5,51.76L251.29,51.76Q251.19,53.45 251.12,54.3C251.05,55.15 250.96,55.99 250.87,56.84C250.78,57.69 250.67,58.53 250.57,59.38C250.47,60.23 250.36,61.07 250.27,61.92C250.18,62.77 250.1,63.61 250.05,64.46C250,65.31 249.96,66.16 249.96,67.01C249.96,67.86 249.98,68.7 250.03,69.55C250.08,70.4 250.17,71.24 250.25,72.09C250.34,72.94 250.44,73.78 250.54,74.63C250.64,75.48 250.75,76.32 250.84,77.17C250.93,78.02 251.03,78.86 251.1,79.71C251.17,80.56 251.23,81.4 251.28,82.25C251.33,83.1 251.36,83.94 251.39,84.79C251.42,85.64 251.43,86.49 251.45,87.34C251.46,88.19 251.47,89.03 251.48,89.88C251.49,90.73 251.49,91.57 251.49,92.42C251.49,93.27 251.5,94.11 251.5,94.96C251.5,95.81 251.5,96.65 251.5,97.5C251.5,98.35 251.5,99.19 251.5,100.04C251.5,100.89 251.5,101.73 251.5,102.58C251.5,103.43 251.5,104.27 251.5,105.12C251.5,105.97 251.5,106.81 251.5,107.66C251.5,108.51 251.5,109.36 251.5,110.21C251.5,111.06 251.5,111.9 251.5,112.75C251.5,113.6 251.5,114.44 251.5,115.29C251.5,116.14 251.5,116.98 251.5,117.83C251.5,118.68 251.5,119.52 251.5,120.37C251.5,121.22 251.5,122.06 251.5,122.91C251.5,123.76 251.5,124.6 251.5,125.45C251.5,126.3 251.5,127.14 251.5,127.99C251.5,128.84 251.5,129.69 251.5,130.54C251.5,131.39 251.5,132.23 251.5,133.08C251.5,133.93 251.5,134.77 251.5,135.62C251.5,136.47 251.5,137.31 251.5,138.16C251.5,139.01 251.5,139.85 251.5,140.7C251.5,141.55 251.5,142.39 251.5,143.24C251.5,144.09 251.5,144.93 251.5,145.78C251.5,146.63 251.5,147.47 251.5,148.32C251.5,149.17 251.5,150.02 251.5,150.87C251.5,151.72 251.5,152.56 251.5,153.41C251.5,154.26 251.5,155.1 251.5,155.95C251.5,156.8 251.5,157.64 251.5,158.49C251.5,159.34 251.5,160.18 251.5,161.03C251.5,161.88 251.5,162.72 251.5,163.57C251.5,164.42 251.5,165.26 251.5,166.11C251.5,166.96 251.49,167.8 251.49,168.65C251.49,169.5 251.49,170.34 251.48,171.19C251.47,172.04 251.47,172.89 251.45,173.74C251.43,174.59 251.41,175.43 251.38,176.28C251.35,177.13 251.31,177.97 251.26,178.82C251.21,179.67 251.14,180.51 251.07,181.36C250.99,182.21 250.9,183.05 250.81,183.9C250.72,184.75 250.61,185.59 250.51,186.44C250.41,187.29 250.3,188.13 250.21,188.98C250.12,189.83 250.04,190.67 249.99,191.52C249.94,192.37 249.9,193.22 249.89,194.07C249.88,194.92 249.89,195.76 249.91,196.61C249.93,197.46 249.98,198.3 250,199.15C250.02,200 250.05,200.84 250.05,201.69C250.05,202.54 250.03,203.38 249.98,204.23C249.93,205.08 249.85,205.92 249.76,206.77C249.67,207.62 249.54,208.46 249.42,209.31C249.3,210.16 249.17,211 249.06,211.85C248.95,212.7 248.84,213.55 248.77,214.4C248.7,215.25 248.65,216.09 248.63,216.94C248.61,217.79 248.63,218.63 248.65,219.48C248.67,220.33 248.74,221.17 248.77,222.02C248.8,222.87 248.86,223.71 248.85,224.56C248.84,225.41 248.83,226.26 248.73,227.1C248.63,227.95 248.48,228.8 248.26,229.64C248.04,230.49 247.74,231.34 247.4,232.18C247.06,233.04 246.63,233.89 246.21,234.73C245.78,235.58 245.3,236.42 244.84,237.27C244.38,238.12 243.89,238.96 243.45,239.81C243.01,240.65 242.59,241.5 242.19,242.35C241.8,243.19 241.45,244.04 241.08,244.89C240.72,245.74 240.38,246.59 240,247.43C239.61,248.28 239.24,249.14 238.77,249.97C238.28,250.83 237.76,251.69 237.12,252.51C236.44,253.39 235.65,254.24 234.77,255.05C233.81,255.94 232.71,256.79 231.53,257.6C230.25,258.49 228.8,259.32 227.34,260.14C225.79,261.01 224.09,261.84 222.45,262.68C220.81,263.53 219.05,264.34 217.51,265.22C216.09,266.03 214.55,266.81 213.53,267.76C212.69,268.54 211.74,269.42 211.62,270.3C211.51,271.12 211.98,272.08 212.6,272.84C213.42,273.84 215.06,274.6 216.58,275.38C218.4,276.32 220.67,277.11 222.85,277.93C225.17,278.81 227.72,279.61 230.11,280.47C232.45,281.31 234.85,282.12 237.02,283.01C239.01,283.82 240.96,284.64 242.64,285.55C244.11,286.35 245.48,287.17 246.6,288.09Q247.57,288.88 249.06,290.63L251.5,290.63" style="vector-effect: none; stroke-width: 2px; stroke: rgb(255, 255, 0); stroke-opacity: 1; fill: rgb(255, 255, 0); fill-opacity: 0.5;"/><path class="meanline" d="M233.2259979248047,256.36H251.5" style="fill: none; vector-effect: none; stroke-width: 2px; stroke-dasharray: 4px, 2px; stroke: rgb(255, 255, 0); stroke-opacity: 1;"/><g class="points"><path class="point" transform="translate(199.3,275.26)" d="M3,0A3,3 0 1,1 0,-3A3,3 0 0,1 3,0Z" style="opacity: 1; stroke-width: 0px; fill: rgb(255, 255, 0); fill-opacity: 1;"/><path class="point" transform="translate(191.13,275.03)" d="M3,0A3,3 0 1,1 0,-3A3,3 0 0,1 3,0Z" style="opacity: 1; stroke-width: 0px; fill: rgb(255, 255, 0); fill-opacity: 1;"/><path class="point" transform="translate(201.61,274.36)" d="M3,0A3,3 0 1,1 0,-3A3,3 0 0,1 3,0Z" style="opacity: 1; stroke-width: 0px; fill: rgb(255, 255, 0); fill-opacity: 1;"/><path class="point" transform="translate(189.54,274.13)" d="M3,0A3,3 0 1,1 0,-3A3,3 0 0,1 3,0Z" style="opacity: 1; stroke-width: 0px; fill: rgb(255, 255, 0); fill-opacity: 1;"/><path class="point" transform="translate(193.77,274.13)" d="M3,0A3,3 0 1,1 0,-3A3,3 0 0,1 3,0Z" style="opacity: 1; stroke-width: 0px; fill: rgb(255, 255, 0); fill-opacity: 1;"/><path class="point" transform="translate(199.5,273.91)" d="M3,0A3,3 0 1,1 0,-3A3,3 0 0,1 3,0Z" style="opacity: 1; stroke-width: 0px; fill: rgb(255, 255, 0); fill-opacity: 1;"/><path class="point" transform="translate(195.39,273.69)" d="M3,0A3,3 0 1,1 0,-3A3,3 0 0,1 3,0Z" style="opacity: 1; stroke-width: 0px; fill: rgb(255, 255, 0); fill-opacity: 1;"/><path class="point" transform="translate(197.98,273.69)" d="M3,0A3,3 0 1,1 0,-3A3,3 0 0,1 3,0Z" style="opacity: 1; stroke-width: 0px; fill: rgb(255, 255, 0); fill-opacity: 1;"/><path class="point" transform="translate(193.12,273.24)" d="M3,0A3,3 0 1,1 0,-3A3,3 0 0,1 3,0Z" style="opacity: 1; stroke-width: 0px; fill: rgb(255, 255, 0); fill-opacity: 1;"/><path class="point" transform="translate(189.82,273.24)" d="M3,0A3,3 0 1,1 0,-3A3,3 0 0,1 3,0Z" style="opacity: 1; stroke-width: 0px; fill: rgb(255, 255, 0); fill-opacity: 1;"/><path class="point" transform="translate(197.79,272.79)" d="M3,0A3,3 0 1,1 0,-3A3,3 0 0,1 3,0Z" style="opacity: 1; stroke-width: 0px; fill: rgb(255, 255, 0); fill-opacity: 1;"/><path class="point" transform="translate(193.04,272.56)" d="M3,0A3,3 0 1,1 0,-3A3,3 0 0,1 3,0Z" style="opacity: 1; stroke-width: 0px; fill: rgb(255, 255, 0); fill-opacity: 1;"/><path class="point" transform="translate(200.53,272.56)" d="M3,0A3,3 0 1,1 0,-3A3,3 0 0,1 3,0Z" style="opacity: 1; stroke-width: 0px; fill: rgb(255, 255, 0); fill-opacity: 1;"/><path class="point" transform="translate(187.9,272.34)" d="M3,0A3,3 0 1,1 0,-3A3,3 0 0,1 3,0Z" style="opacity: 1; stroke-width: 0px; fill: rgb(255, 255, 0); fill-opacity: 1;"/><path class="point" transform="translate(191.43,272.11)" d="M3,0A3,3 0 1,1 0,-3A3,3 0 0,1 3,0Z" style="opacity: 1; stroke-width: 0px; fill: rgb(255, 255, 0); fill-opacity: 1;"/><path class="point" transform="translate(201.86,271.89)" d="M3,0A3,3 0 1,1 0,-3A3,3 0 0,1 3,0Z" style="opacity: 1; stroke-width: 0px; fill: rgb(255, 255, 0); fill-opacity: 1;"/><path class="point" transform="translate(194.42,271.89)" d="M3,0A3,3 0 1,1 0,-3A3,3 0 0,1 3,0Z" style="opacity: 1; stroke-width: 0px; fill: rgb(255, 255, 0); fill-opacity: 1;"/><path class="point" transform="translate(191.5,271.44)" d="M3,0A3,3 0 1,1 0,-3A3,3 0 0,1 3,0Z" style="opacity: 1; stroke-width: 0px; fill: rgb(255, 255, 0); fill-opacity: 1;"/><path class="point" transform="translate(194.22,271.21)" d="M3,0A3,3 0 1,1 0,-3A3,3 0 0,1 3,0Z" style="opacity: 1; stroke-width: 0px; fill: rgb(255, 255, 0); fill-opacity: 1;"/><path class="point" transform="translate(195.57,270.76)" d="M3,0A3,3 0 1,1 0,-3A3,3 0 0,1 3,0Z" style="opacity: 1; stroke-width: 0px; fill: rgb(255, 255, 0); fill-opacity: 1;"/><path class="point" transform="translate(197.48,270.09)" d="M3,0A3,3 0 1,1 0,-3A3,3 0 0,1 3,0Z" style="opacity: 1; stroke-width: 0px; fill: rgb(255, 255, 0); fill-opacity: 1;"/><path class="point" transform="translate(196.11,267.17)" d="M3,0A3,3 0 1,1 0,-3A3,3 0 0,1 3,0Z" style="opacity: 1; stroke-width: 0px; fill: rgb(255, 255, 0); fill-opacity: 1;"/><path class="point" transform="translate(194.61,266.94)" d="M3,0A3,3 0 1,1 0,-3A3,3 0 0,1 3,0Z" style="opacity: 1; stroke-width: 0px; fill: rgb(255, 255, 0); fill-opacity: 1;"/><path class="point" transform="translate(192.82,265.37)" d="M3,0A3,3 0 1,1 0,-3A3,3 0 0,1 3,0Z" style="opacity: 1; stroke-width: 0px; fill: rgb(255, 255, 0); fill-opacity: 1;"/><path class="point" transform="translate(195.65,264.25)" d="M3,0A3,3 0 1,1 0,-3A3,3 0 0,1 3,0Z" style="opacity: 1; stroke-width: 0px; fill: rgb(255, 255, 0); fill-opacity: 1;"/><path class="point" transform="translate(194.75,263.8)" d="M3,0A3,3 0 1,1 0,-3A3,3 0 0,1 3,0Z" style="opacity: 1; stroke-width: 0px; fill: rgb(255, 255, 0); fill-opacity: 1;"/><path class="point" transform="translate(197.04,263.57)" d="M3,0A3,3 0 1,1 0,-3A3,3 0 0,1 3,0Z" style="opacity: 1; stroke-width: 0px; fill: rgb(255, 255, 0); fill-opacity: 1;"/><path class="point" transform="translate(195.4,262)" d="M3,0A3,3 0 1,1 0,-3A3,3 0 0,1 3,0Z" style="opacity: 1; stroke-width: 0px; fill: rgb(255, 255, 0); fill-opacity: 1;"/><path class="point" transform="translate(193.88,259.75)" d="M3,0A3,3 0 1,1 0,-3A3,3 0 0,1 3,0Z" style="opacity: 1; stroke-width: 0px; fill: rgb(255, 255, 0); fill-opacity: 1;"/><path class="point" transform="translate(193.29,257.05)" d="M3,0A3,3 0 1,1 0,-3A3,3 0 0,1 3,0Z" style="opacity: 1; stroke-width: 0px; fill: rgb(255, 255, 0); fill-opacity: 1;"/><path class="point" transform="translate(197.1,256.6)" d="M3,0A3,3 0 1,1 0,-3A3,3 0 0,1 3,0Z" style="opacity: 1; stroke-width: 0px; fill: rgb(255, 255, 0); fill-opacity: 1;"/><path class="point" transform="translate(193.64,252.11)" d="M3,0A3,3 0 1,1 0,-3A3,3 0 0,1 3,0Z" style="opacity: 1; stroke-width: 0px; fill: rgb(255, 255, 0); fill-opacity: 1;"/><path class="point" transform="translate(197.04,251.43)" d="M3,0A3,3 0 1,1 0,-3A3,3 0 0,1 3,0Z" style="opacity: 1; stroke-width: 0px; fill: rgb(255, 255, 0); fill-opacity: 1;"/><path class="point" transform="translate(196.06,247.61)" d="M3,0A3,3 0 1,1 0,-3A3,3 0 0,1 3,0Z" style="opacity: 1; stroke-width: 0px; fill: rgb(255, 255, 0); fill-opacity: 1;"/><path class="point" transform="translate(195.14,243.79)" d="M3,0A3,3 0 1,1 0,-3A3,3 0 0,1 3,0Z" style="opacity: 1; stroke-width: 0px; fill: rgb(255, 255, 0); fill-opacity: 1;"/><path class="point" transform="translate(194.8,243.34)" d="M3,0A3,3 0 1,1 0,-3A3,3 0 0,1 3,0Z" style="opacity: 1; stroke-width: 0px; fill: rgb(255, 255, 0); fill-opacity: 1;"/><path class="point" transform="translate(196.04,239.97)" d="M3,0A3,3 0 1,1 0,-3A3,3 0 0,1 3,0Z" style="opacity: 1; stroke-width: 0px; fill: rgb(255, 255, 0); fill-opacity: 1;"/><path class="point" transform="translate(195.58,237.27)" d="M3,0A3,3 0 1,1 0,-3A3,3 0 0,1 3,0Z" style="opacity: 1; stroke-width: 0px; fill: rgb(255, 255, 0); fill-opacity: 1;"/><path class="point" transform="translate(196.19,220.42)" d="M3,0A3,3 0 1,1 0,-3A3,3 0 0,1 3,0Z" style="opacity: 1; stroke-width: 0px; fill: rgb(255, 255, 0); fill-opacity: 1;"/><path class="point" transform="translate(195.05,213.45)" d="M3,0A3,3 0 1,1 0,-3A3,3 0 0,1 3,0Z" style="opacity: 1; stroke-width: 0px; fill: rgb(255, 255, 0); fill-opacity: 1;"/><path class="point" transform="translate(196.09,193.67)" d="M3,0A3,3 0 1,1 0,-3A3,3 0 0,1 3,0Z" style="opacity: 1; stroke-width: 0px; fill: rgb(255, 255, 0); fill-opacity: 1;"/><path class="point" transform="translate(195.61,67.13)" d="M3,0A3,3 0 1,1 0,-3A3,3 0 0,1 3,0Z" style="opacity: 1; stroke-width: 0px; fill: rgb(255, 255, 0); fill-opacity: 1;"/></g></g><g class="trace violins" style="opacity: 1;"><path class="violin" d="M251.5,280.6L254.55,280.6Q256.41,280.01 257.52,279.75C258.89,279.43 260.5,279.16 262.17,278.89C264.12,278.58 266.32,278.31 268.52,278.04C270.91,277.74 273.51,277.47 275.99,277.19C278.44,276.91 281.04,276.65 283.31,276.34C285.3,276.07 287.4,275.85 288.88,275.49C289.89,275.24 291.32,274.99 291.38,274.64C291.43,274.39 290.83,274.02 290.33,273.78C289.45,273.36 287.74,273.19 286.27,272.93C284.53,272.62 282.46,272.36 280.53,272.08C278.56,271.79 276.48,271.53 274.58,271.23C272.82,270.96 271.06,270.69 269.5,270.38C268.15,270.11 266.87,269.85 265.75,269.53C264.82,269.27 263.99,268.98 263.25,268.67C262.63,268.41 262.09,268.12 261.58,267.82C261.12,267.55 260.73,267.26 260.33,266.97C259.95,266.69 259.59,266.41 259.24,266.12C258.89,265.84 258.55,265.56 258.23,265.27C257.93,264.99 257.62,264.72 257.37,264.42C257.13,264.14 256.92,263.86 256.75,263.56C256.59,263.28 256.48,263 256.39,262.71C256.3,262.43 256.28,262.14 256.22,261.86C256.17,261.58 256.13,261.29 256.06,261.01C255.99,260.72 255.9,260.44 255.78,260.16C255.65,259.87 255.48,259.58 255.29,259.3C255.09,259.01 254.85,258.73 254.61,258.45C254.37,258.16 254.1,257.88 253.85,257.6C253.6,257.32 253.34,257.04 253.12,256.75C252.91,256.47 252.7,256.19 252.53,255.9C252.36,255.62 252.21,255.34 252.09,255.05C251.97,254.77 251.88,254.48 251.81,254.19C251.74,253.91 251.69,253.62 251.65,253.34C251.61,253.06 251.58,252.77 251.56,252.49C251.54,252.21 251.53,251.92 251.52,251.64C251.51,251.36 251.51,251.07 251.51,250.79C251.51,250.51 251.5,250.22 251.5,249.94C251.5,249.65 251.5,249.37 251.5,249.08C251.5,248.8 251.5,248.51 251.5,248.23C251.5,247.95 251.51,247.66 251.51,247.38C251.52,247.1 251.52,246.81 251.53,246.53C251.54,246.25 251.54,245.96 251.56,245.68C251.58,245.4 251.61,245.11 251.64,244.83C251.68,244.54 251.72,244.25 251.77,243.97C251.83,243.68 251.9,243.4 251.97,243.12C252.05,242.84 252.13,242.55 252.22,242.27C252.31,241.99 252.42,241.7 252.51,241.42C252.6,241.14 252.69,240.86 252.76,240.57C252.83,240.29 252.89,240.01 252.91,239.72C252.93,239.44 252.92,239.14 252.9,238.86C252.88,238.57 252.82,238.29 252.76,238.01C252.69,237.72 252.6,237.44 252.51,237.16C252.42,236.88 252.31,236.59 252.22,236.31C252.13,236.03 252.04,235.74 251.96,235.46C251.88,235.18 251.81,234.9 251.76,234.61C251.71,234.33 251.67,234.04 251.64,233.75C251.61,233.47 251.58,233.18 251.56,232.9C251.54,232.62 251.54,232.33 251.53,232.05C251.52,231.77 251.52,231.48 251.51,231.2C251.51,230.92 251.5,230.63 251.5,230.35C251.5,230.07 251.5,229.78 251.5,229.5C251.5,229.21 251.5,228.93 251.5,228.64C251.5,228.36 251.5,228.07 251.5,227.79C251.5,227.51 251.5,227.22 251.5,226.94C251.5,226.66 251.51,226.37 251.51,226.09C251.52,225.81 251.52,225.52 251.53,225.24C251.54,224.96 251.55,224.67 251.57,224.39C251.59,224.1 251.62,223.82 251.66,223.53C251.7,223.25 251.74,222.96 251.8,222.68C251.86,222.4 251.93,222.11 252.01,221.83C252.09,221.55 252.19,221.26 252.28,220.98C252.37,220.7 252.47,220.42 252.56,220.13C252.65,219.85 252.74,219.56 252.8,219.27C252.86,218.99 252.91,218.7 252.92,218.42C252.93,218.14 252.92,217.85 252.89,217.57C252.86,217.29 252.78,217 252.71,216.72C252.64,216.44 252.54,216.15 252.45,215.87C252.36,215.59 252.26,215.3 252.17,215.02C252.08,214.73 251.99,214.45 251.92,214.16C251.85,213.88 251.78,213.59 251.73,213.31C251.68,213.03 251.65,212.74 251.62,212.46C251.59,212.18 251.57,211.89 251.55,211.61C251.53,211.33 251.53,211.04 251.52,210.76C251.51,210.48 251.51,210.19 251.51,209.91C251.51,209.62 251.5,209.34 251.5,209.05C251.5,208.77 251.5,208.48 251.5,208.2C251.5,207.92 251.5,207.63 251.5,207.35C251.5,207.07 251.5,206.78 251.5,206.5C251.5,206.22 251.5,205.93 251.5,205.65C251.5,205.37 251.5,205.08 251.5,204.8C251.5,204.51 251.5,204.23 251.5,203.94C251.5,203.66 251.5,203.37 251.5,203.09C251.5,202.81 251.5,202.52 251.5,202.24C251.5,201.96 251.5,201.67 251.5,201.39C251.5,201.11 251.5,200.82 251.5,200.54C251.5,200.26 251.5,199.97 251.5,199.69C251.5,199.4 251.5,199.12 251.5,198.83C251.5,198.55 251.5,198.26 251.5,197.98C251.5,197.7 251.5,197.41 251.5,197.13C251.5,196.85 251.5,196.56 251.5,196.28C251.5,196 251.5,195.71 251.5,195.43C251.5,195.15 251.5,194.86 251.5,194.58C251.5,194.29 251.5,194.01 251.5,193.72C251.5,193.44 251.5,193.15 251.5,192.87C251.5,192.59 251.5,192.3 251.5,192.02C251.5,191.74 251.5,191.45 251.5,191.17C251.5,190.89 251.5,190.6 251.5,190.32C251.5,190.04 251.5,189.75 251.5,189.47C251.5,189.18 251.5,188.9 251.5,188.61C251.5,188.33 251.5,188.04 251.51,187.76C251.52,187.48 251.53,187.19 251.54,186.91C251.55,186.63 251.56,186.34 251.58,186.06C251.6,185.78 251.63,185.49 251.67,185.21C251.71,184.92 251.77,184.63 251.83,184.35C251.89,184.06 251.97,183.78 252.05,183.5C252.13,183.22 252.23,182.93 252.32,182.65C252.41,182.37 252.52,182.08 252.6,181.8C252.68,181.52 252.77,181.24 252.82,180.95C252.87,180.67 252.91,180.38 252.92,180.1C252.93,179.81 252.91,179.52 252.87,179.24C252.83,178.95 252.76,178.67 252.68,178.39C252.6,178.1 252.5,177.82 252.41,177.54C252.32,177.26 252.22,176.97 252.13,176.69C252.04,176.41 251.96,176.12 251.89,175.84C251.82,175.56 251.76,175.28 251.71,174.99C251.66,174.71 251.64,174.42 251.61,174.13C251.58,173.85 251.57,173.56 251.55,173.28C251.54,173 251.53,172.71 251.52,172.43C251.51,172.15 251.51,171.86 251.51,171.58C251.51,171.3 251.5,171.01 251.5,170.73C251.5,170.45 251.5,170.16 251.5,169.88C251.5,169.59 251.5,169.31 251.5,169.02C251.5,168.74 251.5,168.45 251.5,168.17C251.5,167.89 251.5,167.6 251.5,167.32C251.5,167.04 251.5,166.75 251.5,166.47C251.5,166.19 251.5,165.9 251.5,165.62C251.5,165.34 251.5,165.05 251.5,164.77C251.5,164.48 251.5,164.2 251.5,163.91C251.5,163.63 251.5,163.34 251.5,163.06C251.5,162.78 251.5,162.49 251.5,162.21C251.5,161.93 251.5,161.64 251.5,161.36C251.5,161.08 251.5,160.79 251.5,160.51C251.5,160.23 251.5,159.94 251.5,159.66C251.5,159.37 251.5,159.09 251.5,158.8C251.5,158.52 251.5,158.23 251.5,157.95C251.5,157.67 251.5,157.38 251.5,157.1C251.5,156.82 251.5,156.53 251.5,156.25C251.5,155.97 251.5,155.68 251.5,155.4C251.5,155.12 251.5,154.83 251.5,154.55C251.5,154.26 251.5,153.98 251.5,153.69C251.5,153.41 251.5,153.12 251.5,152.84C251.5,152.56 251.5,152.27 251.5,151.99C251.5,151.71 251.5,151.42 251.5,151.14C251.5,150.86 251.5,150.57 251.5,150.29C251.5,150.01 251.5,149.72 251.5,149.44C251.5,149.15 251.5,148.87 251.5,148.58C251.5,148.3 251.5,148.01 251.5,147.73C251.5,147.45 251.5,147.16 251.5,146.88C251.5,146.6 251.5,146.31 251.5,146.03C251.5,145.75 251.5,145.46 251.5,145.18C251.5,144.89 251.5,144.61 251.5,144.32C251.5,144.04 251.5,143.75 251.5,143.47C251.5,143.19 251.5,142.9 251.5,142.62C251.5,142.34 251.5,142.05 251.5,141.77C251.5,141.49 251.5,141.2 251.5,140.92C251.5,140.64 251.5,140.35 251.5,140.07C251.5,139.78 251.5,139.5 251.5,139.21C251.5,138.93 251.5,138.64 251.5,138.36C251.5,138.08 251.5,137.79 251.5,137.51C251.5,137.23 251.5,136.94 251.5,136.66C251.5,136.38 251.5,136.09 251.5,135.81C251.5,135.53 251.5,135.24 251.5,134.96C251.5,134.67 251.5,134.39 251.5,134.1C251.5,133.82 251.5,133.53 251.5,133.25C251.5,132.97 251.5,132.68 251.5,132.4C251.5,132.12 251.5,131.83 251.5,131.55C251.5,131.27 251.5,130.98 251.5,130.7C251.5,130.42 251.5,130.13 251.5,129.85C251.5,129.56 251.5,129.28 251.5,128.99C251.5,128.71 251.5,128.42 251.5,128.14C251.5,127.86 251.5,127.57 251.5,127.29C251.5,127.01 251.5,126.72 251.5,126.44C251.5,126.16 251.5,125.87 251.5,125.59C251.5,125.31 251.5,125.02 251.5,124.74C251.5,124.45 251.5,124.17 251.5,123.88C251.5,123.6 251.5,123.31 251.5,123.03C251.5,122.75 251.5,122.46 251.5,122.18C251.5,121.9 251.5,121.61 251.5,121.33C251.5,121.05 251.5,120.76 251.5,120.48C251.5,120.2 251.5,119.91 251.5,119.63C251.5,119.34 251.5,119.06 251.5,118.77C251.5,118.49 251.5,118.2 251.5,117.92C251.5,117.64 251.5,117.35 251.5,117.07C251.5,116.79 251.5,116.5 251.5,116.22C251.5,115.94 251.5,115.65 251.5,115.37C251.5,115.09 251.5,114.8 251.5,114.52C251.5,114.23 251.5,113.95 251.5,113.66C251.5,113.38 251.5,113.09 251.5,112.81C251.5,112.53 251.5,112.24 251.5,111.96C251.5,111.68 251.5,111.39 251.5,111.11C251.5,110.83 251.5,110.54 251.5,110.26C251.5,109.98 251.5,109.69 251.5,109.41C251.5,109.12 251.5,108.84 251.5,108.55C251.5,108.27 251.5,107.98 251.5,107.7C251.5,107.42 251.5,107.13 251.5,106.85C251.5,106.57 251.5,106.28 251.5,106C251.5,105.72 251.5,105.43 251.5,105.15C251.5,104.86 251.5,104.58 251.5,104.29C251.5,104.01 251.5,103.72 251.5,103.44C251.5,103.16 251.5,102.87 251.5,102.59C251.5,102.31 251.5,102.02 251.5,101.74C251.5,101.46 251.5,101.17 251.5,100.89C251.5,100.61 251.5,100.32 251.5,100.04C251.5,99.75 251.5,99.47 251.5,99.18C251.5,98.9 251.5,98.61 251.5,98.33C251.5,98.05 251.5,97.76 251.5,97.48C251.5,97.2 251.5,96.91 251.5,96.63C251.5,96.35 251.5,96.06 251.5,95.78C251.5,95.5 251.5,95.21 251.5,94.93C251.5,94.64 251.5,94.36 251.5,94.07C251.5,93.79 251.5,93.5 251.5,93.22C251.5,92.94 251.5,92.65 251.5,92.37C251.5,92.09 251.5,91.8 251.5,91.52C251.5,91.24 251.5,90.95 251.5,90.67C251.5,90.39 251.5,90.1 251.5,89.82C251.5,89.53 251.5,89.25 251.5,88.96C251.5,88.68 251.5,88.39 251.5,88.11C251.5,87.83 251.5,87.54 251.5,87.26C251.5,86.98 251.5,86.69 251.5,86.41C251.5,86.13 251.5,85.84 251.5,85.56C251.5,85.28 251.5,84.99 251.5,84.71C251.5,84.42 251.5,84.14 251.5,83.85C251.5,83.57 251.5,83.28 251.5,83C251.5,82.72 251.5,82.43 251.5,82.15C251.5,81.87 251.5,81.58 251.5,81.3C251.5,81.02 251.5,80.73 251.5,80.45C251.5,80.17 251.5,79.88 251.5,79.6C251.5,79.31 251.5,79.03 251.5,78.74C251.5,78.46 251.51,78.17 251.51,77.89C251.51,77.61 251.52,77.32 251.52,77.04C251.53,76.76 251.53,76.47 251.54,76.19C251.55,75.91 251.57,75.62 251.59,75.34C251.62,75.06 251.65,74.77 251.69,74.49C251.74,74.2 251.79,73.91 251.86,73.63C251.93,73.34 252.01,73.06 252.09,72.78C252.18,72.5 252.28,72.21 252.37,71.93C252.46,71.65 252.56,71.36 252.64,71.08C252.72,70.8 252.8,70.52 252.85,70.23C252.9,69.95 252.93,69.66 252.93,69.38C252.93,69.09 252.9,68.8 252.85,68.52C252.8,68.23 252.72,67.95 252.64,67.67C252.56,67.39 252.45,67.1 252.36,66.82C252.27,66.54 252.17,66.25 252.09,65.97C252.01,65.69 251.93,65.41 251.86,65.12Q251.79,64.84 251.69,64.26L251.5,64.26" style="vector-effect: none; stroke-width: 2px; stroke: rgb(255, 165, 0); stroke-opacity: 1; fill: rgb(255, 165, 0); fill-opacity: 0.5;"/><path class="meanline" d="M256.648681640625,263.37H251.5" style="fill: none; vector-effect: none; stroke-width: 2px; stroke-dasharray: 4px, 2px; stroke: rgb(255, 165, 0); stroke-opacity: 1;"/><g class="points"><path class="point" transform="translate(311.48,275.48)" d="M3,0A3,3 0 1,1 0,-3A3,3 0 0,1 3,0Z" style="opacity: 1; stroke-width: 0px; fill: rgb(255, 165, 0); fill-opacity: 1;"/><path class="point" transform="translate(302.25,275.48)" d="M3,0A3,3 0 1,1 0,-3A3,3 0 0,1 3,0Z" style="opacity: 1; stroke-width: 0px; fill: rgb(255, 165, 0); fill-opacity: 1;"/><path class="point" transform="translate(313.52,275.48)" d="M3,0A3,3 0 1,1 0,-3A3,3 0 0,1 3,0Z" style="opacity: 1; stroke-width: 0px; fill: rgb(255, 165, 0); fill-opacity: 1;"/><path class="point" transform="translate(300.59,275.26)" d="M3,0A3,3 0 1,1 0,-3A3,3 0 0,1 3,0Z" style="opacity: 1; stroke-width: 0px; fill: rgb(255, 165, 0); fill-opacity: 1;"/><path class="point" transform="translate(305.37,275.26)" d="M3,0A3,3 0 1,1 0,-3A3,3 0 0,1 3,0Z" style="opacity: 1; stroke-width: 0px; fill: rgb(255, 165, 0); fill-opacity: 1;"/><path class="point" transform="translate(311.53,275.26)" d="M3,0A3,3 0 1,1 0,-3A3,3 0 0,1 3,0Z" style="opacity: 1; stroke-width: 0px; fill: rgb(255, 165, 0); fill-opacity: 1;"/><path class="point" transform="translate(307.04,275.26)" d="M3,0A3,3 0 1,1 0,-3A3,3 0 0,1 3,0Z" style="opacity: 1; stroke-width: 0px; fill: rgb(255, 165, 0); fill-opacity: 1;"/><path class="point" transform="translate(309.65,275.26)" d="M3,0A3,3 0 1,1 0,-3A3,3 0 0,1 3,0Z" style="opacity: 1; stroke-width: 0px; fill: rgb(255, 165, 0); fill-opacity: 1;"/><path class="point" transform="translate(304.79,275.26)" d="M3,0A3,3 0 1,1 0,-3A3,3 0 0,1 3,0Z" style="opacity: 1; stroke-width: 0px; fill: rgb(255, 165, 0); fill-opacity: 1;"/><path class="point" transform="translate(301.49,275.03)" d="M3,0A3,3 0 1,1 0,-3A3,3 0 0,1 3,0Z" style="opacity: 1; stroke-width: 0px; fill: rgb(255, 165, 0); fill-opacity: 1;"/><path class="point" transform="translate(309.47,275.03)" d="M3,0A3,3 0 1,1 0,-3A3,3 0 0,1 3,0Z" style="opacity: 1; stroke-width: 0px; fill: rgb(255, 165, 0); fill-opacity: 1;"/><path class="point" transform="translate(304.71,275.03)" d="M3,0A3,3 0 1,1 0,-3A3,3 0 0,1 3,0Z" style="opacity: 1; stroke-width: 0px; fill: rgb(255, 165, 0); fill-opacity: 1;"/><path class="point" transform="translate(312.39,275.03)" d="M3,0A3,3 0 1,1 0,-3A3,3 0 0,1 3,0Z" style="opacity: 1; stroke-width: 0px; fill: rgb(255, 165, 0); fill-opacity: 1;"/><path class="point" transform="translate(299.57,274.81)" d="M3,0A3,3 0 1,1 0,-3A3,3 0 0,1 3,0Z" style="opacity: 1; stroke-width: 0px; fill: rgb(255, 165, 0); fill-opacity: 1;"/><path class="point" transform="translate(302.72,274.81)" d="M3,0A3,3 0 1,1 0,-3A3,3 0 0,1 3,0Z" style="opacity: 1; stroke-width: 0px; fill: rgb(255, 165, 0); fill-opacity: 1;"/><path class="point" transform="translate(314.39,274.58)" d="M3,0A3,3 0 1,1 0,-3A3,3 0 0,1 3,0Z" style="opacity: 1; stroke-width: 0px; fill: rgb(255, 165, 0); fill-opacity: 1;"/><path class="point" transform="translate(305.34,274.58)" d="M3,0A3,3 0 1,1 0,-3A3,3 0 0,1 3,0Z" style="opacity: 1; stroke-width: 0px; fill: rgb(255, 165, 0); fill-opacity: 1;"/><path class="point" transform="translate(300.49,274.58)" d="M3,0A3,3 0 1,1 0,-3A3,3 0 0,1 3,0Z" style="opacity: 1; stroke-width: 0px; fill: rgb(255, 165, 0); fill-opacity: 1;"/><path class="point" transform="translate(304.7,274.36)" d="M3,0A3,3 0 1,1 0,-3A3,3 0 0,1 3,0Z" style="opacity: 1; stroke-width: 0px; fill: rgb(255, 165, 0); fill-opacity: 1;"/><path class="point" transform="translate(307.17,274.36)" d="M3,0A3,3 0 1,1 0,-3A3,3 0 0,1 3,0Z" style="opacity: 1; stroke-width: 0px; fill: rgb(255, 165, 0); fill-opacity: 1;"/><path class="point" transform="translate(310.93,274.36)" d="M3,0A3,3 0 1,1 0,-3A3,3 0 0,1 3,0Z" style="opacity: 1; stroke-width: 0px; fill: rgb(255, 165, 0); fill-opacity: 1;"/><path class="point" transform="translate(308.22,274.13)" d="M3,0A3,3 0 1,1 0,-3A3,3 0 0,1 3,0Z" style="opacity: 1; stroke-width: 0px; fill: rgb(255, 165, 0); fill-opacity: 1;"/><path class="point" transform="translate(305.09,274.13)" d="M3,0A3,3 0 1,1 0,-3A3,3 0 0,1 3,0Z" style="opacity: 1; stroke-width: 0px; fill: rgb(255, 165, 0); fill-opacity: 1;"/><path class="point" transform="translate(300.95,274.13)" d="M3,0A3,3 0 1,1 0,-3A3,3 0 0,1 3,0Z" style="opacity: 1; stroke-width: 0px; fill: rgb(255, 165, 0); fill-opacity: 1;"/><path class="point" transform="translate(307.32,273.91)" d="M3,0A3,3 0 1,1 0,-3A3,3 0 0,1 3,0Z" style="opacity: 1; stroke-width: 0px; fill: rgb(255, 165, 0); fill-opacity: 1;"/><path class="point" transform="translate(305.8,272.79)" d="M3,0A3,3 0 1,1 0,-3A3,3 0 0,1 3,0Z" style="opacity: 1; stroke-width: 0px; fill: rgb(255, 165, 0); fill-opacity: 1;"/><path class="point" transform="translate(309.54,272.79)" d="M3,0A3,3 0 1,1 0,-3A3,3 0 0,1 3,0Z" style="opacity: 1; stroke-width: 0px; fill: rgb(255, 165, 0); fill-opacity: 1;"/><path class="point" transform="translate(306.92,272.56)" d="M3,0A3,3 0 1,1 0,-3A3,3 0 0,1 3,0Z" style="opacity: 1; stroke-width: 0px; fill: rgb(255, 165, 0); fill-opacity: 1;"/><path class="point" transform="translate(304.45,272.11)" d="M3,0A3,3 0 1,1 0,-3A3,3 0 0,1 3,0Z" style="opacity: 1; stroke-width: 0px; fill: rgb(255, 165, 0); fill-opacity: 1;"/><path class="point" transform="translate(303.58,270.99)" d="M3,0A3,3 0 1,1 0,-3A3,3 0 0,1 3,0Z" style="opacity: 1; stroke-width: 0px; fill: rgb(255, 165, 0); fill-opacity: 1;"/><path class="point" transform="translate(309.75,269.64)" d="M3,0A3,3 0 1,1 0,-3A3,3 0 0,1 3,0Z" style="opacity: 1; stroke-width: 0px; fill: rgb(255, 165, 0); fill-opacity: 1;"/><path class="point" transform="translate(304.45,268.29)" d="M3,0A3,3 0 1,1 0,-3A3,3 0 0,1 3,0Z" style="opacity: 1; stroke-width: 0px; fill: rgb(255, 165, 0); fill-opacity: 1;"/><path class="point" transform="translate(309.33,268.07)" d="M3,0A3,3 0 1,1 0,-3A3,3 0 0,1 3,0Z" style="opacity: 1; stroke-width: 0px; fill: rgb(255, 165, 0); fill-opacity: 1;"/><path class="point" transform="translate(308.03,267.39)" d="M3,0A3,3 0 1,1 0,-3A3,3 0 0,1 3,0Z" style="opacity: 1; stroke-width: 0px; fill: rgb(255, 165, 0); fill-opacity: 1;"/><path class="point" transform="translate(306.73,265.82)" d="M3,0A3,3 0 1,1 0,-3A3,3 0 0,1 3,0Z" style="opacity: 1; stroke-width: 0px; fill: rgb(255, 165, 0); fill-opacity: 1;"/><path class="point" transform="translate(306.39,265.59)" d="M3,0A3,3 0 1,1 0,-3A3,3 0 0,1 3,0Z" style="opacity: 1; stroke-width: 0px; fill: rgb(255, 165, 0); fill-opacity: 1;"/><path class="point" transform="translate(307.89,261.32)" d="M3,0A3,3 0 1,1 0,-3A3,3 0 0,1 3,0Z" style="opacity: 1; stroke-width: 0px; fill: rgb(255, 165, 0); fill-opacity: 1;"/><path class="point" transform="translate(307.25,260.87)" d="M3,0A3,3 0 1,1 0,-3A3,3 0 0,1 3,0Z" style="opacity: 1; stroke-width: 0px; fill: rgb(255, 165, 0); fill-opacity: 1;"/><path class="point" transform="translate(307.87,259.08)" d="M3,0A3,3 0 1,1 0,-3A3,3 0 0,1 3,0Z" style="opacity: 1; stroke-width: 0px; fill: rgb(255, 165, 0); fill-opacity: 1;"/><path class="point" transform="translate(306.72,239.3)" d="M3,0A3,3 0 1,1 0,-3A3,3 0 0,1 3,0Z" style="opacity: 1; stroke-width: 0px; fill: rgb(255, 165, 0); fill-opacity: 1;"/><path class="point" transform="translate(307.77,218.17)" d="M3,0A3,3 0 1,1 0,-3A3,3 0 0,1 3,0Z" style="opacity: 1; stroke-width: 0px; fill: rgb(255, 165, 0); fill-opacity: 1;"/><path class="point" transform="translate(307.28,179.96)" d="M3,0A3,3 0 1,1 0,-3A3,3 0 0,1 3,0Z" style="opacity: 1; stroke-width: 0px; fill: rgb(255, 165, 0); fill-opacity: 1;"/><path class="point" transform="translate(307.11,69.38)" d="M3,0A3,3 0 1,1 0,-3A3,3 0 0,1 3,0Z" style="opacity: 1; stroke-width: 0px; fill: rgb(255, 165, 0); fill-opacity: 1;"/></g></g><g class="trace violins" style="opacity: 1;"><path class="violin" d="M411.04,254.14L410.82,254.14Q410.71,254.22 410.64,254.25C410.56,254.29 410.47,254.32 410.38,254.36C410.28,254.4 410.17,254.43 410.06,254.47C409.96,254.51 409.84,254.54 409.75,254.58C409.67,254.61 409.58,254.65 409.52,254.69C409.48,254.72 409.43,254.76 409.43,254.8C409.43,254.84 409.48,254.89 409.52,254.92C409.58,254.97 409.67,255 409.75,255.03C409.84,255.07 409.96,255.1 410.06,255.14C410.16,255.18 410.27,255.21 410.37,255.25C410.46,255.29 410.55,255.32 410.63,255.36C410.7,255.39 410.77,255.43 410.82,255.47C410.86,255.5 410.9,255.54 410.93,255.58C410.96,255.61 410.97,255.65 410.99,255.69C411,255.73 411.01,255.76 411.02,255.8C411.03,255.84 411.03,255.88 411.03,255.92C411.03,255.96 411.03,255.99 411.03,256.03C411.03,256.07 411.04,256.1 411.04,256.14C411.04,256.18 411.04,256.21 411.04,256.25C411.04,256.29 411.04,256.32 411.04,256.36C411.04,256.4 411.04,256.43 411.04,256.47C411.04,256.51 411.04,256.54 411.04,256.58C411.04,256.62 411.04,256.65 411.04,256.69C411.04,256.73 411.04,256.77 411.04,256.81C411.04,256.85 411.04,256.88 411.04,256.92C411.04,256.96 411.04,256.99 411.04,257.03C411.04,257.07 411.04,257.1 411.04,257.14C411.04,257.18 411.04,257.21 411.04,257.25C411.04,257.29 411.04,257.32 411.04,257.36C411.04,257.4 411.04,257.43 411.04,257.47C411.04,257.51 411.04,257.54 411.04,257.58C411.04,257.62 411.04,257.65 411.04,257.69C411.04,257.73 411.04,257.77 411.04,257.81C411.04,257.85 411.04,257.88 411.04,257.92C411.04,257.96 411.04,257.99 411.04,258.03C411.04,258.07 411.04,258.1 411.04,258.14C411.04,258.18 411.04,258.21 411.04,258.25C411.04,258.29 411.04,258.32 411.04,258.36C411.04,258.4 411.04,258.43 411.04,258.47C411.04,258.51 411.04,258.54 411.04,258.58C411.04,258.62 411.04,258.66 411.04,258.7C411.04,258.74 411.04,258.77 411.04,258.81C411.04,258.85 411.04,258.88 411.04,258.92C411.04,258.96 411.04,258.99 411.04,259.03C411.04,259.07 411.04,259.1 411.04,259.14C411.04,259.18 411.04,259.21 411.04,259.25C411.04,259.29 411.04,259.32 411.04,259.36C411.04,259.4 411.04,259.43 411.04,259.47C411.04,259.51 411.04,259.55 411.04,259.59C411.04,259.63 411.04,259.66 411.04,259.7C411.04,259.74 411.04,259.77 411.04,259.81C411.04,259.85 411.04,259.88 411.04,259.92C411.04,259.96 411.04,259.99 411.04,260.03C411.04,260.07 411.04,260.1 411.04,260.14C411.04,260.18 411.04,260.21 411.04,260.25C411.04,260.29 411.04,260.32 411.04,260.36C411.04,260.4 411.04,260.43 411.04,260.47C411.04,260.51 411.04,260.55 411.04,260.59C411.04,260.63 411.04,260.66 411.04,260.7C411.04,260.74 411.04,260.77 411.04,260.81C411.04,260.85 411.04,260.88 411.04,260.92C411.04,260.96 411.04,260.99 411.04,261.03C411.04,261.07 411.04,261.1 411.04,261.14C411.04,261.18 411.04,261.21 411.04,261.25C411.04,261.29 411.04,261.32 411.04,261.36C411.04,261.4 411.04,261.44 411.04,261.48C411.04,261.52 411.04,261.55 411.04,261.59C411.04,261.63 411.04,261.66 411.04,261.7C411.04,261.74 411.04,261.77 411.04,261.81C411.04,261.85 411.04,261.88 411.04,261.92C411.04,261.96 411.04,261.99 411.04,262.03C411.04,262.07 411.04,262.1 411.04,262.14C411.04,262.18 411.04,262.21 411.04,262.25C411.04,262.29 411.04,262.32 411.04,262.36C411.04,262.4 411.04,262.44 411.04,262.48C411.04,262.52 411.04,262.55 411.04,262.59C411.04,262.63 411.04,262.66 411.04,262.7C411.04,262.74 411.04,262.77 411.04,262.81C411.04,262.85 411.04,262.88 411.04,262.92C411.04,262.96 411.04,262.99 411.04,263.03C411.04,263.07 411.04,263.1 411.04,263.14C411.04,263.18 411.04,263.21 411.04,263.25C411.04,263.29 411.04,263.33 411.04,263.37C411.04,263.41 411.04,263.44 411.04,263.48C411.04,263.52 411.04,263.55 411.04,263.59C411.04,263.63 411.04,263.66 411.04,263.7C411.04,263.74 411.04,263.77 411.04,263.81C411.04,263.85 411.04,263.88 411.04,263.92C411.04,263.96 411.04,263.99 411.04,264.03C411.04,264.07 411.04,264.1 411.04,264.14C411.04,264.18 411.04,264.21 411.04,264.25C411.04,264.29 411.03,264.33 411.03,264.37C411.03,264.41 411.03,264.44 411.03,264.48C411.03,264.52 411.03,264.55 411.02,264.59C411.01,264.63 411,264.66 410.99,264.7C410.97,264.74 410.96,264.78 410.93,264.81C410.9,264.85 410.86,264.89 410.82,264.92C410.77,264.96 410.71,265 410.64,265.03C410.56,265.07 410.48,265.1 410.39,265.14C410.29,265.18 410.18,265.22 410.07,265.26C409.97,265.3 409.85,265.33 409.76,265.37C409.68,265.4 409.59,265.44 409.53,265.48C409.49,265.51 409.43,265.55 409.43,265.59C409.43,265.63 409.47,265.67 409.51,265.7C409.56,265.74 409.66,265.78 409.74,265.81C409.83,265.85 409.95,265.88 410.05,265.92C410.15,265.96 410.26,265.99 410.36,266.03C410.45,266.07 410.54,266.1 410.62,266.14C410.69,266.18 410.76,266.22 410.81,266.26C410.86,266.3 410.9,266.33 410.93,266.37C410.96,266.4 410.97,266.44 410.99,266.48C411,266.52 411.01,266.55 411.02,266.59C411.03,266.63 411.03,266.66 411.03,266.7C411.03,266.74 411.03,266.77 411.03,266.81C411.03,266.85 411.04,266.88 411.04,266.92C411.04,266.96 411.04,266.99 411.04,267.03C411.04,267.07 411.04,267.11 411.04,267.15C411.04,267.19 411.04,267.22 411.04,267.26C411.04,267.3 411.04,267.33 411.04,267.37C411.04,267.41 411.04,267.44 411.04,267.48C411.04,267.52 411.04,267.55 411.04,267.59C411.04,267.63 411.04,267.66 411.04,267.7C411.04,267.74 411.04,267.77 411.04,267.81C411.04,267.85 411.04,267.88 411.04,267.92C411.04,267.96 411.04,268 411.04,268.04C411.04,268.08 411.04,268.11 411.04,268.15C411.04,268.19 411.04,268.22 411.04,268.26C411.04,268.3 411.04,268.33 411.04,268.37C411.04,268.41 411.04,268.44 411.04,268.48C411.04,268.52 411.04,268.55 411.04,268.59C411.04,268.63 411.04,268.66 411.04,268.7C411.04,268.74 411.04,268.77 411.04,268.81C411.04,268.85 411.04,268.88 411.04,268.92C411.04,268.96 411.04,269 411.04,269.04C411.04,269.08 411.04,269.11 411.04,269.15C411.04,269.19 411.04,269.22 411.04,269.26C411.04,269.3 411.04,269.33 411.04,269.37C411.04,269.41 411.04,269.44 411.04,269.48C411.04,269.52 411.04,269.55 411.04,269.59C411.04,269.63 411.04,269.66 411.04,269.7C411.04,269.74 411.04,269.77 411.04,269.81C411.04,269.85 411.04,269.89 411.04,269.93C411.04,269.97 411.04,270 411.04,270.04C411.04,270.08 411.04,270.11 411.04,270.15C411.04,270.19 411.04,270.22 411.04,270.26C411.04,270.3 411.04,270.33 411.04,270.37C411.04,270.41 411.04,270.44 411.04,270.48C411.04,270.52 411.04,270.55 411.04,270.59C411.04,270.63 411.04,270.66 411.04,270.7C411.04,270.74 411.03,270.77 411.03,270.81C411.03,270.85 411.03,270.89 411.03,270.93C411.03,270.97 411.03,271 411.03,271.04C411.03,271.08 411.02,271.11 411.01,271.15C411,271.19 410.98,271.22 410.96,271.26C410.94,271.3 410.91,271.34 410.87,271.37C410.82,271.41 410.77,271.45 410.7,271.48C410.62,271.52 410.52,271.56 410.42,271.59C410.3,271.63 410.15,271.66 410,271.7C409.83,271.74 409.64,271.78 409.45,271.82C409.25,271.86 409.04,271.89 408.84,271.93C408.64,271.97 408.43,272 408.24,272.04C408.07,272.08 407.9,272.11 407.75,272.15C407.63,272.18 407.51,272.22 407.42,272.26C407.35,272.29 407.29,272.33 407.25,272.37C407.21,272.4 407.19,272.44 407.17,272.48C407.15,272.52 407.13,272.55 407.12,272.59C407.11,272.63 407.1,272.66 407.09,272.7C407.08,272.74 407.07,272.78 407.07,272.82C407.07,272.86 407.08,272.9 407.1,272.93C407.12,272.97 407.16,273 407.19,273.04C407.22,273.08 407.27,273.11 407.3,273.15C407.33,273.19 407.36,273.22 407.37,273.26C407.38,273.3 407.37,273.34 407.35,273.37C407.33,273.41 407.27,273.45 407.22,273.48C407.16,273.52 407.08,273.55 407.01,273.59C406.94,273.63 406.86,273.67 406.79,273.71C406.72,273.75 406.66,273.78 406.6,273.82C406.54,273.86 406.5,273.9 406.44,273.93C406.36,273.97 406.28,274.01 406.17,274.04C406.01,274.09 405.81,274.12 405.57,274.15C405.24,274.2 404.81,274.23 404.35,274.26C403.76,274.3 403.05,274.34 402.3,274.37C401.4,274.41 400.39,274.44 399.34,274.48C398.16,274.52 396.87,274.56 395.56,274.6C394.14,274.64 392.65,274.67 391.14,274.71C389.57,274.75 387.93,274.78 386.31,274.82C384.67,274.86 382.97,274.89 381.35,274.93C379.78,274.97 378.17,275 376.72,275.04C375.43,275.07 374.07,275.11 373.05,275.15C372.31,275.18 371.15,275.2 371.15,275.26C371.15,275.29 371.44,275.34 371.71,275.37C372.35,275.44 373.75,275.45 374.99,275.48C376.6,275.52 378.61,275.56 380.56,275.6C382.73,275.64 385.13,275.67 387.42,275.71C389.73,275.75 392.13,275.78 394.36,275.82C396.43,275.86 398.49,275.89 400.34,275.93C401.94,275.96 403.49,276 404.83,276.04Q405.92,276.07 407.78,276.15L411.04,276.15" style="vector-effect: none; stroke-width: 2px; stroke: rgb(128, 0, 0); stroke-opacity: 1; fill: rgb(128, 0, 0); fill-opacity: 0.5;"/><path class="meanline" d="M405.6474914550781,274.14H411.04" style="fill: none; vector-effect: none; stroke-width: 2px; stroke-dasharray: 4px, 2px; stroke: rgb(128, 0, 0); stroke-opacity: 1;"/><g class="points"><path class="point" transform="translate(359.34,275.48)" d="M3,0A3,3 0 1,1 0,-3A3,3 0 0,1 3,0Z" style="opacity: 1; stroke-width: 0px; fill: rgb(128, 0, 0); fill-opacity: 1;"/><path class="point" transform="translate(350.11,275.48)" d="M3,0A3,3 0 1,1 0,-3A3,3 0 0,1 3,0Z" style="opacity: 1; stroke-width: 0px; fill: rgb(128, 0, 0); fill-opacity: 1;"/><path class="point" transform="translate(361.38,275.48)" d="M3,0A3,3 0 1,1 0,-3A3,3 0 0,1 3,0Z" style="opacity: 1; stroke-width: 0px; fill: rgb(128, 0, 0); fill-opacity: 1;"/><path class="point" transform="translate(348.45,275.48)" d="M3,0A3,3 0 1,1 0,-3A3,3 0 0,1 3,0Z" style="opacity: 1; stroke-width: 0px; fill: rgb(128, 0, 0); fill-opacity: 1;"/><path class="point" transform="translate(353.23,275.48)" d="M3,0A3,3 0 1,1 0,-3A3,3 0 0,1 3,0Z" style="opacity: 1; stroke-width: 0px; fill: rgb(128, 0, 0); fill-opacity: 1;"/><path class="point" transform="translate(359.39,275.48)" d="M3,0A3,3 0 1,1 0,-3A3,3 0 0,1 3,0Z" style="opacity: 1; stroke-width: 0px; fill: rgb(128, 0, 0); fill-opacity: 1;"/><path class="point" transform="translate(354.9,275.48)" d="M3,0A3,3 0 1,1 0,-3A3,3 0 0,1 3,0Z" style="opacity: 1; stroke-width: 0px; fill: rgb(128, 0, 0); fill-opacity: 1;"/><path class="point" transform="translate(357.51,275.48)" d="M3,0A3,3 0 1,1 0,-3A3,3 0 0,1 3,0Z" style="opacity: 1; stroke-width: 0px; fill: rgb(128, 0, 0); fill-opacity: 1;"/><path class="point" transform="translate(352.76,275.48)" d="M3,0A3,3 0 1,1 0,-3A3,3 0 0,1 3,0Z" style="opacity: 1; stroke-width: 0px; fill: rgb(128, 0, 0); fill-opacity: 1;"/><path class="point" transform="translate(349.59,275.48)" d="M3,0A3,3 0 1,1 0,-3A3,3 0 0,1 3,0Z" style="opacity: 1; stroke-width: 0px; fill: rgb(128, 0, 0); fill-opacity: 1;"/><path class="point" transform="translate(357.24,275.48)" d="M3,0A3,3 0 1,1 0,-3A3,3 0 0,1 3,0Z" style="opacity: 1; stroke-width: 0px; fill: rgb(128, 0, 0); fill-opacity: 1;"/><path class="point" transform="translate(352.68,275.48)" d="M3,0A3,3 0 1,1 0,-3A3,3 0 0,1 3,0Z" style="opacity: 1; stroke-width: 0px; fill: rgb(128, 0, 0); fill-opacity: 1;"/><path class="point" transform="translate(360.05,275.48)" d="M3,0A3,3 0 1,1 0,-3A3,3 0 0,1 3,0Z" style="opacity: 1; stroke-width: 0px; fill: rgb(128, 0, 0); fill-opacity: 1;"/><path class="point" transform="translate(347.75,275.26)" d="M3,0A3,3 0 1,1 0,-3A3,3 0 0,1 3,0Z" style="opacity: 1; stroke-width: 0px; fill: rgb(128, 0, 0); fill-opacity: 1;"/><path class="point" transform="translate(350.77,275.26)" d="M3,0A3,3 0 1,1 0,-3A3,3 0 0,1 3,0Z" style="opacity: 1; stroke-width: 0px; fill: rgb(128, 0, 0); fill-opacity: 1;"/><path class="point" transform="translate(361.97,275.26)" d="M3,0A3,3 0 1,1 0,-3A3,3 0 0,1 3,0Z" style="opacity: 1; stroke-width: 0px; fill: rgb(128, 0, 0); fill-opacity: 1;"/><path class="point" transform="translate(353.28,275.26)" d="M3,0A3,3 0 1,1 0,-3A3,3 0 0,1 3,0Z" style="opacity: 1; stroke-width: 0px; fill: rgb(128, 0, 0); fill-opacity: 1;"/><path class="point" transform="translate(350.55,275.26)" d="M3,0A3,3 0 1,1 0,-3A3,3 0 0,1 3,0Z" style="opacity: 1; stroke-width: 0px; fill: rgb(128, 0, 0); fill-opacity: 1;"/><path class="point" transform="translate(352.67,275.26)" d="M3,0A3,3 0 1,1 0,-3A3,3 0 0,1 3,0Z" style="opacity: 1; stroke-width: 0px; fill: rgb(128, 0, 0); fill-opacity: 1;"/><path class="point" transform="translate(355.03,275.26)" d="M3,0A3,3 0 1,1 0,-3A3,3 0 0,1 3,0Z" style="opacity: 1; stroke-width: 0px; fill: rgb(128, 0, 0); fill-opacity: 1;"/><path class="point" transform="translate(358.64,275.26)" d="M3,0A3,3 0 1,1 0,-3A3,3 0 0,1 3,0Z" style="opacity: 1; stroke-width: 0px; fill: rgb(128, 0, 0); fill-opacity: 1;"/><path class="point" transform="translate(355.8,275.26)" d="M3,0A3,3 0 1,1 0,-3A3,3 0 0,1 3,0Z" style="opacity: 1; stroke-width: 0px; fill: rgb(128, 0, 0); fill-opacity: 1;"/><path class="point" transform="translate(353.67,275.03)" d="M3,0A3,3 0 1,1 0,-3A3,3 0 0,1 3,0Z" style="opacity: 1; stroke-width: 0px; fill: rgb(128, 0, 0); fill-opacity: 1;"/><path class="point" transform="translate(350.68,275.03)" d="M3,0A3,3 0 1,1 0,-3A3,3 0 0,1 3,0Z" style="opacity: 1; stroke-width: 0px; fill: rgb(128, 0, 0); fill-opacity: 1;"/><path class="point" transform="translate(355.18,275.03)" d="M3,0A3,3 0 1,1 0,-3A3,3 0 0,1 3,0Z" style="opacity: 1; stroke-width: 0px; fill: rgb(128, 0, 0); fill-opacity: 1;"/><path class="point" transform="translate(353.62,275.03)" d="M3,0A3,3 0 1,1 0,-3A3,3 0 0,1 3,0Z" style="opacity: 1; stroke-width: 0px; fill: rgb(128, 0, 0); fill-opacity: 1;"/><path class="point" transform="translate(357.25,274.81)" d="M3,0A3,3 0 1,1 0,-3A3,3 0 0,1 3,0Z" style="opacity: 1; stroke-width: 0px; fill: rgb(128, 0, 0); fill-opacity: 1;"/><path class="point" transform="translate(354.72,274.81)" d="M3,0A3,3 0 1,1 0,-3A3,3 0 0,1 3,0Z" style="opacity: 1; stroke-width: 0px; fill: rgb(128, 0, 0); fill-opacity: 1;"/><path class="point" transform="translate(352.96,274.81)" d="M3,0A3,3 0 1,1 0,-3A3,3 0 0,1 3,0Z" style="opacity: 1; stroke-width: 0px; fill: rgb(128, 0, 0); fill-opacity: 1;"/><path class="point" transform="translate(352.01,274.81)" d="M3,0A3,3 0 1,1 0,-3A3,3 0 0,1 3,0Z" style="opacity: 1; stroke-width: 0px; fill: rgb(128, 0, 0); fill-opacity: 1;"/><path class="point" transform="translate(356.83,274.81)" d="M3,0A3,3 0 1,1 0,-3A3,3 0 0,1 3,0Z" style="opacity: 1; stroke-width: 0px; fill: rgb(128, 0, 0); fill-opacity: 1;"/><path class="point" transform="translate(352.89,274.58)" d="M3,0A3,3 0 1,1 0,-3A3,3 0 0,1 3,0Z" style="opacity: 1; stroke-width: 0px; fill: rgb(128, 0, 0); fill-opacity: 1;"/><path class="point" transform="translate(356.71,274.58)" d="M3,0A3,3 0 1,1 0,-3A3,3 0 0,1 3,0Z" style="opacity: 1; stroke-width: 0px; fill: rgb(128, 0, 0); fill-opacity: 1;"/><path class="point" transform="translate(355.7,273.91)" d="M3,0A3,3 0 1,1 0,-3A3,3 0 0,1 3,0Z" style="opacity: 1; stroke-width: 0px; fill: rgb(128, 0, 0); fill-opacity: 1;"/><path class="point" transform="translate(354.54,273.91)" d="M3,0A3,3 0 1,1 0,-3A3,3 0 0,1 3,0Z" style="opacity: 1; stroke-width: 0px; fill: rgb(128, 0, 0); fill-opacity: 1;"/><path class="point" transform="translate(354.49,273.46)" d="M3,0A3,3 0 1,1 0,-3A3,3 0 0,1 3,0Z" style="opacity: 1; stroke-width: 0px; fill: rgb(128, 0, 0); fill-opacity: 1;"/><path class="point" transform="translate(355.57,273.01)" d="M3,0A3,3 0 1,1 0,-3A3,3 0 0,1 3,0Z" style="opacity: 1; stroke-width: 0px; fill: rgb(128, 0, 0); fill-opacity: 1;"/><path class="point" transform="translate(355.12,272.79)" d="M3,0A3,3 0 1,1 0,-3A3,3 0 0,1 3,0Z" style="opacity: 1; stroke-width: 0px; fill: rgb(128, 0, 0); fill-opacity: 1;"/><path class="point" transform="translate(355.71,272.34)" d="M3,0A3,3 0 1,1 0,-3A3,3 0 0,1 3,0Z" style="opacity: 1; stroke-width: 0px; fill: rgb(128, 0, 0); fill-opacity: 1;"/><path class="point" transform="translate(354.61,272.11)" d="M3,0A3,3 0 1,1 0,-3A3,3 0 0,1 3,0Z" style="opacity: 1; stroke-width: 0px; fill: rgb(128, 0, 0); fill-opacity: 1;"/><path class="point" transform="translate(355.61,265.59)" d="M3,0A3,3 0 1,1 0,-3A3,3 0 0,1 3,0Z" style="opacity: 1; stroke-width: 0px; fill: rgb(128, 0, 0); fill-opacity: 1;"/><path class="point" transform="translate(355.15,254.81)" d="M3,0A3,3 0 1,1 0,-3A3,3 0 0,1 3,0Z" style="opacity: 1; stroke-width: 0px; fill: rgb(128, 0, 0); fill-opacity: 1;"/></g></g><g class="trace violins" style="opacity: 1;"><path class="violin" d="M411.04,275.65L416.37,275.65Q419.21,275.63 420.82,275.62C422.74,275.61 424.93,275.61 427.14,275.6C429.57,275.59 432.23,275.58 434.78,275.57C437.33,275.56 440.06,275.55 442.45,275.54C444.55,275.53 446.79,275.52 448.35,275.51C449.38,275.5 450.92,275.49 450.92,275.48C450.92,275.47 450.19,275.47 449.63,275.46C448.61,275.45 446.82,275.44 445.28,275.43C443.54,275.42 441.5,275.41 439.7,275.4C438.01,275.39 436.24,275.38 434.8,275.37C433.67,275.36 432.54,275.36 431.78,275.35C431.32,275.34 430.83,275.35 430.67,275.32C430.63,275.31 430.62,275.3 430.59,275.29C430.53,275.28 430.45,275.27 430.34,275.26C430.09,275.24 429.6,275.24 429.13,275.23C428.5,275.22 427.67,275.22 426.88,275.21C426.01,275.2 425.02,275.19 424.13,275.18C423.28,275.17 422.4,275.16 421.66,275.15C421.05,275.14 420.45,275.13 420,275.12C419.7,275.11 419.42,275.11 419.24,275.1C419.14,275.09 419.09,275.08 419.02,275.07C418.97,275.06 418.93,275.05 418.87,275.04C418.76,275.03 418.58,275.02 418.4,275.01C418.16,275 417.85,274.99 417.56,274.98C417.23,274.97 416.86,274.97 416.53,274.96C416.22,274.95 415.89,274.94 415.62,274.93C415.41,274.92 415.2,274.91 415.06,274.9C414.98,274.89 414.87,274.89 414.86,274.87C414.86,274.86 414.88,274.86 414.88,274.85C414.88,274.84 414.87,274.83 414.86,274.82C414.83,274.8 414.72,274.8 414.63,274.79C414.5,274.78 414.32,274.77 414.14,274.76C413.93,274.75 413.69,274.74 413.46,274.73C413.23,274.72 412.98,274.72 412.75,274.71C412.53,274.7 412.31,274.69 412.12,274.68C411.95,274.67 411.79,274.66 411.65,274.65C411.54,274.64 411.44,274.63 411.36,274.62C411.3,274.61 411.24,274.61 411.21,274.6C411.19,274.59 411.18,274.58 411.18,274.57C411.18,274.56 411.21,274.55 411.23,274.54C411.27,274.53 411.32,274.52 411.38,274.51C411.45,274.5 411.54,274.49 411.63,274.48C411.73,274.47 411.84,274.47 411.95,274.46C412.07,274.45 412.19,274.44 412.31,274.43C412.42,274.42 412.53,274.41 412.62,274.4C412.69,274.39 412.79,274.39 412.8,274.37C412.8,274.36 412.8,274.36 412.8,274.35C412.79,274.33 412.69,274.33 412.62,274.32C412.53,274.31 412.42,274.3 412.31,274.29C412.19,274.28 412.07,274.27 411.95,274.26C411.84,274.25 411.73,274.24 411.63,274.23C411.54,274.22 411.45,274.22 411.38,274.21C411.32,274.2 411.26,274.19 411.22,274.18C411.19,274.17 411.16,274.16 411.15,274.15C411.14,274.14 411.14,274.13 411.14,274.12C411.15,274.11 411.18,274.11 411.2,274.1C411.24,274.09 411.29,274.08 411.35,274.07C411.42,274.06 411.5,274.05 411.58,274.04C411.68,274.03 411.78,274.02 411.89,274.01C412,274 412.12,273.99 412.24,273.98C412.35,273.97 412.47,273.97 412.57,273.96C412.65,273.95 412.74,273.95 412.78,273.93C412.8,273.92 412.82,273.91 412.82,273.9C412.82,273.88 412.72,273.88 412.66,273.87C412.58,273.86 412.47,273.86 412.37,273.85C412.26,273.84 412.14,273.83 412.02,273.82C411.91,273.81 411.79,273.8 411.68,273.79C411.59,273.78 411.5,273.77 411.42,273.76C411.35,273.75 411.29,273.74 411.24,273.73C411.2,273.72 411.16,273.72 411.13,273.71C411.11,273.7 411.09,273.69 411.08,273.68C411.07,273.67 411.06,273.66 411.05,273.65C411.04,273.64 411.04,273.63 411.04,273.62C411.04,273.61 411.04,273.61 411.04,273.6C411.04,273.59 411.04,273.58 411.04,273.57C411.04,273.56 411.04,273.55 411.04,273.54C411.04,273.53 411.04,273.52 411.04,273.51C411.04,273.5 411.05,273.49 411.06,273.48C411.07,273.47 411.08,273.47 411.09,273.46C411.11,273.45 411.13,273.44 411.16,273.43C411.2,273.42 411.24,273.41 411.29,273.4C411.35,273.39 411.42,273.38 411.5,273.37C411.59,273.36 411.7,273.36 411.8,273.35C411.91,273.34 412.03,273.33 412.15,273.32C412.26,273.31 412.39,273.3 412.49,273.29C412.58,273.28 412.68,273.27 412.74,273.26C412.78,273.25 412.83,273.24 412.83,273.23C412.83,273.22 412.76,273.22 412.72,273.21C412.65,273.2 412.55,273.19 412.46,273.18C412.35,273.17 412.23,273.16 412.11,273.15C412,273.14 411.88,273.13 411.77,273.12C411.67,273.11 411.57,273.11 411.48,273.1Q411.41,273.09 411.28,273.07L411.04,273.07" style="vector-effect: none; stroke-width: 2px; stroke: rgb(255, 0, 0); stroke-opacity: 1; fill: rgb(255, 0, 0); fill-opacity: 0.5;"/><path class="meanline" d="M429.1072082519531,275.23H411.04" style="fill: none; vector-effect: none; stroke-width: 2px; stroke-dasharray: 4px, 2px; stroke: rgb(255, 0, 0); stroke-opacity: 1;"/><g class="points"><path class="point" transform="translate(471.01,275.48)" d="M3,0A3,3 0 1,1 0,-3A3,3 0 0,1 3,0Z" style="opacity: 1; stroke-width: 0px; fill: rgb(255, 0, 0); fill-opacity: 1;"/><path class="point" transform="translate(461.79,275.48)" d="M3,0A3,3 0 1,1 0,-3A3,3 0 0,1 3,0Z" style="opacity: 1; stroke-width: 0px; fill: rgb(255, 0, 0); fill-opacity: 1;"/><path class="point" transform="translate(473.06,275.48)" d="M3,0A3,3 0 1,1 0,-3A3,3 0 0,1 3,0Z" style="opacity: 1; stroke-width: 0px; fill: rgb(255, 0, 0); fill-opacity: 1;"/><path class="point" transform="translate(460.13,275.48)" d="M3,0A3,3 0 1,1 0,-3A3,3 0 0,1 3,0Z" style="opacity: 1; stroke-width: 0px; fill: rgb(255, 0, 0); fill-opacity: 1;"/><path class="point" transform="translate(464.91,275.48)" d="M3,0A3,3 0 1,1 0,-3A3,3 0 0,1 3,0Z" style="opacity: 1; stroke-width: 0px; fill: rgb(255, 0, 0); fill-opacity: 1;"/><path class="point" transform="translate(471.06,275.48)" d="M3,0A3,3 0 1,1 0,-3A3,3 0 0,1 3,0Z" style="opacity: 1; stroke-width: 0px; fill: rgb(255, 0, 0); fill-opacity: 1;"/><path class="point" transform="translate(466.58,275.48)" d="M3,0A3,3 0 1,1 0,-3A3,3 0 0,1 3,0Z" style="opacity: 1; stroke-width: 0px; fill: rgb(255, 0, 0); fill-opacity: 1;"/><path class="point" transform="translate(469.19,275.48)" d="M3,0A3,3 0 1,1 0,-3A3,3 0 0,1 3,0Z" style="opacity: 1; stroke-width: 0px; fill: rgb(255, 0, 0); fill-opacity: 1;"/><path class="point" transform="translate(464.33,275.48)" d="M3,0A3,3 0 1,1 0,-3A3,3 0 0,1 3,0Z" style="opacity: 1; stroke-width: 0px; fill: rgb(255, 0, 0); fill-opacity: 1;"/><path class="point" transform="translate(461.03,275.48)" d="M3,0A3,3 0 1,1 0,-3A3,3 0 0,1 3,0Z" style="opacity: 1; stroke-width: 0px; fill: rgb(255, 0, 0); fill-opacity: 1;"/><path class="point" transform="translate(469,275.48)" d="M3,0A3,3 0 1,1 0,-3A3,3 0 0,1 3,0Z" style="opacity: 1; stroke-width: 0px; fill: rgb(255, 0, 0); fill-opacity: 1;"/><path class="point" transform="translate(464.25,275.48)" d="M3,0A3,3 0 1,1 0,-3A3,3 0 0,1 3,0Z" style="opacity: 1; stroke-width: 0px; fill: rgb(255, 0, 0); fill-opacity: 1;"/><path class="point" transform="translate(471.93,275.48)" d="M3,0A3,3 0 1,1 0,-3A3,3 0 0,1 3,0Z" style="opacity: 1; stroke-width: 0px; fill: rgb(255, 0, 0); fill-opacity: 1;"/><path class="point" transform="translate(459.11,275.48)" d="M3,0A3,3 0 1,1 0,-3A3,3 0 0,1 3,0Z" style="opacity: 1; stroke-width: 0px; fill: rgb(255, 0, 0); fill-opacity: 1;"/><path class="point" transform="translate(462.26,275.48)" d="M3,0A3,3 0 1,1 0,-3A3,3 0 0,1 3,0Z" style="opacity: 1; stroke-width: 0px; fill: rgb(255, 0, 0); fill-opacity: 1;"/><path class="point" transform="translate(473.93,275.48)" d="M3,0A3,3 0 1,1 0,-3A3,3 0 0,1 3,0Z" style="opacity: 1; stroke-width: 0px; fill: rgb(255, 0, 0); fill-opacity: 1;"/><path class="point" transform="translate(464.87,275.48)" d="M3,0A3,3 0 1,1 0,-3A3,3 0 0,1 3,0Z" style="opacity: 1; stroke-width: 0px; fill: rgb(255, 0, 0); fill-opacity: 1;"/><path class="point" transform="translate(464.71,275.48)" d="M3,0A3,3 0 1,1 0,-3A3,3 0 0,1 3,0Z" style="opacity: 1; stroke-width: 0px; fill: rgb(255, 0, 0); fill-opacity: 1;"/><path class="point" transform="translate(466.04,275.48)" d="M3,0A3,3 0 1,1 0,-3A3,3 0 0,1 3,0Z" style="opacity: 1; stroke-width: 0px; fill: rgb(255, 0, 0); fill-opacity: 1;"/><path class="point" transform="translate(466.82,275.48)" d="M3,0A3,3 0 1,1 0,-3A3,3 0 0,1 3,0Z" style="opacity: 1; stroke-width: 0px; fill: rgb(255, 0, 0); fill-opacity: 1;"/><path class="point" transform="translate(468.01,275.48)" d="M3,0A3,3 0 1,1 0,-3A3,3 0 0,1 3,0Z" style="opacity: 1; stroke-width: 0px; fill: rgb(255, 0, 0); fill-opacity: 1;"/><path class="point" transform="translate(467.15,275.48)" d="M3,0A3,3 0 1,1 0,-3A3,3 0 0,1 3,0Z" style="opacity: 1; stroke-width: 0px; fill: rgb(255, 0, 0); fill-opacity: 1;"/><path class="point" transform="translate(466.16,275.26)" d="M3,0A3,3 0 1,1 0,-3A3,3 0 0,1 3,0Z" style="opacity: 1; stroke-width: 0px; fill: rgb(255, 0, 0); fill-opacity: 1;"/><path class="point" transform="translate(464.76,275.26)" d="M3,0A3,3 0 1,1 0,-3A3,3 0 0,1 3,0Z" style="opacity: 1; stroke-width: 0px; fill: rgb(255, 0, 0); fill-opacity: 1;"/><path class="point" transform="translate(466.87,275.26)" d="M3,0A3,3 0 1,1 0,-3A3,3 0 0,1 3,0Z" style="opacity: 1; stroke-width: 0px; fill: rgb(255, 0, 0); fill-opacity: 1;"/><path class="point" transform="translate(466.14,275.26)" d="M3,0A3,3 0 1,1 0,-3A3,3 0 0,1 3,0Z" style="opacity: 1; stroke-width: 0px; fill: rgb(255, 0, 0); fill-opacity: 1;"/><path class="point" transform="translate(468.05,275.26)" d="M3,0A3,3 0 1,1 0,-3A3,3 0 0,1 3,0Z" style="opacity: 1; stroke-width: 0px; fill: rgb(255, 0, 0); fill-opacity: 1;"/><path class="point" transform="translate(466.65,275.26)" d="M3,0A3,3 0 1,1 0,-3A3,3 0 0,1 3,0Z" style="opacity: 1; stroke-width: 0px; fill: rgb(255, 0, 0); fill-opacity: 1;"/><path class="point" transform="translate(465.22,275.26)" d="M3,0A3,3 0 1,1 0,-3A3,3 0 0,1 3,0Z" style="opacity: 1; stroke-width: 0px; fill: rgb(255, 0, 0); fill-opacity: 1;"/><path class="point" transform="translate(464.52,275.26)" d="M3,0A3,3 0 1,1 0,-3A3,3 0 0,1 3,0Z" style="opacity: 1; stroke-width: 0px; fill: rgb(255, 0, 0); fill-opacity: 1;"/><path class="point" transform="translate(468.3,275.26)" d="M3,0A3,3 0 1,1 0,-3A3,3 0 0,1 3,0Z" style="opacity: 1; stroke-width: 0px; fill: rgb(255, 0, 0); fill-opacity: 1;"/><path class="point" transform="translate(465.35,275.26)" d="M3,0A3,3 0 1,1 0,-3A3,3 0 0,1 3,0Z" style="opacity: 1; stroke-width: 0px; fill: rgb(255, 0, 0); fill-opacity: 1;"/><path class="point" transform="translate(467.93,275.03)" d="M3,0A3,3 0 1,1 0,-3A3,3 0 0,1 3,0Z" style="opacity: 1; stroke-width: 0px; fill: rgb(255, 0, 0); fill-opacity: 1;"/><path class="point" transform="translate(467.15,275.03)" d="M3,0A3,3 0 1,1 0,-3A3,3 0 0,1 3,0Z" style="opacity: 1; stroke-width: 0px; fill: rgb(255, 0, 0); fill-opacity: 1;"/><path class="point" transform="translate(466.57,275.03)" d="M3,0A3,3 0 1,1 0,-3A3,3 0 0,1 3,0Z" style="opacity: 1; stroke-width: 0px; fill: rgb(255, 0, 0); fill-opacity: 1;"/><path class="point" transform="translate(466.38,275.03)" d="M3,0A3,3 0 1,1 0,-3A3,3 0 0,1 3,0Z" style="opacity: 1; stroke-width: 0px; fill: rgb(255, 0, 0); fill-opacity: 1;"/><path class="point" transform="translate(467.23,274.81)" d="M3,0A3,3 0 1,1 0,-3A3,3 0 0,1 3,0Z" style="opacity: 1; stroke-width: 0px; fill: rgb(255, 0, 0); fill-opacity: 1;"/><path class="point" transform="translate(466.79,274.81)" d="M3,0A3,3 0 1,1 0,-3A3,3 0 0,1 3,0Z" style="opacity: 1; stroke-width: 0px; fill: rgb(255, 0, 0); fill-opacity: 1;"/><path class="point" transform="translate(467.39,274.36)" d="M3,0A3,3 0 1,1 0,-3A3,3 0 0,1 3,0Z" style="opacity: 1; stroke-width: 0px; fill: rgb(255, 0, 0); fill-opacity: 1;"/><path class="point" transform="translate(466.29,273.91)" d="M3,0A3,3 0 1,1 0,-3A3,3 0 0,1 3,0Z" style="opacity: 1; stroke-width: 0px; fill: rgb(255, 0, 0); fill-opacity: 1;"/><path class="point" transform="translate(467.28,273.24)" d="M3,0A3,3 0 1,1 0,-3A3,3 0 0,1 3,0Z" style="opacity: 1; stroke-width: 0px; fill: rgb(255, 0, 0); fill-opacity: 1;"/></g></g></g></g><g class="overplot"/><path class="xlines-above crisp" d="M0,0" style="fill: none;"/><path class="ylines-above crisp" d="M0,0" style="fill: none;"/><g class="overlines-above"/><g class="xaxislayer-above"><g class="xtick"><text text-anchor="middle" x="0" y="433" transform="translate(171.95999999999998,0)" style="font-family: 'Open Sans', verdana, arial, sans-serif; font-size: 12px; fill: rgb(42, 63, 95); fill-opacity: 1; white-space: pre; opacity: 1;">L</text></g><g class="xtick"><text text-anchor="middle" x="0" y="433" transform="translate(331.5,0)" style="font-family: 'Open Sans', verdana, arial, sans-serif; font-size: 12px; fill: rgb(42, 63, 95); fill-opacity: 1; white-space: pre; opacity: 1;">SIM</text></g><g class="xtick"><text text-anchor="middle" x="0" y="433" transform="translate(491.04,0)" style="font-family: 'Open Sans', verdana, arial, sans-serif; font-size: 12px; fill: rgb(42, 63, 95); fill-opacity: 1; white-space: pre; opacity: 1;">SOM</text></g></g><g class="yaxislayer-above"><g class="ytick"><text text-anchor="end" x="79" y="4.199999999999999" transform="translate(0,375.48)" style="font-family: 'Open Sans', verdana, arial, sans-serif; font-size: 12px; fill: rgb(42, 63, 95); fill-opacity: 1; white-space: pre; opacity: 1;">0</text></g><g class="ytick"><text text-anchor="end" x="79" y="4.199999999999999" style="font-family: 'Open Sans', verdana, arial, sans-serif; font-size: 12px; fill: rgb(42, 63, 95); fill-opacity: 1; white-space: pre; opacity: 1;" transform="translate(0,287.27)">50</text></g><g class="ytick"><text text-anchor="end" x="79" y="4.199999999999999" style="font-family: 'Open Sans', verdana, arial, sans-serif; font-size: 12px; fill: rgb(42, 63, 95); fill-opacity: 1; white-space: pre; opacity: 1;" transform="translate(0,199.05)">100</text></g><g class="ytick"><text text-anchor="end" x="79" y="4.199999999999999" style="font-family: 'Open Sans', verdana, arial, sans-serif; font-size: 12px; fill: rgb(42, 63, 95); fill-opacity: 1; white-space: pre; opacity: 1;" transform="translate(0,110.83)">150</text></g></g><g class="overaxes-above"/></g></g><g class="polarlayer"/><g class="smithlayer"/><g class="ternarylayer"/><g class="geolayer"/><g class="funnelarealayer"/><g class="pielayer"/><g class="iciclelayer"/><g class="treemaplayer"/><g class="sunburstlayer"/><g class="glimages"/><defs id="topdefs-3f3f24"><g class="clips"/><clipPath id="legend3f3f24"><rect width="95" height="124" x="0" y="0"/></clipPath></defs><g class="layer-above"><g class="imagelayer"/><g class="shapelayer"/></g><g class="infolayer"><g class="legend" pointer-events="all" transform="translate(593.0600000000001,100)"><rect class="bg" shape-rendering="crispEdges" width="95" height="124" x="0" y="0" style="stroke: rgb(68, 68, 68); stroke-opacity: 1; fill: rgb(255, 255, 255); fill-opacity: 1; stroke-width: 0px;"/><g class="scrollbox" transform="" clip-path="url(#legend3f3f24)"><g class="groups"><g class="traces" transform="translate(0,14.5)" style="opacity: 1;"><text class="legendtext" text-anchor="start" x="40" y="4.680000000000001" style="font-family: 'Open Sans', verdana, arial, sans-serif; font-size: 12px; fill: rgb(42, 63, 95); fill-opacity: 1; white-space: pre;">L SB</text><g class="layers" style="opacity: 1;"><g class="legendfill"/><g class="legendlines"/><g class="legendsymbols"><g class="legendpoints"><path class="legendbox" d="M6,6H-6V-6H6Z" transform="translate(20,0)" style="stroke-width: 2px; fill: rgb(144, 238, 144); fill-opacity: 0.5; stroke: rgb(144, 238, 144); stroke-opacity: 1;"/></g></g></g><rect class="legendtoggle" x="0" y="-9.5" width="89.1875" height="19" style="fill: rgb(0, 0, 0); fill-opacity: 0;"/></g><g class="traces" transform="translate(0,33.5)" style="opacity: 1;"><text class="legendtext" text-anchor="start" x="40" y="4.680000000000001" style="font-family: 'Open Sans', verdana, arial, sans-serif; font-size: 12px; fill: rgb(42, 63, 95); fill-opacity: 1; white-space: pre;">L NB</text><g class="layers" style="opacity: 1;"><g class="legendfill"/><g class="legendlines"/><g class="legendsymbols"><g class="legendpoints"><path class="legendbox" d="M6,6H-6V-6H6Z" transform="translate(20,0)" style="stroke-width: 2px; fill: rgb(0, 128, 0); fill-opacity: 0.5; stroke: rgb(0, 128, 0); stroke-opacity: 1;"/></g></g></g><rect class="legendtoggle" x="0" y="-9.5" width="89.1875" height="19" style="fill: rgb(0, 0, 0); fill-opacity: 0;"/></g><g class="traces" transform="translate(0,52.5)" style="opacity: 1;"><text class="legendtext" text-anchor="start" x="40" y="4.680000000000001" style="font-family: 'Open Sans', verdana, arial, sans-serif; font-size: 12px; fill: rgb(42, 63, 95); fill-opacity: 1; white-space: pre;">SIM SB</text><g class="layers" style="opacity: 1;"><g class="legendfill"/><g class="legendlines"/><g class="legendsymbols"><g class="legendpoints"><path class="legendbox" d="M6,6H-6V-6H6Z" transform="translate(20,0)" style="stroke-width: 2px; fill: rgb(255, 255, 0); fill-opacity: 0.5; stroke: rgb(255, 255, 0); stroke-opacity: 1;"/></g></g></g><rect class="legendtoggle" x="0" y="-9.5" width="89.1875" height="19" style="fill: rgb(0, 0, 0); fill-opacity: 0;"/></g><g class="traces" transform="translate(0,71.5)" style="opacity: 1;"><text class="legendtext" text-anchor="start" x="40" y="4.680000000000001" style="font-family: 'Open Sans', verdana, arial, sans-serif; font-size: 12px; fill: rgb(42, 63, 95); fill-opacity: 1; white-space: pre;">SIM NB</text><g class="layers" style="opacity: 1;"><g class="legendfill"/><g class="legendlines"/><g class="legendsymbols"><g class="legendpoints"><path class="legendbox" d="M6,6H-6V-6H6Z" transform="translate(20,0)" style="stroke-width: 2px; fill: rgb(255, 165, 0); fill-opacity: 0.5; stroke: rgb(255, 165, 0); stroke-opacity: 1;"/></g></g></g><rect class="legendtoggle" x="0" y="-9.5" width="89.1875" height="19" style="fill: rgb(0, 0, 0); fill-opacity: 0;"/></g><g class="traces" transform="translate(0,90.5)" style="opacity: 1;"><text class="legendtext" text-anchor="start" x="40" y="4.680000000000001" style="font-family: 'Open Sans', verdana, arial, sans-serif; font-size: 12px; fill: rgb(42, 63, 95); fill-opacity: 1; white-space: pre;">SOM SB</text><g class="layers" style="opacity: 1;"><g class="legendfill"/><g class="legendlines"/><g class="legendsymbols"><g class="legendpoints"><path class="legendbox" d="M6,6H-6V-6H6Z" transform="translate(20,0)" style="stroke-width: 2px; fill: rgb(128, 0, 0); fill-opacity: 0.5; stroke: rgb(128, 0, 0); stroke-opacity: 1;"/></g></g></g><rect class="legendtoggle" x="0" y="-9.5" width="89.1875" height="19" style="fill: rgb(0, 0, 0); fill-opacity: 0;"/></g><g class="traces" transform="translate(0,109.5)" style="opacity: 1;"><text class="legendtext" text-anchor="start" x="40" y="4.680000000000001" style="font-family: 'Open Sans', verdana, arial, sans-serif; font-size: 12px; fill: rgb(42, 63, 95); fill-opacity: 1; white-space: pre;">SOM NB</text><g class="layers" style="opacity: 1;"><g class="legendfill"/><g class="legendlines"/><g class="legendsymbols"><g class="legendpoints"><path class="legendbox" d="M6,6H-6V-6H6Z" transform="translate(20,0)" style="stroke-width: 2px; fill: rgb(255, 0, 0); fill-opacity: 0.5; stroke: rgb(255, 0, 0); stroke-opacity: 1;"/></g></g></g><rect class="legendtoggle" x="0" y="-9.5" width="89.1875" height="19" style="fill: rgb(0, 0, 0); fill-opacity: 0;"/></g></g></g><rect class="scrollbar" rx="20" ry="3" width="0" height="0" x="0" y="0" style="fill: rgb(128, 139, 164); fill-opacity: 1;"/></g><g class="g-gtitle"><text class="gtitle" x="35" y="50" text-anchor="start" dy="0em" style="font-family: 'Open Sans', verdana, arial, sans-serif; font-size: 17px; fill: rgb(42, 63, 95); opacity: 1; font-weight: normal; white-space: pre;">Distribution of A_lessonii across habitats and sites</text></g><g class="g-xtitle"><text class="xtitle" x="331.5" y="459.8" text-anchor="middle" style="font-family: 'Open Sans', verdana, arial, sans-serif; font-size: 14px; fill: rgb(42, 63, 95); opacity: 1; font-weight: normal; white-space: pre;">Habitat and Site</text></g><g class="g-ytitle"><text class="ytitle" transform="rotate(-90,31.809375000000003,260)" x="31.809375000000003" y="260" text-anchor="middle" style="font-family: 'Open Sans', verdana, arial, sans-serif; font-size: 14px; fill: rgb(42, 63, 95); opacity: 1; font-weight: normal; white-space: pre;">Value</text></g></g></svg>