<svg class="main-svg" xmlns="http://www.w3.org/2000/svg" xmlns:xlink="http://www.w3.org/1999/xlink" width="700" height="500" style="" viewBox="0 0 700 500"><rect x="0" y="0" width="700" height="500" style="fill: rgb(255, 255, 255); fill-opacity: 1;"/><defs id="defs-95ea31"><g class="clips"><clipPath id="clip95ea31xyplot" class="plotclip"><rect width="503" height="320"/></clipPath><clipPath class="axesclip" id="clip95ea31x"><rect x="80" y="0" width="503" height="500"/></clipPath><clipPath class="axesclip" id="clip95ea31y"><rect x="0" y="100" width="700" height="320"/></clipPath><clipPath class="axesclip" id="clip95ea31xy"><rect x="80" y="100" width="503" height="320"/></clipPath></g><g class="gradients"/><g class="patterns"/></defs><g class="bglayer"><rect class="bg" x="80" y="100" width="503" height="320" style="fill: rgb(229, 236, 246); fill-opacity: 1; stroke-width: 0;"/></g><g class="layer-below"><g class="imagelayer"/><g class="shapelayer"/></g><g class="cartesianlayer"><g class="subplot xy"><g class="layer-subplot"><g class="shapelayer"/><g class="imagelayer"/></g><g class="minor-gridlayer"><g class="x"/><g class="y"/></g><g class="gridlayer"><g class="x"/><g class="y"><path class="ygrid crisp" transform="translate(0,305.33000000000004)" d="M80,0h503" style="stroke: rgb(255, 255, 255); stroke-opacity: 1; stroke-width: 1px;"/><path class="ygrid crisp" transform="translate(0,245.53)" d="M80,0h503" style="stroke: rgb(255, 255, 255); stroke-opacity: 1; stroke-width: 1px;"/><path class="ygrid crisp" transform="translate(0,185.72)" d="M80,0h503" style="stroke: rgb(255, 255, 255); stroke-opacity: 1; stroke-width: 1px;"/><path class="ygrid crisp" transform="translate(0,125.92)" d="M80,0h503" style="stroke: rgb(255, 255, 255); stroke-opacity: 1; stroke-width: 1px;"/></g></g><g class="zerolinelayer"><path class="yzl zl crisp" transform="translate(0,365.13)" d="M80,0h503" style="stroke: rgb(255, 255, 255); stroke-opacity: 1; stroke-width: 2px;"/></g><path class="xlines-below"/><path class="ylines-below"/><g class="overlines-below"/><g class="xaxislayer-below"/><g class="yaxislayer-below"/><g class="overaxes-below"/><g class="plot" transform="translate(80,100)" clip-path="url(#clip95ea31xyplot)"><g class="violinlayer mlayer"><g class="trace violins" style="opacity: 1;"><path class="violin" d="M91.96,16L91.74,16Q91.63,20.57 91.56,22.86C91.49,25.14 91.39,27.43 91.3,29.71C91.2,32 91.09,34.28 90.99,36.57C90.88,38.86 90.77,41.14 90.67,43.43C90.58,45.72 90.48,48 90.42,50.29C90.36,52.57 90.32,54.86 90.31,57.14C90.3,59.43 90.32,61.71 90.36,64C90.4,66.29 90.46,68.57 90.53,70.86C90.59,73.14 90.69,75.43 90.75,77.71C90.82,80 90.89,82.28 90.92,84.57C90.95,86.86 90.96,89.14 90.94,91.43C90.92,93.72 90.86,96 90.77,98.29C90.68,100.57 90.56,102.86 90.42,105.14C90.28,107.43 90.11,109.71 89.93,112C89.75,114.29 89.55,116.57 89.34,118.86C89.13,121.14 88.91,123.43 88.67,125.71C88.43,128 88.19,130.28 87.91,132.57C87.63,134.86 87.34,137.15 87,139.43C86.66,141.72 86.29,144.01 85.88,146.29C85.46,148.58 85.01,150.86 84.51,153.14C84.01,155.43 83.46,157.72 82.89,160C82.32,162.29 81.7,164.58 81.08,166.86C80.46,169.15 79.81,171.43 79.17,173.71C78.53,176 77.88,178.28 77.24,180.57C76.6,182.86 75.97,185.14 75.32,187.43C74.67,189.72 74.03,192.01 73.35,194.29C72.66,196.58 71.98,198.86 71.21,201.14C70.44,203.43 69.63,205.73 68.72,208C67.8,210.3 66.79,212.59 65.71,214.86C64.61,217.16 63.39,219.44 62.17,221.71C60.94,224.01 59.58,226.27 58.35,228.57C57.13,230.85 55.82,233.11 54.83,235.43C53.87,237.68 52.92,239.97 52.46,242.29C52.02,244.54 51.8,246.88 52.08,249.14C52.36,251.45 53.15,253.79 54.2,256C55.32,258.37 57.01,260.64 58.74,262.86C60.58,265.22 62.84,267.45 65,269.71C67.21,272.02 69.65,274.26 71.88,276.57C74.08,278.84 76.33,281.09 78.3,283.43C80.19,285.67 81.98,287.95 83.49,290.29C84.92,292.52 86.17,294.81 87.19,297.14Q88.17,299.39 89.53,304L91.96,304" style="vector-effect: none; stroke-width: 2px; stroke: rgb(144, 238, 144); stroke-opacity: 1; fill: rgb(144, 238, 144); fill-opacity: 0.5;"/><path class="meanline" d="M61.71955490112305,222.54H91.96" style="fill: none; vector-effect: none; stroke-width: 2px; stroke-dasharray: 4px, 2px; stroke: rgb(144, 238, 144); stroke-opacity: 1;"/><g class="points"><path class="point" transform="translate(40.27,262.09)" d="M3,0A3,3 0 1,1 0,-3A3,3 0 0,1 3,0Z" style="opacity: 1; stroke-width: 0px; fill: rgb(144, 238, 144); fill-opacity: 1;"/><path class="point" transform="translate(31.04,262.09)" d="M3,0A3,3 0 1,1 0,-3A3,3 0 0,1 3,0Z" style="opacity: 1; stroke-width: 0px; fill: rgb(144, 238, 144); fill-opacity: 1;"/><path class="point" transform="translate(41.87,262.09)" d="M3,0A3,3 0 1,1 0,-3A3,3 0 0,1 3,0Z" style="opacity: 1; stroke-width: 0px; fill: rgb(144, 238, 144); fill-opacity: 1;"/><path class="point" transform="translate(29.43,262.09)" d="M3,0A3,3 0 1,1 0,-3A3,3 0 0,1 3,0Z" style="opacity: 1; stroke-width: 0px; fill: rgb(144, 238, 144); fill-opacity: 1;"/><path class="point" transform="translate(34.33,260.56)" d="M3,0A3,3 0 1,1 0,-3A3,3 0 0,1 3,0Z" style="opacity: 1; stroke-width: 0px; fill: rgb(144, 238, 144); fill-opacity: 1;"/><path class="point" transform="translate(39.73,260.56)" d="M3,0A3,3 0 1,1 0,-3A3,3 0 0,1 3,0Z" style="opacity: 1; stroke-width: 0px; fill: rgb(144, 238, 144); fill-opacity: 1;"/><path class="point" transform="translate(35.87,259.04)" d="M3,0A3,3 0 1,1 0,-3A3,3 0 0,1 3,0Z" style="opacity: 1; stroke-width: 0px; fill: rgb(144, 238, 144); fill-opacity: 1;"/><path class="point" transform="translate(37.94,257.52)" d="M3,0A3,3 0 1,1 0,-3A3,3 0 0,1 3,0Z" style="opacity: 1; stroke-width: 0px; fill: rgb(144, 238, 144); fill-opacity: 1;"/><path class="point" transform="translate(34.28,257.52)" d="M3,0A3,3 0 1,1 0,-3A3,3 0 0,1 3,0Z" style="opacity: 1; stroke-width: 0px; fill: rgb(144, 238, 144); fill-opacity: 1;"/><path class="point" transform="translate(31.88,255.99)" d="M3,0A3,3 0 1,1 0,-3A3,3 0 0,1 3,0Z" style="opacity: 1; stroke-width: 0px; fill: rgb(144, 238, 144); fill-opacity: 1;"/><path class="point" transform="translate(37.49,254.47)" d="M3,0A3,3 0 1,1 0,-3A3,3 0 0,1 3,0Z" style="opacity: 1; stroke-width: 0px; fill: rgb(144, 238, 144); fill-opacity: 1;"/><path class="point" transform="translate(34.34,254.47)" d="M3,0A3,3 0 1,1 0,-3A3,3 0 0,1 3,0Z" style="opacity: 1; stroke-width: 0px; fill: rgb(144, 238, 144); fill-opacity: 1;"/><path class="point" transform="translate(39.37,252.94)" d="M3,0A3,3 0 1,1 0,-3A3,3 0 0,1 3,0Z" style="opacity: 1; stroke-width: 0px; fill: rgb(144, 238, 144); fill-opacity: 1;"/><path class="point" transform="translate(31.4,251.42)" d="M3,0A3,3 0 1,1 0,-3A3,3 0 0,1 3,0Z" style="opacity: 1; stroke-width: 0px; fill: rgb(144, 238, 144); fill-opacity: 1;"/><path class="point" transform="translate(33.32,249.9)" d="M3,0A3,3 0 1,1 0,-3A3,3 0 0,1 3,0Z" style="opacity: 1; stroke-width: 0px; fill: rgb(144, 238, 144); fill-opacity: 1;"/><path class="point" transform="translate(40.42,246.85)" d="M3,0A3,3 0 1,1 0,-3A3,3 0 0,1 3,0Z" style="opacity: 1; stroke-width: 0px; fill: rgb(144, 238, 144); fill-opacity: 1;"/><path class="point" transform="translate(34.97,246.85)" d="M3,0A3,3 0 1,1 0,-3A3,3 0 0,1 3,0Z" style="opacity: 1; stroke-width: 0px; fill: rgb(144, 238, 144); fill-opacity: 1;"/><path class="point" transform="translate(32.47,243.8)" d="M3,0A3,3 0 1,1 0,-3A3,3 0 0,1 3,0Z" style="opacity: 1; stroke-width: 0px; fill: rgb(144, 238, 144); fill-opacity: 1;"/><path class="point" transform="translate(34.77,242.28)" d="M3,0A3,3 0 1,1 0,-3A3,3 0 0,1 3,0Z" style="opacity: 1; stroke-width: 0px; fill: rgb(144, 238, 144); fill-opacity: 1;"/><path class="point" transform="translate(36.04,240.75)" d="M3,0A3,3 0 1,1 0,-3A3,3 0 0,1 3,0Z" style="opacity: 1; stroke-width: 0px; fill: rgb(144, 238, 144); fill-opacity: 1;"/><path class="point" transform="translate(37.97,239.23)" d="M3,0A3,3 0 1,1 0,-3A3,3 0 0,1 3,0Z" style="opacity: 1; stroke-width: 0px; fill: rgb(144, 238, 144); fill-opacity: 1;"/><path class="point" transform="translate(36.57,237.71)" d="M3,0A3,3 0 1,1 0,-3A3,3 0 0,1 3,0Z" style="opacity: 1; stroke-width: 0px; fill: rgb(144, 238, 144); fill-opacity: 1;"/><path class="point" transform="translate(35.08,233.14)" d="M3,0A3,3 0 1,1 0,-3A3,3 0 0,1 3,0Z" style="opacity: 1; stroke-width: 0px; fill: rgb(144, 238, 144); fill-opacity: 1;"/><path class="point" transform="translate(33.18,230.09)" d="M3,0A3,3 0 1,1 0,-3A3,3 0 0,1 3,0Z" style="opacity: 1; stroke-width: 0px; fill: rgb(144, 238, 144); fill-opacity: 1;"/><path class="point" transform="translate(36.12,230.09)" d="M3,0A3,3 0 1,1 0,-3A3,3 0 0,1 3,0Z" style="opacity: 1; stroke-width: 0px; fill: rgb(144, 238, 144); fill-opacity: 1;"/><path class="point" transform="translate(35.19,225.52)" d="M3,0A3,3 0 1,1 0,-3A3,3 0 0,1 3,0Z" style="opacity: 1; stroke-width: 0px; fill: rgb(144, 238, 144); fill-opacity: 1;"/><path class="point" transform="translate(37.53,223.99)" d="M3,0A3,3 0 1,1 0,-3A3,3 0 0,1 3,0Z" style="opacity: 1; stroke-width: 0px; fill: rgb(144, 238, 144); fill-opacity: 1;"/><path class="point" transform="translate(35.84,217.9)" d="M3,0A3,3 0 1,1 0,-3A3,3 0 0,1 3,0Z" style="opacity: 1; stroke-width: 0px; fill: rgb(144, 238, 144); fill-opacity: 1;"/><path class="point" transform="translate(33.94,213.33)" d="M3,0A3,3 0 1,1 0,-3A3,3 0 0,1 3,0Z" style="opacity: 1; stroke-width: 0px; fill: rgb(144, 238, 144); fill-opacity: 1;"/><path class="point" transform="translate(33.47,207.23)" d="M3,0A3,3 0 1,1 0,-3A3,3 0 0,1 3,0Z" style="opacity: 1; stroke-width: 0px; fill: rgb(144, 238, 144); fill-opacity: 1;"/><path class="point" transform="translate(37.76,204.19)" d="M3,0A3,3 0 1,1 0,-3A3,3 0 0,1 3,0Z" style="opacity: 1; stroke-width: 0px; fill: rgb(144, 238, 144); fill-opacity: 1;"/><path class="point" transform="translate(33.85,198.09)" d="M3,0A3,3 0 1,1 0,-3A3,3 0 0,1 3,0Z" style="opacity: 1; stroke-width: 0px; fill: rgb(144, 238, 144); fill-opacity: 1;"/><path class="point" transform="translate(37.79,198.09)" d="M3,0A3,3 0 1,1 0,-3A3,3 0 0,1 3,0Z" style="opacity: 1; stroke-width: 0px; fill: rgb(144, 238, 144); fill-opacity: 1;"/><path class="point" transform="translate(36.72,198.09)" d="M3,0A3,3 0 1,1 0,-3A3,3 0 0,1 3,0Z" style="opacity: 1; stroke-width: 0px; fill: rgb(144, 238, 144); fill-opacity: 1;"/><path class="point" transform="translate(35.4,185.9)" d="M3,0A3,3 0 1,1 0,-3A3,3 0 0,1 3,0Z" style="opacity: 1; stroke-width: 0px; fill: rgb(144, 238, 144); fill-opacity: 1;"/><path class="point" transform="translate(34.88,182.86)" d="M3,0A3,3 0 1,1 0,-3A3,3 0 0,1 3,0Z" style="opacity: 1; stroke-width: 0px; fill: rgb(144, 238, 144); fill-opacity: 1;"/><path class="point" transform="translate(36.85,173.71)" d="M3,0A3,3 0 1,1 0,-3A3,3 0 0,1 3,0Z" style="opacity: 1; stroke-width: 0px; fill: rgb(144, 238, 144); fill-opacity: 1;"/><path class="point" transform="translate(35.96,172.19)" d="M3,0A3,3 0 1,1 0,-3A3,3 0 0,1 3,0Z" style="opacity: 1; stroke-width: 0px; fill: rgb(144, 238, 144); fill-opacity: 1;"/><path class="point" transform="translate(37.11,164.57)" d="M3,0A3,3 0 1,1 0,-3A3,3 0 0,1 3,0Z" style="opacity: 1; stroke-width: 0px; fill: rgb(144, 238, 144); fill-opacity: 1;"/><path class="point" transform="translate(34.95,146.29)" d="M3,0A3,3 0 1,1 0,-3A3,3 0 0,1 3,0Z" style="opacity: 1; stroke-width: 0px; fill: rgb(144, 238, 144); fill-opacity: 1;"/><path class="point" transform="translate(36.96,123.43)" d="M3,0A3,3 0 1,1 0,-3A3,3 0 0,1 3,0Z" style="opacity: 1; stroke-width: 0px; fill: rgb(144, 238, 144); fill-opacity: 1;"/><path class="point" transform="translate(36.02,57.91)" d="M3,0A3,3 0 1,1 0,-3A3,3 0 0,1 3,0Z" style="opacity: 1; stroke-width: 0px; fill: rgb(144, 238, 144); fill-opacity: 1;"/></g></g><g class="trace violins" style="opacity: 1;"><path class="violin" d="M91.96,269.52L95.2,269.52Q96.99,269.03 98.03,268.81C99.3,268.55 100.77,268.32 102.29,268.1C104.05,267.84 106,267.61 107.97,267.38C110.09,267.13 112.37,266.91 114.58,266.67C116.8,266.43 119.13,266.2 121.26,265.95C123.22,265.72 125.23,265.51 126.91,265.24C128.27,265.02 129.71,264.85 130.6,264.52C131.15,264.32 131.84,264.06 131.85,263.81C131.86,263.58 131.24,263.3 130.78,263.09C130.09,262.78 128.98,262.6 127.98,262.38C126.84,262.12 125.54,261.9 124.31,261.66C123.08,261.42 121.79,261.2 120.62,260.95C119.56,260.72 118.5,260.49 117.6,260.23C116.85,260.01 116.13,259.8 115.57,259.52C115.14,259.3 114.76,259.07 114.49,258.8C114.27,258.58 114.15,258.33 114,258.09C113.85,257.85 113.77,257.59 113.58,257.37C113.36,257.11 113.07,256.88 112.73,256.66C112.3,256.39 111.74,256.16 111.16,255.94C110.47,255.68 109.67,255.46 108.86,255.23C107.96,254.98 106.98,254.74 106.01,254.51C105,254.27 103.95,254.04 102.93,253.8C101.93,253.57 100.92,253.34 99.97,253.09C99.08,252.86 98.19,252.62 97.39,252.37C96.68,252.14 95.99,251.92 95.39,251.66C94.87,251.44 94.39,251.2 93.99,250.94C93.66,250.72 93.35,250.49 93.14,250.23C92.96,250.01 92.82,249.76 92.75,249.51C92.68,249.28 92.67,249.04 92.69,248.8C92.71,248.56 92.78,248.32 92.85,248.08C92.93,247.84 93.04,247.61 93.14,247.37C93.24,247.13 93.36,246.89 93.45,246.65C93.54,246.41 93.62,246.18 93.67,245.94C93.72,245.7 93.74,245.46 93.73,245.22C93.72,244.98 93.67,244.74 93.61,244.51C93.55,244.27 93.45,244.03 93.35,243.79C93.25,243.55 93.12,243.32 93.01,243.08C92.9,242.84 92.78,242.6 92.68,242.36C92.58,242.12 92.48,241.89 92.4,241.65Q92.32,241.41 92.2,240.93L91.96,240.93" style="vector-effect: none; stroke-width: 2px; stroke: rgb(0, 128, 0); stroke-opacity: 1; fill: rgb(0, 128, 0); fill-opacity: 0.5;"/><path class="meanline" d="M120.86028289794922,261H91.96" style="fill: none; vector-effect: none; stroke-width: 2px; stroke-dasharray: 4px, 2px; stroke: rgb(0, 128, 0); stroke-opacity: 1;"/><g class="points"><path class="point" transform="translate(151.94,265.13)" d="M3,0A3,3 0 1,1 0,-3A3,3 0 0,1 3,0Z" style="opacity: 1; stroke-width: 0px; fill: rgb(0, 128, 0); fill-opacity: 1;"/><path class="point" transform="translate(142.72,265.13)" d="M3,0A3,3 0 1,1 0,-3A3,3 0 0,1 3,0Z" style="opacity: 1; stroke-width: 0px; fill: rgb(0, 128, 0); fill-opacity: 1;"/><path class="point" transform="translate(153.99,265.13)" d="M3,0A3,3 0 1,1 0,-3A3,3 0 0,1 3,0Z" style="opacity: 1; stroke-width: 0px; fill: rgb(0, 128, 0); fill-opacity: 1;"/><path class="point" transform="translate(141.06,265.13)" d="M3,0A3,3 0 1,1 0,-3A3,3 0 0,1 3,0Z" style="opacity: 1; stroke-width: 0px; fill: rgb(0, 128, 0); fill-opacity: 1;"/><path class="point" transform="translate(145.84,265.13)" d="M3,0A3,3 0 1,1 0,-3A3,3 0 0,1 3,0Z" style="opacity: 1; stroke-width: 0px; fill: rgb(0, 128, 0); fill-opacity: 1;"/><path class="point" transform="translate(151.99,265.13)" d="M3,0A3,3 0 1,1 0,-3A3,3 0 0,1 3,0Z" style="opacity: 1; stroke-width: 0px; fill: rgb(0, 128, 0); fill-opacity: 1;"/><path class="point" transform="translate(147.5,265.13)" d="M3,0A3,3 0 1,1 0,-3A3,3 0 0,1 3,0Z" style="opacity: 1; stroke-width: 0px; fill: rgb(0, 128, 0); fill-opacity: 1;"/><path class="point" transform="translate(149.44,265.13)" d="M3,0A3,3 0 1,1 0,-3A3,3 0 0,1 3,0Z" style="opacity: 1; stroke-width: 0px; fill: rgb(0, 128, 0); fill-opacity: 1;"/><path class="point" transform="translate(146,265.13)" d="M3,0A3,3 0 1,1 0,-3A3,3 0 0,1 3,0Z" style="opacity: 1; stroke-width: 0px; fill: rgb(0, 128, 0); fill-opacity: 1;"/><path class="point" transform="translate(143.67,265.13)" d="M3,0A3,3 0 1,1 0,-3A3,3 0 0,1 3,0Z" style="opacity: 1; stroke-width: 0px; fill: rgb(0, 128, 0); fill-opacity: 1;"/><path class="point" transform="translate(149.31,265.13)" d="M3,0A3,3 0 1,1 0,-3A3,3 0 0,1 3,0Z" style="opacity: 1; stroke-width: 0px; fill: rgb(0, 128, 0); fill-opacity: 1;"/><path class="point" transform="translate(145.95,265.13)" d="M3,0A3,3 0 1,1 0,-3A3,3 0 0,1 3,0Z" style="opacity: 1; stroke-width: 0px; fill: rgb(0, 128, 0); fill-opacity: 1;"/><path class="point" transform="translate(151.38,263.61)" d="M3,0A3,3 0 1,1 0,-3A3,3 0 0,1 3,0Z" style="opacity: 1; stroke-width: 0px; fill: rgb(0, 128, 0); fill-opacity: 1;"/><path class="point" transform="translate(142.31,263.61)" d="M3,0A3,3 0 1,1 0,-3A3,3 0 0,1 3,0Z" style="opacity: 1; stroke-width: 0px; fill: rgb(0, 128, 0); fill-opacity: 1;"/><path class="point" transform="translate(145.49,263.61)" d="M3,0A3,3 0 1,1 0,-3A3,3 0 0,1 3,0Z" style="opacity: 1; stroke-width: 0px; fill: rgb(0, 128, 0); fill-opacity: 1;"/><path class="point" transform="translate(151.33,263.61)" d="M3,0A3,3 0 1,1 0,-3A3,3 0 0,1 3,0Z" style="opacity: 1; stroke-width: 0px; fill: rgb(0, 128, 0); fill-opacity: 1;"/><path class="point" transform="translate(146.8,263.61)" d="M3,0A3,3 0 1,1 0,-3A3,3 0 0,1 3,0Z" style="opacity: 1; stroke-width: 0px; fill: rgb(0, 128, 0); fill-opacity: 1;"/><path class="point" transform="translate(142.96,263.61)" d="M3,0A3,3 0 1,1 0,-3A3,3 0 0,1 3,0Z" style="opacity: 1; stroke-width: 0px; fill: rgb(0, 128, 0); fill-opacity: 1;"/><path class="point" transform="translate(145.94,263.61)" d="M3,0A3,3 0 1,1 0,-3A3,3 0 0,1 3,0Z" style="opacity: 1; stroke-width: 0px; fill: rgb(0, 128, 0); fill-opacity: 1;"/><path class="point" transform="translate(147.68,262.09)" d="M3,0A3,3 0 1,1 0,-3A3,3 0 0,1 3,0Z" style="opacity: 1; stroke-width: 0px; fill: rgb(0, 128, 0); fill-opacity: 1;"/><path class="point" transform="translate(149.6,262.09)" d="M3,0A3,3 0 1,1 0,-3A3,3 0 0,1 3,0Z" style="opacity: 1; stroke-width: 0px; fill: rgb(0, 128, 0); fill-opacity: 1;"/><path class="point" transform="translate(148.24,262.09)" d="M3,0A3,3 0 1,1 0,-3A3,3 0 0,1 3,0Z" style="opacity: 1; stroke-width: 0px; fill: rgb(0, 128, 0); fill-opacity: 1;"/><path class="point" transform="translate(146.68,262.09)" d="M3,0A3,3 0 1,1 0,-3A3,3 0 0,1 3,0Z" style="opacity: 1; stroke-width: 0px; fill: rgb(0, 128, 0); fill-opacity: 1;"/><path class="point" transform="translate(145.08,262.09)" d="M3,0A3,3 0 1,1 0,-3A3,3 0 0,1 3,0Z" style="opacity: 1; stroke-width: 0px; fill: rgb(0, 128, 0); fill-opacity: 1;"/><path class="point" transform="translate(147.79,262.09)" d="M3,0A3,3 0 1,1 0,-3A3,3 0 0,1 3,0Z" style="opacity: 1; stroke-width: 0px; fill: rgb(0, 128, 0); fill-opacity: 1;"/><path class="point" transform="translate(146.85,260.56)" d="M3,0A3,3 0 1,1 0,-3A3,3 0 0,1 3,0Z" style="opacity: 1; stroke-width: 0px; fill: rgb(0, 128, 0); fill-opacity: 1;"/><path class="point" transform="translate(149.32,260.56)" d="M3,0A3,3 0 1,1 0,-3A3,3 0 0,1 3,0Z" style="opacity: 1; stroke-width: 0px; fill: rgb(0, 128, 0); fill-opacity: 1;"/><path class="point" transform="translate(147.51,260.56)" d="M3,0A3,3 0 1,1 0,-3A3,3 0 0,1 3,0Z" style="opacity: 1; stroke-width: 0px; fill: rgb(0, 128, 0); fill-opacity: 1;"/><path class="point" transform="translate(145.67,259.04)" d="M3,0A3,3 0 1,1 0,-3A3,3 0 0,1 3,0Z" style="opacity: 1; stroke-width: 0px; fill: rgb(0, 128, 0); fill-opacity: 1;"/><path class="point" transform="translate(144.76,257.52)" d="M3,0A3,3 0 1,1 0,-3A3,3 0 0,1 3,0Z" style="opacity: 1; stroke-width: 0px; fill: rgb(0, 128, 0); fill-opacity: 1;"/><path class="point" transform="translate(149.64,257.52)" d="M3,0A3,3 0 1,1 0,-3A3,3 0 0,1 3,0Z" style="opacity: 1; stroke-width: 0px; fill: rgb(0, 128, 0); fill-opacity: 1;"/><path class="point" transform="translate(145.02,257.52)" d="M3,0A3,3 0 1,1 0,-3A3,3 0 0,1 3,0Z" style="opacity: 1; stroke-width: 0px; fill: rgb(0, 128, 0); fill-opacity: 1;"/><path class="point" transform="translate(149.74,257.52)" d="M3,0A3,3 0 1,1 0,-3A3,3 0 0,1 3,0Z" style="opacity: 1; stroke-width: 0px; fill: rgb(0, 128, 0); fill-opacity: 1;"/><path class="point" transform="translate(148.51,257.52)" d="M3,0A3,3 0 1,1 0,-3A3,3 0 0,1 3,0Z" style="opacity: 1; stroke-width: 0px; fill: rgb(0, 128, 0); fill-opacity: 1;"/><path class="point" transform="translate(146.61,257.52)" d="M3,0A3,3 0 1,1 0,-3A3,3 0 0,1 3,0Z" style="opacity: 1; stroke-width: 0px; fill: rgb(0, 128, 0); fill-opacity: 1;"/><path class="point" transform="translate(145.44,255.99)" d="M3,0A3,3 0 1,1 0,-3A3,3 0 0,1 3,0Z" style="opacity: 1; stroke-width: 0px; fill: rgb(0, 128, 0); fill-opacity: 1;"/><path class="point" transform="translate(148.7,255.99)" d="M3,0A3,3 0 1,1 0,-3A3,3 0 0,1 3,0Z" style="opacity: 1; stroke-width: 0px; fill: rgb(0, 128, 0); fill-opacity: 1;"/><path class="point" transform="translate(147.6,255.99)" d="M3,0A3,3 0 1,1 0,-3A3,3 0 0,1 3,0Z" style="opacity: 1; stroke-width: 0px; fill: rgb(0, 128, 0); fill-opacity: 1;"/><path class="point" transform="translate(149.03,254.47)" d="M3,0A3,3 0 1,1 0,-3A3,3 0 0,1 3,0Z" style="opacity: 1; stroke-width: 0px; fill: rgb(0, 128, 0); fill-opacity: 1;"/><path class="point" transform="translate(146.4,254.47)" d="M3,0A3,3 0 1,1 0,-3A3,3 0 0,1 3,0Z" style="opacity: 1; stroke-width: 0px; fill: rgb(0, 128, 0); fill-opacity: 1;"/><path class="point" transform="translate(148.86,254.47)" d="M3,0A3,3 0 1,1 0,-3A3,3 0 0,1 3,0Z" style="opacity: 1; stroke-width: 0px; fill: rgb(0, 128, 0); fill-opacity: 1;"/><path class="point" transform="translate(147.68,245.33)" d="M3,0A3,3 0 1,1 0,-3A3,3 0 0,1 3,0Z" style="opacity: 1; stroke-width: 0px; fill: rgb(0, 128, 0); fill-opacity: 1;"/></g></g><g class="trace violins" style="opacity: 1;"><path class="violin" d="M251.5,74.09L251.26,74.09Q251.15,76.33 251.07,77.45C250.99,78.57 250.89,79.68 250.79,80.8C250.69,81.92 250.56,83.04 250.45,84.16C250.34,85.28 250.22,86.4 250.12,87.52C250.02,88.64 249.92,89.75 249.86,90.87C249.8,91.99 249.75,93.11 249.75,94.23C249.75,95.35 249.78,96.46 249.83,97.58C249.88,98.7 249.98,99.82 250.07,100.94C250.17,102.06 250.29,103.18 250.4,104.3C250.51,105.42 250.64,106.53 250.74,107.65C250.85,108.77 250.95,109.89 251.03,111.01C251.11,112.13 251.18,113.24 251.24,114.36C251.3,115.48 251.34,116.6 251.37,117.72C251.4,118.84 251.42,119.96 251.44,121.08C251.46,122.2 251.47,123.31 251.48,124.43C251.49,125.55 251.49,126.67 251.49,127.79C251.49,128.91 251.5,130.02 251.5,131.14C251.5,132.26 251.5,133.38 251.5,134.5C251.5,135.62 251.49,136.74 251.49,137.86C251.49,138.98 251.49,140.09 251.48,141.21C251.47,142.33 251.46,143.45 251.45,144.57C251.43,145.69 251.42,146.81 251.39,147.93C251.36,149.05 251.32,150.16 251.27,151.28C251.22,152.4 251.16,153.52 251.07,154.64C250.98,155.76 250.87,156.87 250.75,157.99C250.62,159.11 250.48,160.23 250.32,161.35C250.16,162.47 249.99,163.59 249.81,164.71C249.64,165.83 249.44,166.94 249.27,168.06C249.1,169.18 248.93,170.3 248.79,171.42C248.65,172.54 248.53,173.65 248.44,174.77C248.35,175.89 248.28,177.01 248.23,178.13C248.18,179.25 248.16,180.37 248.12,181.49C248.08,182.61 248.05,183.72 247.98,184.84C247.91,185.96 247.83,187.08 247.68,188.2C247.53,189.32 247.34,190.44 247.1,191.55C246.86,192.67 246.54,193.79 246.22,194.91C245.9,196.03 245.52,197.15 245.18,198.27C244.84,199.39 244.47,200.5 244.17,201.62C243.87,202.73 243.59,203.86 243.36,204.98C243.13,206.09 242.97,207.21 242.8,208.33C242.63,209.45 242.51,210.57 242.33,211.69C242.15,212.81 241.99,213.94 241.73,215.05C241.47,216.17 241.16,217.29 240.78,218.4C240.39,219.53 239.91,220.65 239.39,221.76C238.86,222.89 238.25,224.01 237.6,225.11C236.94,226.24 236.22,227.37 235.45,228.47C234.66,229.61 233.82,230.73 232.9,231.83C231.95,232.97 230.92,234.09 229.82,235.18C228.67,236.33 227.42,237.44 226.13,238.54C224.79,239.68 223.33,240.78 221.92,241.9C220.5,243.02 218.99,244.1 217.64,245.25C216.35,246.34 215.01,247.43 214,248.61C213.09,249.68 212.17,250.79 211.79,251.96C211.44,253.03 211.34,254.24 211.62,255.32C211.92,256.49 212.78,257.63 213.7,258.68C214.77,259.89 216.3,260.96 217.82,262.03C219.51,263.21 221.49,264.29 223.42,265.39C225.44,266.53 227.61,267.62 229.68,268.74C231.73,269.85 233.85,270.95 235.79,272.1C237.63,273.19 239.46,274.29 241.07,275.46C242.55,276.53 243.96,277.63 245.15,278.81C246.23,279.88 247.19,281.01 247.97,282.17Q248.69,283.25 249.71,285.52L251.5,285.52" style="vector-effect: none; stroke-width: 2px; stroke: rgb(255, 255, 0); stroke-opacity: 1; fill: rgb(255, 255, 0); fill-opacity: 0.5;"/><path class="meanline" d="M226.46974182128906,238.25H251.5" style="fill: none; vector-effect: none; stroke-width: 2px; stroke-dasharray: 4px, 2px; stroke: rgb(255, 255, 0); stroke-opacity: 1;"/><g class="points"><path class="point" transform="translate(199.8,265.13)" d="M3,0A3,3 0 1,1 0,-3A3,3 0 0,1 3,0Z" style="opacity: 1; stroke-width: 0px; fill: rgb(255, 255, 0); fill-opacity: 1;"/><path class="point" transform="translate(191.72,265.13)" d="M3,0A3,3 0 1,1 0,-3A3,3 0 0,1 3,0Z" style="opacity: 1; stroke-width: 0px; fill: rgb(255, 255, 0); fill-opacity: 1;"/><path class="point" transform="translate(200.84,265.13)" d="M3,0A3,3 0 1,1 0,-3A3,3 0 0,1 3,0Z" style="opacity: 1; stroke-width: 0px; fill: rgb(255, 255, 0); fill-opacity: 1;"/><path class="point" transform="translate(190.74,263.61)" d="M3,0A3,3 0 1,1 0,-3A3,3 0 0,1 3,0Z" style="opacity: 1; stroke-width: 0px; fill: rgb(255, 255, 0); fill-opacity: 1;"/><path class="point" transform="translate(194.14,263.61)" d="M3,0A3,3 0 1,1 0,-3A3,3 0 0,1 3,0Z" style="opacity: 1; stroke-width: 0px; fill: rgb(255, 255, 0); fill-opacity: 1;"/><path class="point" transform="translate(198.08,263.61)" d="M3,0A3,3 0 1,1 0,-3A3,3 0 0,1 3,0Z" style="opacity: 1; stroke-width: 0px; fill: rgb(255, 255, 0); fill-opacity: 1;"/><path class="point" transform="translate(195.5,262.09)" d="M3,0A3,3 0 1,1 0,-3A3,3 0 0,1 3,0Z" style="opacity: 1; stroke-width: 0px; fill: rgb(255, 255, 0); fill-opacity: 1;"/><path class="point" transform="translate(196.9,262.09)" d="M3,0A3,3 0 1,1 0,-3A3,3 0 0,1 3,0Z" style="opacity: 1; stroke-width: 0px; fill: rgb(255, 255, 0); fill-opacity: 1;"/><path class="point" transform="translate(194.19,260.56)" d="M3,0A3,3 0 1,1 0,-3A3,3 0 0,1 3,0Z" style="opacity: 1; stroke-width: 0px; fill: rgb(255, 255, 0); fill-opacity: 1;"/><path class="point" transform="translate(192.54,260.56)" d="M3,0A3,3 0 1,1 0,-3A3,3 0 0,1 3,0Z" style="opacity: 1; stroke-width: 0px; fill: rgb(255, 255, 0); fill-opacity: 1;"/><path class="point" transform="translate(196.73,255.99)" d="M3,0A3,3 0 1,1 0,-3A3,3 0 0,1 3,0Z" style="opacity: 1; stroke-width: 0px; fill: rgb(255, 255, 0); fill-opacity: 1;"/><path class="point" transform="translate(194.26,254.47)" d="M3,0A3,3 0 1,1 0,-3A3,3 0 0,1 3,0Z" style="opacity: 1; stroke-width: 0px; fill: rgb(255, 255, 0); fill-opacity: 1;"/><path class="point" transform="translate(198.37,254.47)" d="M3,0A3,3 0 1,1 0,-3A3,3 0 0,1 3,0Z" style="opacity: 1; stroke-width: 0px; fill: rgb(255, 255, 0); fill-opacity: 1;"/><path class="point" transform="translate(191.18,254.47)" d="M3,0A3,3 0 1,1 0,-3A3,3 0 0,1 3,0Z" style="opacity: 1; stroke-width: 0px; fill: rgb(255, 255, 0); fill-opacity: 1;"/><path class="point" transform="translate(193.2,252.94)" d="M3,0A3,3 0 1,1 0,-3A3,3 0 0,1 3,0Z" style="opacity: 1; stroke-width: 0px; fill: rgb(255, 255, 0); fill-opacity: 1;"/><path class="point" transform="translate(200.65,251.42)" d="M3,0A3,3 0 1,1 0,-3A3,3 0 0,1 3,0Z" style="opacity: 1; stroke-width: 0px; fill: rgb(255, 255, 0); fill-opacity: 1;"/><path class="point" transform="translate(194.03,251.42)" d="M3,0A3,3 0 1,1 0,-3A3,3 0 0,1 3,0Z" style="opacity: 1; stroke-width: 0px; fill: rgb(255, 255, 0); fill-opacity: 1;"/><path class="point" transform="translate(190.07,251.42)" d="M3,0A3,3 0 1,1 0,-3A3,3 0 0,1 3,0Z" style="opacity: 1; stroke-width: 0px; fill: rgb(255, 255, 0); fill-opacity: 1;"/><path class="point" transform="translate(193.51,251.42)" d="M3,0A3,3 0 1,1 0,-3A3,3 0 0,1 3,0Z" style="opacity: 1; stroke-width: 0px; fill: rgb(255, 255, 0); fill-opacity: 1;"/><path class="point" transform="translate(195.52,249.9)" d="M3,0A3,3 0 1,1 0,-3A3,3 0 0,1 3,0Z" style="opacity: 1; stroke-width: 0px; fill: rgb(255, 255, 0); fill-opacity: 1;"/><path class="point" transform="translate(197.93,249.9)" d="M3,0A3,3 0 1,1 0,-3A3,3 0 0,1 3,0Z" style="opacity: 1; stroke-width: 0px; fill: rgb(255, 255, 0); fill-opacity: 1;"/><path class="point" transform="translate(196.14,249.9)" d="M3,0A3,3 0 1,1 0,-3A3,3 0 0,1 3,0Z" style="opacity: 1; stroke-width: 0px; fill: rgb(255, 255, 0); fill-opacity: 1;"/><path class="point" transform="translate(194.54,249.9)" d="M3,0A3,3 0 1,1 0,-3A3,3 0 0,1 3,0Z" style="opacity: 1; stroke-width: 0px; fill: rgb(255, 255, 0); fill-opacity: 1;"/><path class="point" transform="translate(192.52,249.9)" d="M3,0A3,3 0 1,1 0,-3A3,3 0 0,1 3,0Z" style="opacity: 1; stroke-width: 0px; fill: rgb(255, 255, 0); fill-opacity: 1;"/><path class="point" transform="translate(195.65,248.37)" d="M3,0A3,3 0 1,1 0,-3A3,3 0 0,1 3,0Z" style="opacity: 1; stroke-width: 0px; fill: rgb(255, 255, 0); fill-opacity: 1;"/><path class="point" transform="translate(194.71,243.8)" d="M3,0A3,3 0 1,1 0,-3A3,3 0 0,1 3,0Z" style="opacity: 1; stroke-width: 0px; fill: rgb(255, 255, 0); fill-opacity: 1;"/><path class="point" transform="translate(197.07,240.75)" d="M3,0A3,3 0 1,1 0,-3A3,3 0 0,1 3,0Z" style="opacity: 1; stroke-width: 0px; fill: rgb(255, 255, 0); fill-opacity: 1;"/><path class="point" transform="translate(195.4,239.23)" d="M3,0A3,3 0 1,1 0,-3A3,3 0 0,1 3,0Z" style="opacity: 1; stroke-width: 0px; fill: rgb(255, 255, 0); fill-opacity: 1;"/><path class="point" transform="translate(193.82,237.71)" d="M3,0A3,3 0 1,1 0,-3A3,3 0 0,1 3,0Z" style="opacity: 1; stroke-width: 0px; fill: rgb(255, 255, 0); fill-opacity: 1;"/><path class="point" transform="translate(193.18,233.14)" d="M3,0A3,3 0 1,1 0,-3A3,3 0 0,1 3,0Z" style="opacity: 1; stroke-width: 0px; fill: rgb(255, 255, 0); fill-opacity: 1;"/><path class="point" transform="translate(196.99,231.61)" d="M3,0A3,3 0 1,1 0,-3A3,3 0 0,1 3,0Z" style="opacity: 1; stroke-width: 0px; fill: rgb(255, 255, 0); fill-opacity: 1;"/><path class="point" transform="translate(193.65,228.57)" d="M3,0A3,3 0 1,1 0,-3A3,3 0 0,1 3,0Z" style="opacity: 1; stroke-width: 0px; fill: rgb(255, 255, 0); fill-opacity: 1;"/><path class="point" transform="translate(197.06,227.04)" d="M3,0A3,3 0 1,1 0,-3A3,3 0 0,1 3,0Z" style="opacity: 1; stroke-width: 0px; fill: rgb(255, 255, 0); fill-opacity: 1;"/><path class="point" transform="translate(196.18,225.52)" d="M3,0A3,3 0 1,1 0,-3A3,3 0 0,1 3,0Z" style="opacity: 1; stroke-width: 0px; fill: rgb(255, 255, 0); fill-opacity: 1;"/><path class="point" transform="translate(195.08,220.95)" d="M3,0A3,3 0 1,1 0,-3A3,3 0 0,1 3,0Z" style="opacity: 1; stroke-width: 0px; fill: rgb(255, 255, 0); fill-opacity: 1;"/><path class="point" transform="translate(194.59,208.76)" d="M3,0A3,3 0 1,1 0,-3A3,3 0 0,1 3,0Z" style="opacity: 1; stroke-width: 0px; fill: rgb(255, 255, 0); fill-opacity: 1;"/><path class="point" transform="translate(196.21,205.71)" d="M3,0A3,3 0 1,1 0,-3A3,3 0 0,1 3,0Z" style="opacity: 1; stroke-width: 0px; fill: rgb(255, 255, 0); fill-opacity: 1;"/><path class="point" transform="translate(195.54,204.19)" d="M3,0A3,3 0 1,1 0,-3A3,3 0 0,1 3,0Z" style="opacity: 1; stroke-width: 0px; fill: rgb(255, 255, 0); fill-opacity: 1;"/><path class="point" transform="translate(196.41,202.66)" d="M3,0A3,3 0 1,1 0,-3A3,3 0 0,1 3,0Z" style="opacity: 1; stroke-width: 0px; fill: rgb(255, 255, 0); fill-opacity: 1;"/><path class="point" transform="translate(194.79,182.86)" d="M3,0A3,3 0 1,1 0,-3A3,3 0 0,1 3,0Z" style="opacity: 1; stroke-width: 0px; fill: rgb(255, 255, 0); fill-opacity: 1;"/><path class="point" transform="translate(196.31,172.19)" d="M3,0A3,3 0 1,1 0,-3A3,3 0 0,1 3,0Z" style="opacity: 1; stroke-width: 0px; fill: rgb(255, 255, 0); fill-opacity: 1;"/><path class="point" transform="translate(195.59,94.48)" d="M3,0A3,3 0 1,1 0,-3A3,3 0 0,1 3,0Z" style="opacity: 1; stroke-width: 0px; fill: rgb(255, 255, 0); fill-opacity: 1;"/></g></g><g class="trace violins" style="opacity: 1;"><path class="violin" d="M251.5,267.11L256.63,267.11Q259.36,266.88 260.91,266.78C262.76,266.66 264.87,266.56 267,266.46C269.36,266.35 271.95,266.24 274.44,266.13C276.96,266.02 279.66,265.91 282.06,265.8C284.22,265.7 286.5,265.61 288.21,265.48C289.44,265.38 291.32,265.36 291.38,265.15C291.4,265.06 291.17,264.92 290.93,264.83C290.31,264.6 288.64,264.6 287.3,264.5C285.66,264.38 283.67,264.29 281.81,264.18C279.9,264.07 277.85,263.96 275.98,263.85C274.24,263.75 272.5,263.65 270.96,263.53C269.64,263.43 268.38,263.32 267.29,263.2C266.41,263.1 265.6,263.01 264.91,262.88C264.37,262.78 263.9,262.67 263.48,262.55C263.14,262.45 262.85,262.34 262.56,262.23C262.3,262.13 262.07,262.01 261.82,261.9C261.58,261.79 261.34,261.68 261.09,261.57C260.84,261.46 260.58,261.36 260.32,261.25C260.06,261.14 259.8,261.03 259.55,260.92C259.3,260.81 259.05,260.71 258.81,260.6C258.57,260.49 258.35,260.38 258.12,260.27C257.9,260.16 257.68,260.06 257.46,259.95C257.25,259.84 257.04,259.73 256.83,259.62C256.62,259.51 256.4,259.41 256.18,259.3C255.95,259.19 255.72,259.08 255.48,258.97C255.24,258.86 254.99,258.76 254.74,258.65C254.49,258.54 254.22,258.43 253.97,258.32C253.72,258.21 253.47,258.11 253.24,258C253.03,257.9 252.82,257.79 252.63,257.67C252.46,257.56 252.3,257.46 252.16,257.34C252.04,257.24 251.93,257.13 251.85,257.02C251.77,256.92 251.72,256.8 251.67,256.69C251.63,256.58 251.59,256.48 251.57,256.37C251.55,256.26 251.54,256.15 251.53,256.04C251.52,255.93 251.51,255.83 251.51,255.72C251.5,255.61 251.5,255.5 251.5,255.39C251.5,255.28 251.5,255.18 251.5,255.07C251.5,254.96 251.5,254.85 251.5,254.74C251.5,254.63 251.5,254.53 251.5,254.42C251.5,254.31 251.5,254.2 251.5,254.09C251.5,253.98 251.5,253.88 251.5,253.77C251.5,253.66 251.5,253.55 251.5,253.44C251.5,253.33 251.5,253.22 251.5,253.11C251.5,253 251.5,252.9 251.5,252.79C251.5,252.68 251.5,252.57 251.5,252.46C251.5,252.35 251.5,252.25 251.5,252.14C251.5,252.03 251.5,251.92 251.5,251.81C251.5,251.7 251.5,251.6 251.5,251.49C251.5,251.38 251.5,251.27 251.5,251.16C251.5,251.05 251.5,250.95 251.5,250.84C251.5,250.73 251.5,250.62 251.5,250.51C251.5,250.4 251.5,250.3 251.5,250.19C251.5,250.08 251.5,249.97 251.5,249.86C251.5,249.75 251.5,249.65 251.5,249.54C251.5,249.43 251.5,249.32 251.5,249.21C251.5,249.1 251.5,248.99 251.5,248.88C251.5,248.77 251.51,248.67 251.51,248.56C251.51,248.45 251.51,248.34 251.52,248.23C251.53,248.12 251.54,248.02 251.55,247.91C251.56,247.8 251.57,247.69 251.6,247.58C251.63,247.47 251.67,247.37 251.71,247.26C251.76,247.15 251.81,247.04 251.87,246.93C251.94,246.82 252.02,246.72 252.1,246.61C252.19,246.5 252.29,246.39 252.38,246.28C252.47,246.17 252.56,246.07 252.64,245.96C252.71,245.85 252.79,245.74 252.83,245.63C252.87,245.52 252.9,245.41 252.9,245.3C252.9,245.19 252.86,245.08 252.82,244.98C252.77,244.87 252.69,244.76 252.61,244.65C252.53,244.54 252.43,244.44 252.34,244.33C252.25,244.22 252.15,244.11 252.07,244C251.99,243.89 251.91,243.79 251.85,243.68Q251.79,243.57 251.69,243.35L251.5,243.35" style="vector-effect: none; stroke-width: 2px; stroke: rgb(255, 165, 0); stroke-opacity: 1; fill: rgb(255, 165, 0); fill-opacity: 0.5;"/><path class="meanline" d="M271.1008605957031,263.54H251.5" style="fill: none; vector-effect: none; stroke-width: 2px; stroke-dasharray: 4px, 2px; stroke: rgb(255, 165, 0); stroke-opacity: 1;"/><g class="points"><path class="point" transform="translate(311.48,265.13)" d="M3,0A3,3 0 1,1 0,-3A3,3 0 0,1 3,0Z" style="opacity: 1; stroke-width: 0px; fill: rgb(255, 165, 0); fill-opacity: 1;"/><path class="point" transform="translate(302.25,265.13)" d="M3,0A3,3 0 1,1 0,-3A3,3 0 0,1 3,0Z" style="opacity: 1; stroke-width: 0px; fill: rgb(255, 165, 0); fill-opacity: 1;"/><path class="point" transform="translate(313.52,265.13)" d="M3,0A3,3 0 1,1 0,-3A3,3 0 0,1 3,0Z" style="opacity: 1; stroke-width: 0px; fill: rgb(255, 165, 0); fill-opacity: 1;"/><path class="point" transform="translate(300.59,265.13)" d="M3,0A3,3 0 1,1 0,-3A3,3 0 0,1 3,0Z" style="opacity: 1; stroke-width: 0px; fill: rgb(255, 165, 0); fill-opacity: 1;"/><path class="point" transform="translate(305.37,265.13)" d="M3,0A3,3 0 1,1 0,-3A3,3 0 0,1 3,0Z" style="opacity: 1; stroke-width: 0px; fill: rgb(255, 165, 0); fill-opacity: 1;"/><path class="point" transform="translate(311.53,265.13)" d="M3,0A3,3 0 1,1 0,-3A3,3 0 0,1 3,0Z" style="opacity: 1; stroke-width: 0px; fill: rgb(255, 165, 0); fill-opacity: 1;"/><path class="point" transform="translate(307.04,265.13)" d="M3,0A3,3 0 1,1 0,-3A3,3 0 0,1 3,0Z" style="opacity: 1; stroke-width: 0px; fill: rgb(255, 165, 0); fill-opacity: 1;"/><path class="point" transform="translate(309.65,265.13)" d="M3,0A3,3 0 1,1 0,-3A3,3 0 0,1 3,0Z" style="opacity: 1; stroke-width: 0px; fill: rgb(255, 165, 0); fill-opacity: 1;"/><path class="point" transform="translate(304.79,265.13)" d="M3,0A3,3 0 1,1 0,-3A3,3 0 0,1 3,0Z" style="opacity: 1; stroke-width: 0px; fill: rgb(255, 165, 0); fill-opacity: 1;"/><path class="point" transform="translate(301.49,265.13)" d="M3,0A3,3 0 1,1 0,-3A3,3 0 0,1 3,0Z" style="opacity: 1; stroke-width: 0px; fill: rgb(255, 165, 0); fill-opacity: 1;"/><path class="point" transform="translate(309.47,265.13)" d="M3,0A3,3 0 1,1 0,-3A3,3 0 0,1 3,0Z" style="opacity: 1; stroke-width: 0px; fill: rgb(255, 165, 0); fill-opacity: 1;"/><path class="point" transform="translate(304.71,265.13)" d="M3,0A3,3 0 1,1 0,-3A3,3 0 0,1 3,0Z" style="opacity: 1; stroke-width: 0px; fill: rgb(255, 165, 0); fill-opacity: 1;"/><path class="point" transform="translate(312.39,265.13)" d="M3,0A3,3 0 1,1 0,-3A3,3 0 0,1 3,0Z" style="opacity: 1; stroke-width: 0px; fill: rgb(255, 165, 0); fill-opacity: 1;"/><path class="point" transform="translate(299.57,265.13)" d="M3,0A3,3 0 1,1 0,-3A3,3 0 0,1 3,0Z" style="opacity: 1; stroke-width: 0px; fill: rgb(255, 165, 0); fill-opacity: 1;"/><path class="point" transform="translate(302.72,265.13)" d="M3,0A3,3 0 1,1 0,-3A3,3 0 0,1 3,0Z" style="opacity: 1; stroke-width: 0px; fill: rgb(255, 165, 0); fill-opacity: 1;"/><path class="point" transform="translate(314.39,265.13)" d="M3,0A3,3 0 1,1 0,-3A3,3 0 0,1 3,0Z" style="opacity: 1; stroke-width: 0px; fill: rgb(255, 165, 0); fill-opacity: 1;"/><path class="point" transform="translate(305.34,265.13)" d="M3,0A3,3 0 1,1 0,-3A3,3 0 0,1 3,0Z" style="opacity: 1; stroke-width: 0px; fill: rgb(255, 165, 0); fill-opacity: 1;"/><path class="point" transform="translate(300.49,265.13)" d="M3,0A3,3 0 1,1 0,-3A3,3 0 0,1 3,0Z" style="opacity: 1; stroke-width: 0px; fill: rgb(255, 165, 0); fill-opacity: 1;"/><path class="point" transform="translate(304.7,265.13)" d="M3,0A3,3 0 1,1 0,-3A3,3 0 0,1 3,0Z" style="opacity: 1; stroke-width: 0px; fill: rgb(255, 165, 0); fill-opacity: 1;"/><path class="point" transform="translate(307.17,265.13)" d="M3,0A3,3 0 1,1 0,-3A3,3 0 0,1 3,0Z" style="opacity: 1; stroke-width: 0px; fill: rgb(255, 165, 0); fill-opacity: 1;"/><path class="point" transform="translate(310.93,265.13)" d="M3,0A3,3 0 1,1 0,-3A3,3 0 0,1 3,0Z" style="opacity: 1; stroke-width: 0px; fill: rgb(255, 165, 0); fill-opacity: 1;"/><path class="point" transform="translate(308.22,265.13)" d="M3,0A3,3 0 1,1 0,-3A3,3 0 0,1 3,0Z" style="opacity: 1; stroke-width: 0px; fill: rgb(255, 165, 0); fill-opacity: 1;"/><path class="point" transform="translate(306.4,265.13)" d="M3,0A3,3 0 1,1 0,-3A3,3 0 0,1 3,0Z" style="opacity: 1; stroke-width: 0px; fill: rgb(255, 165, 0); fill-opacity: 1;"/><path class="point" transform="translate(304.55,265.13)" d="M3,0A3,3 0 1,1 0,-3A3,3 0 0,1 3,0Z" style="opacity: 1; stroke-width: 0px; fill: rgb(255, 165, 0); fill-opacity: 1;"/><path class="point" transform="translate(307.33,265.13)" d="M3,0A3,3 0 1,1 0,-3A3,3 0 0,1 3,0Z" style="opacity: 1; stroke-width: 0px; fill: rgb(255, 165, 0); fill-opacity: 1;"/><path class="point" transform="translate(306.36,265.13)" d="M3,0A3,3 0 1,1 0,-3A3,3 0 0,1 3,0Z" style="opacity: 1; stroke-width: 0px; fill: rgb(255, 165, 0); fill-opacity: 1;"/><path class="point" transform="translate(308.89,265.13)" d="M3,0A3,3 0 1,1 0,-3A3,3 0 0,1 3,0Z" style="opacity: 1; stroke-width: 0px; fill: rgb(255, 165, 0); fill-opacity: 1;"/><path class="point" transform="translate(307.13,263.61)" d="M3,0A3,3 0 1,1 0,-3A3,3 0 0,1 3,0Z" style="opacity: 1; stroke-width: 0px; fill: rgb(255, 165, 0); fill-opacity: 1;"/><path class="point" transform="translate(305.79,263.61)" d="M3,0A3,3 0 1,1 0,-3A3,3 0 0,1 3,0Z" style="opacity: 1; stroke-width: 0px; fill: rgb(255, 165, 0); fill-opacity: 1;"/><path class="point" transform="translate(305.14,263.61)" d="M3,0A3,3 0 1,1 0,-3A3,3 0 0,1 3,0Z" style="opacity: 1; stroke-width: 0px; fill: rgb(255, 165, 0); fill-opacity: 1;"/><path class="point" transform="translate(308.67,263.61)" d="M3,0A3,3 0 1,1 0,-3A3,3 0 0,1 3,0Z" style="opacity: 1; stroke-width: 0px; fill: rgb(255, 165, 0); fill-opacity: 1;"/><path class="point" transform="translate(305.32,263.61)" d="M3,0A3,3 0 1,1 0,-3A3,3 0 0,1 3,0Z" style="opacity: 1; stroke-width: 0px; fill: rgb(255, 165, 0); fill-opacity: 1;"/><path class="point" transform="translate(308.74,262.09)" d="M3,0A3,3 0 1,1 0,-3A3,3 0 0,1 3,0Z" style="opacity: 1; stroke-width: 0px; fill: rgb(255, 165, 0); fill-opacity: 1;"/><path class="point" transform="translate(307.85,262.09)" d="M3,0A3,3 0 1,1 0,-3A3,3 0 0,1 3,0Z" style="opacity: 1; stroke-width: 0px; fill: rgb(255, 165, 0); fill-opacity: 1;"/><path class="point" transform="translate(306.63,262.09)" d="M3,0A3,3 0 1,1 0,-3A3,3 0 0,1 3,0Z" style="opacity: 1; stroke-width: 0px; fill: rgb(255, 165, 0); fill-opacity: 1;"/><path class="point" transform="translate(306.2,262.09)" d="M3,0A3,3 0 1,1 0,-3A3,3 0 0,1 3,0Z" style="opacity: 1; stroke-width: 0px; fill: rgb(255, 165, 0); fill-opacity: 1;"/><path class="point" transform="translate(308.21,262.09)" d="M3,0A3,3 0 1,1 0,-3A3,3 0 0,1 3,0Z" style="opacity: 1; stroke-width: 0px; fill: rgb(255, 165, 0); fill-opacity: 1;"/><path class="point" transform="translate(307.23,260.56)" d="M3,0A3,3 0 1,1 0,-3A3,3 0 0,1 3,0Z" style="opacity: 1; stroke-width: 0px; fill: rgb(255, 165, 0); fill-opacity: 1;"/><path class="point" transform="translate(307.99,260.56)" d="M3,0A3,3 0 1,1 0,-3A3,3 0 0,1 3,0Z" style="opacity: 1; stroke-width: 0px; fill: rgb(255, 165, 0); fill-opacity: 1;"/><path class="point" transform="translate(306.58,260.56)" d="M3,0A3,3 0 1,1 0,-3A3,3 0 0,1 3,0Z" style="opacity: 1; stroke-width: 0px; fill: rgb(255, 165, 0); fill-opacity: 1;"/><path class="point" transform="translate(307.87,259.04)" d="M3,0A3,3 0 1,1 0,-3A3,3 0 0,1 3,0Z" style="opacity: 1; stroke-width: 0px; fill: rgb(255, 165, 0); fill-opacity: 1;"/><path class="point" transform="translate(307.27,259.04)" d="M3,0A3,3 0 1,1 0,-3A3,3 0 0,1 3,0Z" style="opacity: 1; stroke-width: 0px; fill: rgb(255, 165, 0); fill-opacity: 1;"/><path class="point" transform="translate(307.04,245.33)" d="M3,0A3,3 0 1,1 0,-3A3,3 0 0,1 3,0Z" style="opacity: 1; stroke-width: 0px; fill: rgb(255, 165, 0); fill-opacity: 1;"/></g></g><g class="trace violins" style="opacity: 1;"><path class="violin" d="M411.04,250.29L410.86,250.29Q410.77,250.42 410.71,250.48C410.65,250.54 410.57,250.6 410.49,250.66C410.41,250.72 410.32,250.79 410.24,250.85C410.15,250.91 410.06,250.97 409.98,251.04C409.91,251.1 409.84,251.16 409.79,251.23C409.75,251.29 409.71,251.36 409.71,251.42C409.71,251.48 409.74,251.54 409.78,251.6C409.82,251.67 409.9,251.73 409.97,251.79C410.05,251.86 410.14,251.92 410.22,251.98C410.31,252.04 410.4,252.1 410.48,252.17C410.56,252.23 410.64,252.29 410.7,252.36C410.76,252.42 410.81,252.48 410.85,252.54C410.89,252.6 410.91,252.67 410.94,252.73C410.96,252.79 410.99,252.86 411,252.92C411.01,252.98 411.01,253.05 411.02,253.11C411.02,253.17 411.03,253.24 411.03,253.3C411.03,253.36 411.03,253.42 411.03,253.48C411.03,253.54 411.04,253.61 411.04,253.67C411.04,253.73 411.04,253.8 411.04,253.86C411.04,253.92 411.04,253.99 411.04,254.05C411.04,254.11 411.04,254.18 411.04,254.24C411.04,254.3 411.04,254.36 411.04,254.42C411.04,254.48 411.04,254.55 411.04,254.61C411.04,254.67 411.04,254.74 411.04,254.8C411.04,254.86 411.04,254.93 411.04,254.99C411.04,255.05 411.04,255.12 411.04,255.18C411.04,255.24 411.03,255.3 411.03,255.36C411.03,255.42 411.03,255.49 411.03,255.55C411.03,255.61 411.03,255.68 411.03,255.74C411.03,255.8 411.02,255.87 411.01,255.93C411,255.99 410.99,256.06 410.97,256.12C410.95,256.18 410.93,256.24 410.9,256.3C410.87,256.36 410.83,256.43 410.78,256.49C410.73,256.56 410.66,256.62 410.59,256.68C410.52,256.75 410.43,256.81 410.35,256.87C410.26,256.93 410.17,257 410.08,257.06C410,257.12 409.92,257.17 409.85,257.24C409.79,257.3 409.73,257.36 409.7,257.43C409.68,257.49 409.67,257.56 409.68,257.62C409.69,257.68 409.72,257.75 409.75,257.81C409.78,257.87 409.84,257.93 409.87,257.99C409.9,258.05 409.94,258.12 409.95,258.18C409.96,258.24 409.96,258.31 409.95,258.37C409.94,258.43 409.9,258.5 409.87,258.56C409.83,258.63 409.78,258.69 409.74,258.75C409.7,258.81 409.66,258.87 409.65,258.93C409.64,258.99 409.64,259.06 409.65,259.12C409.66,259.18 409.7,259.25 409.73,259.31C409.76,259.37 409.81,259.44 409.85,259.5C409.88,259.56 409.92,259.63 409.94,259.69C409.96,259.75 409.96,259.81 409.95,259.87C409.94,259.93 409.9,260 409.87,260.06C409.83,260.13 409.78,260.19 409.73,260.25C409.69,260.31 409.64,260.38 409.6,260.44C409.56,260.5 409.53,260.57 409.5,260.63C409.47,260.69 409.44,260.75 409.4,260.81C409.35,260.88 409.28,260.94 409.2,261C409.09,261.07 408.95,261.13 408.8,261.19C408.61,261.26 408.37,261.32 408.13,261.38C407.86,261.45 407.56,261.51 407.27,261.57C406.98,261.63 406.67,261.68 406.4,261.75C406.17,261.81 405.92,261.86 405.77,261.94C405.67,261.99 405.55,262.07 405.55,262.13C405.55,262.19 405.67,262.26 405.76,262.32C405.88,262.39 406.06,262.45 406.21,262.51C406.35,262.57 406.54,262.61 406.62,262.69C406.68,262.74 406.73,262.82 406.72,262.88C406.7,262.95 406.55,263.01 406.44,263.07C406.29,263.14 406.08,263.2 405.88,263.26C405.66,263.33 405.42,263.39 405.18,263.45C404.93,263.51 404.7,263.57 404.42,263.63C404.09,263.7 403.74,263.76 403.32,263.82C402.76,263.9 402.09,263.95 401.33,264.01C400.32,264.09 399.08,264.14 397.77,264.2C396.14,264.27 394.24,264.33 392.31,264.39C390.14,264.46 387.69,264.51 385.37,264.57C383.02,264.63 380.49,264.69 378.3,264.76C376.4,264.82 374.3,264.86 372.99,264.95C372.22,265 371.15,265.08 371.15,265.14C371.15,265.21 372.52,265.28 373.47,265.33C374.97,265.41 377.23,265.45 379.31,265.51C381.7,265.58 384.46,265.64 387.03,265.7C389.61,265.76 392.31,265.82 394.76,265.89C396.99,265.95 399.21,266.01 401.15,266.08Q402.78,266.14 405.66,266.27L411.04,266.27" style="vector-effect: none; stroke-width: 2px; stroke: rgb(128, 0, 0); stroke-opacity: 1; fill: rgb(128, 0, 0); fill-opacity: 0.5;"/><path class="meanline" d="M402.20574951171875,263.94H411.04" style="fill: none; vector-effect: none; stroke-width: 2px; stroke-dasharray: 4px, 2px; stroke: rgb(128, 0, 0); stroke-opacity: 1;"/><g class="points"><path class="point" transform="translate(359.34,265.13)" d="M3,0A3,3 0 1,1 0,-3A3,3 0 0,1 3,0Z" style="opacity: 1; stroke-width: 0px; fill: rgb(128, 0, 0); fill-opacity: 1;"/><path class="point" transform="translate(350.11,265.13)" d="M3,0A3,3 0 1,1 0,-3A3,3 0 0,1 3,0Z" style="opacity: 1; stroke-width: 0px; fill: rgb(128, 0, 0); fill-opacity: 1;"/><path class="point" transform="translate(361.38,265.13)" d="M3,0A3,3 0 1,1 0,-3A3,3 0 0,1 3,0Z" style="opacity: 1; stroke-width: 0px; fill: rgb(128, 0, 0); fill-opacity: 1;"/><path class="point" transform="translate(348.45,265.13)" d="M3,0A3,3 0 1,1 0,-3A3,3 0 0,1 3,0Z" style="opacity: 1; stroke-width: 0px; fill: rgb(128, 0, 0); fill-opacity: 1;"/><path class="point" transform="translate(353.23,265.13)" d="M3,0A3,3 0 1,1 0,-3A3,3 0 0,1 3,0Z" style="opacity: 1; stroke-width: 0px; fill: rgb(128, 0, 0); fill-opacity: 1;"/><path class="point" transform="translate(359.39,265.13)" d="M3,0A3,3 0 1,1 0,-3A3,3 0 0,1 3,0Z" style="opacity: 1; stroke-width: 0px; fill: rgb(128, 0, 0); fill-opacity: 1;"/><path class="point" transform="translate(354.9,265.13)" d="M3,0A3,3 0 1,1 0,-3A3,3 0 0,1 3,0Z" style="opacity: 1; stroke-width: 0px; fill: rgb(128, 0, 0); fill-opacity: 1;"/><path class="point" transform="translate(357.51,265.13)" d="M3,0A3,3 0 1,1 0,-3A3,3 0 0,1 3,0Z" style="opacity: 1; stroke-width: 0px; fill: rgb(128, 0, 0); fill-opacity: 1;"/><path class="point" transform="translate(352.65,265.13)" d="M3,0A3,3 0 1,1 0,-3A3,3 0 0,1 3,0Z" style="opacity: 1; stroke-width: 0px; fill: rgb(128, 0, 0); fill-opacity: 1;"/><path class="point" transform="translate(349.35,265.13)" d="M3,0A3,3 0 1,1 0,-3A3,3 0 0,1 3,0Z" style="opacity: 1; stroke-width: 0px; fill: rgb(128, 0, 0); fill-opacity: 1;"/><path class="point" transform="translate(357.33,265.13)" d="M3,0A3,3 0 1,1 0,-3A3,3 0 0,1 3,0Z" style="opacity: 1; stroke-width: 0px; fill: rgb(128, 0, 0); fill-opacity: 1;"/><path class="point" transform="translate(352.57,265.13)" d="M3,0A3,3 0 1,1 0,-3A3,3 0 0,1 3,0Z" style="opacity: 1; stroke-width: 0px; fill: rgb(128, 0, 0); fill-opacity: 1;"/><path class="point" transform="translate(360.26,265.13)" d="M3,0A3,3 0 1,1 0,-3A3,3 0 0,1 3,0Z" style="opacity: 1; stroke-width: 0px; fill: rgb(128, 0, 0); fill-opacity: 1;"/><path class="point" transform="translate(347.43,265.13)" d="M3,0A3,3 0 1,1 0,-3A3,3 0 0,1 3,0Z" style="opacity: 1; stroke-width: 0px; fill: rgb(128, 0, 0); fill-opacity: 1;"/><path class="point" transform="translate(350.58,265.13)" d="M3,0A3,3 0 1,1 0,-3A3,3 0 0,1 3,0Z" style="opacity: 1; stroke-width: 0px; fill: rgb(128, 0, 0); fill-opacity: 1;"/><path class="point" transform="translate(362.25,265.13)" d="M3,0A3,3 0 1,1 0,-3A3,3 0 0,1 3,0Z" style="opacity: 1; stroke-width: 0px; fill: rgb(128, 0, 0); fill-opacity: 1;"/><path class="point" transform="translate(353.2,265.13)" d="M3,0A3,3 0 1,1 0,-3A3,3 0 0,1 3,0Z" style="opacity: 1; stroke-width: 0px; fill: rgb(128, 0, 0); fill-opacity: 1;"/><path class="point" transform="translate(348.35,265.13)" d="M3,0A3,3 0 1,1 0,-3A3,3 0 0,1 3,0Z" style="opacity: 1; stroke-width: 0px; fill: rgb(128, 0, 0); fill-opacity: 1;"/><path class="point" transform="translate(352.56,265.13)" d="M3,0A3,3 0 1,1 0,-3A3,3 0 0,1 3,0Z" style="opacity: 1; stroke-width: 0px; fill: rgb(128, 0, 0); fill-opacity: 1;"/><path class="point" transform="translate(355.03,265.13)" d="M3,0A3,3 0 1,1 0,-3A3,3 0 0,1 3,0Z" style="opacity: 1; stroke-width: 0px; fill: rgb(128, 0, 0); fill-opacity: 1;"/><path class="point" transform="translate(358.79,265.13)" d="M3,0A3,3 0 1,1 0,-3A3,3 0 0,1 3,0Z" style="opacity: 1; stroke-width: 0px; fill: rgb(128, 0, 0); fill-opacity: 1;"/><path class="point" transform="translate(356.08,265.13)" d="M3,0A3,3 0 1,1 0,-3A3,3 0 0,1 3,0Z" style="opacity: 1; stroke-width: 0px; fill: rgb(128, 0, 0); fill-opacity: 1;"/><path class="point" transform="translate(352.95,265.13)" d="M3,0A3,3 0 1,1 0,-3A3,3 0 0,1 3,0Z" style="opacity: 1; stroke-width: 0px; fill: rgb(128, 0, 0); fill-opacity: 1;"/><path class="point" transform="translate(348.53,265.13)" d="M3,0A3,3 0 1,1 0,-3A3,3 0 0,1 3,0Z" style="opacity: 1; stroke-width: 0px; fill: rgb(128, 0, 0); fill-opacity: 1;"/><path class="point" transform="translate(355.17,265.13)" d="M3,0A3,3 0 1,1 0,-3A3,3 0 0,1 3,0Z" style="opacity: 1; stroke-width: 0px; fill: rgb(128, 0, 0); fill-opacity: 1;"/><path class="point" transform="translate(354.46,265.13)" d="M3,0A3,3 0 1,1 0,-3A3,3 0 0,1 3,0Z" style="opacity: 1; stroke-width: 0px; fill: rgb(128, 0, 0); fill-opacity: 1;"/><path class="point" transform="translate(356.37,265.13)" d="M3,0A3,3 0 1,1 0,-3A3,3 0 0,1 3,0Z" style="opacity: 1; stroke-width: 0px; fill: rgb(128, 0, 0); fill-opacity: 1;"/><path class="point" transform="translate(354.97,265.13)" d="M3,0A3,3 0 1,1 0,-3A3,3 0 0,1 3,0Z" style="opacity: 1; stroke-width: 0px; fill: rgb(128, 0, 0); fill-opacity: 1;"/><path class="point" transform="translate(353.55,265.13)" d="M3,0A3,3 0 1,1 0,-3A3,3 0 0,1 3,0Z" style="opacity: 1; stroke-width: 0px; fill: rgb(128, 0, 0); fill-opacity: 1;"/><path class="point" transform="translate(353.53,265.13)" d="M3,0A3,3 0 1,1 0,-3A3,3 0 0,1 3,0Z" style="opacity: 1; stroke-width: 0px; fill: rgb(128, 0, 0); fill-opacity: 1;"/><path class="point" transform="translate(356.2,263.61)" d="M3,0A3,3 0 1,1 0,-3A3,3 0 0,1 3,0Z" style="opacity: 1; stroke-width: 0px; fill: rgb(128, 0, 0); fill-opacity: 1;"/><path class="point" transform="translate(353.67,263.61)" d="M3,0A3,3 0 1,1 0,-3A3,3 0 0,1 3,0Z" style="opacity: 1; stroke-width: 0px; fill: rgb(128, 0, 0); fill-opacity: 1;"/><path class="point" transform="translate(356.26,263.61)" d="M3,0A3,3 0 1,1 0,-3A3,3 0 0,1 3,0Z" style="opacity: 1; stroke-width: 0px; fill: rgb(128, 0, 0); fill-opacity: 1;"/><path class="point" transform="translate(355.52,263.61)" d="M3,0A3,3 0 1,1 0,-3A3,3 0 0,1 3,0Z" style="opacity: 1; stroke-width: 0px; fill: rgb(128, 0, 0); fill-opacity: 1;"/><path class="point" transform="translate(354.82,262.09)" d="M3,0A3,3 0 1,1 0,-3A3,3 0 0,1 3,0Z" style="opacity: 1; stroke-width: 0px; fill: rgb(128, 0, 0); fill-opacity: 1;"/><path class="point" transform="translate(354.45,262.09)" d="M3,0A3,3 0 1,1 0,-3A3,3 0 0,1 3,0Z" style="opacity: 1; stroke-width: 0px; fill: rgb(128, 0, 0); fill-opacity: 1;"/><path class="point" transform="translate(355.6,262.09)" d="M3,0A3,3 0 1,1 0,-3A3,3 0 0,1 3,0Z" style="opacity: 1; stroke-width: 0px; fill: rgb(128, 0, 0); fill-opacity: 1;"/><path class="point" transform="translate(355.11,262.09)" d="M3,0A3,3 0 1,1 0,-3A3,3 0 0,1 3,0Z" style="opacity: 1; stroke-width: 0px; fill: rgb(128, 0, 0); fill-opacity: 1;"/><path class="point" transform="translate(355.75,260.56)" d="M3,0A3,3 0 1,1 0,-3A3,3 0 0,1 3,0Z" style="opacity: 1; stroke-width: 0px; fill: rgb(128, 0, 0); fill-opacity: 1;"/><path class="point" transform="translate(354.53,259.04)" d="M3,0A3,3 0 1,1 0,-3A3,3 0 0,1 3,0Z" style="opacity: 1; stroke-width: 0px; fill: rgb(128, 0, 0); fill-opacity: 1;"/><path class="point" transform="translate(355.67,257.52)" d="M3,0A3,3 0 1,1 0,-3A3,3 0 0,1 3,0Z" style="opacity: 1; stroke-width: 0px; fill: rgb(128, 0, 0); fill-opacity: 1;"/><path class="point" transform="translate(355.14,251.42)" d="M3,0A3,3 0 1,1 0,-3A3,3 0 0,1 3,0Z" style="opacity: 1; stroke-width: 0px; fill: rgb(128, 0, 0); fill-opacity: 1;"/></g></g><g class="trace violins" style="opacity: 1;"><path class="violin" d="M411.04,265.16L416.43,265.16Q419.32,265.16 420.96,265.16C422.92,265.16 425.15,265.15 427.39,265.15C429.86,265.15 432.57,265.15 435.15,265.15C437.73,265.15 440.49,265.14 442.88,265.14C444.96,265.14 447.22,265.14 448.7,265.14C449.61,265.14 450.92,265.13 450.92,265.13C450.92,265.13 449.72,265.13 448.86,265.13C447.43,265.13 445.19,265.12 443.15,265.12C440.78,265.12 438.03,265.12 435.46,265.12C432.87,265.12 430.15,265.11 427.67,265.11C425.41,265.11 423.16,265.11 421.18,265.11C419.51,265.11 417.92,265.1 416.57,265.1C415.51,265.1 414.54,265.1 413.74,265.1C413.16,265.1 412.63,265.09 412.22,265.09C411.94,265.09 411.69,265.09 411.5,265.09C411.38,265.09 411.28,265.08 411.2,265.08C411.15,265.08 411.12,265.08 411.09,265.08C411.07,265.08 411.06,265.07 411.05,265.07C411.05,265.07 411.04,265.07 411.04,265.07C411.04,265.07 411.04,265.06 411.04,265.06C411.04,265.06 411.04,265.06 411.04,265.06C411.04,265.06 411.04,265.05 411.04,265.05C411.04,265.05 411.04,265.05 411.04,265.05C411.04,265.05 411.04,265.04 411.04,265.04C411.04,265.04 411.04,265.04 411.04,265.04C411.04,265.04 411.04,265.03 411.04,265.03C411.04,265.03 411.04,265.03 411.04,265.03C411.04,265.03 411.04,265.02 411.04,265.02C411.04,265.02 411.04,265.02 411.04,265.02C411.04,265.02 411.04,265.01 411.04,265.01C411.04,265.01 411.04,265.01 411.04,265.01C411.04,265.01 411.04,265 411.04,265C411.04,265 411.04,265 411.04,265C411.04,265 411.04,264.99 411.04,264.99C411.04,264.99 411.04,264.99 411.04,264.99C411.04,264.99 411.04,264.98 411.04,264.98C411.04,264.98 411.04,264.98 411.04,264.98C411.04,264.98 411.04,264.97 411.04,264.97C411.04,264.97 411.04,264.97 411.04,264.97C411.04,264.97 411.04,264.96 411.04,264.96C411.04,264.96 411.04,264.96 411.04,264.96C411.04,264.96 411.04,264.95 411.04,264.95C411.04,264.95 411.04,264.95 411.04,264.95C411.04,264.95 411.04,264.94 411.04,264.94C411.04,264.94 411.04,264.94 411.04,264.94C411.04,264.94 411.04,264.93 411.04,264.93C411.04,264.93 411.04,264.93 411.04,264.93C411.04,264.93 411.04,264.92 411.04,264.92C411.04,264.92 411.04,264.92 411.04,264.92C411.04,264.92 411.04,264.91 411.04,264.91C411.04,264.91 411.04,264.91 411.04,264.91C411.04,264.91 411.04,264.9 411.04,264.9C411.04,264.9 411.04,264.9 411.04,264.9C411.04,264.9 411.04,264.89 411.04,264.89C411.04,264.89 411.04,264.89 411.04,264.89C411.04,264.89 411.04,264.88 411.04,264.88C411.04,264.88 411.04,264.88 411.04,264.88C411.04,264.88 411.04,264.87 411.04,264.87C411.04,264.87 411.04,264.87 411.04,264.87C411.04,264.87 411.04,264.86 411.04,264.86C411.04,264.86 411.04,264.86 411.04,264.86C411.04,264.86 411.04,264.85 411.04,264.85C411.04,264.85 411.04,264.84 411.04,264.84C411.04,264.84 411.04,264.84 411.04,264.84C411.04,264.84 411.04,264.83 411.04,264.83C411.04,264.83 411.04,264.83 411.04,264.83C411.04,264.83 411.04,264.82 411.04,264.82C411.04,264.82 411.04,264.82 411.04,264.82C411.04,264.82 411.04,264.81 411.04,264.81C411.04,264.81 411.04,264.81 411.04,264.81C411.04,264.81 411.04,264.8 411.04,264.8C411.04,264.8 411.04,264.8 411.04,264.8C411.04,264.8 411.04,264.79 411.04,264.79C411.04,264.79 411.04,264.79 411.04,264.79C411.04,264.79 411.04,264.78 411.04,264.78C411.04,264.78 411.04,264.78 411.04,264.78C411.04,264.78 411.04,264.77 411.04,264.77C411.04,264.77 411.04,264.77 411.04,264.77C411.04,264.77 411.04,264.76 411.04,264.76C411.04,264.76 411.04,264.76 411.04,264.76C411.04,264.76 411.04,264.75 411.04,264.75C411.04,264.75 411.04,264.75 411.04,264.75C411.04,264.75 411.04,264.74 411.04,264.74C411.04,264.74 411.04,264.74 411.04,264.74C411.04,264.74 411.04,264.73 411.04,264.73C411.04,264.73 411.04,264.73 411.04,264.73C411.04,264.73 411.04,264.72 411.04,264.72C411.04,264.72 411.04,264.72 411.04,264.72C411.04,264.72 411.04,264.71 411.04,264.71C411.04,264.71 411.04,264.71 411.04,264.71C411.04,264.71 411.04,264.7 411.04,264.7C411.04,264.7 411.04,264.7 411.04,264.7C411.04,264.7 411.04,264.69 411.04,264.69C411.04,264.69 411.04,264.69 411.04,264.69C411.04,264.69 411.04,264.68 411.04,264.68C411.04,264.68 411.04,264.68 411.04,264.68C411.04,264.68 411.04,264.67 411.04,264.67C411.04,264.67 411.04,264.67 411.04,264.67C411.04,264.67 411.04,264.66 411.04,264.66C411.04,264.66 411.04,264.66 411.04,264.66C411.04,264.66 411.04,264.65 411.04,264.65C411.04,264.65 411.04,264.65 411.04,264.65C411.04,264.65 411.04,264.64 411.04,264.64C411.04,264.64 411.04,264.64 411.04,264.64C411.04,264.64 411.04,264.63 411.04,264.63C411.04,264.63 411.04,264.63 411.04,264.63C411.04,264.63 411.04,264.62 411.04,264.62C411.04,264.62 411.04,264.62 411.04,264.62C411.04,264.62 411.04,264.61 411.04,264.61C411.04,264.61 411.04,264.61 411.04,264.61C411.04,264.61 411.04,264.6 411.04,264.6C411.04,264.6 411.04,264.6 411.04,264.6C411.04,264.6 411.04,264.59 411.04,264.59C411.04,264.59 411.04,264.59 411.04,264.59C411.04,264.59 411.04,264.58 411.04,264.58C411.04,264.58 411.04,264.58 411.04,264.58C411.04,264.58 411.04,264.57 411.04,264.57C411.04,264.57 411.04,264.57 411.04,264.57C411.04,264.57 411.04,264.56 411.04,264.56C411.04,264.56 411.04,264.56 411.04,264.56C411.04,264.56 411.04,264.55 411.04,264.55C411.04,264.55 411.04,264.55 411.04,264.55C411.04,264.55 411.04,264.54 411.04,264.54C411.04,264.54 411.04,264.54 411.04,264.54C411.04,264.54 411.04,264.53 411.04,264.53C411.04,264.53 411.04,264.53 411.04,264.53C411.04,264.53 411.04,264.52 411.04,264.52C411.04,264.52 411.04,264.52 411.04,264.52C411.04,264.52 411.04,264.51 411.04,264.51C411.04,264.51 411.04,264.51 411.04,264.51C411.04,264.51 411.04,264.5 411.04,264.5C411.04,264.5 411.04,264.5 411.04,264.5C411.04,264.5 411.04,264.49 411.04,264.49C411.04,264.49 411.04,264.49 411.04,264.49C411.04,264.49 411.04,264.48 411.04,264.48C411.04,264.48 411.04,264.48 411.04,264.48C411.04,264.48 411.04,264.47 411.04,264.47C411.04,264.47 411.04,264.47 411.04,264.47C411.04,264.47 411.04,264.46 411.04,264.46C411.04,264.46 411.04,264.46 411.04,264.46C411.04,264.46 411.04,264.45 411.04,264.45C411.04,264.45 411.04,264.45 411.04,264.45C411.04,264.45 411.04,264.44 411.04,264.44C411.04,264.44 411.04,264.43 411.04,264.43C411.04,264.43 411.04,264.43 411.04,264.43C411.04,264.43 411.04,264.42 411.04,264.42C411.04,264.42 411.04,264.42 411.04,264.42C411.04,264.42 411.04,264.41 411.04,264.41C411.04,264.41 411.04,264.41 411.04,264.41C411.04,264.41 411.04,264.4 411.04,264.4C411.04,264.4 411.04,264.4 411.04,264.4C411.04,264.4 411.04,264.39 411.04,264.39C411.04,264.39 411.04,264.39 411.04,264.39C411.04,264.39 411.04,264.38 411.04,264.38C411.04,264.38 411.04,264.38 411.04,264.38C411.04,264.38 411.04,264.37 411.04,264.37C411.04,264.37 411.04,264.37 411.04,264.37C411.04,264.37 411.04,264.36 411.04,264.36C411.04,264.36 411.04,264.36 411.04,264.36C411.04,264.36 411.04,264.35 411.04,264.35C411.04,264.35 411.04,264.35 411.04,264.35C411.04,264.35 411.04,264.34 411.04,264.34C411.04,264.34 411.04,264.34 411.04,264.34C411.04,264.34 411.04,264.33 411.04,264.33C411.04,264.33 411.04,264.33 411.04,264.33C411.04,264.33 411.04,264.32 411.04,264.32C411.04,264.32 411.04,264.32 411.04,264.32C411.04,264.32 411.04,264.31 411.04,264.31C411.04,264.31 411.04,264.31 411.04,264.31C411.04,264.31 411.04,264.3 411.04,264.3C411.04,264.3 411.04,264.3 411.04,264.3C411.04,264.3 411.04,264.29 411.04,264.29C411.04,264.29 411.04,264.29 411.04,264.29C411.04,264.29 411.04,264.28 411.04,264.28C411.04,264.28 411.04,264.28 411.04,264.28C411.04,264.28 411.04,264.27 411.04,264.27C411.04,264.27 411.04,264.27 411.04,264.27C411.04,264.27 411.04,264.26 411.04,264.26C411.04,264.26 411.04,264.26 411.04,264.26C411.04,264.26 411.04,264.25 411.04,264.25C411.04,264.25 411.04,264.25 411.04,264.25C411.04,264.25 411.04,264.24 411.04,264.24C411.04,264.24 411.04,264.24 411.04,264.24C411.04,264.24 411.04,264.23 411.04,264.23C411.04,264.23 411.04,264.23 411.04,264.23C411.04,264.23 411.04,264.22 411.04,264.22C411.04,264.22 411.04,264.22 411.04,264.22C411.04,264.22 411.04,264.21 411.04,264.21C411.04,264.21 411.04,264.21 411.04,264.21C411.04,264.21 411.04,264.2 411.04,264.2C411.04,264.2 411.04,264.2 411.04,264.2C411.04,264.2 411.04,264.19 411.04,264.19C411.04,264.19 411.04,264.19 411.04,264.19C411.04,264.19 411.04,264.18 411.04,264.18C411.04,264.18 411.04,264.18 411.04,264.18C411.04,264.18 411.04,264.17 411.04,264.17C411.04,264.17 411.04,264.17 411.04,264.17C411.04,264.17 411.04,264.16 411.04,264.16C411.04,264.16 411.04,264.16 411.04,264.16C411.04,264.16 411.04,264.15 411.04,264.15C411.04,264.15 411.04,264.15 411.04,264.15C411.04,264.15 411.04,264.14 411.04,264.14C411.04,264.14 411.04,264.14 411.04,264.14C411.04,264.14 411.04,264.13 411.04,264.13C411.04,264.13 411.04,264.13 411.04,264.13C411.04,264.13 411.04,264.12 411.04,264.12C411.04,264.12 411.04,264.12 411.04,264.12C411.04,264.12 411.04,264.11 411.04,264.11C411.04,264.11 411.04,264.11 411.04,264.11C411.04,264.11 411.04,264.1 411.04,264.1C411.04,264.1 411.04,264.1 411.04,264.1C411.04,264.1 411.04,264.09 411.04,264.09C411.04,264.09 411.04,264.09 411.04,264.09C411.04,264.09 411.04,264.08 411.04,264.08C411.04,264.08 411.04,264.08 411.04,264.08C411.04,264.08 411.04,264.07 411.04,264.07C411.04,264.07 411.04,264.07 411.04,264.07C411.04,264.07 411.04,264.06 411.04,264.06C411.04,264.06 411.04,264.06 411.04,264.06C411.04,264.06 411.04,264.05 411.04,264.05C411.04,264.05 411.04,264.05 411.04,264.05C411.04,264.05 411.04,264.04 411.04,264.04C411.04,264.04 411.04,264.03 411.04,264.03C411.04,264.03 411.04,264.03 411.04,264.03C411.04,264.03 411.04,264.02 411.04,264.02C411.04,264.02 411.04,264.02 411.04,264.02C411.04,264.02 411.04,264.01 411.04,264.01C411.04,264.01 411.04,264.01 411.04,264.01C411.04,264.01 411.04,264 411.04,264C411.04,264 411.04,264 411.04,264C411.04,264 411.04,263.99 411.04,263.99C411.04,263.99 411.04,263.99 411.04,263.99C411.04,263.99 411.04,263.98 411.04,263.98C411.04,263.98 411.04,263.98 411.04,263.98C411.04,263.98 411.04,263.97 411.04,263.97C411.04,263.97 411.04,263.97 411.04,263.97C411.04,263.97 411.04,263.96 411.04,263.96C411.04,263.96 411.04,263.96 411.04,263.96C411.04,263.96 411.04,263.95 411.04,263.95C411.04,263.95 411.04,263.95 411.04,263.95C411.04,263.95 411.04,263.94 411.04,263.94C411.04,263.94 411.04,263.94 411.04,263.94C411.04,263.94 411.04,263.93 411.04,263.93C411.04,263.93 411.04,263.93 411.04,263.93C411.04,263.93 411.04,263.92 411.04,263.92C411.04,263.92 411.04,263.92 411.04,263.92C411.04,263.92 411.04,263.91 411.04,263.91C411.04,263.91 411.04,263.91 411.04,263.91C411.04,263.91 411.04,263.9 411.04,263.9C411.04,263.9 411.04,263.9 411.04,263.9C411.04,263.9 411.04,263.89 411.04,263.89C411.04,263.89 411.04,263.89 411.04,263.89C411.04,263.89 411.04,263.88 411.04,263.88C411.04,263.88 411.04,263.88 411.04,263.88C411.04,263.88 411.04,263.87 411.04,263.87C411.04,263.87 411.04,263.87 411.04,263.87C411.04,263.87 411.04,263.86 411.04,263.86C411.04,263.86 411.04,263.86 411.04,263.86C411.04,263.86 411.04,263.85 411.04,263.85C411.04,263.85 411.04,263.85 411.04,263.85C411.04,263.85 411.04,263.84 411.04,263.84C411.04,263.84 411.04,263.84 411.04,263.84C411.04,263.84 411.04,263.83 411.04,263.83C411.04,263.83 411.04,263.83 411.04,263.83C411.04,263.83 411.04,263.82 411.04,263.82C411.04,263.82 411.04,263.82 411.04,263.82C411.04,263.82 411.04,263.81 411.04,263.81C411.04,263.81 411.04,263.81 411.04,263.81C411.04,263.81 411.04,263.8 411.04,263.8C411.04,263.8 411.04,263.8 411.04,263.8C411.04,263.8 411.04,263.79 411.04,263.79C411.04,263.79 411.04,263.79 411.04,263.79C411.04,263.79 411.04,263.78 411.04,263.78C411.04,263.78 411.04,263.78 411.04,263.78C411.04,263.78 411.04,263.77 411.04,263.77C411.04,263.77 411.04,263.77 411.04,263.77C411.04,263.77 411.04,263.76 411.04,263.76C411.04,263.76 411.04,263.76 411.04,263.76C411.04,263.76 411.04,263.75 411.04,263.75C411.04,263.75 411.04,263.75 411.04,263.75C411.04,263.75 411.04,263.74 411.04,263.74C411.04,263.74 411.04,263.74 411.04,263.74C411.04,263.74 411.04,263.73 411.04,263.73C411.04,263.73 411.04,263.73 411.04,263.73C411.04,263.73 411.04,263.72 411.04,263.72C411.04,263.72 411.04,263.72 411.04,263.72C411.04,263.72 411.04,263.71 411.04,263.71C411.04,263.71 411.04,263.71 411.04,263.71C411.04,263.71 411.04,263.7 411.04,263.7C411.04,263.7 411.04,263.7 411.04,263.7C411.04,263.7 411.04,263.69 411.04,263.69C411.04,263.69 411.04,263.69 411.04,263.69C411.04,263.69 411.04,263.68 411.04,263.68C411.04,263.68 411.04,263.68 411.04,263.68C411.04,263.68 411.04,263.67 411.04,263.67C411.04,263.67 411.04,263.67 411.04,263.67C411.04,263.67 411.04,263.66 411.04,263.66C411.04,263.66 411.05,263.66 411.05,263.66C411.06,263.66 411.06,263.65 411.07,263.65C411.08,263.65 411.09,263.65 411.1,263.65C411.12,263.65 411.14,263.64 411.17,263.64C411.2,263.64 411.25,263.64 411.29,263.64C411.34,263.64 411.39,263.63 411.45,263.63C411.51,263.63 411.58,263.62 411.65,263.62C411.71,263.62 411.78,263.62 411.84,263.62C411.89,263.62 411.95,263.61 411.98,263.61C412,263.61 412.03,263.61 412.03,263.61C412.03,263.61 412,263.6 411.98,263.6C411.94,263.6 411.88,263.6 411.83,263.6C411.77,263.6 411.7,263.59 411.64,263.59C411.57,263.59 411.5,263.59 411.44,263.59C411.38,263.59 411.33,263.58 411.28,263.58Q411.24,263.58 411.17,263.58L411.04,263.58" style="vector-effect: none; stroke-width: 2px; stroke: rgb(255, 0, 0); stroke-opacity: 1; fill: rgb(255, 0, 0); fill-opacity: 0.5;"/><path class="meanline" d="M415.4373779296875,265.1H411.04" style="fill: none; vector-effect: none; stroke-width: 2px; stroke-dasharray: 4px, 2px; stroke: rgb(255, 0, 0); stroke-opacity: 1;"/><g class="points"><path class="point" transform="translate(471.01,265.13)" d="M3,0A3,3 0 1,1 0,-3A3,3 0 0,1 3,0Z" style="opacity: 1; stroke-width: 0px; fill: rgb(255, 0, 0); fill-opacity: 1;"/><path class="point" transform="translate(461.79,265.13)" d="M3,0A3,3 0 1,1 0,-3A3,3 0 0,1 3,0Z" style="opacity: 1; stroke-width: 0px; fill: rgb(255, 0, 0); fill-opacity: 1;"/><path class="point" transform="translate(473.06,265.13)" d="M3,0A3,3 0 1,1 0,-3A3,3 0 0,1 3,0Z" style="opacity: 1; stroke-width: 0px; fill: rgb(255, 0, 0); fill-opacity: 1;"/><path class="point" transform="translate(460.13,265.13)" d="M3,0A3,3 0 1,1 0,-3A3,3 0 0,1 3,0Z" style="opacity: 1; stroke-width: 0px; fill: rgb(255, 0, 0); fill-opacity: 1;"/><path class="point" transform="translate(464.91,265.13)" d="M3,0A3,3 0 1,1 0,-3A3,3 0 0,1 3,0Z" style="opacity: 1; stroke-width: 0px; fill: rgb(255, 0, 0); fill-opacity: 1;"/><path class="point" transform="translate(471.06,265.13)" d="M3,0A3,3 0 1,1 0,-3A3,3 0 0,1 3,0Z" style="opacity: 1; stroke-width: 0px; fill: rgb(255, 0, 0); fill-opacity: 1;"/><path class="point" transform="translate(466.58,265.13)" d="M3,0A3,3 0 1,1 0,-3A3,3 0 0,1 3,0Z" style="opacity: 1; stroke-width: 0px; fill: rgb(255, 0, 0); fill-opacity: 1;"/><path class="point" transform="translate(469.19,265.13)" d="M3,0A3,3 0 1,1 0,-3A3,3 0 0,1 3,0Z" style="opacity: 1; stroke-width: 0px; fill: rgb(255, 0, 0); fill-opacity: 1;"/><path class="point" transform="translate(464.33,265.13)" d="M3,0A3,3 0 1,1 0,-3A3,3 0 0,1 3,0Z" style="opacity: 1; stroke-width: 0px; fill: rgb(255, 0, 0); fill-opacity: 1;"/><path class="point" transform="translate(461.03,265.13)" d="M3,0A3,3 0 1,1 0,-3A3,3 0 0,1 3,0Z" style="opacity: 1; stroke-width: 0px; fill: rgb(255, 0, 0); fill-opacity: 1;"/><path class="point" transform="translate(469,265.13)" d="M3,0A3,3 0 1,1 0,-3A3,3 0 0,1 3,0Z" style="opacity: 1; stroke-width: 0px; fill: rgb(255, 0, 0); fill-opacity: 1;"/><path class="point" transform="translate(464.25,265.13)" d="M3,0A3,3 0 1,1 0,-3A3,3 0 0,1 3,0Z" style="opacity: 1; stroke-width: 0px; fill: rgb(255, 0, 0); fill-opacity: 1;"/><path class="point" transform="translate(471.93,265.13)" d="M3,0A3,3 0 1,1 0,-3A3,3 0 0,1 3,0Z" style="opacity: 1; stroke-width: 0px; fill: rgb(255, 0, 0); fill-opacity: 1;"/><path class="point" transform="translate(459.11,265.13)" d="M3,0A3,3 0 1,1 0,-3A3,3 0 0,1 3,0Z" style="opacity: 1; stroke-width: 0px; fill: rgb(255, 0, 0); fill-opacity: 1;"/><path class="point" transform="translate(462.26,265.13)" d="M3,0A3,3 0 1,1 0,-3A3,3 0 0,1 3,0Z" style="opacity: 1; stroke-width: 0px; fill: rgb(255, 0, 0); fill-opacity: 1;"/><path class="point" transform="translate(473.93,265.13)" d="M3,0A3,3 0 1,1 0,-3A3,3 0 0,1 3,0Z" style="opacity: 1; stroke-width: 0px; fill: rgb(255, 0, 0); fill-opacity: 1;"/><path class="point" transform="translate(464.87,265.13)" d="M3,0A3,3 0 1,1 0,-3A3,3 0 0,1 3,0Z" style="opacity: 1; stroke-width: 0px; fill: rgb(255, 0, 0); fill-opacity: 1;"/><path class="point" transform="translate(460.03,265.13)" d="M3,0A3,3 0 1,1 0,-3A3,3 0 0,1 3,0Z" style="opacity: 1; stroke-width: 0px; fill: rgb(255, 0, 0); fill-opacity: 1;"/><path class="point" transform="translate(464.24,265.13)" d="M3,0A3,3 0 1,1 0,-3A3,3 0 0,1 3,0Z" style="opacity: 1; stroke-width: 0px; fill: rgb(255, 0, 0); fill-opacity: 1;"/><path class="point" transform="translate(466.7,265.13)" d="M3,0A3,3 0 1,1 0,-3A3,3 0 0,1 3,0Z" style="opacity: 1; stroke-width: 0px; fill: rgb(255, 0, 0); fill-opacity: 1;"/><path class="point" transform="translate(470.46,265.13)" d="M3,0A3,3 0 1,1 0,-3A3,3 0 0,1 3,0Z" style="opacity: 1; stroke-width: 0px; fill: rgb(255, 0, 0); fill-opacity: 1;"/><path class="point" transform="translate(467.76,265.13)" d="M3,0A3,3 0 1,1 0,-3A3,3 0 0,1 3,0Z" style="opacity: 1; stroke-width: 0px; fill: rgb(255, 0, 0); fill-opacity: 1;"/><path class="point" transform="translate(464.62,265.13)" d="M3,0A3,3 0 1,1 0,-3A3,3 0 0,1 3,0Z" style="opacity: 1; stroke-width: 0px; fill: rgb(255, 0, 0); fill-opacity: 1;"/><path class="point" transform="translate(460.2,265.13)" d="M3,0A3,3 0 1,1 0,-3A3,3 0 0,1 3,0Z" style="opacity: 1; stroke-width: 0px; fill: rgb(255, 0, 0); fill-opacity: 1;"/><path class="point" transform="translate(466.85,265.13)" d="M3,0A3,3 0 1,1 0,-3A3,3 0 0,1 3,0Z" style="opacity: 1; stroke-width: 0px; fill: rgb(255, 0, 0); fill-opacity: 1;"/><path class="point" transform="translate(464.54,265.13)" d="M3,0A3,3 0 1,1 0,-3A3,3 0 0,1 3,0Z" style="opacity: 1; stroke-width: 0px; fill: rgb(255, 0, 0); fill-opacity: 1;"/><path class="point" transform="translate(470.59,265.13)" d="M3,0A3,3 0 1,1 0,-3A3,3 0 0,1 3,0Z" style="opacity: 1; stroke-width: 0px; fill: rgb(255, 0, 0); fill-opacity: 1;"/><path class="point" transform="translate(466.17,265.13)" d="M3,0A3,3 0 1,1 0,-3A3,3 0 0,1 3,0Z" style="opacity: 1; stroke-width: 0px; fill: rgb(255, 0, 0); fill-opacity: 1;"/><path class="point" transform="translate(461.65,265.13)" d="M3,0A3,3 0 1,1 0,-3A3,3 0 0,1 3,0Z" style="opacity: 1; stroke-width: 0px; fill: rgb(255, 0, 0); fill-opacity: 1;"/><path class="point" transform="translate(459.43,265.13)" d="M3,0A3,3 0 1,1 0,-3A3,3 0 0,1 3,0Z" style="opacity: 1; stroke-width: 0px; fill: rgb(255, 0, 0); fill-opacity: 1;"/><path class="point" transform="translate(471.37,265.13)" d="M3,0A3,3 0 1,1 0,-3A3,3 0 0,1 3,0Z" style="opacity: 1; stroke-width: 0px; fill: rgb(255, 0, 0); fill-opacity: 1;"/><path class="point" transform="translate(460.06,265.13)" d="M3,0A3,3 0 1,1 0,-3A3,3 0 0,1 3,0Z" style="opacity: 1; stroke-width: 0px; fill: rgb(255, 0, 0); fill-opacity: 1;"/><path class="point" transform="translate(471.61,265.13)" d="M3,0A3,3 0 1,1 0,-3A3,3 0 0,1 3,0Z" style="opacity: 1; stroke-width: 0px; fill: rgb(255, 0, 0); fill-opacity: 1;"/><path class="point" transform="translate(468.62,265.13)" d="M3,0A3,3 0 1,1 0,-3A3,3 0 0,1 3,0Z" style="opacity: 1; stroke-width: 0px; fill: rgb(255, 0, 0); fill-opacity: 1;"/><path class="point" transform="translate(464.49,265.13)" d="M3,0A3,3 0 1,1 0,-3A3,3 0 0,1 3,0Z" style="opacity: 1; stroke-width: 0px; fill: rgb(255, 0, 0); fill-opacity: 1;"/><path class="point" transform="translate(466.4,265.13)" d="M3,0A3,3 0 1,1 0,-3A3,3 0 0,1 3,0Z" style="opacity: 1; stroke-width: 0px; fill: rgb(255, 0, 0); fill-opacity: 1;"/><path class="point" transform="translate(467.21,265.13)" d="M3,0A3,3 0 1,1 0,-3A3,3 0 0,1 3,0Z" style="opacity: 1; stroke-width: 0px; fill: rgb(255, 0, 0); fill-opacity: 1;"/><path class="point" transform="translate(466.8,265.13)" d="M3,0A3,3 0 1,1 0,-3A3,3 0 0,1 3,0Z" style="opacity: 1; stroke-width: 0px; fill: rgb(255, 0, 0); fill-opacity: 1;"/><path class="point" transform="translate(467.33,265.13)" d="M3,0A3,3 0 1,1 0,-3A3,3 0 0,1 3,0Z" style="opacity: 1; stroke-width: 0px; fill: rgb(255, 0, 0); fill-opacity: 1;"/><path class="point" transform="translate(466.35,265.13)" d="M3,0A3,3 0 1,1 0,-3A3,3 0 0,1 3,0Z" style="opacity: 1; stroke-width: 0px; fill: rgb(255, 0, 0); fill-opacity: 1;"/><path class="point" transform="translate(467.23,263.61)" d="M3,0A3,3 0 1,1 0,-3A3,3 0 0,1 3,0Z" style="opacity: 1; stroke-width: 0px; fill: rgb(255, 0, 0); fill-opacity: 1;"/></g></g></g></g><g class="overplot"/><path class="xlines-above crisp" d="M0,0" style="fill: none;"/><path class="ylines-above crisp" d="M0,0" style="fill: none;"/><g class="overlines-above"/><g class="xaxislayer-above"><g class="xtick"><text text-anchor="middle" x="0" y="433" transform="translate(171.95999999999998,0)" style="font-family: 'Open Sans', verdana, arial, sans-serif; font-size: 12px; fill: rgb(42, 63, 95); fill-opacity: 1; white-space: pre; opacity: 1;">L</text></g><g class="xtick"><text text-anchor="middle" x="0" y="433" transform="translate(331.5,0)" style="font-family: 'Open Sans', verdana, arial, sans-serif; font-size: 12px; fill: rgb(42, 63, 95); fill-opacity: 1; white-space: pre; opacity: 1;">SIM</text></g><g class="xtick"><text text-anchor="middle" x="0" y="433" transform="translate(491.04,0)" style="font-family: 'Open Sans', verdana, arial, sans-serif; font-size: 12px; fill: rgb(42, 63, 95); fill-opacity: 1; white-space: pre; opacity: 1;">SOM</text></g></g><g class="yaxislayer-above"><g class="ytick"><text text-anchor="end" x="79" y="4.199999999999999" transform="translate(0,365.13)" style="font-family: 'Open Sans', verdana, arial, sans-serif; font-size: 12px; fill: rgb(42, 63, 95); fill-opacity: 1; white-space: pre; opacity: 1;">0</text></g><g class="ytick"><text text-anchor="end" x="79" y="4.199999999999999" style="font-family: 'Open Sans', verdana, arial, sans-serif; font-size: 12px; fill: rgb(42, 63, 95); fill-opacity: 1; white-space: pre; opacity: 1;" transform="translate(0,305.33000000000004)">5</text></g><g class="ytick"><text text-anchor="end" x="79" y="4.199999999999999" style="font-family: 'Open Sans', verdana, arial, sans-serif; font-size: 12px; fill: rgb(42, 63, 95); fill-opacity: 1; white-space: pre; opacity: 1;" transform="translate(0,245.53)">10</text></g><g class="ytick"><text text-anchor="end" x="79" y="4.199999999999999" style="font-family: 'Open Sans', verdana, arial, sans-serif; font-size: 12px; fill: rgb(42, 63, 95); fill-opacity: 1; white-space: pre; opacity: 1;" transform="translate(0,185.72)">15</text></g><g class="ytick"><text text-anchor="end" x="79" y="4.199999999999999" style="font-family: 'Open Sans', verdana, arial, sans-serif; font-size: 12px; fill: rgb(42, 63, 95); fill-opacity: 1; white-space: pre; opacity: 1;" transform="translate(0,125.92)">20</text></g></g><g class="overaxes-above"/></g></g><g class="polarlayer"/><g class="smithlayer"/><g class="ternarylayer"/><g class="geolayer"/><g class="funnelarealayer"/><g class="pielayer"/><g class="iciclelayer"/><g class="treemaplayer"/><g class="sunburstlayer"/><g class="glimages"/><defs id="topdefs-95ea31"><g class="clips"/><clipPath id="legend95ea31"><rect width="95" height="124" x="0" y="0"/></clipPath></defs><g class="layer-above"><g class="imagelayer"/><g class="shapelayer"/></g><g class="infolayer"><g class="legend" pointer-events="all" transform="translate(593.0600000000001,100)"><rect class="bg" shape-rendering="crispEdges" width="95" height="124" x="0" y="0" style="stroke: rgb(68, 68, 68); stroke-opacity: 1; fill: rgb(255, 255, 255); fill-opacity: 1; stroke-width: 0px;"/><g class="scrollbox" transform="" clip-path="url(#legend95ea31)"><g class="groups"><g class="traces" transform="translate(0,14.5)" style="opacity: 1;"><text class="legendtext" text-anchor="start" x="40" y="4.680000000000001" style="font-family: 'Open Sans', verdana, arial, sans-serif; font-size: 12px; fill: rgb(42, 63, 95); fill-opacity: 1; white-space: pre;">L SB</text><g class="layers" style="opacity: 1;"><g class="legendfill"/><g class="legendlines"/><g class="legendsymbols"><g class="legendpoints"><path class="legendbox" d="M6,6H-6V-6H6Z" transform="translate(20,0)" style="stroke-width: 2px; fill: rgb(144, 238, 144); fill-opacity: 0.5; stroke: rgb(144, 238, 144); stroke-opacity: 1;"/></g></g></g><rect class="legendtoggle" x="0" y="-9.5" width="89.1875" height="19" style="fill: rgb(0, 0, 0); fill-opacity: 0;"/></g><g class="traces" transform="translate(0,33.5)" style="opacity: 1;"><text class="legendtext" text-anchor="start" x="40" y="4.680000000000001" style="font-family: 'Open Sans', verdana, arial, sans-serif; font-size: 12px; fill: rgb(42, 63, 95); fill-opacity: 1; white-space: pre;">L NB</text><g class="layers" style="opacity: 1;"><g class="legendfill"/><g class="legendlines"/><g class="legendsymbols"><g class="legendpoints"><path class="legendbox" d="M6,6H-6V-6H6Z" transform="translate(20,0)" style="stroke-width: 2px; fill: rgb(0, 128, 0); fill-opacity: 0.5; stroke: rgb(0, 128, 0); stroke-opacity: 1;"/></g></g></g><rect class="legendtoggle" x="0" y="-9.5" width="89.1875" height="19" style="fill: rgb(0, 0, 0); fill-opacity: 0;"/></g><g class="traces" transform="translate(0,52.5)" style="opacity: 1;"><text class="legendtext" text-anchor="start" x="40" y="4.680000000000001" style="font-family: 'Open Sans', verdana, arial, sans-serif; font-size: 12px; fill: rgb(42, 63, 95); fill-opacity: 1; white-space: pre;">SIM SB</text><g class="layers" style="opacity: 1;"><g class="legendfill"/><g class="legendlines"/><g class="legendsymbols"><g class="legendpoints"><path class="legendbox" d="M6,6H-6V-6H6Z" transform="translate(20,0)" style="stroke-width: 2px; fill: rgb(255, 255, 0); fill-opacity: 0.5; stroke: rgb(255, 255, 0); stroke-opacity: 1;"/></g></g></g><rect class="legendtoggle" x="0" y="-9.5" width="89.1875" height="19" style="fill: rgb(0, 0, 0); fill-opacity: 0;"/></g><g class="traces" transform="translate(0,71.5)" style="opacity: 1;"><text class="legendtext" text-anchor="start" x="40" y="4.680000000000001" style="font-family: 'Open Sans', verdana, arial, sans-serif; font-size: 12px; fill: rgb(42, 63, 95); fill-opacity: 1; white-space: pre;">SIM NB</text><g class="layers" style="opacity: 1;"><g class="legendfill"/><g class="legendlines"/><g class="legendsymbols"><g class="legendpoints"><path class="legendbox" d="M6,6H-6V-6H6Z" transform="translate(20,0)" style="stroke-width: 2px; fill: rgb(255, 165, 0); fill-opacity: 0.5; stroke: rgb(255, 165, 0); stroke-opacity: 1;"/></g></g></g><rect class="legendtoggle" x="0" y="-9.5" width="89.1875" height="19" style="fill: rgb(0, 0, 0); fill-opacity: 0;"/></g><g class="traces" transform="translate(0,90.5)" style="opacity: 1;"><text class="legendtext" text-anchor="start" x="40" y="4.680000000000001" style="font-family: 'Open Sans', verdana, arial, sans-serif; font-size: 12px; fill: rgb(42, 63, 95); fill-opacity: 1; white-space: pre;">SOM SB</text><g class="layers" style="opacity: 1;"><g class="legendfill"/><g class="legendlines"/><g class="legendsymbols"><g class="legendpoints"><path class="legendbox" d="M6,6H-6V-6H6Z" transform="translate(20,0)" style="stroke-width: 2px; fill: rgb(128, 0, 0); fill-opacity: 0.5; stroke: rgb(128, 0, 0); stroke-opacity: 1;"/></g></g></g><rect class="legendtoggle" x="0" y="-9.5" width="89.1875" height="19" style="fill: rgb(0, 0, 0); fill-opacity: 0;"/></g><g class="traces" transform="translate(0,109.5)" style="opacity: 1;"><text class="legendtext" text-anchor="start" x="40" y="4.680000000000001" style="font-family: 'Open Sans', verdana, arial, sans-serif; font-size: 12px; fill: rgb(42, 63, 95); fill-opacity: 1; white-space: pre;">SOM NB</text><g class="layers" style="opacity: 1;"><g class="legendfill"/><g class="legendlines"/><g class="legendsymbols"><g class="legendpoints"><path class="legendbox" d="M6,6H-6V-6H6Z" transform="translate(20,0)" style="stroke-width: 2px; fill: rgb(255, 0, 0); fill-opacity: 0.5; stroke: rgb(255, 0, 0); stroke-opacity: 1;"/></g></g></g><rect class="legendtoggle" x="0" y="-9.5" width="89.1875" height="19" style="fill: rgb(0, 0, 0); fill-opacity: 0;"/></g></g></g><rect class="scrollbar" rx="20" ry="3" width="0" height="0" x="0" y="0" style="fill: rgb(128, 139, 164); fill-opacity: 1;"/></g><g class="g-gtitle"><text class="gtitle" x="35" y="50" text-anchor="start" dy="0em" style="font-family: 'Open Sans', verdana, arial, sans-serif; font-size: 17px; fill: rgb(42, 63, 95); opacity: 1; font-weight: normal; white-space: pre;">Distribution of A_lobifera across habitats and sites</text></g><g class="g-xtitle"><text class="xtitle" x="331.5" y="459.8" text-anchor="middle" style="font-family: 'Open Sans', verdana, arial, sans-serif; font-size: 14px; fill: rgb(42, 63, 95); opacity: 1; font-weight: normal; white-space: pre;">Habitat and Site</text></g><g class="g-ytitle"><text class="ytitle" transform="rotate(-90,39.434375,260)" x="39.434375" y="260" text-anchor="middle" style="font-family: 'Open Sans', verdana, arial, sans-serif; font-size: 14px; fill: rgb(42, 63, 95); opacity: 1; font-weight: normal; white-space: pre;">Value</text></g></g></svg>