<svg class="main-svg" xmlns="http://www.w3.org/2000/svg" xmlns:xlink="http://www.w3.org/1999/xlink" width="700" height="500" style="" viewBox="0 0 700 500"><rect x="0" y="0" width="700" height="500" style="fill: rgb(255, 255, 255); fill-opacity: 1;"/><defs id="defs-7dd0b5"><g class="clips"><clipPath id="clip7dd0b5xyplot" class="plotclip"><rect width="503" height="320"/></clipPath><clipPath class="axesclip" id="clip7dd0b5x"><rect x="80" y="0" width="503" height="500"/></clipPath><clipPath class="axesclip" id="clip7dd0b5y"><rect x="0" y="100" width="700" height="320"/></clipPath><clipPath class="axesclip" id="clip7dd0b5xy"><rect x="80" y="100" width="503" height="320"/></clipPath></g><g class="gradients"/><g class="patterns"/></defs><g class="bglayer"><rect class="bg" x="80" y="100" width="503" height="320" style="fill: rgb(229, 236, 246); fill-opacity: 1; stroke-width: 0;"/></g><g class="layer-below"><g class="imagelayer"/><g class="shapelayer"/></g><g class="cartesianlayer"><g class="subplot xy"><g class="layer-subplot"><g class="shapelayer"/><g class="imagelayer"/></g><g class="minor-gridlayer"><g class="x"/><g class="y"/></g><g class="gridlayer"><g class="x"/><g class="y"><path class="ygrid crisp" transform="translate(0,287.08000000000004)" d="M80,0h503" style="stroke: rgb(255, 255, 255); stroke-opacity: 1; stroke-width: 1px;"/><path class="ygrid crisp" transform="translate(0,209.61)" d="M80,0h503" style="stroke: rgb(255, 255, 255); stroke-opacity: 1; stroke-width: 1px;"/><path class="ygrid crisp" transform="translate(0,132.13)" d="M80,0h503" style="stroke: rgb(255, 255, 255); stroke-opacity: 1; stroke-width: 1px;"/></g></g><g class="zerolinelayer"><path class="yzl zl crisp" transform="translate(0,364.56)" d="M80,0h503" style="stroke: rgb(255, 255, 255); stroke-opacity: 1; stroke-width: 2px;"/></g><path class="xlines-below"/><path class="ylines-below"/><g class="overlines-below"/><g class="xaxislayer-below"/><g class="yaxislayer-below"/><g class="overaxes-below"/><g class="plot" transform="translate(80,100)" clip-path="url(#clip7dd0b5xyplot)"><g class="violinlayer mlayer"><g class="trace violins" style="opacity: 1;"><path class="violin" d="M91.96,256.51L91.8,256.51Q91.7,256.52 91.65,256.53C91.59,256.54 91.52,256.55 91.45,256.56C91.37,256.57 91.29,256.58 91.21,256.59C91.13,256.6 91.04,256.6 90.97,256.61C90.91,256.62 90.84,256.63 90.79,256.64C90.76,256.65 90.72,256.66 90.72,256.67C90.72,256.68 90.76,256.68 90.79,256.69C90.84,256.7 90.91,256.71 90.97,256.72C91.04,256.73 91.13,256.73 91.21,256.74C91.29,256.75 91.37,256.76 91.45,256.77C91.52,256.78 91.59,256.79 91.65,256.8C91.7,256.81 91.76,256.81 91.8,256.82C91.83,256.83 91.86,256.84 91.88,256.85C91.9,256.86 91.92,256.87 91.93,256.88C91.94,256.89 91.95,256.89 91.95,256.9C91.96,256.91 91.96,256.92 91.96,256.93C91.96,256.94 91.96,256.95 91.96,256.96C91.96,256.97 91.96,256.97 91.96,256.98C91.96,256.99 91.96,257 91.96,257.01C91.96,257.02 91.96,257.02 91.96,257.03C91.96,257.04 91.96,257.05 91.96,257.06C91.96,257.07 91.96,257.08 91.96,257.09C91.96,257.1 91.96,257.1 91.96,257.11C91.96,257.12 91.96,257.13 91.96,257.14C91.96,257.15 91.96,257.16 91.96,257.17C91.96,257.18 91.96,257.18 91.96,257.19C91.96,257.2 91.96,257.21 91.96,257.22C91.96,257.23 91.96,257.23 91.96,257.24C91.96,257.25 91.96,257.26 91.96,257.27C91.96,257.28 91.96,257.29 91.96,257.3C91.96,257.31 91.96,257.31 91.96,257.32C91.96,257.33 91.96,257.34 91.96,257.35C91.96,257.36 91.96,257.37 91.96,257.38C91.96,257.39 91.96,257.39 91.96,257.4C91.96,257.41 91.96,257.42 91.96,257.43C91.96,257.44 91.96,257.45 91.96,257.46C91.96,257.47 91.96,257.47 91.96,257.48C91.96,257.49 91.96,257.5 91.96,257.51C91.96,257.52 91.96,257.52 91.96,257.53C91.96,257.54 91.96,257.55 91.96,257.56C91.96,257.57 91.96,257.58 91.96,257.59C91.96,257.6 91.96,257.6 91.96,257.61C91.96,257.62 91.96,257.63 91.96,257.64C91.96,257.65 91.96,257.66 91.96,257.67C91.96,257.68 91.96,257.68 91.96,257.69C91.96,257.7 91.96,257.71 91.96,257.72C91.96,257.73 91.96,257.74 91.96,257.75C91.96,257.76 91.96,257.76 91.96,257.77C91.96,257.78 91.96,257.79 91.96,257.8C91.96,257.81 91.96,257.81 91.96,257.82C91.96,257.83 91.96,257.84 91.96,257.85C91.96,257.86 91.96,257.87 91.96,257.88C91.96,257.89 91.96,257.89 91.96,257.9C91.96,257.91 91.96,257.92 91.96,257.93C91.96,257.94 91.96,257.95 91.96,257.96C91.96,257.97 91.96,257.97 91.96,257.98C91.96,257.99 91.96,258 91.96,258.01C91.96,258.02 91.96,258.02 91.96,258.03C91.96,258.04 91.96,258.05 91.96,258.06C91.96,258.07 91.96,258.08 91.96,258.09C91.96,258.1 91.96,258.1 91.96,258.11C91.96,258.12 91.96,258.13 91.96,258.14C91.96,258.15 91.96,258.16 91.96,258.17C91.96,258.18 91.96,258.18 91.96,258.19C91.96,258.2 91.96,258.21 91.96,258.22C91.96,258.23 91.96,258.24 91.96,258.25C91.96,258.26 91.96,258.26 91.96,258.27C91.96,258.28 91.96,258.29 91.96,258.3C91.96,258.31 91.96,258.31 91.96,258.32C91.96,258.33 91.96,258.34 91.96,258.35C91.96,258.36 91.96,258.37 91.96,258.38C91.96,258.39 91.95,258.39 91.95,258.4C91.94,258.41 91.94,258.42 91.93,258.43C91.92,258.44 91.9,258.45 91.88,258.46C91.86,258.47 91.83,258.47 91.8,258.48C91.76,258.49 91.7,258.5 91.65,258.51C91.59,258.52 91.52,258.52 91.45,258.53C91.37,258.54 91.29,258.55 91.21,258.56C91.13,258.57 91.04,258.58 90.97,258.59C90.91,258.6 90.84,258.6 90.79,258.61C90.76,258.62 90.72,258.63 90.72,258.64C90.72,258.65 90.76,258.66 90.79,258.67C90.84,258.68 90.91,258.68 90.97,258.69C91.04,258.7 91.13,258.71 91.21,258.72C91.29,258.73 91.37,258.74 91.45,258.75C91.52,258.76 91.59,258.76 91.65,258.77C91.7,258.78 91.76,258.79 91.8,258.8C91.83,258.81 91.86,258.81 91.88,258.82C91.9,258.83 91.92,258.84 91.93,258.85C91.94,258.86 91.94,258.87 91.95,258.88C91.95,258.89 91.96,258.89 91.96,258.9C91.96,258.91 91.96,258.92 91.96,258.93C91.96,258.94 91.96,258.95 91.96,258.96C91.96,258.97 91.96,258.97 91.96,258.98C91.96,258.99 91.96,259 91.96,259.01C91.96,259.02 91.96,259.02 91.96,259.03C91.96,259.04 91.96,259.05 91.96,259.06C91.96,259.07 91.96,259.08 91.96,259.09C91.96,259.1 91.96,259.1 91.96,259.11C91.96,259.12 91.96,259.13 91.96,259.14C91.96,259.15 91.96,259.16 91.96,259.17C91.96,259.18 91.96,259.18 91.96,259.19C91.96,259.2 91.96,259.21 91.96,259.22C91.96,259.23 91.96,259.24 91.96,259.25C91.96,259.26 91.96,259.26 91.96,259.27C91.96,259.28 91.96,259.29 91.96,259.3C91.96,259.31 91.96,259.31 91.96,259.32C91.96,259.33 91.96,259.34 91.96,259.35C91.96,259.36 91.96,259.37 91.96,259.38C91.96,259.39 91.96,259.39 91.96,259.4C91.96,259.41 91.96,259.42 91.96,259.43C91.96,259.44 91.96,259.45 91.96,259.46C91.96,259.47 91.96,259.47 91.96,259.48C91.96,259.49 91.96,259.5 91.96,259.51C91.96,259.52 91.96,259.52 91.96,259.53C91.96,259.54 91.96,259.55 91.96,259.56C91.96,259.57 91.96,259.58 91.96,259.59C91.96,259.6 91.96,259.6 91.96,259.61C91.96,259.62 91.96,259.63 91.96,259.64C91.96,259.65 91.96,259.66 91.96,259.67C91.96,259.68 91.96,259.68 91.96,259.69C91.96,259.7 91.96,259.71 91.96,259.72C91.96,259.73 91.96,259.74 91.96,259.75C91.96,259.76 91.96,259.76 91.96,259.77C91.96,259.78 91.96,259.79 91.96,259.8C91.96,259.81 91.96,259.81 91.96,259.82C91.96,259.83 91.96,259.84 91.96,259.85C91.96,259.86 91.96,259.87 91.96,259.88C91.96,259.89 91.96,259.89 91.96,259.9C91.96,259.91 91.96,259.92 91.96,259.93C91.96,259.94 91.96,259.95 91.96,259.96C91.96,259.97 91.96,259.97 91.96,259.98C91.96,259.99 91.96,260 91.96,260.01C91.96,260.02 91.96,260.02 91.96,260.03C91.96,260.04 91.96,260.05 91.96,260.06C91.96,260.07 91.96,260.08 91.96,260.09C91.96,260.1 91.96,260.1 91.96,260.11C91.96,260.12 91.96,260.13 91.96,260.14C91.96,260.15 91.96,260.16 91.96,260.17C91.96,260.18 91.96,260.18 91.96,260.19C91.96,260.2 91.96,260.21 91.96,260.22C91.96,260.23 91.96,260.24 91.96,260.25C91.96,260.26 91.96,260.26 91.96,260.27C91.96,260.28 91.96,260.29 91.96,260.3C91.96,260.31 91.96,260.31 91.96,260.32C91.96,260.33 91.96,260.34 91.96,260.35C91.96,260.36 91.96,260.37 91.95,260.38C91.95,260.39 91.94,260.39 91.93,260.4C91.92,260.41 91.9,260.42 91.88,260.43C91.86,260.44 91.83,260.45 91.8,260.46C91.76,260.47 91.7,260.47 91.65,260.48C91.59,260.49 91.52,260.5 91.45,260.51C91.37,260.52 91.29,260.52 91.21,260.53C91.13,260.54 91.04,260.55 90.97,260.56C90.91,260.57 90.84,260.58 90.79,260.59C90.76,260.6 90.72,260.6 90.72,260.61C90.72,260.62 90.76,260.63 90.79,260.64C90.84,260.65 90.91,260.66 90.97,260.67C91.04,260.68 91.13,260.68 91.21,260.69C91.29,260.7 91.37,260.71 91.45,260.72C91.52,260.73 91.59,260.74 91.65,260.75C91.7,260.76 91.76,260.76 91.8,260.77C91.83,260.78 91.86,260.79 91.88,260.8C91.9,260.81 91.92,260.81 91.93,260.82C91.94,260.83 91.94,260.84 91.95,260.85C91.95,260.86 91.96,260.87 91.96,260.88C91.96,260.89 91.96,260.89 91.96,260.9C91.96,260.91 91.96,260.92 91.96,260.93C91.96,260.94 91.96,260.95 91.96,260.96C91.96,260.97 91.96,260.97 91.96,260.98C91.96,260.99 91.96,261 91.96,261.01C91.96,261.02 91.96,261.02 91.96,261.03C91.96,261.04 91.96,261.05 91.96,261.06C91.96,261.07 91.96,261.08 91.96,261.09C91.96,261.1 91.96,261.1 91.96,261.11C91.96,261.12 91.96,261.13 91.96,261.14C91.96,261.15 91.96,261.16 91.96,261.17C91.96,261.18 91.96,261.18 91.96,261.19C91.96,261.2 91.96,261.21 91.96,261.22C91.96,261.23 91.96,261.24 91.96,261.25C91.96,261.26 91.96,261.26 91.96,261.27C91.96,261.28 91.96,261.29 91.96,261.3C91.96,261.31 91.96,261.31 91.96,261.32C91.96,261.33 91.96,261.34 91.96,261.35C91.96,261.36 91.96,261.37 91.96,261.38C91.96,261.39 91.96,261.39 91.96,261.4C91.96,261.41 91.96,261.42 91.96,261.43C91.96,261.44 91.96,261.45 91.96,261.46C91.96,261.47 91.96,261.47 91.96,261.48C91.96,261.49 91.96,261.5 91.96,261.51C91.96,261.52 91.96,261.53 91.96,261.54C91.96,261.55 91.96,261.55 91.96,261.56C91.96,261.57 91.96,261.58 91.96,261.59C91.96,261.6 91.96,261.6 91.96,261.61C91.96,261.62 91.96,261.63 91.96,261.64C91.96,261.65 91.96,261.66 91.96,261.67C91.96,261.68 91.96,261.68 91.96,261.69C91.96,261.7 91.96,261.71 91.96,261.72C91.96,261.73 91.96,261.74 91.96,261.75C91.96,261.76 91.96,261.76 91.96,261.77C91.96,261.78 91.96,261.79 91.96,261.8C91.96,261.81 91.96,261.81 91.96,261.82C91.96,261.83 91.96,261.84 91.96,261.85C91.96,261.86 91.96,261.87 91.96,261.88C91.96,261.89 91.96,261.89 91.96,261.9C91.96,261.91 91.96,261.92 91.96,261.93C91.96,261.94 91.96,261.95 91.96,261.96C91.96,261.97 91.96,261.97 91.96,261.98C91.96,261.99 91.96,262 91.96,262.01C91.96,262.02 91.96,262.03 91.96,262.04C91.96,262.05 91.96,262.05 91.96,262.06C91.96,262.07 91.96,262.08 91.96,262.09C91.96,262.1 91.96,262.1 91.96,262.11C91.96,262.12 91.96,262.13 91.96,262.14C91.96,262.15 91.96,262.16 91.96,262.17C91.96,262.18 91.96,262.18 91.96,262.19C91.96,262.2 91.96,262.21 91.96,262.22C91.96,262.23 91.96,262.24 91.96,262.25C91.96,262.26 91.96,262.26 91.96,262.27C91.96,262.28 91.96,262.29 91.95,262.3C91.95,262.31 91.94,262.31 91.93,262.32C91.92,262.33 91.9,262.34 91.87,262.35C91.83,262.36 91.78,262.37 91.72,262.38C91.63,262.39 91.52,262.39 91.39,262.4C91.22,262.41 91.01,262.42 90.78,262.43C90.49,262.44 90.15,262.45 89.79,262.46C89.36,262.47 88.87,262.47 88.38,262.48C87.84,262.49 87.24,262.5 86.67,262.51C86.11,262.52 85.5,262.53 84.98,262.54C84.53,262.55 84.03,262.55 83.71,262.56C83.52,262.57 83.24,262.58 83.24,262.59C83.24,262.6 83.52,262.6 83.71,262.61C84.03,262.62 84.53,262.63 84.98,262.64C85.5,262.65 86.1,262.66 86.67,262.67C87.24,262.68 87.84,262.68 88.38,262.69C88.87,262.7 89.36,262.71 89.79,262.72C90.15,262.73 90.49,262.74 90.78,262.75C91.01,262.76 91.22,262.76 91.39,262.77C91.52,262.78 91.63,262.79 91.72,262.8C91.78,262.81 91.83,262.81 91.87,262.82C91.9,262.83 91.92,262.84 91.93,262.85C91.94,262.86 91.94,262.87 91.95,262.88C91.95,262.89 91.96,262.89 91.96,262.9C91.96,262.91 91.96,262.92 91.96,262.93C91.96,262.94 91.96,262.95 91.96,262.96C91.96,262.97 91.96,262.97 91.96,262.98C91.96,262.99 91.96,263 91.96,263.01C91.96,263.02 91.96,263.03 91.96,263.04C91.96,263.05 91.96,263.05 91.96,263.06C91.96,263.07 91.96,263.08 91.96,263.09C91.96,263.1 91.96,263.1 91.96,263.11C91.96,263.12 91.96,263.13 91.96,263.14C91.96,263.15 91.96,263.16 91.96,263.17C91.96,263.18 91.96,263.18 91.96,263.19C91.96,263.2 91.96,263.21 91.96,263.22C91.96,263.23 91.96,263.24 91.96,263.25C91.96,263.26 91.96,263.26 91.96,263.27C91.96,263.28 91.96,263.29 91.96,263.3C91.96,263.31 91.96,263.31 91.96,263.32C91.96,263.33 91.96,263.34 91.96,263.35C91.96,263.36 91.96,263.37 91.96,263.38C91.96,263.39 91.96,263.39 91.96,263.4C91.96,263.41 91.96,263.42 91.96,263.43C91.96,263.44 91.96,263.45 91.96,263.46C91.96,263.47 91.96,263.47 91.96,263.48C91.96,263.49 91.96,263.5 91.96,263.51C91.96,263.52 91.96,263.53 91.96,263.54C91.96,263.55 91.96,263.55 91.96,263.56C91.96,263.57 91.96,263.58 91.96,263.59C91.96,263.6 91.96,263.6 91.96,263.61C91.96,263.62 91.96,263.63 91.96,263.64C91.96,263.65 91.96,263.66 91.96,263.67C91.96,263.68 91.96,263.68 91.96,263.69C91.96,263.7 91.96,263.71 91.96,263.72C91.96,263.73 91.96,263.74 91.96,263.75C91.96,263.76 91.96,263.76 91.96,263.77C91.96,263.78 91.96,263.79 91.96,263.8C91.96,263.81 91.96,263.81 91.96,263.82C91.96,263.83 91.96,263.84 91.96,263.85C91.96,263.86 91.96,263.87 91.96,263.88C91.96,263.89 91.96,263.89 91.96,263.9C91.96,263.91 91.96,263.92 91.96,263.93C91.96,263.94 91.96,263.95 91.96,263.96C91.96,263.97 91.96,263.97 91.96,263.98C91.96,263.99 91.96,264 91.96,264.01C91.96,264.02 91.96,264.03 91.96,264.04C91.96,264.05 91.96,264.05 91.96,264.06C91.96,264.07 91.96,264.08 91.96,264.09C91.96,264.1 91.96,264.1 91.96,264.11C91.96,264.12 91.96,264.13 91.96,264.14C91.96,264.15 91.96,264.16 91.96,264.17C91.96,264.18 91.96,264.18 91.96,264.19C91.96,264.2 91.96,264.21 91.96,264.22C91.96,264.23 91.96,264.24 91.95,264.25C91.94,264.26 91.93,264.26 91.92,264.27C91.9,264.28 91.86,264.29 91.81,264.3C91.74,264.31 91.64,264.31 91.52,264.32C91.34,264.33 91.1,264.34 90.82,264.35C90.42,264.36 89.91,264.37 89.34,264.38C88.56,264.39 87.61,264.39 86.57,264.4C85.24,264.41 83.67,264.42 82.02,264.43C80.06,264.44 77.82,264.45 75.57,264.46C73.09,264.47 70.36,264.47 67.77,264.48C65.19,264.49 62.42,264.5 60.03,264.51C57.96,264.52 55.7,264.53 54.24,264.54C53.35,264.55 52.08,264.55 52.08,264.56C52.08,264.57 53.35,264.58 54.24,264.59C55.7,264.6 57.96,264.6 60.03,264.61C62.42,264.62 65.19,264.63 67.77,264.64C70.36,264.65 73.09,264.66 75.57,264.67C77.82,264.68 80.06,264.68 82.02,264.69Q83.67,264.7 86.57,264.72L91.96,264.72" style="vector-effect: none; stroke-width: 2px; stroke: rgb(144, 238, 144); stroke-opacity: 1; fill: rgb(144, 238, 144); fill-opacity: 0.5;"/><path class="meanline" d="M91.95999908447266,263.81H91.96" style="fill: none; vector-effect: none; stroke-width: 2px; stroke-dasharray: 4px, 2px; stroke: rgb(144, 238, 144); stroke-opacity: 1;"/><g class="points"><path class="point" transform="translate(40.27,264.56)" d="M3,0A3,3 0 1,1 0,-3A3,3 0 0,1 3,0Z" style="opacity: 1; stroke-width: 0px; fill: rgb(144, 238, 144); fill-opacity: 1;"/><path class="point" transform="translate(31.04,264.56)" d="M3,0A3,3 0 1,1 0,-3A3,3 0 0,1 3,0Z" style="opacity: 1; stroke-width: 0px; fill: rgb(144, 238, 144); fill-opacity: 1;"/><path class="point" transform="translate(42.31,264.56)" d="M3,0A3,3 0 1,1 0,-3A3,3 0 0,1 3,0Z" style="opacity: 1; stroke-width: 0px; fill: rgb(144, 238, 144); fill-opacity: 1;"/><path class="point" transform="translate(29.38,264.56)" d="M3,0A3,3 0 1,1 0,-3A3,3 0 0,1 3,0Z" style="opacity: 1; stroke-width: 0px; fill: rgb(144, 238, 144); fill-opacity: 1;"/><path class="point" transform="translate(34.16,264.56)" d="M3,0A3,3 0 1,1 0,-3A3,3 0 0,1 3,0Z" style="opacity: 1; stroke-width: 0px; fill: rgb(144, 238, 144); fill-opacity: 1;"/><path class="point" transform="translate(40.31,264.56)" d="M3,0A3,3 0 1,1 0,-3A3,3 0 0,1 3,0Z" style="opacity: 1; stroke-width: 0px; fill: rgb(144, 238, 144); fill-opacity: 1;"/><path class="point" transform="translate(35.83,264.56)" d="M3,0A3,3 0 1,1 0,-3A3,3 0 0,1 3,0Z" style="opacity: 1; stroke-width: 0px; fill: rgb(144, 238, 144); fill-opacity: 1;"/><path class="point" transform="translate(38.44,264.56)" d="M3,0A3,3 0 1,1 0,-3A3,3 0 0,1 3,0Z" style="opacity: 1; stroke-width: 0px; fill: rgb(144, 238, 144); fill-opacity: 1;"/><path class="point" transform="translate(33.58,264.56)" d="M3,0A3,3 0 1,1 0,-3A3,3 0 0,1 3,0Z" style="opacity: 1; stroke-width: 0px; fill: rgb(144, 238, 144); fill-opacity: 1;"/><path class="point" transform="translate(30.28,264.56)" d="M3,0A3,3 0 1,1 0,-3A3,3 0 0,1 3,0Z" style="opacity: 1; stroke-width: 0px; fill: rgb(144, 238, 144); fill-opacity: 1;"/><path class="point" transform="translate(38.26,264.56)" d="M3,0A3,3 0 1,1 0,-3A3,3 0 0,1 3,0Z" style="opacity: 1; stroke-width: 0px; fill: rgb(144, 238, 144); fill-opacity: 1;"/><path class="point" transform="translate(33.5,264.56)" d="M3,0A3,3 0 1,1 0,-3A3,3 0 0,1 3,0Z" style="opacity: 1; stroke-width: 0px; fill: rgb(144, 238, 144); fill-opacity: 1;"/><path class="point" transform="translate(41.18,264.56)" d="M3,0A3,3 0 1,1 0,-3A3,3 0 0,1 3,0Z" style="opacity: 1; stroke-width: 0px; fill: rgb(144, 238, 144); fill-opacity: 1;"/><path class="point" transform="translate(28.36,264.56)" d="M3,0A3,3 0 1,1 0,-3A3,3 0 0,1 3,0Z" style="opacity: 1; stroke-width: 0px; fill: rgb(144, 238, 144); fill-opacity: 1;"/><path class="point" transform="translate(31.51,264.56)" d="M3,0A3,3 0 1,1 0,-3A3,3 0 0,1 3,0Z" style="opacity: 1; stroke-width: 0px; fill: rgb(144, 238, 144); fill-opacity: 1;"/><path class="point" transform="translate(43.18,264.56)" d="M3,0A3,3 0 1,1 0,-3A3,3 0 0,1 3,0Z" style="opacity: 1; stroke-width: 0px; fill: rgb(144, 238, 144); fill-opacity: 1;"/><path class="point" transform="translate(34.13,264.56)" d="M3,0A3,3 0 1,1 0,-3A3,3 0 0,1 3,0Z" style="opacity: 1; stroke-width: 0px; fill: rgb(144, 238, 144); fill-opacity: 1;"/><path class="point" transform="translate(29.28,264.56)" d="M3,0A3,3 0 1,1 0,-3A3,3 0 0,1 3,0Z" style="opacity: 1; stroke-width: 0px; fill: rgb(144, 238, 144); fill-opacity: 1;"/><path class="point" transform="translate(33.49,264.56)" d="M3,0A3,3 0 1,1 0,-3A3,3 0 0,1 3,0Z" style="opacity: 1; stroke-width: 0px; fill: rgb(144, 238, 144); fill-opacity: 1;"/><path class="point" transform="translate(35.96,264.56)" d="M3,0A3,3 0 1,1 0,-3A3,3 0 0,1 3,0Z" style="opacity: 1; stroke-width: 0px; fill: rgb(144, 238, 144); fill-opacity: 1;"/><path class="point" transform="translate(39.71,264.56)" d="M3,0A3,3 0 1,1 0,-3A3,3 0 0,1 3,0Z" style="opacity: 1; stroke-width: 0px; fill: rgb(144, 238, 144); fill-opacity: 1;"/><path class="point" transform="translate(37.01,264.56)" d="M3,0A3,3 0 1,1 0,-3A3,3 0 0,1 3,0Z" style="opacity: 1; stroke-width: 0px; fill: rgb(144, 238, 144); fill-opacity: 1;"/><path class="point" transform="translate(33.88,264.56)" d="M3,0A3,3 0 1,1 0,-3A3,3 0 0,1 3,0Z" style="opacity: 1; stroke-width: 0px; fill: rgb(144, 238, 144); fill-opacity: 1;"/><path class="point" transform="translate(29.46,264.56)" d="M3,0A3,3 0 1,1 0,-3A3,3 0 0,1 3,0Z" style="opacity: 1; stroke-width: 0px; fill: rgb(144, 238, 144); fill-opacity: 1;"/><path class="point" transform="translate(36.1,264.56)" d="M3,0A3,3 0 1,1 0,-3A3,3 0 0,1 3,0Z" style="opacity: 1; stroke-width: 0px; fill: rgb(144, 238, 144); fill-opacity: 1;"/><path class="point" transform="translate(33.8,264.56)" d="M3,0A3,3 0 1,1 0,-3A3,3 0 0,1 3,0Z" style="opacity: 1; stroke-width: 0px; fill: rgb(144, 238, 144); fill-opacity: 1;"/><path class="point" transform="translate(39.84,264.56)" d="M3,0A3,3 0 1,1 0,-3A3,3 0 0,1 3,0Z" style="opacity: 1; stroke-width: 0px; fill: rgb(144, 238, 144); fill-opacity: 1;"/><path class="point" transform="translate(35.99,264.56)" d="M3,0A3,3 0 1,1 0,-3A3,3 0 0,1 3,0Z" style="opacity: 1; stroke-width: 0px; fill: rgb(144, 238, 144); fill-opacity: 1;"/><path class="point" transform="translate(35.08,264.56)" d="M3,0A3,3 0 1,1 0,-3A3,3 0 0,1 3,0Z" style="opacity: 1; stroke-width: 0px; fill: rgb(144, 238, 144); fill-opacity: 1;"/><path class="point" transform="translate(34.64,264.56)" d="M3,0A3,3 0 1,1 0,-3A3,3 0 0,1 3,0Z" style="opacity: 1; stroke-width: 0px; fill: rgb(144, 238, 144); fill-opacity: 1;"/><path class="point" transform="translate(37.03,264.56)" d="M3,0A3,3 0 1,1 0,-3A3,3 0 0,1 3,0Z" style="opacity: 1; stroke-width: 0px; fill: rgb(144, 238, 144); fill-opacity: 1;"/><path class="point" transform="translate(34.76,264.56)" d="M3,0A3,3 0 1,1 0,-3A3,3 0 0,1 3,0Z" style="opacity: 1; stroke-width: 0px; fill: rgb(144, 238, 144); fill-opacity: 1;"/><path class="point" transform="translate(37.07,262.59)" d="M3,0A3,3 0 1,1 0,-3A3,3 0 0,1 3,0Z" style="opacity: 1; stroke-width: 0px; fill: rgb(144, 238, 144); fill-opacity: 1;"/><path class="point" transform="translate(36.48,262.59)" d="M3,0A3,3 0 1,1 0,-3A3,3 0 0,1 3,0Z" style="opacity: 1; stroke-width: 0px; fill: rgb(144, 238, 144); fill-opacity: 1;"/><path class="point" transform="translate(35.79,262.59)" d="M3,0A3,3 0 1,1 0,-3A3,3 0 0,1 3,0Z" style="opacity: 1; stroke-width: 0px; fill: rgb(144, 238, 144); fill-opacity: 1;"/><path class="point" transform="translate(35.58,262.59)" d="M3,0A3,3 0 1,1 0,-3A3,3 0 0,1 3,0Z" style="opacity: 1; stroke-width: 0px; fill: rgb(144, 238, 144); fill-opacity: 1;"/><path class="point" transform="translate(36.49,262.59)" d="M3,0A3,3 0 1,1 0,-3A3,3 0 0,1 3,0Z" style="opacity: 1; stroke-width: 0px; fill: rgb(144, 238, 144); fill-opacity: 1;"/><path class="point" transform="translate(36.03,262.59)" d="M3,0A3,3 0 1,1 0,-3A3,3 0 0,1 3,0Z" style="opacity: 1; stroke-width: 0px; fill: rgb(144, 238, 144); fill-opacity: 1;"/><path class="point" transform="translate(36.69,262.59)" d="M3,0A3,3 0 1,1 0,-3A3,3 0 0,1 3,0Z" style="opacity: 1; stroke-width: 0px; fill: rgb(144, 238, 144); fill-opacity: 1;"/><path class="point" transform="translate(35.48,260.61)" d="M3,0A3,3 0 1,1 0,-3A3,3 0 0,1 3,0Z" style="opacity: 1; stroke-width: 0px; fill: rgb(144, 238, 144); fill-opacity: 1;"/><path class="point" transform="translate(36.58,258.64)" d="M3,0A3,3 0 1,1 0,-3A3,3 0 0,1 3,0Z" style="opacity: 1; stroke-width: 0px; fill: rgb(144, 238, 144); fill-opacity: 1;"/><path class="point" transform="translate(36.07,256.67)" d="M3,0A3,3 0 1,1 0,-3A3,3 0 0,1 3,0Z" style="opacity: 1; stroke-width: 0px; fill: rgb(144, 238, 144); fill-opacity: 1;"/></g></g><g class="trace violins" style="opacity: 1;"><path class="violin" d="M91.96,267.5L96.3,267.5Q98.64,267.16 99.99,267.01C101.61,266.83 103.46,266.68 105.35,266.52C107.46,266.35 109.79,266.19 112.07,266.03C114.43,265.87 116.95,265.72 119.28,265.55C121.48,265.39 123.76,265.24 125.7,265.06C127.31,264.91 128.98,264.79 130.11,264.57C130.83,264.43 131.83,264.27 131.85,264.08C131.87,263.94 131.37,263.74 130.99,263.6C130.34,263.37 129.23,263.26 128.23,263.11C127.06,262.93 125.72,262.78 124.42,262.62C123.07,262.45 121.66,262.29 120.3,262.13C118.95,261.97 117.59,261.81 116.28,261.65C115.01,261.49 113.77,261.33 112.55,261.16C111.38,261 110.24,260.84 109.12,260.67C108.05,260.51 107,260.35 105.98,260.18C105.01,260.02 104.05,259.87 103.14,259.7C102.29,259.54 101.46,259.38 100.69,259.21C99.99,259.05 99.31,258.9 98.7,258.72C98.16,258.57 97.65,258.41 97.2,258.23C96.81,258.08 96.45,257.92 96.13,257.75C95.85,257.6 95.6,257.43 95.37,257.26C95.16,257.1 94.98,256.94 94.79,256.77C94.61,256.61 94.43,256.44 94.26,256.28C94.09,256.12 93.91,255.96 93.75,255.8C93.59,255.64 93.42,255.48 93.28,255.31C93.14,255.15 93.01,254.99 92.9,254.82C92.8,254.66 92.7,254.5 92.66,254.33C92.62,254.17 92.6,254.01 92.63,253.85C92.66,253.68 92.74,253.52 92.84,253.36C92.95,253.19 93.12,253.03 93.29,252.87C93.48,252.7 93.72,252.54 93.95,252.38C94.2,252.21 94.47,252.06 94.73,251.9C94.98,251.74 95.25,251.58 95.48,251.41C95.69,251.25 95.91,251.1 96.05,250.92C96.17,250.77 96.29,250.6 96.32,250.43C96.35,250.27 96.32,250.1 96.26,249.95C96.2,249.78 96.06,249.62 95.93,249.46C95.78,249.29 95.58,249.13 95.39,248.97C95.19,248.8 94.97,248.64 94.76,248.48C94.54,248.32 94.31,248.16 94.1,248C93.89,247.84 93.69,247.68 93.5,247.51C93.32,247.35 93.15,247.19 93,247.02C92.87,246.86 92.74,246.7 92.65,246.53C92.57,246.37 92.5,246.21 92.47,246.05C92.44,245.89 92.43,245.72 92.46,245.56C92.49,245.39 92.55,245.23 92.63,245.07C92.71,244.9 92.82,244.74 92.94,244.58C93.06,244.41 93.22,244.26 93.36,244.1C93.51,243.94 93.66,243.77 93.81,243.61C93.95,243.45 94.1,243.29 94.23,243.12C94.35,242.96 94.48,242.8 94.56,242.63C94.64,242.47 94.7,242.31 94.73,242.15C94.76,241.99 94.77,241.82 94.75,241.66C94.73,241.49 94.67,241.33 94.6,241.17C94.52,241 94.41,240.84 94.3,240.68C94.18,240.51 94.03,240.36 93.89,240.2C93.74,240.04 93.58,239.87 93.43,239.71C93.28,239.55 93.13,239.39 93,239.22C92.88,239.06 92.76,238.9 92.67,238.73C92.59,238.57 92.51,238.41 92.47,238.25C92.43,238.09 92.42,237.92 92.44,237.76C92.46,237.6 92.51,237.43 92.58,237.27C92.65,237.1 92.76,236.94 92.87,236.78C92.99,236.61 93.13,236.46 93.27,236.3C93.41,236.14 93.57,235.97 93.72,235.81C93.87,235.65 94.03,235.49 94.16,235.32C94.29,235.16 94.41,235 94.5,234.83C94.59,234.67 94.67,234.51 94.71,234.35C94.75,234.19 94.77,234.02 94.76,233.86C94.75,233.7 94.7,233.53 94.64,233.37C94.57,233.2 94.47,233.04 94.36,232.88C94.25,232.71 94.11,232.56 93.97,232.4C93.83,232.23 93.66,232.07 93.51,231.91C93.36,231.75 93.2,231.59 93.06,231.42C92.92,231.26 92.79,231.1 92.67,230.93C92.56,230.77 92.46,230.61 92.38,230.45C92.3,230.29 92.23,230.13 92.18,229.96C92.13,229.8 92.1,229.63 92.07,229.47C92.04,229.31 92.03,229.14 92.01,228.98C92,228.82 91.99,228.66 91.98,228.5C91.97,228.34 91.97,228.17 91.97,228.01C91.97,227.85 91.97,227.68 91.97,227.52C91.97,227.36 91.96,227.19 91.96,227.03C91.96,226.87 91.96,226.71 91.96,226.55C91.96,226.39 91.96,226.22 91.96,226.06C91.96,225.9 91.96,225.73 91.96,225.57C91.96,225.41 91.96,225.24 91.96,225.08C91.96,224.92 91.96,224.76 91.96,224.6C91.96,224.44 91.96,224.27 91.96,224.11C91.96,223.95 91.96,223.78 91.96,223.62C91.96,223.46 91.96,223.29 91.96,223.13C91.96,222.97 91.96,222.81 91.96,222.65C91.96,222.49 91.96,222.32 91.96,222.16C91.96,222 91.96,221.83 91.96,221.67C91.96,221.51 91.96,221.34 91.96,221.18C91.96,221.02 91.96,220.86 91.96,220.7C91.96,220.54 91.96,220.37 91.96,220.21C91.96,220.05 91.96,219.88 91.96,219.72C91.96,219.56 91.96,219.39 91.96,219.23C91.96,219.07 91.96,218.91 91.96,218.75C91.96,218.59 91.96,218.42 91.96,218.26C91.96,218.1 91.96,217.93 91.96,217.77C91.96,217.61 91.96,217.44 91.96,217.28C91.96,217.12 91.96,216.96 91.96,216.8C91.96,216.64 91.96,216.47 91.96,216.31C91.96,216.15 91.96,215.98 91.96,215.82C91.96,215.66 91.96,215.49 91.96,215.33C91.96,215.17 91.96,215.01 91.96,214.85C91.96,214.69 91.96,214.52 91.96,214.36C91.96,214.2 91.96,214.03 91.96,213.87C91.96,213.71 91.96,213.54 91.96,213.38C91.96,213.22 91.96,213.06 91.96,212.9C91.96,212.74 91.96,212.57 91.96,212.41C91.96,212.25 91.96,212.08 91.96,211.92C91.96,211.76 91.96,211.59 91.96,211.43C91.96,211.27 91.96,211.1 91.96,210.94C91.96,210.78 91.96,210.62 91.96,210.46C91.96,210.3 91.96,210.13 91.96,209.97C91.96,209.81 91.96,209.64 91.96,209.48C91.96,209.32 91.96,209.15 91.96,208.99C91.96,208.83 91.96,208.67 91.96,208.51C91.96,208.35 91.96,208.18 91.96,208.02C91.96,207.86 91.96,207.69 91.96,207.53C91.96,207.37 91.96,207.2 91.96,207.04C91.96,206.88 91.96,206.72 91.96,206.56C91.96,206.4 91.96,206.23 91.96,206.07C91.96,205.91 91.96,205.74 91.96,205.58C91.96,205.42 91.96,205.25 91.96,205.09C91.96,204.93 91.96,204.77 91.96,204.61C91.96,204.45 91.96,204.28 91.96,204.12C91.96,203.96 91.96,203.79 91.96,203.63C91.96,203.47 91.96,203.3 91.96,203.14C91.96,202.98 91.96,202.82 91.96,202.66C91.96,202.5 91.96,202.33 91.96,202.17C91.96,202.01 91.96,201.84 91.96,201.68C91.96,201.52 91.96,201.35 91.96,201.19C91.96,201.03 91.96,200.87 91.96,200.71C91.96,200.55 91.96,200.38 91.96,200.22C91.96,200.06 91.96,199.89 91.96,199.73C91.96,199.57 91.96,199.4 91.96,199.24C91.96,199.08 91.96,198.92 91.96,198.76C91.96,198.6 91.96,198.43 91.96,198.27C91.96,198.11 91.96,197.94 91.96,197.78C91.96,197.62 91.96,197.45 91.96,197.29C91.96,197.13 91.96,196.97 91.96,196.81C91.96,196.65 91.96,196.48 91.96,196.32C91.96,196.16 91.96,195.99 91.96,195.83C91.96,195.67 91.96,195.5 91.96,195.34C91.96,195.18 91.96,195.02 91.96,194.86C91.96,194.7 91.96,194.53 91.96,194.37C91.96,194.21 91.96,194.04 91.96,193.88C91.96,193.72 91.96,193.55 91.96,193.39C91.96,193.23 91.96,193.07 91.96,192.91C91.96,192.75 91.96,192.58 91.96,192.42C91.96,192.26 91.96,192.09 91.96,191.93C91.96,191.77 91.96,191.6 91.96,191.44C91.96,191.28 91.97,191.12 91.97,190.96C91.97,190.8 91.97,190.63 91.97,190.47C91.97,190.31 91.97,190.14 91.98,189.98C91.99,189.82 92,189.65 92.02,189.49C92.04,189.33 92.05,189.17 92.08,189.01C92.11,188.85 92.16,188.68 92.21,188.52C92.27,188.35 92.33,188.19 92.41,188.03C92.49,187.86 92.6,187.7 92.7,187.54C92.81,187.38 92.93,187.22 93.04,187.06C93.15,186.9 93.28,186.74 93.38,186.57C93.48,186.41 93.57,186.25 93.63,186.08C93.68,185.92 93.72,185.75 93.72,185.59C93.72,185.43 93.68,185.27 93.62,185.11C93.56,184.94 93.47,184.78 93.37,184.62C93.27,184.45 93.14,184.29 93.02,184.13C92.91,183.97 92.78,183.8 92.68,183.64C92.58,183.48 92.48,183.32 92.4,183.16Q92.32,183 92.2,182.67L91.96,182.67" style="vector-effect: none; stroke-width: 2px; stroke: rgb(0, 128, 0); stroke-opacity: 1; fill: rgb(0, 128, 0); fill-opacity: 0.5;"/><path class="meanline" d="M96.40690612792969,257.89H91.96" style="fill: none; vector-effect: none; stroke-width: 2px; stroke-dasharray: 4px, 2px; stroke: rgb(0, 128, 0); stroke-opacity: 1;"/><g class="points"><path class="point" transform="translate(151.94,264.56)" d="M3,0A3,3 0 1,1 0,-3A3,3 0 0,1 3,0Z" style="opacity: 1; stroke-width: 0px; fill: rgb(0, 128, 0); fill-opacity: 1;"/><path class="point" transform="translate(142.72,264.56)" d="M3,0A3,3 0 1,1 0,-3A3,3 0 0,1 3,0Z" style="opacity: 1; stroke-width: 0px; fill: rgb(0, 128, 0); fill-opacity: 1;"/><path class="point" transform="translate(153.99,264.56)" d="M3,0A3,3 0 1,1 0,-3A3,3 0 0,1 3,0Z" style="opacity: 1; stroke-width: 0px; fill: rgb(0, 128, 0); fill-opacity: 1;"/><path class="point" transform="translate(141.06,264.56)" d="M3,0A3,3 0 1,1 0,-3A3,3 0 0,1 3,0Z" style="opacity: 1; stroke-width: 0px; fill: rgb(0, 128, 0); fill-opacity: 1;"/><path class="point" transform="translate(145.84,264.56)" d="M3,0A3,3 0 1,1 0,-3A3,3 0 0,1 3,0Z" style="opacity: 1; stroke-width: 0px; fill: rgb(0, 128, 0); fill-opacity: 1;"/><path class="point" transform="translate(151.99,264.56)" d="M3,0A3,3 0 1,1 0,-3A3,3 0 0,1 3,0Z" style="opacity: 1; stroke-width: 0px; fill: rgb(0, 128, 0); fill-opacity: 1;"/><path class="point" transform="translate(147.5,264.56)" d="M3,0A3,3 0 1,1 0,-3A3,3 0 0,1 3,0Z" style="opacity: 1; stroke-width: 0px; fill: rgb(0, 128, 0); fill-opacity: 1;"/><path class="point" transform="translate(150.11,264.56)" d="M3,0A3,3 0 1,1 0,-3A3,3 0 0,1 3,0Z" style="opacity: 1; stroke-width: 0px; fill: rgb(0, 128, 0); fill-opacity: 1;"/><path class="point" transform="translate(145.26,264.56)" d="M3,0A3,3 0 1,1 0,-3A3,3 0 0,1 3,0Z" style="opacity: 1; stroke-width: 0px; fill: rgb(0, 128, 0); fill-opacity: 1;"/><path class="point" transform="translate(141.95,264.56)" d="M3,0A3,3 0 1,1 0,-3A3,3 0 0,1 3,0Z" style="opacity: 1; stroke-width: 0px; fill: rgb(0, 128, 0); fill-opacity: 1;"/><path class="point" transform="translate(149.93,264.56)" d="M3,0A3,3 0 1,1 0,-3A3,3 0 0,1 3,0Z" style="opacity: 1; stroke-width: 0px; fill: rgb(0, 128, 0); fill-opacity: 1;"/><path class="point" transform="translate(145.18,264.56)" d="M3,0A3,3 0 1,1 0,-3A3,3 0 0,1 3,0Z" style="opacity: 1; stroke-width: 0px; fill: rgb(0, 128, 0); fill-opacity: 1;"/><path class="point" transform="translate(152.86,264.56)" d="M3,0A3,3 0 1,1 0,-3A3,3 0 0,1 3,0Z" style="opacity: 1; stroke-width: 0px; fill: rgb(0, 128, 0); fill-opacity: 1;"/><path class="point" transform="translate(142.89,264.56)" d="M3,0A3,3 0 1,1 0,-3A3,3 0 0,1 3,0Z" style="opacity: 1; stroke-width: 0px; fill: rgb(0, 128, 0); fill-opacity: 1;"/><path class="point" transform="translate(144.88,264.56)" d="M3,0A3,3 0 1,1 0,-3A3,3 0 0,1 3,0Z" style="opacity: 1; stroke-width: 0px; fill: rgb(0, 128, 0); fill-opacity: 1;"/><path class="point" transform="translate(152.26,264.56)" d="M3,0A3,3 0 1,1 0,-3A3,3 0 0,1 3,0Z" style="opacity: 1; stroke-width: 0px; fill: rgb(0, 128, 0); fill-opacity: 1;"/><path class="point" transform="translate(146.54,264.56)" d="M3,0A3,3 0 1,1 0,-3A3,3 0 0,1 3,0Z" style="opacity: 1; stroke-width: 0px; fill: rgb(0, 128, 0); fill-opacity: 1;"/><path class="point" transform="translate(143.47,264.56)" d="M3,0A3,3 0 1,1 0,-3A3,3 0 0,1 3,0Z" style="opacity: 1; stroke-width: 0px; fill: rgb(0, 128, 0); fill-opacity: 1;"/><path class="point" transform="translate(146.13,262.59)" d="M3,0A3,3 0 1,1 0,-3A3,3 0 0,1 3,0Z" style="opacity: 1; stroke-width: 0px; fill: rgb(0, 128, 0); fill-opacity: 1;"/><path class="point" transform="translate(147.69,262.59)" d="M3,0A3,3 0 1,1 0,-3A3,3 0 0,1 3,0Z" style="opacity: 1; stroke-width: 0px; fill: rgb(0, 128, 0); fill-opacity: 1;"/><path class="point" transform="translate(150.07,262.59)" d="M3,0A3,3 0 1,1 0,-3A3,3 0 0,1 3,0Z" style="opacity: 1; stroke-width: 0px; fill: rgb(0, 128, 0); fill-opacity: 1;"/><path class="point" transform="translate(148.36,262.59)" d="M3,0A3,3 0 1,1 0,-3A3,3 0 0,1 3,0Z" style="opacity: 1; stroke-width: 0px; fill: rgb(0, 128, 0); fill-opacity: 1;"/><path class="point" transform="translate(146.8,262.59)" d="M3,0A3,3 0 1,1 0,-3A3,3 0 0,1 3,0Z" style="opacity: 1; stroke-width: 0px; fill: rgb(0, 128, 0); fill-opacity: 1;"/><path class="point" transform="translate(143.58,262.59)" d="M3,0A3,3 0 1,1 0,-3A3,3 0 0,1 3,0Z" style="opacity: 1; stroke-width: 0px; fill: rgb(0, 128, 0); fill-opacity: 1;"/><path class="point" transform="translate(147.79,262.59)" d="M3,0A3,3 0 1,1 0,-3A3,3 0 0,1 3,0Z" style="opacity: 1; stroke-width: 0px; fill: rgb(0, 128, 0); fill-opacity: 1;"/><path class="point" transform="translate(146.33,262.59)" d="M3,0A3,3 0 1,1 0,-3A3,3 0 0,1 3,0Z" style="opacity: 1; stroke-width: 0px; fill: rgb(0, 128, 0); fill-opacity: 1;"/><path class="point" transform="translate(150.15,262.59)" d="M3,0A3,3 0 1,1 0,-3A3,3 0 0,1 3,0Z" style="opacity: 1; stroke-width: 0px; fill: rgb(0, 128, 0); fill-opacity: 1;"/><path class="point" transform="translate(147.49,260.61)" d="M3,0A3,3 0 1,1 0,-3A3,3 0 0,1 3,0Z" style="opacity: 1; stroke-width: 0px; fill: rgb(0, 128, 0); fill-opacity: 1;"/><path class="point" transform="translate(145.9,260.61)" d="M3,0A3,3 0 1,1 0,-3A3,3 0 0,1 3,0Z" style="opacity: 1; stroke-width: 0px; fill: rgb(0, 128, 0); fill-opacity: 1;"/><path class="point" transform="translate(145.88,260.61)" d="M3,0A3,3 0 1,1 0,-3A3,3 0 0,1 3,0Z" style="opacity: 1; stroke-width: 0px; fill: rgb(0, 128, 0); fill-opacity: 1;"/><path class="point" transform="translate(148.96,260.61)" d="M3,0A3,3 0 1,1 0,-3A3,3 0 0,1 3,0Z" style="opacity: 1; stroke-width: 0px; fill: rgb(0, 128, 0); fill-opacity: 1;"/><path class="point" transform="translate(146.17,260.61)" d="M3,0A3,3 0 1,1 0,-3A3,3 0 0,1 3,0Z" style="opacity: 1; stroke-width: 0px; fill: rgb(0, 128, 0); fill-opacity: 1;"/><path class="point" transform="translate(148.8,258.64)" d="M3,0A3,3 0 1,1 0,-3A3,3 0 0,1 3,0Z" style="opacity: 1; stroke-width: 0px; fill: rgb(0, 128, 0); fill-opacity: 1;"/><path class="point" transform="translate(148.15,256.67)" d="M3,0A3,3 0 1,1 0,-3A3,3 0 0,1 3,0Z" style="opacity: 1; stroke-width: 0px; fill: rgb(0, 128, 0); fill-opacity: 1;"/><path class="point" transform="translate(147.38,250.74)" d="M3,0A3,3 0 1,1 0,-3A3,3 0 0,1 3,0Z" style="opacity: 1; stroke-width: 0px; fill: rgb(0, 128, 0); fill-opacity: 1;"/><path class="point" transform="translate(147,250.74)" d="M3,0A3,3 0 1,1 0,-3A3,3 0 0,1 3,0Z" style="opacity: 1; stroke-width: 0px; fill: rgb(0, 128, 0); fill-opacity: 1;"/><path class="point" transform="translate(148.17,248.77)" d="M3,0A3,3 0 1,1 0,-3A3,3 0 0,1 3,0Z" style="opacity: 1; stroke-width: 0px; fill: rgb(0, 128, 0); fill-opacity: 1;"/><path class="point" transform="translate(147.72,242.85)" d="M3,0A3,3 0 1,1 0,-3A3,3 0 0,1 3,0Z" style="opacity: 1; stroke-width: 0px; fill: rgb(0, 128, 0); fill-opacity: 1;"/><path class="point" transform="translate(148.32,240.87)" d="M3,0A3,3 0 1,1 0,-3A3,3 0 0,1 3,0Z" style="opacity: 1; stroke-width: 0px; fill: rgb(0, 128, 0); fill-opacity: 1;"/><path class="point" transform="translate(147.18,234.95)" d="M3,0A3,3 0 1,1 0,-3A3,3 0 0,1 3,0Z" style="opacity: 1; stroke-width: 0px; fill: rgb(0, 128, 0); fill-opacity: 1;"/><path class="point" transform="translate(148.24,232.98)" d="M3,0A3,3 0 1,1 0,-3A3,3 0 0,1 3,0Z" style="opacity: 1; stroke-width: 0px; fill: rgb(0, 128, 0); fill-opacity: 1;"/><path class="point" transform="translate(147.75,185.6)" d="M3,0A3,3 0 1,1 0,-3A3,3 0 0,1 3,0Z" style="opacity: 1; stroke-width: 0px; fill: rgb(0, 128, 0); fill-opacity: 1;"/></g></g><g class="trace violins" style="opacity: 1;"><path class="violin" d="M251.5,218.2L251.27,218.2Q251.16,218.53 251.08,218.69C251,218.86 250.91,219.02 250.81,219.18C250.71,219.34 250.59,219.5 250.48,219.66C250.37,219.82 250.25,219.98 250.15,220.15C250.06,220.31 249.96,220.47 249.9,220.64C249.85,220.8 249.81,220.97 249.81,221.13C249.81,221.29 249.85,221.46 249.9,221.62C249.96,221.78 250.05,221.94 250.14,222.1C250.24,222.27 250.36,222.43 250.47,222.59C250.58,222.75 250.7,222.91 250.8,223.08C250.9,223.24 250.99,223.4 251.07,223.57C251.15,223.73 251.21,223.89 251.26,224.06C251.31,224.22 251.34,224.39 251.37,224.55C251.39,224.71 251.41,224.87 251.41,225.03C251.41,225.19 251.4,225.36 251.38,225.52C251.36,225.68 251.34,225.85 251.29,226.01C251.24,226.18 251.18,226.34 251.1,226.5C251.02,226.67 250.93,226.83 250.82,226.99C250.71,227.16 250.57,227.31 250.44,227.47C250.3,227.63 250.15,227.8 250.01,227.96C249.86,228.12 249.71,228.28 249.57,228.45C249.44,228.61 249.3,228.77 249.19,228.94C249.09,229.1 248.98,229.26 248.92,229.43C248.86,229.59 248.82,229.75 248.81,229.91C248.8,230.07 248.82,230.24 248.86,230.4C248.9,230.57 248.97,230.73 249.06,230.89C249.15,231.06 249.28,231.22 249.4,231.38C249.53,231.55 249.68,231.71 249.82,231.87C249.96,232.03 250.12,232.19 250.26,232.35C250.4,232.51 250.54,232.67 250.67,232.84C250.79,233 250.91,233.16 251,233.33C251.09,233.49 251.16,233.65 251.22,233.82C251.28,233.98 251.32,234.15 251.36,234.31C251.4,234.47 251.42,234.63 251.44,234.79C251.46,234.95 251.46,235.12 251.47,235.28C251.48,235.44 251.49,235.61 251.49,235.77C251.49,235.93 251.49,236.1 251.49,236.26C251.49,236.42 251.48,236.59 251.47,236.75C251.46,236.91 251.44,237.08 251.42,237.24C251.4,237.4 251.37,237.56 251.33,237.72C251.29,237.88 251.23,238.05 251.17,238.21C251.1,238.38 251.03,238.54 250.94,238.7C250.85,238.87 250.74,239.03 250.63,239.19C250.52,239.35 250.4,239.52 250.29,239.68C250.19,239.84 250.08,239.99 250,240.16C249.93,240.32 249.86,240.48 249.83,240.65C249.8,240.81 249.81,240.98 249.84,241.14C249.87,241.31 249.94,241.47 250.02,241.63C250.1,241.8 250.21,241.96 250.32,242.12C250.43,242.28 250.55,242.44 250.66,242.6C250.77,242.76 250.87,242.92 250.96,243.09C251.05,243.25 251.13,243.41 251.19,243.58C251.25,243.74 251.3,243.91 251.34,244.07C251.38,244.23 251.41,244.4 251.43,244.56C251.45,244.72 251.46,244.88 251.47,245.04C251.48,245.2 251.48,245.37 251.49,245.53C251.49,245.69 251.5,245.86 251.5,246.02C251.5,246.18 251.5,246.35 251.5,246.51C251.5,246.67 251.5,246.84 251.5,247C251.5,247.16 251.5,247.33 251.5,247.49C251.5,247.65 251.5,247.81 251.5,247.97C251.5,248.13 251.5,248.3 251.5,248.46C251.5,248.62 251.5,248.79 251.5,248.95C251.5,249.11 251.5,249.28 251.5,249.44C251.5,249.6 251.49,249.77 251.49,249.93C251.49,250.09 251.49,250.25 251.48,250.41C251.47,250.57 251.46,250.74 251.44,250.9C251.42,251.06 251.4,251.23 251.36,251.39C251.32,251.55 251.27,251.72 251.21,251.88C251.14,252.05 251.07,252.21 250.97,252.37C250.87,252.54 250.74,252.69 250.61,252.85C250.47,253.02 250.3,253.18 250.13,253.34C249.95,253.51 249.74,253.67 249.53,253.83C249.31,254 249.09,254.16 248.86,254.32C248.62,254.49 248.38,254.65 248.13,254.81C247.88,254.97 247.63,255.13 247.38,255.29C247.13,255.45 246.87,255.62 246.61,255.78C246.35,255.94 246.09,256.11 245.83,256.27C245.57,256.43 245.32,256.6 245.06,256.76C244.8,256.92 244.53,257.09 244.27,257.25C244,257.41 243.74,257.58 243.47,257.74C243.2,257.9 242.92,258.06 242.64,258.22C242.34,258.38 242.05,258.55 241.73,258.71C241.39,258.88 241.05,259.04 240.67,259.2C240.26,259.37 239.82,259.54 239.34,259.69C238.8,259.86 238.23,260.03 237.61,260.18C236.91,260.35 236.14,260.51 235.33,260.66C234.42,260.83 233.43,260.99 232.41,261.15C231.28,261.32 230.06,261.48 228.82,261.64C227.48,261.81 226.06,261.97 224.65,262.13C223.19,262.3 221.66,262.46 220.19,262.62C218.76,262.78 217.27,262.93 215.97,263.1C214.84,263.25 213.59,263.37 212.8,263.59C212.3,263.73 211.61,263.92 211.62,264.08C211.63,264.25 212.48,264.43 213.12,264.57C214.18,264.8 215.85,264.91 217.43,265.06C219.35,265.24 221.64,265.38 223.84,265.54C226.19,265.71 228.73,265.86 231.11,266.03C233.42,266.19 235.78,266.35 237.92,266.52C239.83,266.68 241.71,266.83 243.35,267.01Q244.72,267.16 247.1,267.5L251.5,267.5" style="vector-effect: none; stroke-width: 2px; stroke: rgb(255, 255, 0); stroke-opacity: 1; fill: rgb(255, 255, 0); fill-opacity: 0.5;"/><path class="meanline" d="M239.9313507080078,259.49H251.5" style="fill: none; vector-effect: none; stroke-width: 2px; stroke-dasharray: 4px, 2px; stroke: rgb(255, 255, 0); stroke-opacity: 1;"/><g class="points"><path class="point" transform="translate(199.8,264.56)" d="M3,0A3,3 0 1,1 0,-3A3,3 0 0,1 3,0Z" style="opacity: 1; stroke-width: 0px; fill: rgb(255, 255, 0); fill-opacity: 1;"/><path class="point" transform="translate(190.58,264.56)" d="M3,0A3,3 0 1,1 0,-3A3,3 0 0,1 3,0Z" style="opacity: 1; stroke-width: 0px; fill: rgb(255, 255, 0); fill-opacity: 1;"/><path class="point" transform="translate(201.85,264.56)" d="M3,0A3,3 0 1,1 0,-3A3,3 0 0,1 3,0Z" style="opacity: 1; stroke-width: 0px; fill: rgb(255, 255, 0); fill-opacity: 1;"/><path class="point" transform="translate(188.92,264.56)" d="M3,0A3,3 0 1,1 0,-3A3,3 0 0,1 3,0Z" style="opacity: 1; stroke-width: 0px; fill: rgb(255, 255, 0); fill-opacity: 1;"/><path class="point" transform="translate(193.7,264.56)" d="M3,0A3,3 0 1,1 0,-3A3,3 0 0,1 3,0Z" style="opacity: 1; stroke-width: 0px; fill: rgb(255, 255, 0); fill-opacity: 1;"/><path class="point" transform="translate(199.85,264.56)" d="M3,0A3,3 0 1,1 0,-3A3,3 0 0,1 3,0Z" style="opacity: 1; stroke-width: 0px; fill: rgb(255, 255, 0); fill-opacity: 1;"/><path class="point" transform="translate(195.37,264.56)" d="M3,0A3,3 0 1,1 0,-3A3,3 0 0,1 3,0Z" style="opacity: 1; stroke-width: 0px; fill: rgb(255, 255, 0); fill-opacity: 1;"/><path class="point" transform="translate(197.98,264.56)" d="M3,0A3,3 0 1,1 0,-3A3,3 0 0,1 3,0Z" style="opacity: 1; stroke-width: 0px; fill: rgb(255, 255, 0); fill-opacity: 1;"/><path class="point" transform="translate(193.12,264.56)" d="M3,0A3,3 0 1,1 0,-3A3,3 0 0,1 3,0Z" style="opacity: 1; stroke-width: 0px; fill: rgb(255, 255, 0); fill-opacity: 1;"/><path class="point" transform="translate(189.82,264.56)" d="M3,0A3,3 0 1,1 0,-3A3,3 0 0,1 3,0Z" style="opacity: 1; stroke-width: 0px; fill: rgb(255, 255, 0); fill-opacity: 1;"/><path class="point" transform="translate(197.79,264.56)" d="M3,0A3,3 0 1,1 0,-3A3,3 0 0,1 3,0Z" style="opacity: 1; stroke-width: 0px; fill: rgb(255, 255, 0); fill-opacity: 1;"/><path class="point" transform="translate(193.04,264.56)" d="M3,0A3,3 0 1,1 0,-3A3,3 0 0,1 3,0Z" style="opacity: 1; stroke-width: 0px; fill: rgb(255, 255, 0); fill-opacity: 1;"/><path class="point" transform="translate(200.72,264.56)" d="M3,0A3,3 0 1,1 0,-3A3,3 0 0,1 3,0Z" style="opacity: 1; stroke-width: 0px; fill: rgb(255, 255, 0); fill-opacity: 1;"/><path class="point" transform="translate(187.9,264.56)" d="M3,0A3,3 0 1,1 0,-3A3,3 0 0,1 3,0Z" style="opacity: 1; stroke-width: 0px; fill: rgb(255, 255, 0); fill-opacity: 1;"/><path class="point" transform="translate(193.5,264.56)" d="M3,0A3,3 0 1,1 0,-3A3,3 0 0,1 3,0Z" style="opacity: 1; stroke-width: 0px; fill: rgb(255, 255, 0); fill-opacity: 1;"/><path class="point" transform="translate(198.97,264.56)" d="M3,0A3,3 0 1,1 0,-3A3,3 0 0,1 3,0Z" style="opacity: 1; stroke-width: 0px; fill: rgb(255, 255, 0); fill-opacity: 1;"/><path class="point" transform="translate(194.72,264.56)" d="M3,0A3,3 0 1,1 0,-3A3,3 0 0,1 3,0Z" style="opacity: 1; stroke-width: 0px; fill: rgb(255, 255, 0); fill-opacity: 1;"/><path class="point" transform="translate(192.45,264.56)" d="M3,0A3,3 0 1,1 0,-3A3,3 0 0,1 3,0Z" style="opacity: 1; stroke-width: 0px; fill: rgb(255, 255, 0); fill-opacity: 1;"/><path class="point" transform="translate(194.43,264.56)" d="M3,0A3,3 0 1,1 0,-3A3,3 0 0,1 3,0Z" style="opacity: 1; stroke-width: 0px; fill: rgb(255, 255, 0); fill-opacity: 1;"/><path class="point" transform="translate(195.58,262.59)" d="M3,0A3,3 0 1,1 0,-3A3,3 0 0,1 3,0Z" style="opacity: 1; stroke-width: 0px; fill: rgb(255, 255, 0); fill-opacity: 1;"/><path class="point" transform="translate(197.35,262.59)" d="M3,0A3,3 0 1,1 0,-3A3,3 0 0,1 3,0Z" style="opacity: 1; stroke-width: 0px; fill: rgb(255, 255, 0); fill-opacity: 1;"/><path class="point" transform="translate(196.08,262.59)" d="M3,0A3,3 0 1,1 0,-3A3,3 0 0,1 3,0Z" style="opacity: 1; stroke-width: 0px; fill: rgb(255, 255, 0); fill-opacity: 1;"/><path class="point" transform="translate(194.61,262.59)" d="M3,0A3,3 0 1,1 0,-3A3,3 0 0,1 3,0Z" style="opacity: 1; stroke-width: 0px; fill: rgb(255, 255, 0); fill-opacity: 1;"/><path class="point" transform="translate(193.45,262.59)" d="M3,0A3,3 0 1,1 0,-3A3,3 0 0,1 3,0Z" style="opacity: 1; stroke-width: 0px; fill: rgb(255, 255, 0); fill-opacity: 1;"/><path class="point" transform="translate(195.65,262.59)" d="M3,0A3,3 0 1,1 0,-3A3,3 0 0,1 3,0Z" style="opacity: 1; stroke-width: 0px; fill: rgb(255, 255, 0); fill-opacity: 1;"/><path class="point" transform="translate(194.57,262.59)" d="M3,0A3,3 0 1,1 0,-3A3,3 0 0,1 3,0Z" style="opacity: 1; stroke-width: 0px; fill: rgb(255, 255, 0); fill-opacity: 1;"/><path class="point" transform="translate(197.4,262.59)" d="M3,0A3,3 0 1,1 0,-3A3,3 0 0,1 3,0Z" style="opacity: 1; stroke-width: 0px; fill: rgb(255, 255, 0); fill-opacity: 1;"/><path class="point" transform="translate(195.43,262.59)" d="M3,0A3,3 0 1,1 0,-3A3,3 0 0,1 3,0Z" style="opacity: 1; stroke-width: 0px; fill: rgb(255, 255, 0); fill-opacity: 1;"/><path class="point" transform="translate(193.93,260.61)" d="M3,0A3,3 0 1,1 0,-3A3,3 0 0,1 3,0Z" style="opacity: 1; stroke-width: 0px; fill: rgb(255, 255, 0); fill-opacity: 1;"/><path class="point" transform="translate(193.19,260.61)" d="M3,0A3,3 0 1,1 0,-3A3,3 0 0,1 3,0Z" style="opacity: 1; stroke-width: 0px; fill: rgb(255, 255, 0); fill-opacity: 1;"/><path class="point" transform="translate(196.88,260.61)" d="M3,0A3,3 0 1,1 0,-3A3,3 0 0,1 3,0Z" style="opacity: 1; stroke-width: 0px; fill: rgb(255, 255, 0); fill-opacity: 1;"/><path class="point" transform="translate(193.82,260.61)" d="M3,0A3,3 0 1,1 0,-3A3,3 0 0,1 3,0Z" style="opacity: 1; stroke-width: 0px; fill: rgb(255, 255, 0); fill-opacity: 1;"/><path class="point" transform="translate(196.77,258.64)" d="M3,0A3,3 0 1,1 0,-3A3,3 0 0,1 3,0Z" style="opacity: 1; stroke-width: 0px; fill: rgb(255, 255, 0); fill-opacity: 1;"/><path class="point" transform="translate(195.92,258.64)" d="M3,0A3,3 0 1,1 0,-3A3,3 0 0,1 3,0Z" style="opacity: 1; stroke-width: 0px; fill: rgb(255, 255, 0); fill-opacity: 1;"/><path class="point" transform="translate(195.37,258.64)" d="M3,0A3,3 0 1,1 0,-3A3,3 0 0,1 3,0Z" style="opacity: 1; stroke-width: 0px; fill: rgb(255, 255, 0); fill-opacity: 1;"/><path class="point" transform="translate(195.11,256.67)" d="M3,0A3,3 0 1,1 0,-3A3,3 0 0,1 3,0Z" style="opacity: 1; stroke-width: 0px; fill: rgb(255, 255, 0); fill-opacity: 1;"/><path class="point" transform="translate(196.04,256.67)" d="M3,0A3,3 0 1,1 0,-3A3,3 0 0,1 3,0Z" style="opacity: 1; stroke-width: 0px; fill: rgb(255, 255, 0); fill-opacity: 1;"/><path class="point" transform="translate(195.58,254.69)" d="M3,0A3,3 0 1,1 0,-3A3,3 0 0,1 3,0Z" style="opacity: 1; stroke-width: 0px; fill: rgb(255, 255, 0); fill-opacity: 1;"/><path class="point" transform="translate(196.19,240.87)" d="M3,0A3,3 0 1,1 0,-3A3,3 0 0,1 3,0Z" style="opacity: 1; stroke-width: 0px; fill: rgb(255, 255, 0); fill-opacity: 1;"/><path class="point" transform="translate(195.06,231)" d="M3,0A3,3 0 1,1 0,-3A3,3 0 0,1 3,0Z" style="opacity: 1; stroke-width: 0px; fill: rgb(255, 255, 0); fill-opacity: 1;"/><path class="point" transform="translate(196.1,229.03)" d="M3,0A3,3 0 1,1 0,-3A3,3 0 0,1 3,0Z" style="opacity: 1; stroke-width: 0px; fill: rgb(255, 255, 0); fill-opacity: 1;"/><path class="point" transform="translate(195.61,221.14)" d="M3,0A3,3 0 1,1 0,-3A3,3 0 0,1 3,0Z" style="opacity: 1; stroke-width: 0px; fill: rgb(255, 255, 0); fill-opacity: 1;"/></g></g><g class="trace violins" style="opacity: 1;"><path class="violin" d="M251.5,304L253.94,304Q255.33,299.65 256.33,297.54C257.38,295.34 258.67,293.17 260.15,291.07C261.71,288.85 263.58,286.71 265.52,284.61C267.56,282.4 269.88,280.29 272.13,278.15C274.41,275.98 276.9,273.88 279.13,271.69C281.3,269.57 283.56,267.46 285.36,265.22C287.03,263.14 288.65,261 289.66,258.76C290.6,256.68 291.23,254.47 291.38,252.3C291.52,250.16 291.13,247.95 290.56,245.84C289.96,243.64 288.88,241.49 287.8,239.37C286.69,237.18 285.29,235.05 283.97,232.91C282.64,230.75 281.18,228.61 279.84,226.45C278.51,224.31 277.17,222.16 275.94,219.99C274.73,217.85 273.56,215.69 272.51,213.52C271.47,211.38 270.52,209.23 269.66,207.06C268.82,204.92 268.07,202.77 267.41,200.6C266.76,198.46 266.2,196.3 265.72,194.14C265.24,191.99 264.87,189.83 264.51,187.67C264.16,185.52 263.89,183.36 263.59,181.21C263.29,179.06 263.03,176.9 262.7,174.75C262.37,172.59 262.02,170.43 261.61,168.28C261.2,166.12 260.72,163.97 260.23,161.82C259.73,159.66 259.17,157.51 258.64,155.36C258.11,153.21 257.53,151.06 257.03,148.9C256.53,146.75 256.05,144.59 255.66,142.43C255.27,140.28 254.93,138.13 254.67,135.97C254.41,133.82 254.24,131.67 254.1,129.51C253.97,127.36 253.9,125.2 253.86,123.05C253.82,120.89 253.83,118.74 253.84,116.58C253.85,114.43 253.87,112.27 253.89,110.12C253.9,107.97 253.93,105.81 253.93,103.66C253.93,101.51 253.92,99.35 253.9,97.2C253.88,95.04 253.85,92.89 253.79,90.73C253.74,88.58 253.66,86.42 253.57,84.27C253.48,82.12 253.38,79.96 253.27,77.81C253.16,75.66 253.02,73.5 252.89,71.35C252.76,69.19 252.63,67.04 252.51,64.88C252.39,62.73 252.27,60.57 252.17,58.42C252.07,56.27 251.97,54.11 251.9,51.96Q251.82,49.8 251.72,45.49L251.5,45.49" style="vector-effect: none; stroke-width: 2px; stroke: rgb(255, 165, 0); stroke-opacity: 1; fill: rgb(255, 165, 0); fill-opacity: 0.5;"/><path class="meanline" d="M280.13360595703125,226.92H251.5" style="fill: none; vector-effect: none; stroke-width: 2px; stroke-dasharray: 4px, 2px; stroke: rgb(255, 165, 0); stroke-opacity: 1;"/><g class="points"><path class="point" transform="translate(310.74,264.56)" d="M3,0A3,3 0 1,1 0,-3A3,3 0 0,1 3,0Z" style="opacity: 1; stroke-width: 0px; fill: rgb(255, 165, 0); fill-opacity: 1;"/><path class="point" transform="translate(302.76,264.56)" d="M3,0A3,3 0 1,1 0,-3A3,3 0 0,1 3,0Z" style="opacity: 1; stroke-width: 0px; fill: rgb(255, 165, 0); fill-opacity: 1;"/><path class="point" transform="translate(313.35,262.59)" d="M3,0A3,3 0 1,1 0,-3A3,3 0 0,1 3,0Z" style="opacity: 1; stroke-width: 0px; fill: rgb(255, 165, 0); fill-opacity: 1;"/><path class="point" transform="translate(300.59,262.59)" d="M3,0A3,3 0 1,1 0,-3A3,3 0 0,1 3,0Z" style="opacity: 1; stroke-width: 0px; fill: rgb(255, 165, 0); fill-opacity: 1;"/><path class="point" transform="translate(305.37,260.61)" d="M3,0A3,3 0 1,1 0,-3A3,3 0 0,1 3,0Z" style="opacity: 1; stroke-width: 0px; fill: rgb(255, 165, 0); fill-opacity: 1;"/><path class="point" transform="translate(311.53,260.61)" d="M3,0A3,3 0 1,1 0,-3A3,3 0 0,1 3,0Z" style="opacity: 1; stroke-width: 0px; fill: rgb(255, 165, 0); fill-opacity: 1;"/><path class="point" transform="translate(307.06,260.61)" d="M3,0A3,3 0 1,1 0,-3A3,3 0 0,1 3,0Z" style="opacity: 1; stroke-width: 0px; fill: rgb(255, 165, 0); fill-opacity: 1;"/><path class="point" transform="translate(309.65,260.61)" d="M3,0A3,3 0 1,1 0,-3A3,3 0 0,1 3,0Z" style="opacity: 1; stroke-width: 0px; fill: rgb(255, 165, 0); fill-opacity: 1;"/><path class="point" transform="translate(304.92,260.61)" d="M3,0A3,3 0 1,1 0,-3A3,3 0 0,1 3,0Z" style="opacity: 1; stroke-width: 0px; fill: rgb(255, 165, 0); fill-opacity: 1;"/><path class="point" transform="translate(301.79,260.61)" d="M3,0A3,3 0 1,1 0,-3A3,3 0 0,1 3,0Z" style="opacity: 1; stroke-width: 0px; fill: rgb(255, 165, 0); fill-opacity: 1;"/><path class="point" transform="translate(309.36,260.61)" d="M3,0A3,3 0 1,1 0,-3A3,3 0 0,1 3,0Z" style="opacity: 1; stroke-width: 0px; fill: rgb(255, 165, 0); fill-opacity: 1;"/><path class="point" transform="translate(305.18,258.64)" d="M3,0A3,3 0 1,1 0,-3A3,3 0 0,1 3,0Z" style="opacity: 1; stroke-width: 0px; fill: rgb(255, 165, 0); fill-opacity: 1;"/><path class="point" transform="translate(311.49,258.64)" d="M3,0A3,3 0 1,1 0,-3A3,3 0 0,1 3,0Z" style="opacity: 1; stroke-width: 0px; fill: rgb(255, 165, 0); fill-opacity: 1;"/><path class="point" transform="translate(301.63,256.67)" d="M3,0A3,3 0 1,1 0,-3A3,3 0 0,1 3,0Z" style="opacity: 1; stroke-width: 0px; fill: rgb(255, 165, 0); fill-opacity: 1;"/><path class="point" transform="translate(304.24,254.69)" d="M3,0A3,3 0 1,1 0,-3A3,3 0 0,1 3,0Z" style="opacity: 1; stroke-width: 0px; fill: rgb(255, 165, 0); fill-opacity: 1;"/><path class="point" transform="translate(311.44,254.69)" d="M3,0A3,3 0 1,1 0,-3A3,3 0 0,1 3,0Z" style="opacity: 1; stroke-width: 0px; fill: rgb(255, 165, 0); fill-opacity: 1;"/><path class="point" transform="translate(306.24,252.72)" d="M3,0A3,3 0 1,1 0,-3A3,3 0 0,1 3,0Z" style="opacity: 1; stroke-width: 0px; fill: rgb(255, 165, 0); fill-opacity: 1;"/><path class="point" transform="translate(303.95,252.72)" d="M3,0A3,3 0 1,1 0,-3A3,3 0 0,1 3,0Z" style="opacity: 1; stroke-width: 0px; fill: rgb(255, 165, 0); fill-opacity: 1;"/><path class="point" transform="translate(306.03,250.74)" d="M3,0A3,3 0 1,1 0,-3A3,3 0 0,1 3,0Z" style="opacity: 1; stroke-width: 0px; fill: rgb(255, 165, 0); fill-opacity: 1;"/><path class="point" transform="translate(307.25,248.77)" d="M3,0A3,3 0 1,1 0,-3A3,3 0 0,1 3,0Z" style="opacity: 1; stroke-width: 0px; fill: rgb(255, 165, 0); fill-opacity: 1;"/><path class="point" transform="translate(309.04,244.82)" d="M3,0A3,3 0 1,1 0,-3A3,3 0 0,1 3,0Z" style="opacity: 1; stroke-width: 0px; fill: rgb(255, 165, 0); fill-opacity: 1;"/><path class="point" transform="translate(307.78,240.87)" d="M3,0A3,3 0 1,1 0,-3A3,3 0 0,1 3,0Z" style="opacity: 1; stroke-width: 0px; fill: rgb(255, 165, 0); fill-opacity: 1;"/><path class="point" transform="translate(306.27,236.93)" d="M3,0A3,3 0 1,1 0,-3A3,3 0 0,1 3,0Z" style="opacity: 1; stroke-width: 0px; fill: rgb(255, 165, 0); fill-opacity: 1;"/><path class="point" transform="translate(304.41,234.95)" d="M3,0A3,3 0 1,1 0,-3A3,3 0 0,1 3,0Z" style="opacity: 1; stroke-width: 0px; fill: rgb(255, 165, 0); fill-opacity: 1;"/><path class="point" transform="translate(307.33,234.95)" d="M3,0A3,3 0 1,1 0,-3A3,3 0 0,1 3,0Z" style="opacity: 1; stroke-width: 0px; fill: rgb(255, 165, 0); fill-opacity: 1;"/><path class="point" transform="translate(306.38,231)" d="M3,0A3,3 0 1,1 0,-3A3,3 0 0,1 3,0Z" style="opacity: 1; stroke-width: 0px; fill: rgb(255, 165, 0); fill-opacity: 1;"/><path class="point" transform="translate(308.91,231)" d="M3,0A3,3 0 1,1 0,-3A3,3 0 0,1 3,0Z" style="opacity: 1; stroke-width: 0px; fill: rgb(255, 165, 0); fill-opacity: 1;"/><path class="point" transform="translate(307.05,229.03)" d="M3,0A3,3 0 1,1 0,-3A3,3 0 0,1 3,0Z" style="opacity: 1; stroke-width: 0px; fill: rgb(255, 165, 0); fill-opacity: 1;"/><path class="point" transform="translate(305.12,223.11)" d="M3,0A3,3 0 1,1 0,-3A3,3 0 0,1 3,0Z" style="opacity: 1; stroke-width: 0px; fill: rgb(255, 165, 0); fill-opacity: 1;"/><path class="point" transform="translate(304.46,221.14)" d="M3,0A3,3 0 1,1 0,-3A3,3 0 0,1 3,0Z" style="opacity: 1; stroke-width: 0px; fill: rgb(255, 165, 0); fill-opacity: 1;"/><path class="point" transform="translate(308.88,213.24)" d="M3,0A3,3 0 1,1 0,-3A3,3 0 0,1 3,0Z" style="opacity: 1; stroke-width: 0px; fill: rgb(255, 165, 0); fill-opacity: 1;"/><path class="point" transform="translate(305.26,211.27)" d="M3,0A3,3 0 1,1 0,-3A3,3 0 0,1 3,0Z" style="opacity: 1; stroke-width: 0px; fill: rgb(255, 165, 0); fill-opacity: 1;"/><path class="point" transform="translate(308.81,205.34)" d="M3,0A3,3 0 1,1 0,-3A3,3 0 0,1 3,0Z" style="opacity: 1; stroke-width: 0px; fill: rgb(255, 165, 0); fill-opacity: 1;"/><path class="point" transform="translate(307.89,205.34)" d="M3,0A3,3 0 1,1 0,-3A3,3 0 0,1 3,0Z" style="opacity: 1; stroke-width: 0px; fill: rgb(255, 165, 0); fill-opacity: 1;"/><path class="point" transform="translate(306.59,199.42)" d="M3,0A3,3 0 1,1 0,-3A3,3 0 0,1 3,0Z" style="opacity: 1; stroke-width: 0px; fill: rgb(255, 165, 0); fill-opacity: 1;"/><path class="point" transform="translate(305.87,185.6)" d="M3,0A3,3 0 1,1 0,-3A3,3 0 0,1 3,0Z" style="opacity: 1; stroke-width: 0px; fill: rgb(255, 165, 0); fill-opacity: 1;"/><path class="point" transform="translate(308.18,173.76)" d="M3,0A3,3 0 1,1 0,-3A3,3 0 0,1 3,0Z" style="opacity: 1; stroke-width: 0px; fill: rgb(255, 165, 0); fill-opacity: 1;"/><path class="point" transform="translate(307.16,173.76)" d="M3,0A3,3 0 1,1 0,-3A3,3 0 0,1 3,0Z" style="opacity: 1; stroke-width: 0px; fill: rgb(255, 165, 0); fill-opacity: 1;"/><path class="point" transform="translate(308.43,169.81)" d="M3,0A3,3 0 1,1 0,-3A3,3 0 0,1 3,0Z" style="opacity: 1; stroke-width: 0px; fill: rgb(255, 165, 0); fill-opacity: 1;"/><path class="point" transform="translate(306.04,167.84)" d="M3,0A3,3 0 1,1 0,-3A3,3 0 0,1 3,0Z" style="opacity: 1; stroke-width: 0px; fill: rgb(255, 165, 0); fill-opacity: 1;"/><path class="point" transform="translate(308.32,157.97)" d="M3,0A3,3 0 1,1 0,-3A3,3 0 0,1 3,0Z" style="opacity: 1; stroke-width: 0px; fill: rgb(255, 165, 0); fill-opacity: 1;"/><path class="point" transform="translate(307.21,114.54)" d="M3,0A3,3 0 1,1 0,-3A3,3 0 0,1 3,0Z" style="opacity: 1; stroke-width: 0px; fill: rgb(255, 165, 0); fill-opacity: 1;"/><path class="point" transform="translate(306.79,84.93)" d="M3,0A3,3 0 1,1 0,-3A3,3 0 0,1 3,0Z" style="opacity: 1; stroke-width: 0px; fill: rgb(255, 165, 0); fill-opacity: 1;"/></g></g><g class="trace violins" style="opacity: 1;"><path class="violin" d="M411.04,16L410.83,16Q410.73,17.95 410.66,18.92C410.59,19.9 410.5,20.87 410.41,21.85C410.32,22.82 410.22,23.8 410.12,24.77C410.02,25.75 409.91,26.72 409.82,27.7C409.73,28.67 409.65,29.65 409.6,30.62C409.55,31.6 409.51,32.57 409.51,33.55C409.51,34.52 409.54,35.5 409.59,36.47C409.64,37.45 409.72,38.42 409.81,39.4C409.89,40.37 410,41.35 410.1,42.32C410.2,43.3 410.31,44.27 410.4,45.25C410.49,46.22 410.57,47.2 410.64,48.17C410.71,49.15 410.76,50.12 410.8,51.1C410.84,52.07 410.87,53.05 410.88,54.02C410.89,55 410.9,55.97 410.88,56.95C410.86,57.92 410.83,58.9 410.79,59.87C410.75,60.85 410.69,61.82 410.62,62.8C410.55,63.77 410.46,64.75 410.37,65.72C410.28,66.7 410.17,67.67 410.07,68.65C409.97,69.62 409.86,70.6 409.78,71.57C409.7,72.55 409.61,73.52 409.57,74.5C409.53,75.47 409.5,76.45 409.51,77.42C409.52,78.4 409.56,79.37 409.62,80.35C409.68,81.32 409.76,82.3 409.85,83.27C409.94,84.25 410.05,85.22 410.15,86.2C410.25,87.17 410.35,88.15 410.44,89.12C410.53,90.1 410.61,91.07 410.68,92.05C410.75,93.02 410.8,94 410.84,94.97C410.88,95.95 410.91,96.92 410.93,97.9C410.95,98.87 410.96,99.85 410.97,100.82C410.98,101.8 410.98,102.77 410.96,103.75C410.94,104.72 410.92,105.7 410.88,106.67C410.84,107.65 410.8,108.62 410.73,109.6C410.66,110.57 410.58,111.55 410.47,112.52C410.36,113.5 410.23,114.48 410.08,115.45C409.93,116.43 409.76,117.4 409.58,118.37C409.4,119.35 409.2,120.32 409.02,121.3C408.84,122.27 408.65,123.24 408.49,124.22C408.34,125.19 408.19,126.17 408.09,127.15C407.99,128.12 407.92,129.1 407.88,130.07C407.84,131.05 407.85,132.02 407.87,133C407.89,133.97 407.95,134.95 408.01,135.92C408.07,136.9 408.16,137.87 408.24,138.85C408.32,139.82 408.41,140.8 408.5,141.77C408.59,142.75 408.69,143.72 408.79,144.7C408.89,145.67 409.01,146.65 409.12,147.62C409.24,148.6 409.36,149.57 409.48,150.55C409.6,151.52 409.74,152.5 409.86,153.47C409.98,154.45 410.1,155.42 410.21,156.4C410.31,157.37 410.41,158.35 410.49,159.32C410.57,160.3 410.63,161.27 410.67,162.25C410.71,163.22 410.72,164.2 410.72,165.17C410.72,166.15 410.69,167.12 410.65,168.1C410.61,169.07 410.54,170.05 410.46,171.02C410.38,172 410.28,172.97 410.19,173.95C410.1,174.92 409.99,175.9 409.9,176.87C409.81,177.85 409.71,178.82 409.64,179.8C409.57,180.77 409.52,181.75 409.5,182.72C409.48,183.7 409.49,184.67 409.51,185.65C409.53,186.62 409.59,187.6 409.64,188.57C409.69,189.55 409.76,190.52 409.81,191.5C409.86,192.47 409.92,193.45 409.94,194.42C409.96,195.4 409.97,196.37 409.94,197.35C409.91,198.32 409.86,199.3 409.79,200.27C409.72,201.25 409.62,202.22 409.52,203.2C409.42,204.17 409.3,205.15 409.19,206.12C409.08,207.1 408.97,208.07 408.88,209.05C408.79,210.02 408.71,211 408.64,211.97C408.57,212.95 408.52,213.92 408.48,214.9C408.44,215.87 408.42,216.85 408.38,217.82C408.34,218.8 408.31,219.78 408.24,220.75C408.17,221.73 408.1,222.7 407.95,223.67C407.8,224.65 407.62,225.63 407.35,226.6C407.08,227.58 406.73,228.56 406.32,229.52C405.89,230.51 405.38,231.49 404.81,232.45C404.23,233.44 403.56,234.41 402.86,235.37C402.14,236.36 401.37,237.34 400.57,238.3C399.75,239.29 398.9,240.26 398,241.22C397.07,242.21 396.12,243.2 395.08,244.15C393.99,245.15 392.83,246.13 391.58,247.07C390.24,248.08 388.78,249.05 387.27,250C385.67,251 383.92,251.95 382.23,252.92C380.52,253.9 378.68,254.83 377.08,255.85C375.6,256.79 373.97,257.68 372.95,258.77C372.11,259.67 371.2,260.71 371.15,261.7C371.1,262.66 371.79,263.74 372.57,264.62C373.58,265.76 375.44,266.64 377.16,267.55C379.17,268.61 381.64,269.51 383.97,270.47C386.4,271.47 389.04,272.4 391.48,273.4C393.82,274.36 396.2,275.29 398.3,276.32C400.19,277.25 402.02,278.2 403.56,279.25Q404.9,280.17 407.09,282.17L411.04,282.17" style="vector-effect: none; stroke-width: 2px; stroke: rgb(128, 0, 0); stroke-opacity: 1; fill: rgb(128, 0, 0); fill-opacity: 0.5;"/><path class="meanline" d="M402.3715515136719,236.03H411.04" style="fill: none; vector-effect: none; stroke-width: 2px; stroke-dasharray: 4px, 2px; stroke: rgb(128, 0, 0); stroke-opacity: 1;"/><g class="points"><path class="point" transform="translate(359.34,264.56)" d="M3,0A3,3 0 1,1 0,-3A3,3 0 0,1 3,0Z" style="opacity: 1; stroke-width: 0px; fill: rgb(128, 0, 0); fill-opacity: 1;"/><path class="point" transform="translate(350.11,264.56)" d="M3,0A3,3 0 1,1 0,-3A3,3 0 0,1 3,0Z" style="opacity: 1; stroke-width: 0px; fill: rgb(128, 0, 0); fill-opacity: 1;"/><path class="point" transform="translate(361.38,264.56)" d="M3,0A3,3 0 1,1 0,-3A3,3 0 0,1 3,0Z" style="opacity: 1; stroke-width: 0px; fill: rgb(128, 0, 0); fill-opacity: 1;"/><path class="point" transform="translate(348.45,264.56)" d="M3,0A3,3 0 1,1 0,-3A3,3 0 0,1 3,0Z" style="opacity: 1; stroke-width: 0px; fill: rgb(128, 0, 0); fill-opacity: 1;"/><path class="point" transform="translate(353.23,264.56)" d="M3,0A3,3 0 1,1 0,-3A3,3 0 0,1 3,0Z" style="opacity: 1; stroke-width: 0px; fill: rgb(128, 0, 0); fill-opacity: 1;"/><path class="point" transform="translate(359.39,264.56)" d="M3,0A3,3 0 1,1 0,-3A3,3 0 0,1 3,0Z" style="opacity: 1; stroke-width: 0px; fill: rgb(128, 0, 0); fill-opacity: 1;"/><path class="point" transform="translate(354.9,264.56)" d="M3,0A3,3 0 1,1 0,-3A3,3 0 0,1 3,0Z" style="opacity: 1; stroke-width: 0px; fill: rgb(128, 0, 0); fill-opacity: 1;"/><path class="point" transform="translate(357.51,264.56)" d="M3,0A3,3 0 1,1 0,-3A3,3 0 0,1 3,0Z" style="opacity: 1; stroke-width: 0px; fill: rgb(128, 0, 0); fill-opacity: 1;"/><path class="point" transform="translate(352.65,264.56)" d="M3,0A3,3 0 1,1 0,-3A3,3 0 0,1 3,0Z" style="opacity: 1; stroke-width: 0px; fill: rgb(128, 0, 0); fill-opacity: 1;"/><path class="point" transform="translate(349.35,264.56)" d="M3,0A3,3 0 1,1 0,-3A3,3 0 0,1 3,0Z" style="opacity: 1; stroke-width: 0px; fill: rgb(128, 0, 0); fill-opacity: 1;"/><path class="point" transform="translate(357.33,264.56)" d="M3,0A3,3 0 1,1 0,-3A3,3 0 0,1 3,0Z" style="opacity: 1; stroke-width: 0px; fill: rgb(128, 0, 0); fill-opacity: 1;"/><path class="point" transform="translate(352.57,264.56)" d="M3,0A3,3 0 1,1 0,-3A3,3 0 0,1 3,0Z" style="opacity: 1; stroke-width: 0px; fill: rgb(128, 0, 0); fill-opacity: 1;"/><path class="point" transform="translate(360.26,264.56)" d="M3,0A3,3 0 1,1 0,-3A3,3 0 0,1 3,0Z" style="opacity: 1; stroke-width: 0px; fill: rgb(128, 0, 0); fill-opacity: 1;"/><path class="point" transform="translate(347.43,264.56)" d="M3,0A3,3 0 1,1 0,-3A3,3 0 0,1 3,0Z" style="opacity: 1; stroke-width: 0px; fill: rgb(128, 0, 0); fill-opacity: 1;"/><path class="point" transform="translate(350.58,262.59)" d="M3,0A3,3 0 1,1 0,-3A3,3 0 0,1 3,0Z" style="opacity: 1; stroke-width: 0px; fill: rgb(128, 0, 0); fill-opacity: 1;"/><path class="point" transform="translate(360.66,262.59)" d="M3,0A3,3 0 1,1 0,-3A3,3 0 0,1 3,0Z" style="opacity: 1; stroke-width: 0px; fill: rgb(128, 0, 0); fill-opacity: 1;"/><path class="point" transform="translate(353.65,262.59)" d="M3,0A3,3 0 1,1 0,-3A3,3 0 0,1 3,0Z" style="opacity: 1; stroke-width: 0px; fill: rgb(128, 0, 0); fill-opacity: 1;"/><path class="point" transform="translate(349.89,262.59)" d="M3,0A3,3 0 1,1 0,-3A3,3 0 0,1 3,0Z" style="opacity: 1; stroke-width: 0px; fill: rgb(128, 0, 0); fill-opacity: 1;"/><path class="point" transform="translate(353.75,262.59)" d="M3,0A3,3 0 1,1 0,-3A3,3 0 0,1 3,0Z" style="opacity: 1; stroke-width: 0px; fill: rgb(128, 0, 0); fill-opacity: 1;"/><path class="point" transform="translate(355.09,262.59)" d="M3,0A3,3 0 1,1 0,-3A3,3 0 0,1 3,0Z" style="opacity: 1; stroke-width: 0px; fill: rgb(128, 0, 0); fill-opacity: 1;"/><path class="point" transform="translate(356.96,260.61)" d="M3,0A3,3 0 1,1 0,-3A3,3 0 0,1 3,0Z" style="opacity: 1; stroke-width: 0px; fill: rgb(128, 0, 0); fill-opacity: 1;"/><path class="point" transform="translate(355.63,260.61)" d="M3,0A3,3 0 1,1 0,-3A3,3 0 0,1 3,0Z" style="opacity: 1; stroke-width: 0px; fill: rgb(128, 0, 0); fill-opacity: 1;"/><path class="point" transform="translate(354.19,260.61)" d="M3,0A3,3 0 1,1 0,-3A3,3 0 0,1 3,0Z" style="opacity: 1; stroke-width: 0px; fill: rgb(128, 0, 0); fill-opacity: 1;"/><path class="point" transform="translate(352.76,256.67)" d="M3,0A3,3 0 1,1 0,-3A3,3 0 0,1 3,0Z" style="opacity: 1; stroke-width: 0px; fill: rgb(128, 0, 0); fill-opacity: 1;"/><path class="point" transform="translate(355.19,256.67)" d="M3,0A3,3 0 1,1 0,-3A3,3 0 0,1 3,0Z" style="opacity: 1; stroke-width: 0px; fill: rgb(128, 0, 0); fill-opacity: 1;"/><path class="point" transform="translate(354.3,252.72)" d="M3,0A3,3 0 1,1 0,-3A3,3 0 0,1 3,0Z" style="opacity: 1; stroke-width: 0px; fill: rgb(128, 0, 0); fill-opacity: 1;"/><path class="point" transform="translate(356.48,252.72)" d="M3,0A3,3 0 1,1 0,-3A3,3 0 0,1 3,0Z" style="opacity: 1; stroke-width: 0px; fill: rgb(128, 0, 0); fill-opacity: 1;"/><path class="point" transform="translate(354.95,250.74)" d="M3,0A3,3 0 1,1 0,-3A3,3 0 0,1 3,0Z" style="opacity: 1; stroke-width: 0px; fill: rgb(128, 0, 0); fill-opacity: 1;"/><path class="point" transform="translate(353.39,244.82)" d="M3,0A3,3 0 1,1 0,-3A3,3 0 0,1 3,0Z" style="opacity: 1; stroke-width: 0px; fill: rgb(128, 0, 0); fill-opacity: 1;"/><path class="point" transform="translate(353.28,244.82)" d="M3,0A3,3 0 1,1 0,-3A3,3 0 0,1 3,0Z" style="opacity: 1; stroke-width: 0px; fill: rgb(128, 0, 0); fill-opacity: 1;"/><path class="point" transform="translate(356.25,244.82)" d="M3,0A3,3 0 1,1 0,-3A3,3 0 0,1 3,0Z" style="opacity: 1; stroke-width: 0px; fill: rgb(128, 0, 0); fill-opacity: 1;"/><path class="point" transform="translate(353.94,240.87)" d="M3,0A3,3 0 1,1 0,-3A3,3 0 0,1 3,0Z" style="opacity: 1; stroke-width: 0px; fill: rgb(128, 0, 0); fill-opacity: 1;"/><path class="point" transform="translate(355.91,240.87)" d="M3,0A3,3 0 1,1 0,-3A3,3 0 0,1 3,0Z" style="opacity: 1; stroke-width: 0px; fill: rgb(128, 0, 0); fill-opacity: 1;"/><path class="point" transform="translate(355.45,236.93)" d="M3,0A3,3 0 1,1 0,-3A3,3 0 0,1 3,0Z" style="opacity: 1; stroke-width: 0px; fill: rgb(128, 0, 0); fill-opacity: 1;"/><path class="point" transform="translate(354.86,221.14)" d="M3,0A3,3 0 1,1 0,-3A3,3 0 0,1 3,0Z" style="opacity: 1; stroke-width: 0px; fill: rgb(128, 0, 0); fill-opacity: 1;"/><path class="point" transform="translate(354.64,209.29)" d="M3,0A3,3 0 1,1 0,-3A3,3 0 0,1 3,0Z" style="opacity: 1; stroke-width: 0px; fill: rgb(128, 0, 0); fill-opacity: 1;"/><path class="point" transform="translate(355.58,183.63)" d="M3,0A3,3 0 1,1 0,-3A3,3 0 0,1 3,0Z" style="opacity: 1; stroke-width: 0px; fill: rgb(128, 0, 0); fill-opacity: 1;"/><path class="point" transform="translate(355.11,146.13)" d="M3,0A3,3 0 1,1 0,-3A3,3 0 0,1 3,0Z" style="opacity: 1; stroke-width: 0px; fill: rgb(128, 0, 0); fill-opacity: 1;"/><path class="point" transform="translate(355.73,132.31)" d="M3,0A3,3 0 1,1 0,-3A3,3 0 0,1 3,0Z" style="opacity: 1; stroke-width: 0px; fill: rgb(128, 0, 0); fill-opacity: 1;"/><path class="point" transform="translate(354.57,126.39)" d="M3,0A3,3 0 1,1 0,-3A3,3 0 0,1 3,0Z" style="opacity: 1; stroke-width: 0px; fill: rgb(128, 0, 0); fill-opacity: 1;"/><path class="point" transform="translate(355.66,77.04)" d="M3,0A3,3 0 1,1 0,-3A3,3 0 0,1 3,0Z" style="opacity: 1; stroke-width: 0px; fill: rgb(128, 0, 0); fill-opacity: 1;"/><path class="point" transform="translate(355.14,33.61)" d="M3,0A3,3 0 1,1 0,-3A3,3 0 0,1 3,0Z" style="opacity: 1; stroke-width: 0px; fill: rgb(128, 0, 0); fill-opacity: 1;"/></g></g><g class="trace violins" style="opacity: 1;"><path class="violin" d="M411.04,280.41L412.18,280.41Q412.9,278.62 413.44,277.78C414.03,276.86 414.77,275.98 415.64,275.15C416.61,274.22 417.78,273.34 419.05,272.51C420.47,271.58 422.11,270.72 423.79,269.88C425.62,268.96 427.65,268.11 429.66,267.25C431.75,266.35 433.97,265.5 436.09,264.61C438.17,263.74 440.32,262.9 442.24,261.98C443.99,261.14 445.78,260.32 447.17,259.35C448.35,258.53 449.54,257.69 450.16,256.71C450.67,255.9 451,254.94 450.92,254.08C450.84,253.19 450.22,252.27 449.59,251.45C448.87,250.5 447.75,249.66 446.69,248.81C445.54,247.89 444.19,247.05 442.89,246.18C441.55,245.29 440.14,244.43 438.78,243.55C437.43,242.68 436.08,241.8 434.78,240.91C433.52,240.04 432.27,239.17 431.09,238.28C429.95,237.42 428.84,236.55 427.8,235.65C426.8,234.79 425.84,233.91 424.95,233.01C424.1,232.15 423.3,231.27 422.57,230.38C421.87,229.52 421.22,228.64 420.62,227.75C420.04,226.88 419.53,226 419.04,225.11C418.56,224.24 418.14,223.36 417.73,222.48C417.33,221.61 416.96,220.73 416.6,219.85C416.24,218.97 415.9,218.09 415.57,217.21C415.24,216.33 414.92,215.46 414.62,214.58C414.32,213.71 414.02,212.83 413.75,211.95C413.48,211.07 413.21,210.19 412.98,209.31C412.75,208.44 412.53,207.56 412.35,206.68C412.17,205.8 412.02,204.92 411.9,204.04C411.78,203.16 411.68,202.29 411.63,201.41C411.58,200.53 411.56,199.66 411.57,198.78C411.58,197.9 411.63,197.02 411.7,196.14C411.77,195.26 411.88,194.39 412.01,193.51C412.14,192.63 412.29,191.76 412.46,190.88C412.63,190 412.83,189.12 413.02,188.24C413.21,187.36 413.42,186.49 413.62,185.61C413.82,184.73 414.03,183.86 414.22,182.98C414.41,182.1 414.61,181.22 414.77,180.34C414.93,179.46 415.09,178.59 415.2,177.71C415.31,176.84 415.4,175.96 415.43,175.08C415.46,174.2 415.45,173.32 415.38,172.44C415.31,171.56 415.17,170.68 415,169.81C414.83,168.93 414.59,168.05 414.35,167.18C414.11,166.3 413.82,165.42 413.56,164.54C413.3,163.66 413.01,162.79 412.77,161.91C412.53,161.04 412.3,160.16 412.11,159.28C411.92,158.4 411.76,157.52 411.63,156.64C411.5,155.76 411.42,154.89 411.34,154.01C411.27,153.13 411.22,152.26 411.18,151.38C411.14,150.5 411.12,149.62 411.11,148.74C411.1,147.86 411.1,146.99 411.1,146.11C411.1,145.23 411.12,144.36 411.14,143.48C411.17,142.6 411.2,141.72 411.25,140.84C411.3,139.96 411.37,139.09 411.45,138.21C411.53,137.33 411.63,136.46 411.74,135.58C411.85,134.7 411.99,133.82 412.13,132.94C412.27,132.06 412.43,131.19 412.58,130.31C412.73,129.43 412.88,128.56 413.02,127.68C413.16,126.8 413.29,125.92 413.4,125.04C413.51,124.16 413.59,123.29 413.66,122.41C413.73,121.53 413.78,120.66 413.8,119.78C413.82,118.9 413.82,118.02 413.8,117.14C413.78,116.26 413.73,115.39 413.66,114.51C413.59,113.63 413.5,112.75 413.39,111.87C413.28,110.99 413.15,110.12 413.02,109.24C412.89,108.36 412.73,107.49 412.59,106.61C412.45,105.73 412.3,104.85 412.18,103.97C412.06,103.09 411.94,102.22 411.86,101.34C411.78,100.46 411.72,99.59 411.7,98.71C411.68,97.83 411.69,96.95 411.72,96.07C411.75,95.19 411.82,94.32 411.9,93.44C411.98,92.56 412.1,91.69 412.2,90.81C412.31,89.93 412.43,89.05 412.53,88.17C412.63,87.29 412.72,86.42 412.78,85.54C412.84,84.66 412.87,83.79 412.87,82.91C412.87,82.03 412.83,81.15 412.77,80.27C412.71,79.39 412.6,78.52 412.5,77.64C412.4,76.76 412.27,75.89 412.15,75.01C412.03,74.13 411.9,73.25 411.79,72.37C411.68,71.49 411.58,70.62 411.49,69.74Q411.41,68.86 411.28,67.11L411.04,67.11" style="vector-effect: none; stroke-width: 2px; stroke: rgb(255, 0, 0); stroke-opacity: 1; fill: rgb(255, 0, 0); fill-opacity: 0.5;"/><path class="meanline" d="M425.5043029785156,233.56H411.04" style="fill: none; vector-effect: none; stroke-width: 2px; stroke-dasharray: 4px, 2px; stroke: rgb(255, 0, 0); stroke-opacity: 1;"/><g class="points"><path class="point" transform="translate(470.46,264.56)" d="M3,0A3,3 0 1,1 0,-3A3,3 0 0,1 3,0Z" style="opacity: 1; stroke-width: 0px; fill: rgb(255, 0, 0); fill-opacity: 1;"/><path class="point" transform="translate(462.05,262.59)" d="M3,0A3,3 0 1,1 0,-3A3,3 0 0,1 3,0Z" style="opacity: 1; stroke-width: 0px; fill: rgb(255, 0, 0); fill-opacity: 1;"/><path class="point" transform="translate(472.05,262.59)" d="M3,0A3,3 0 1,1 0,-3A3,3 0 0,1 3,0Z" style="opacity: 1; stroke-width: 0px; fill: rgb(255, 0, 0); fill-opacity: 1;"/><path class="point" transform="translate(460.84,262.59)" d="M3,0A3,3 0 1,1 0,-3A3,3 0 0,1 3,0Z" style="opacity: 1; stroke-width: 0px; fill: rgb(255, 0, 0); fill-opacity: 1;"/><path class="point" transform="translate(465.01,260.61)" d="M3,0A3,3 0 1,1 0,-3A3,3 0 0,1 3,0Z" style="opacity: 1; stroke-width: 0px; fill: rgb(255, 0, 0); fill-opacity: 1;"/><path class="point" transform="translate(470.5,260.61)" d="M3,0A3,3 0 1,1 0,-3A3,3 0 0,1 3,0Z" style="opacity: 1; stroke-width: 0px; fill: rgb(255, 0, 0); fill-opacity: 1;"/><path class="point" transform="translate(466.62,260.61)" d="M3,0A3,3 0 1,1 0,-3A3,3 0 0,1 3,0Z" style="opacity: 1; stroke-width: 0px; fill: rgb(255, 0, 0); fill-opacity: 1;"/><path class="point" transform="translate(468.88,258.64)" d="M3,0A3,3 0 1,1 0,-3A3,3 0 0,1 3,0Z" style="opacity: 1; stroke-width: 0px; fill: rgb(255, 0, 0); fill-opacity: 1;"/><path class="point" transform="translate(464.67,258.64)" d="M3,0A3,3 0 1,1 0,-3A3,3 0 0,1 3,0Z" style="opacity: 1; stroke-width: 0px; fill: rgb(255, 0, 0); fill-opacity: 1;"/><path class="point" transform="translate(461.03,258.64)" d="M3,0A3,3 0 1,1 0,-3A3,3 0 0,1 3,0Z" style="opacity: 1; stroke-width: 0px; fill: rgb(255, 0, 0); fill-opacity: 1;"/><path class="point" transform="translate(469,256.67)" d="M3,0A3,3 0 1,1 0,-3A3,3 0 0,1 3,0Z" style="opacity: 1; stroke-width: 0px; fill: rgb(255, 0, 0); fill-opacity: 1;"/><path class="point" transform="translate(464.25,254.69)" d="M3,0A3,3 0 1,1 0,-3A3,3 0 0,1 3,0Z" style="opacity: 1; stroke-width: 0px; fill: rgb(255, 0, 0); fill-opacity: 1;"/><path class="point" transform="translate(471.93,254.69)" d="M3,0A3,3 0 1,1 0,-3A3,3 0 0,1 3,0Z" style="opacity: 1; stroke-width: 0px; fill: rgb(255, 0, 0); fill-opacity: 1;"/><path class="point" transform="translate(460.15,254.69)" d="M3,0A3,3 0 1,1 0,-3A3,3 0 0,1 3,0Z" style="opacity: 1; stroke-width: 0px; fill: rgb(255, 0, 0); fill-opacity: 1;"/><path class="point" transform="translate(462.88,254.69)" d="M3,0A3,3 0 1,1 0,-3A3,3 0 0,1 3,0Z" style="opacity: 1; stroke-width: 0px; fill: rgb(255, 0, 0); fill-opacity: 1;"/><path class="point" transform="translate(473.93,254.69)" d="M3,0A3,3 0 1,1 0,-3A3,3 0 0,1 3,0Z" style="opacity: 1; stroke-width: 0px; fill: rgb(255, 0, 0); fill-opacity: 1;"/><path class="point" transform="translate(464.87,254.69)" d="M3,0A3,3 0 1,1 0,-3A3,3 0 0,1 3,0Z" style="opacity: 1; stroke-width: 0px; fill: rgb(255, 0, 0); fill-opacity: 1;"/><path class="point" transform="translate(460.03,252.72)" d="M3,0A3,3 0 1,1 0,-3A3,3 0 0,1 3,0Z" style="opacity: 1; stroke-width: 0px; fill: rgb(255, 0, 0); fill-opacity: 1;"/><path class="point" transform="translate(464.24,250.74)" d="M3,0A3,3 0 1,1 0,-3A3,3 0 0,1 3,0Z" style="opacity: 1; stroke-width: 0px; fill: rgb(255, 0, 0); fill-opacity: 1;"/><path class="point" transform="translate(466.74,250.74)" d="M3,0A3,3 0 1,1 0,-3A3,3 0 0,1 3,0Z" style="opacity: 1; stroke-width: 0px; fill: rgb(255, 0, 0); fill-opacity: 1;"/><path class="point" transform="translate(469.41,250.74)" d="M3,0A3,3 0 1,1 0,-3A3,3 0 0,1 3,0Z" style="opacity: 1; stroke-width: 0px; fill: rgb(255, 0, 0); fill-opacity: 1;"/><path class="point" transform="translate(467.5,248.77)" d="M3,0A3,3 0 1,1 0,-3A3,3 0 0,1 3,0Z" style="opacity: 1; stroke-width: 0px; fill: rgb(255, 0, 0); fill-opacity: 1;"/><path class="point" transform="translate(465.28,248.77)" d="M3,0A3,3 0 1,1 0,-3A3,3 0 0,1 3,0Z" style="opacity: 1; stroke-width: 0px; fill: rgb(255, 0, 0); fill-opacity: 1;"/><path class="point" transform="translate(462.16,248.77)" d="M3,0A3,3 0 1,1 0,-3A3,3 0 0,1 3,0Z" style="opacity: 1; stroke-width: 0px; fill: rgb(255, 0, 0); fill-opacity: 1;"/><path class="point" transform="translate(466.86,244.82)" d="M3,0A3,3 0 1,1 0,-3A3,3 0 0,1 3,0Z" style="opacity: 1; stroke-width: 0px; fill: rgb(255, 0, 0); fill-opacity: 1;"/><path class="point" transform="translate(465.35,242.85)" d="M3,0A3,3 0 1,1 0,-3A3,3 0 0,1 3,0Z" style="opacity: 1; stroke-width: 0px; fill: rgb(255, 0, 0); fill-opacity: 1;"/><path class="point" transform="translate(469.15,242.85)" d="M3,0A3,3 0 1,1 0,-3A3,3 0 0,1 3,0Z" style="opacity: 1; stroke-width: 0px; fill: rgb(255, 0, 0); fill-opacity: 1;"/><path class="point" transform="translate(466.52,240.87)" d="M3,0A3,3 0 1,1 0,-3A3,3 0 0,1 3,0Z" style="opacity: 1; stroke-width: 0px; fill: rgb(255, 0, 0); fill-opacity: 1;"/><path class="point" transform="translate(464.26,238.9)" d="M3,0A3,3 0 1,1 0,-3A3,3 0 0,1 3,0Z" style="opacity: 1; stroke-width: 0px; fill: rgb(255, 0, 0); fill-opacity: 1;"/><path class="point" transform="translate(463.54,236.93)" d="M3,0A3,3 0 1,1 0,-3A3,3 0 0,1 3,0Z" style="opacity: 1; stroke-width: 0px; fill: rgb(255, 0, 0); fill-opacity: 1;"/><path class="point" transform="translate(468.3,236.93)" d="M3,0A3,3 0 1,1 0,-3A3,3 0 0,1 3,0Z" style="opacity: 1; stroke-width: 0px; fill: rgb(255, 0, 0); fill-opacity: 1;"/><path class="point" transform="translate(464.91,232.98)" d="M3,0A3,3 0 1,1 0,-3A3,3 0 0,1 3,0Z" style="opacity: 1; stroke-width: 0px; fill: rgb(255, 0, 0); fill-opacity: 1;"/><path class="point" transform="translate(468.26,225.08)" d="M3,0A3,3 0 1,1 0,-3A3,3 0 0,1 3,0Z" style="opacity: 1; stroke-width: 0px; fill: rgb(255, 0, 0); fill-opacity: 1;"/><path class="point" transform="translate(467.27,225.08)" d="M3,0A3,3 0 1,1 0,-3A3,3 0 0,1 3,0Z" style="opacity: 1; stroke-width: 0px; fill: rgb(255, 0, 0); fill-opacity: 1;"/><path class="point" transform="translate(466.35,215.21)" d="M3,0A3,3 0 1,1 0,-3A3,3 0 0,1 3,0Z" style="opacity: 1; stroke-width: 0px; fill: rgb(255, 0, 0); fill-opacity: 1;"/><path class="point" transform="translate(465.95,183.63)" d="M3,0A3,3 0 1,1 0,-3A3,3 0 0,1 3,0Z" style="opacity: 1; stroke-width: 0px; fill: rgb(255, 0, 0); fill-opacity: 1;"/><path class="point" transform="translate(467.55,171.79)" d="M3,0A3,3 0 1,1 0,-3A3,3 0 0,1 3,0Z" style="opacity: 1; stroke-width: 0px; fill: rgb(255, 0, 0); fill-opacity: 1;"/><path class="point" transform="translate(466.72,171.79)" d="M3,0A3,3 0 1,1 0,-3A3,3 0 0,1 3,0Z" style="opacity: 1; stroke-width: 0px; fill: rgb(255, 0, 0); fill-opacity: 1;"/><path class="point" transform="translate(467.81,124.41)" d="M3,0A3,3 0 1,1 0,-3A3,3 0 0,1 3,0Z" style="opacity: 1; stroke-width: 0px; fill: rgb(255, 0, 0); fill-opacity: 1;"/><path class="point" transform="translate(465.77,112.57)" d="M3,0A3,3 0 1,1 0,-3A3,3 0 0,1 3,0Z" style="opacity: 1; stroke-width: 0px; fill: rgb(255, 0, 0); fill-opacity: 1;"/><path class="point" transform="translate(467.75,82.96)" d="M3,0A3,3 0 1,1 0,-3A3,3 0 0,1 3,0Z" style="opacity: 1; stroke-width: 0px; fill: rgb(255, 0, 0); fill-opacity: 1;"/></g></g></g></g><g class="overplot"/><path class="xlines-above crisp" d="M0,0" style="fill: none;"/><path class="ylines-above crisp" d="M0,0" style="fill: none;"/><g class="overlines-above"/><g class="xaxislayer-above"><g class="xtick"><text text-anchor="middle" x="0" y="433" transform="translate(171.95999999999998,0)" style="font-family: 'Open Sans', verdana, arial, sans-serif; font-size: 12px; fill: rgb(42, 63, 95); fill-opacity: 1; white-space: pre; opacity: 1;">L</text></g><g class="xtick"><text text-anchor="middle" x="0" y="433" transform="translate(331.5,0)" style="font-family: 'Open Sans', verdana, arial, sans-serif; font-size: 12px; fill: rgb(42, 63, 95); fill-opacity: 1; white-space: pre; opacity: 1;">SIM</text></g><g class="xtick"><text text-anchor="middle" x="0" y="433" transform="translate(491.04,0)" style="font-family: 'Open Sans', verdana, arial, sans-serif; font-size: 12px; fill: rgb(42, 63, 95); fill-opacity: 1; white-space: pre; opacity: 1;">SOM</text></g></g><g class="yaxislayer-above"><g class="ytick"><text text-anchor="end" x="79" y="4.199999999999999" transform="translate(0,364.56)" style="font-family: 'Open Sans', verdana, arial, sans-serif; font-size: 12px; fill: rgb(42, 63, 95); fill-opacity: 1; white-space: pre; opacity: 1;">0</text></g><g class="ytick"><text text-anchor="end" x="79" y="4.199999999999999" style="font-family: 'Open Sans', verdana, arial, sans-serif; font-size: 12px; fill: rgb(42, 63, 95); fill-opacity: 1; white-space: pre; opacity: 1;" transform="translate(0,287.08000000000004)">5</text></g><g class="ytick"><text text-anchor="end" x="79" y="4.199999999999999" style="font-family: 'Open Sans', verdana, arial, sans-serif; font-size: 12px; fill: rgb(42, 63, 95); fill-opacity: 1; white-space: pre; opacity: 1;" transform="translate(0,209.61)">10</text></g><g class="ytick"><text text-anchor="end" x="79" y="4.199999999999999" style="font-family: 'Open Sans', verdana, arial, sans-serif; font-size: 12px; fill: rgb(42, 63, 95); fill-opacity: 1; white-space: pre; opacity: 1;" transform="translate(0,132.13)">15</text></g></g><g class="overaxes-above"/></g></g><g class="polarlayer"/><g class="smithlayer"/><g class="ternarylayer"/><g class="geolayer"/><g class="funnelarealayer"/><g class="pielayer"/><g class="iciclelayer"/><g class="treemaplayer"/><g class="sunburstlayer"/><g class="glimages"/><defs id="topdefs-7dd0b5"><g class="clips"/><clipPath id="legend7dd0b5"><rect width="95" height="124" x="0" y="0"/></clipPath></defs><g class="layer-above"><g class="imagelayer"/><g class="shapelayer"/></g><g class="infolayer"><g class="legend" pointer-events="all" transform="translate(593.0600000000001,100)"><rect class="bg" shape-rendering="crispEdges" width="95" height="124" x="0" y="0" style="stroke: rgb(68, 68, 68); stroke-opacity: 1; fill: rgb(255, 255, 255); fill-opacity: 1; stroke-width: 0px;"/><g class="scrollbox" transform="" clip-path="url(#legend7dd0b5)"><g class="groups"><g class="traces" transform="translate(0,14.5)" style="opacity: 1;"><text class="legendtext" text-anchor="start" x="40" y="4.680000000000001" style="font-family: 'Open Sans', verdana, arial, sans-serif; font-size: 12px; fill: rgb(42, 63, 95); fill-opacity: 1; white-space: pre;">L SB</text><g class="layers" style="opacity: 1;"><g class="legendfill"/><g class="legendlines"/><g class="legendsymbols"><g class="legendpoints"><path class="legendbox" d="M6,6H-6V-6H6Z" transform="translate(20,0)" style="stroke-width: 2px; fill: rgb(144, 238, 144); fill-opacity: 0.5; stroke: rgb(144, 238, 144); stroke-opacity: 1;"/></g></g></g><rect class="legendtoggle" x="0" y="-9.5" width="89.1875" height="19" style="fill: rgb(0, 0, 0); fill-opacity: 0;"/></g><g class="traces" transform="translate(0,33.5)" style="opacity: 1;"><text class="legendtext" text-anchor="start" x="40" y="4.680000000000001" style="font-family: 'Open Sans', verdana, arial, sans-serif; font-size: 12px; fill: rgb(42, 63, 95); fill-opacity: 1; white-space: pre;">L NB</text><g class="layers" style="opacity: 1;"><g class="legendfill"/><g class="legendlines"/><g class="legendsymbols"><g class="legendpoints"><path class="legendbox" d="M6,6H-6V-6H6Z" transform="translate(20,0)" style="stroke-width: 2px; fill: rgb(0, 128, 0); fill-opacity: 0.5; stroke: rgb(0, 128, 0); stroke-opacity: 1;"/></g></g></g><rect class="legendtoggle" x="0" y="-9.5" width="89.1875" height="19" style="fill: rgb(0, 0, 0); fill-opacity: 0;"/></g><g class="traces" transform="translate(0,52.5)" style="opacity: 1;"><text class="legendtext" text-anchor="start" x="40" y="4.680000000000001" style="font-family: 'Open Sans', verdana, arial, sans-serif; font-size: 12px; fill: rgb(42, 63, 95); fill-opacity: 1; white-space: pre;">SIM SB</text><g class="layers" style="opacity: 1;"><g class="legendfill"/><g class="legendlines"/><g class="legendsymbols"><g class="legendpoints"><path class="legendbox" d="M6,6H-6V-6H6Z" transform="translate(20,0)" style="stroke-width: 2px; fill: rgb(255, 255, 0); fill-opacity: 0.5; stroke: rgb(255, 255, 0); stroke-opacity: 1;"/></g></g></g><rect class="legendtoggle" x="0" y="-9.5" width="89.1875" height="19" style="fill: rgb(0, 0, 0); fill-opacity: 0;"/></g><g class="traces" transform="translate(0,71.5)" style="opacity: 1;"><text class="legendtext" text-anchor="start" x="40" y="4.680000000000001" style="font-family: 'Open Sans', verdana, arial, sans-serif; font-size: 12px; fill: rgb(42, 63, 95); fill-opacity: 1; white-space: pre;">SIM NB</text><g class="layers" style="opacity: 1;"><g class="legendfill"/><g class="legendlines"/><g class="legendsymbols"><g class="legendpoints"><path class="legendbox" d="M6,6H-6V-6H6Z" transform="translate(20,0)" style="stroke-width: 2px; fill: rgb(255, 165, 0); fill-opacity: 0.5; stroke: rgb(255, 165, 0); stroke-opacity: 1;"/></g></g></g><rect class="legendtoggle" x="0" y="-9.5" width="89.1875" height="19" style="fill: rgb(0, 0, 0); fill-opacity: 0;"/></g><g class="traces" transform="translate(0,90.5)" style="opacity: 1;"><text class="legendtext" text-anchor="start" x="40" y="4.680000000000001" style="font-family: 'Open Sans', verdana, arial, sans-serif; font-size: 12px; fill: rgb(42, 63, 95); fill-opacity: 1; white-space: pre;">SOM SB</text><g class="layers" style="opacity: 1;"><g class="legendfill"/><g class="legendlines"/><g class="legendsymbols"><g class="legendpoints"><path class="legendbox" d="M6,6H-6V-6H6Z" transform="translate(20,0)" style="stroke-width: 2px; fill: rgb(128, 0, 0); fill-opacity: 0.5; stroke: rgb(128, 0, 0); stroke-opacity: 1;"/></g></g></g><rect class="legendtoggle" x="0" y="-9.5" width="89.1875" height="19" style="fill: rgb(0, 0, 0); fill-opacity: 0;"/></g><g class="traces" transform="translate(0,109.5)" style="opacity: 1;"><text class="legendtext" text-anchor="start" x="40" y="4.680000000000001" style="font-family: 'Open Sans', verdana, arial, sans-serif; font-size: 12px; fill: rgb(42, 63, 95); fill-opacity: 1; white-space: pre;">SOM NB</text><g class="layers" style="opacity: 1;"><g class="legendfill"/><g class="legendlines"/><g class="legendsymbols"><g class="legendpoints"><path class="legendbox" d="M6,6H-6V-6H6Z" transform="translate(20,0)" style="stroke-width: 2px; fill: rgb(255, 0, 0); fill-opacity: 0.5; stroke: rgb(255, 0, 0); stroke-opacity: 1;"/></g></g></g><rect class="legendtoggle" x="0" y="-9.5" width="89.1875" height="19" style="fill: rgb(0, 0, 0); fill-opacity: 0;"/></g></g></g><rect class="scrollbar" rx="20" ry="3" width="0" height="0" x="0" y="0" style="fill: rgb(128, 139, 164); fill-opacity: 1;"/></g><g class="g-gtitle"><text class="gtitle" x="35" y="50" text-anchor="start" dy="0em" style="font-family: 'Open Sans', verdana, arial, sans-serif; font-size: 17px; fill: rgb(42, 63, 95); opacity: 1; font-weight: normal; white-space: pre;">Distribution of Ammonia_sp across habitats and sites</text></g><g class="g-xtitle"><text class="xtitle" x="331.5" y="459.8" text-anchor="middle" style="font-family: 'Open Sans', verdana, arial, sans-serif; font-size: 14px; fill: rgb(42, 63, 95); opacity: 1; font-weight: normal; white-space: pre;">Habitat and Site</text></g><g class="g-ytitle"><text class="ytitle" transform="rotate(-90,39.434375,260)" x="39.434375" y="260" text-anchor="middle" style="font-family: 'Open Sans', verdana, arial, sans-serif; font-size: 14px; fill: rgb(42, 63, 95); opacity: 1; font-weight: normal; white-space: pre;">Value</text></g></g></svg>