<svg class="main-svg" xmlns="http://www.w3.org/2000/svg" xmlns:xlink="http://www.w3.org/1999/xlink" width="700" height="500" style="" viewBox="0 0 700 500"><rect x="0" y="0" width="700" height="500" style="fill: rgb(255, 255, 255); fill-opacity: 1;"/><defs id="defs-d860db"><g class="clips"><clipPath id="clipd860dbxyplot" class="plotclip"><rect width="503" height="320"/></clipPath><clipPath class="axesclip" id="clipd860dbx"><rect x="80" y="0" width="503" height="500"/></clipPath><clipPath class="axesclip" id="clipd860dby"><rect x="0" y="100" width="700" height="320"/></clipPath><clipPath class="axesclip" id="clipd860dbxy"><rect x="80" y="100" width="503" height="320"/></clipPath></g><g class="gradients"/><g class="patterns"/></defs><g class="bglayer"><rect class="bg" x="80" y="100" width="503" height="320" style="fill: rgb(229, 236, 246); fill-opacity: 1; stroke-width: 0;"/></g><g class="layer-below"><g class="imagelayer"/><g class="shapelayer"/></g><g class="cartesianlayer"><g class="subplot xy"><g class="layer-subplot"><g class="shapelayer"/><g class="imagelayer"/></g><g class="minor-gridlayer"><g class="x"/><g class="y"/></g><g class="gridlayer"><g class="x"/><g class="y"><path class="ygrid crisp" transform="translate(0,331.2)" d="M80,0h503" style="stroke: rgb(255, 255, 255); stroke-opacity: 1; stroke-width: 1px;"/><path class="ygrid crisp" transform="translate(0,284.15)" d="M80,0h503" style="stroke: rgb(255, 255, 255); stroke-opacity: 1; stroke-width: 1px;"/><path class="ygrid crisp" transform="translate(0,237.1)" d="M80,0h503" style="stroke: rgb(255, 255, 255); stroke-opacity: 1; stroke-width: 1px;"/><path class="ygrid crisp" transform="translate(0,190.05)" d="M80,0h503" style="stroke: rgb(255, 255, 255); stroke-opacity: 1; stroke-width: 1px;"/><path class="ygrid crisp" transform="translate(0,143)" d="M80,0h503" style="stroke: rgb(255, 255, 255); stroke-opacity: 1; stroke-width: 1px;"/></g></g><g class="zerolinelayer"><path class="yzl zl crisp" transform="translate(0,378.25)" d="M80,0h503" style="stroke: rgb(255, 255, 255); stroke-opacity: 1; stroke-width: 2px;"/></g><path class="xlines-below"/><path class="ylines-below"/><g class="overlines-below"/><g class="xaxislayer-below"/><g class="yaxislayer-below"/><g class="overaxes-below"/><g class="plot" transform="translate(80,100)" clip-path="url(#clipd860dbxyplot)"><g class="violinlayer mlayer"><g class="trace violins" style="opacity: 1;"><path class="violin" d="M91.96,266.03L91.81,266.03Q91.73,266.06 91.68,266.07C91.63,266.08 91.56,266.1 91.5,266.11C91.43,266.12 91.35,266.14 91.27,266.15C91.2,266.16 91.12,266.18 91.05,266.19C90.99,266.2 90.93,266.21 90.89,266.23C90.86,266.24 90.82,266.26 90.82,266.27C90.82,266.28 90.86,266.3 90.89,266.31C90.93,266.33 90.99,266.34 91.05,266.35C91.12,266.36 91.2,266.38 91.27,266.39C91.35,266.4 91.43,266.42 91.5,266.43C91.56,266.44 91.63,266.46 91.68,266.47C91.73,266.48 91.77,266.49 91.81,266.51C91.84,266.52 91.87,266.53 91.89,266.55C91.91,266.56 91.92,266.58 91.93,266.59C91.94,266.6 91.94,266.62 91.95,266.63C91.95,266.64 91.96,266.66 91.96,266.67C91.96,266.68 91.96,266.7 91.96,266.71C91.96,266.72 91.96,266.74 91.96,266.75C91.96,266.76 91.96,266.78 91.96,266.79C91.96,266.8 91.96,266.82 91.96,266.83C91.96,266.84 91.96,266.86 91.96,266.87C91.96,266.88 91.96,266.9 91.96,266.91C91.96,266.92 91.96,266.94 91.96,266.95C91.96,266.96 91.96,266.98 91.96,266.99C91.96,267 91.96,267.02 91.96,267.03C91.96,267.04 91.96,267.06 91.96,267.07C91.96,267.08 91.96,267.1 91.96,267.11C91.96,267.12 91.96,267.14 91.96,267.15C91.96,267.16 91.96,267.18 91.96,267.19C91.96,267.2 91.96,267.22 91.96,267.23C91.96,267.24 91.96,267.25 91.96,267.26C91.96,267.27 91.96,267.29 91.96,267.3C91.96,267.31 91.96,267.33 91.96,267.34C91.96,267.35 91.96,267.37 91.96,267.38C91.96,267.39 91.96,267.41 91.96,267.42C91.96,267.43 91.96,267.45 91.96,267.46C91.96,267.47 91.96,267.49 91.96,267.5C91.96,267.51 91.96,267.53 91.96,267.54C91.96,267.55 91.96,267.57 91.96,267.58C91.96,267.59 91.96,267.61 91.96,267.62C91.96,267.63 91.96,267.65 91.96,267.66C91.96,267.67 91.96,267.69 91.96,267.7C91.96,267.71 91.96,267.73 91.96,267.74C91.96,267.75 91.96,267.77 91.96,267.78C91.96,267.79 91.96,267.81 91.96,267.82C91.96,267.83 91.96,267.85 91.96,267.86C91.96,267.87 91.96,267.89 91.96,267.9C91.96,267.91 91.96,267.93 91.96,267.94C91.96,267.95 91.96,267.97 91.96,267.98C91.96,267.99 91.96,268.01 91.96,268.02C91.96,268.03 91.96,268.05 91.96,268.06C91.96,268.07 91.96,268.09 91.96,268.1C91.96,268.11 91.96,268.13 91.96,268.14C91.96,268.15 91.96,268.17 91.96,268.18C91.96,268.19 91.96,268.21 91.96,268.22C91.96,268.23 91.96,268.25 91.96,268.26C91.96,268.27 91.96,268.29 91.96,268.3C91.96,268.31 91.96,268.33 91.96,268.34C91.96,268.35 91.96,268.37 91.96,268.38C91.96,268.39 91.96,268.41 91.96,268.42C91.96,268.43 91.96,268.45 91.96,268.46C91.96,268.47 91.96,268.49 91.96,268.5C91.96,268.51 91.96,268.53 91.96,268.54C91.96,268.55 91.96,268.57 91.96,268.58C91.96,268.59 91.96,268.61 91.96,268.62C91.96,268.63 91.96,268.65 91.96,268.66C91.96,268.67 91.96,268.69 91.96,268.7C91.96,268.71 91.96,268.73 91.96,268.74C91.96,268.75 91.96,268.77 91.96,268.78C91.96,268.79 91.96,268.81 91.96,268.82C91.96,268.83 91.96,268.85 91.96,268.86C91.96,268.87 91.96,268.89 91.96,268.9C91.96,268.91 91.96,268.93 91.96,268.94C91.96,268.95 91.96,268.97 91.96,268.98C91.96,268.99 91.96,269.01 91.96,269.02C91.96,269.03 91.96,269.05 91.96,269.06C91.96,269.07 91.96,269.09 91.96,269.1C91.96,269.11 91.96,269.13 91.96,269.14C91.96,269.15 91.96,269.17 91.96,269.18C91.96,269.19 91.96,269.21 91.96,269.22C91.96,269.23 91.96,269.25 91.96,269.26C91.96,269.27 91.96,269.29 91.96,269.3C91.96,269.31 91.96,269.33 91.96,269.34C91.96,269.35 91.96,269.37 91.96,269.38C91.96,269.39 91.96,269.41 91.96,269.42C91.96,269.43 91.96,269.45 91.96,269.46C91.96,269.47 91.96,269.49 91.96,269.5C91.96,269.51 91.96,269.53 91.96,269.54C91.96,269.55 91.96,269.57 91.96,269.58C91.96,269.59 91.96,269.61 91.96,269.62C91.96,269.63 91.96,269.65 91.96,269.66C91.96,269.67 91.96,269.69 91.96,269.7C91.96,269.71 91.96,269.73 91.96,269.74C91.96,269.75 91.96,269.77 91.96,269.78C91.96,269.79 91.96,269.81 91.96,269.82C91.96,269.83 91.96,269.85 91.96,269.86C91.96,269.87 91.96,269.89 91.96,269.9C91.96,269.91 91.96,269.93 91.96,269.94C91.96,269.95 91.96,269.97 91.96,269.98C91.96,269.99 91.96,270.01 91.96,270.02C91.96,270.03 91.96,270.05 91.96,270.06C91.96,270.07 91.96,270.09 91.96,270.1C91.96,270.11 91.96,270.13 91.96,270.14C91.96,270.15 91.96,270.17 91.96,270.18C91.96,270.19 91.96,270.21 91.96,270.22C91.96,270.23 91.96,270.25 91.96,270.26C91.96,270.27 91.96,270.29 91.96,270.3C91.96,270.31 91.96,270.33 91.96,270.34C91.96,270.35 91.96,270.37 91.96,270.38C91.96,270.39 91.96,270.41 91.96,270.42C91.96,270.43 91.96,270.45 91.96,270.46C91.96,270.47 91.96,270.49 91.96,270.5C91.96,270.51 91.96,270.53 91.96,270.54C91.96,270.55 91.96,270.57 91.96,270.58C91.96,270.59 91.96,270.61 91.96,270.62C91.96,270.63 91.96,270.65 91.96,270.66C91.96,270.67 91.96,270.69 91.96,270.7C91.96,270.71 91.96,270.73 91.96,270.74C91.96,270.75 91.96,270.77 91.96,270.78C91.96,270.79 91.96,270.81 91.96,270.82C91.96,270.83 91.96,270.85 91.96,270.86C91.96,270.87 91.96,270.89 91.96,270.9C91.96,270.91 91.96,270.93 91.96,270.94C91.96,270.95 91.96,270.97 91.96,270.98C91.96,270.99 91.96,271.01 91.96,271.02C91.96,271.03 91.96,271.05 91.96,271.06C91.96,271.07 91.96,271.09 91.96,271.1C91.96,271.11 91.96,271.13 91.96,271.14C91.96,271.15 91.96,271.17 91.96,271.18C91.96,271.19 91.96,271.21 91.96,271.22C91.96,271.23 91.96,271.25 91.96,271.26C91.96,271.27 91.96,271.29 91.96,271.3C91.96,271.31 91.96,271.33 91.96,271.34C91.96,271.35 91.96,271.37 91.96,271.38C91.96,271.39 91.96,271.41 91.96,271.42C91.96,271.43 91.96,271.45 91.96,271.46C91.96,271.47 91.96,271.49 91.96,271.5C91.96,271.51 91.96,271.53 91.96,271.54C91.96,271.55 91.96,271.57 91.96,271.58C91.96,271.59 91.96,271.61 91.96,271.62C91.96,271.63 91.96,271.65 91.96,271.66C91.96,271.67 91.96,271.69 91.96,271.7C91.96,271.71 91.96,271.73 91.96,271.74C91.96,271.75 91.96,271.77 91.96,271.78C91.96,271.79 91.96,271.81 91.96,271.82C91.96,271.83 91.96,271.85 91.96,271.86C91.96,271.87 91.95,271.89 91.94,271.9C91.93,271.91 91.92,271.93 91.9,271.94C91.88,271.96 91.84,271.97 91.81,271.98C91.77,272 91.72,272.01 91.66,272.02C91.59,272.04 91.49,272.05 91.4,272.06C91.29,272.07 91.16,272.09 91.03,272.1C90.89,272.11 90.73,272.13 90.58,272.14C90.43,272.15 90.28,272.17 90.14,272.18C90.02,272.19 89.89,272.2 89.81,272.22C89.76,272.23 89.69,272.25 89.69,272.26C89.69,272.27 89.76,272.29 89.81,272.3C89.89,272.32 90.02,272.33 90.14,272.34C90.28,272.35 90.43,272.37 90.58,272.38C90.73,272.39 90.89,272.41 91.03,272.42C91.16,272.43 91.29,272.45 91.4,272.46C91.49,272.47 91.59,272.48 91.66,272.5C91.72,272.51 91.77,272.52 91.81,272.54C91.84,272.55 91.88,272.56 91.9,272.58C91.92,272.59 91.93,272.61 91.94,272.62C91.95,272.63 91.96,272.65 91.96,272.66C91.96,272.67 91.96,272.69 91.96,272.7C91.96,272.71 91.96,272.73 91.96,272.74C91.96,272.75 91.96,272.77 91.96,272.78C91.96,272.79 91.96,272.81 91.96,272.82C91.96,272.83 91.96,272.85 91.96,272.86C91.96,272.87 91.96,272.89 91.96,272.9C91.96,272.91 91.96,272.93 91.96,272.94C91.96,272.95 91.96,272.97 91.96,272.98C91.96,272.99 91.96,273.01 91.96,273.02C91.96,273.03 91.96,273.05 91.96,273.06C91.96,273.07 91.96,273.09 91.96,273.1C91.96,273.11 91.96,273.13 91.96,273.14C91.96,273.15 91.96,273.17 91.96,273.18C91.96,273.19 91.96,273.21 91.96,273.22C91.96,273.23 91.96,273.25 91.96,273.26C91.96,273.27 91.96,273.29 91.96,273.3C91.96,273.31 91.96,273.33 91.96,273.34C91.96,273.35 91.96,273.37 91.96,273.38C91.96,273.39 91.96,273.41 91.96,273.42C91.96,273.43 91.96,273.45 91.96,273.46C91.96,273.47 91.96,273.49 91.96,273.5C91.96,273.51 91.96,273.53 91.96,273.54C91.96,273.55 91.96,273.57 91.96,273.58C91.96,273.59 91.96,273.61 91.96,273.62C91.96,273.63 91.96,273.65 91.96,273.66C91.96,273.67 91.96,273.69 91.96,273.7C91.96,273.71 91.96,273.73 91.96,273.74C91.96,273.75 91.96,273.77 91.96,273.78C91.96,273.79 91.96,273.81 91.96,273.82C91.96,273.83 91.96,273.85 91.96,273.86C91.96,273.87 91.96,273.89 91.96,273.9C91.96,273.91 91.96,273.93 91.96,273.94C91.96,273.95 91.96,273.97 91.96,273.98C91.96,273.99 91.96,274.01 91.96,274.02C91.96,274.03 91.96,274.05 91.96,274.06C91.96,274.07 91.96,274.09 91.96,274.1C91.96,274.11 91.96,274.13 91.96,274.14C91.96,274.15 91.96,274.17 91.96,274.18C91.96,274.19 91.96,274.21 91.96,274.22C91.96,274.23 91.96,274.25 91.96,274.26C91.96,274.27 91.96,274.29 91.96,274.3C91.96,274.31 91.96,274.33 91.96,274.34C91.96,274.35 91.96,274.37 91.96,274.38C91.96,274.39 91.96,274.41 91.96,274.42C91.96,274.43 91.96,274.45 91.96,274.46C91.96,274.47 91.96,274.49 91.96,274.5C91.96,274.51 91.96,274.53 91.96,274.54C91.96,274.55 91.96,274.57 91.96,274.58C91.96,274.59 91.96,274.61 91.96,274.62C91.96,274.63 91.96,274.65 91.96,274.66C91.96,274.67 91.96,274.69 91.96,274.7C91.96,274.71 91.96,274.73 91.96,274.74C91.96,274.75 91.96,274.77 91.96,274.78C91.96,274.79 91.96,274.81 91.96,274.82C91.96,274.83 91.96,274.85 91.95,274.86C91.94,274.87 91.93,274.89 91.91,274.9C91.89,274.92 91.86,274.93 91.83,274.94C91.78,274.96 91.73,274.97 91.66,274.98C91.57,275 91.47,275.01 91.35,275.02C91.2,275.04 91.02,275.05 90.83,275.06C90.61,275.07 90.35,275.09 90.09,275.1C89.81,275.11 89.5,275.13 89.2,275.14C88.9,275.15 88.58,275.17 88.31,275.18C88.07,275.19 87.82,275.2 87.65,275.22C87.55,275.23 87.41,275.25 87.41,275.26C87.41,275.27 87.55,275.29 87.65,275.3C87.82,275.32 88.07,275.33 88.31,275.34C88.58,275.35 88.9,275.37 89.2,275.38C89.5,275.39 89.81,275.41 90.09,275.42C90.35,275.43 90.61,275.45 90.83,275.46C91.02,275.47 91.2,275.48 91.35,275.5C91.47,275.51 91.57,275.52 91.66,275.54C91.73,275.55 91.78,275.56 91.83,275.58C91.86,275.59 91.89,275.6 91.91,275.62C91.93,275.63 91.94,275.65 91.95,275.66C91.96,275.67 91.96,275.69 91.96,275.7C91.96,275.71 91.96,275.73 91.96,275.74C91.96,275.75 91.96,275.77 91.96,275.78C91.96,275.79 91.96,275.81 91.96,275.82C91.96,275.83 91.96,275.85 91.96,275.86C91.96,275.87 91.96,275.89 91.96,275.9C91.96,275.91 91.96,275.93 91.96,275.94C91.96,275.95 91.96,275.97 91.96,275.98C91.96,275.99 91.96,276.01 91.96,276.02C91.96,276.03 91.96,276.05 91.96,276.06C91.96,276.07 91.96,276.09 91.96,276.1C91.96,276.11 91.96,276.13 91.96,276.14C91.96,276.15 91.96,276.17 91.96,276.18C91.96,276.19 91.96,276.21 91.96,276.22C91.96,276.23 91.96,276.25 91.96,276.26C91.96,276.27 91.96,276.29 91.96,276.3C91.96,276.31 91.96,276.33 91.96,276.34C91.96,276.35 91.96,276.37 91.96,276.38C91.96,276.39 91.96,276.41 91.96,276.42C91.96,276.43 91.96,276.45 91.96,276.46C91.96,276.47 91.96,276.49 91.96,276.5C91.96,276.51 91.96,276.53 91.96,276.54C91.96,276.55 91.96,276.57 91.96,276.58C91.96,276.59 91.96,276.61 91.96,276.62C91.96,276.63 91.96,276.65 91.96,276.66C91.96,276.67 91.96,276.69 91.96,276.7C91.96,276.71 91.96,276.73 91.96,276.74C91.96,276.75 91.96,276.76 91.96,276.77C91.96,276.78 91.96,276.8 91.96,276.81C91.96,276.82 91.96,276.84 91.96,276.85C91.96,276.86 91.96,276.88 91.96,276.89C91.96,276.9 91.96,276.92 91.96,276.93C91.96,276.94 91.96,276.96 91.96,276.97C91.96,276.98 91.96,277 91.96,277.01C91.96,277.02 91.96,277.04 91.96,277.05C91.96,277.06 91.96,277.08 91.96,277.09C91.96,277.1 91.96,277.12 91.96,277.13C91.96,277.14 91.96,277.16 91.96,277.17C91.96,277.18 91.96,277.2 91.96,277.21C91.96,277.22 91.96,277.24 91.96,277.25C91.96,277.26 91.96,277.28 91.96,277.29C91.96,277.3 91.96,277.32 91.96,277.33C91.96,277.34 91.96,277.36 91.96,277.37C91.96,277.38 91.96,277.4 91.96,277.41C91.96,277.42 91.96,277.44 91.96,277.45C91.96,277.46 91.96,277.48 91.96,277.49C91.96,277.5 91.96,277.52 91.96,277.53C91.96,277.54 91.96,277.56 91.96,277.57C91.96,277.58 91.96,277.6 91.96,277.61C91.96,277.62 91.96,277.64 91.96,277.65C91.96,277.66 91.96,277.68 91.96,277.69C91.96,277.7 91.96,277.72 91.96,277.73C91.96,277.74 91.96,277.76 91.95,277.77C91.94,277.78 91.94,277.8 91.92,277.81C91.9,277.83 91.86,277.84 91.81,277.85C91.74,277.87 91.64,277.88 91.52,277.89C91.34,277.91 91.1,277.92 90.82,277.93C90.42,277.95 89.91,277.96 89.34,277.97C88.56,277.99 87.61,278 86.57,278.01C85.24,278.03 83.67,278.04 82.02,278.05C80.06,278.06 77.82,278.08 75.57,278.09C73.09,278.1 70.36,278.12 67.77,278.13C65.19,278.14 62.42,278.16 60.03,278.17C57.96,278.18 55.7,278.19 54.24,278.21C53.35,278.22 52.08,278.24 52.08,278.25C52.08,278.26 53.35,278.28 54.24,278.29C55.7,278.31 57.96,278.32 60.03,278.33C62.42,278.34 65.19,278.36 67.77,278.37C70.36,278.38 73.09,278.4 75.57,278.41C77.82,278.42 80.06,278.44 82.02,278.45Q83.67,278.46 86.57,278.49L91.96,278.49" style="vector-effect: none; stroke-width: 2px; stroke: rgb(144, 238, 144); stroke-opacity: 1; fill: rgb(144, 238, 144); fill-opacity: 0.5;"/><path class="meanline" d="M91.95999908447266,277.4H91.96" style="fill: none; vector-effect: none; stroke-width: 2px; stroke-dasharray: 4px, 2px; stroke: rgb(144, 238, 144); stroke-opacity: 1;"/><g class="points"><path class="point" transform="translate(40.27,278.25)" d="M3,0A3,3 0 1,1 0,-3A3,3 0 0,1 3,0Z" style="opacity: 1; stroke-width: 0px; fill: rgb(144, 238, 144); fill-opacity: 1;"/><path class="point" transform="translate(31.04,278.25)" d="M3,0A3,3 0 1,1 0,-3A3,3 0 0,1 3,0Z" style="opacity: 1; stroke-width: 0px; fill: rgb(144, 238, 144); fill-opacity: 1;"/><path class="point" transform="translate(42.31,278.25)" d="M3,0A3,3 0 1,1 0,-3A3,3 0 0,1 3,0Z" style="opacity: 1; stroke-width: 0px; fill: rgb(144, 238, 144); fill-opacity: 1;"/><path class="point" transform="translate(29.38,278.25)" d="M3,0A3,3 0 1,1 0,-3A3,3 0 0,1 3,0Z" style="opacity: 1; stroke-width: 0px; fill: rgb(144, 238, 144); fill-opacity: 1;"/><path class="point" transform="translate(34.16,278.25)" d="M3,0A3,3 0 1,1 0,-3A3,3 0 0,1 3,0Z" style="opacity: 1; stroke-width: 0px; fill: rgb(144, 238, 144); fill-opacity: 1;"/><path class="point" transform="translate(40.31,278.25)" d="M3,0A3,3 0 1,1 0,-3A3,3 0 0,1 3,0Z" style="opacity: 1; stroke-width: 0px; fill: rgb(144, 238, 144); fill-opacity: 1;"/><path class="point" transform="translate(35.83,278.25)" d="M3,0A3,3 0 1,1 0,-3A3,3 0 0,1 3,0Z" style="opacity: 1; stroke-width: 0px; fill: rgb(144, 238, 144); fill-opacity: 1;"/><path class="point" transform="translate(38.44,278.25)" d="M3,0A3,3 0 1,1 0,-3A3,3 0 0,1 3,0Z" style="opacity: 1; stroke-width: 0px; fill: rgb(144, 238, 144); fill-opacity: 1;"/><path class="point" transform="translate(33.58,278.25)" d="M3,0A3,3 0 1,1 0,-3A3,3 0 0,1 3,0Z" style="opacity: 1; stroke-width: 0px; fill: rgb(144, 238, 144); fill-opacity: 1;"/><path class="point" transform="translate(30.28,278.25)" d="M3,0A3,3 0 1,1 0,-3A3,3 0 0,1 3,0Z" style="opacity: 1; stroke-width: 0px; fill: rgb(144, 238, 144); fill-opacity: 1;"/><path class="point" transform="translate(38.26,278.25)" d="M3,0A3,3 0 1,1 0,-3A3,3 0 0,1 3,0Z" style="opacity: 1; stroke-width: 0px; fill: rgb(144, 238, 144); fill-opacity: 1;"/><path class="point" transform="translate(33.5,278.25)" d="M3,0A3,3 0 1,1 0,-3A3,3 0 0,1 3,0Z" style="opacity: 1; stroke-width: 0px; fill: rgb(144, 238, 144); fill-opacity: 1;"/><path class="point" transform="translate(41.18,278.25)" d="M3,0A3,3 0 1,1 0,-3A3,3 0 0,1 3,0Z" style="opacity: 1; stroke-width: 0px; fill: rgb(144, 238, 144); fill-opacity: 1;"/><path class="point" transform="translate(28.36,278.25)" d="M3,0A3,3 0 1,1 0,-3A3,3 0 0,1 3,0Z" style="opacity: 1; stroke-width: 0px; fill: rgb(144, 238, 144); fill-opacity: 1;"/><path class="point" transform="translate(31.51,278.25)" d="M3,0A3,3 0 1,1 0,-3A3,3 0 0,1 3,0Z" style="opacity: 1; stroke-width: 0px; fill: rgb(144, 238, 144); fill-opacity: 1;"/><path class="point" transform="translate(43.18,278.25)" d="M3,0A3,3 0 1,1 0,-3A3,3 0 0,1 3,0Z" style="opacity: 1; stroke-width: 0px; fill: rgb(144, 238, 144); fill-opacity: 1;"/><path class="point" transform="translate(34.13,278.25)" d="M3,0A3,3 0 1,1 0,-3A3,3 0 0,1 3,0Z" style="opacity: 1; stroke-width: 0px; fill: rgb(144, 238, 144); fill-opacity: 1;"/><path class="point" transform="translate(29.28,278.25)" d="M3,0A3,3 0 1,1 0,-3A3,3 0 0,1 3,0Z" style="opacity: 1; stroke-width: 0px; fill: rgb(144, 238, 144); fill-opacity: 1;"/><path class="point" transform="translate(33.49,278.25)" d="M3,0A3,3 0 1,1 0,-3A3,3 0 0,1 3,0Z" style="opacity: 1; stroke-width: 0px; fill: rgb(144, 238, 144); fill-opacity: 1;"/><path class="point" transform="translate(35.96,278.25)" d="M3,0A3,3 0 1,1 0,-3A3,3 0 0,1 3,0Z" style="opacity: 1; stroke-width: 0px; fill: rgb(144, 238, 144); fill-opacity: 1;"/><path class="point" transform="translate(39.71,278.25)" d="M3,0A3,3 0 1,1 0,-3A3,3 0 0,1 3,0Z" style="opacity: 1; stroke-width: 0px; fill: rgb(144, 238, 144); fill-opacity: 1;"/><path class="point" transform="translate(37.01,278.25)" d="M3,0A3,3 0 1,1 0,-3A3,3 0 0,1 3,0Z" style="opacity: 1; stroke-width: 0px; fill: rgb(144, 238, 144); fill-opacity: 1;"/><path class="point" transform="translate(33.88,278.25)" d="M3,0A3,3 0 1,1 0,-3A3,3 0 0,1 3,0Z" style="opacity: 1; stroke-width: 0px; fill: rgb(144, 238, 144); fill-opacity: 1;"/><path class="point" transform="translate(29.46,278.25)" d="M3,0A3,3 0 1,1 0,-3A3,3 0 0,1 3,0Z" style="opacity: 1; stroke-width: 0px; fill: rgb(144, 238, 144); fill-opacity: 1;"/><path class="point" transform="translate(36.1,278.25)" d="M3,0A3,3 0 1,1 0,-3A3,3 0 0,1 3,0Z" style="opacity: 1; stroke-width: 0px; fill: rgb(144, 238, 144); fill-opacity: 1;"/><path class="point" transform="translate(33.8,278.25)" d="M3,0A3,3 0 1,1 0,-3A3,3 0 0,1 3,0Z" style="opacity: 1; stroke-width: 0px; fill: rgb(144, 238, 144); fill-opacity: 1;"/><path class="point" transform="translate(39.84,278.25)" d="M3,0A3,3 0 1,1 0,-3A3,3 0 0,1 3,0Z" style="opacity: 1; stroke-width: 0px; fill: rgb(144, 238, 144); fill-opacity: 1;"/><path class="point" transform="translate(35.42,278.25)" d="M3,0A3,3 0 1,1 0,-3A3,3 0 0,1 3,0Z" style="opacity: 1; stroke-width: 0px; fill: rgb(144, 238, 144); fill-opacity: 1;"/><path class="point" transform="translate(30.91,278.25)" d="M3,0A3,3 0 1,1 0,-3A3,3 0 0,1 3,0Z" style="opacity: 1; stroke-width: 0px; fill: rgb(144, 238, 144); fill-opacity: 1;"/><path class="point" transform="translate(28.68,278.25)" d="M3,0A3,3 0 1,1 0,-3A3,3 0 0,1 3,0Z" style="opacity: 1; stroke-width: 0px; fill: rgb(144, 238, 144); fill-opacity: 1;"/><path class="point" transform="translate(37.03,278.25)" d="M3,0A3,3 0 1,1 0,-3A3,3 0 0,1 3,0Z" style="opacity: 1; stroke-width: 0px; fill: rgb(144, 238, 144); fill-opacity: 1;"/><path class="point" transform="translate(34.76,278.25)" d="M3,0A3,3 0 1,1 0,-3A3,3 0 0,1 3,0Z" style="opacity: 1; stroke-width: 0px; fill: rgb(144, 238, 144); fill-opacity: 1;"/><path class="point" transform="translate(37.07,278.25)" d="M3,0A3,3 0 1,1 0,-3A3,3 0 0,1 3,0Z" style="opacity: 1; stroke-width: 0px; fill: rgb(144, 238, 144); fill-opacity: 1;"/><path class="point" transform="translate(36.48,278.25)" d="M3,0A3,3 0 1,1 0,-3A3,3 0 0,1 3,0Z" style="opacity: 1; stroke-width: 0px; fill: rgb(144, 238, 144); fill-opacity: 1;"/><path class="point" transform="translate(35.79,278.25)" d="M3,0A3,3 0 1,1 0,-3A3,3 0 0,1 3,0Z" style="opacity: 1; stroke-width: 0px; fill: rgb(144, 238, 144); fill-opacity: 1;"/><path class="point" transform="translate(35.46,275.26)" d="M3,0A3,3 0 1,1 0,-3A3,3 0 0,1 3,0Z" style="opacity: 1; stroke-width: 0px; fill: rgb(144, 238, 144); fill-opacity: 1;"/><path class="point" transform="translate(36.49,275.26)" d="M3,0A3,3 0 1,1 0,-3A3,3 0 0,1 3,0Z" style="opacity: 1; stroke-width: 0px; fill: rgb(144, 238, 144); fill-opacity: 1;"/><path class="point" transform="translate(36.05,275.26)" d="M3,0A3,3 0 1,1 0,-3A3,3 0 0,1 3,0Z" style="opacity: 1; stroke-width: 0px; fill: rgb(144, 238, 144); fill-opacity: 1;"/><path class="point" transform="translate(36.62,275.26)" d="M3,0A3,3 0 1,1 0,-3A3,3 0 0,1 3,0Z" style="opacity: 1; stroke-width: 0px; fill: rgb(144, 238, 144); fill-opacity: 1;"/><path class="point" transform="translate(35.57,272.26)" d="M3,0A3,3 0 1,1 0,-3A3,3 0 0,1 3,0Z" style="opacity: 1; stroke-width: 0px; fill: rgb(144, 238, 144); fill-opacity: 1;"/><path class="point" transform="translate(36.58,272.26)" d="M3,0A3,3 0 1,1 0,-3A3,3 0 0,1 3,0Z" style="opacity: 1; stroke-width: 0px; fill: rgb(144, 238, 144); fill-opacity: 1;"/><path class="point" transform="translate(36.07,266.27)" d="M3,0A3,3 0 1,1 0,-3A3,3 0 0,1 3,0Z" style="opacity: 1; stroke-width: 0px; fill: rgb(144, 238, 144); fill-opacity: 1;"/></g></g><g class="trace violins" style="opacity: 1;"><path class="violin" d="M91.96,280.48L97.33,280.48Q100.16,280.23 101.77,280.12C103.68,279.99 105.85,279.87 108.04,279.75C110.45,279.62 113.11,279.51 115.65,279.39C118.2,279.27 120.91,279.15 123.3,279.02C125.4,278.9 127.65,278.81 129.23,278.65C130.28,278.55 131.84,278.44 131.85,278.29C131.86,278.18 131.09,278.02 130.49,277.92C129.4,277.73 127.47,277.67 125.78,277.56C123.81,277.43 121.48,277.31 119.36,277.19C117.27,277.07 115.06,276.96 113.12,276.83C111.43,276.72 109.76,276.6 108.38,276.46C107.31,276.35 106.31,276.25 105.53,276.1C104.98,275.99 104.52,275.87 104.13,275.73C103.83,275.62 103.62,275.49 103.36,275.37C103.09,275.25 102.82,275.12 102.52,275C102.17,274.87 101.77,274.75 101.38,274.63C100.97,274.51 100.51,274.4 100.12,274.27C99.76,274.15 99.37,274.05 99.11,273.9C98.92,273.79 98.7,273.68 98.65,273.54C98.61,273.43 98.68,273.28 98.75,273.17C98.83,273.04 99.02,272.94 99.13,272.81C99.23,272.69 99.37,272.56 99.38,272.44C99.39,272.32 99.29,272.19 99.18,272.08C99.02,271.93 98.71,271.82 98.43,271.71C98.09,271.58 97.68,271.47 97.29,271.35C96.89,271.23 96.46,271.11 96.07,270.98C95.71,270.86 95.34,270.75 95.03,270.62C94.77,270.51 94.52,270.39 94.32,270.25C94.16,270.14 94.01,270.01 93.91,269.88C93.82,269.77 93.77,269.64 93.71,269.52C93.65,269.4 93.62,269.27 93.57,269.15C93.52,269.03 93.47,268.91 93.42,268.79C93.37,268.67 93.32,268.54 93.27,268.42C93.23,268.3 93.18,268.18 93.15,268.06C93.12,267.94 93.1,267.81 93.11,267.69C93.12,267.57 93.15,267.45 93.18,267.33C93.21,267.21 93.26,267.08 93.3,266.96C93.34,266.84 93.38,266.72 93.4,266.6C93.42,266.48 93.42,266.35 93.41,266.23C93.4,266.11 93.36,265.99 93.31,265.87C93.26,265.74 93.17,265.62 93.09,265.5C93.01,265.37 92.9,265.25 92.81,265.13C92.72,265.01 92.62,264.89 92.54,264.77C92.46,264.65 92.37,264.53 92.31,264.4Q92.25,264.28 92.16,264.04L91.96,264.04" style="vector-effect: none; stroke-width: 2px; stroke: rgb(0, 128, 0); stroke-opacity: 1; fill: rgb(0, 128, 0); fill-opacity: 0.5;"/><path class="meanline" d="M109.22982025146484,276.54H91.96" style="fill: none; vector-effect: none; stroke-width: 2px; stroke-dasharray: 4px, 2px; stroke: rgb(0, 128, 0); stroke-opacity: 1;"/><g class="points"><path class="point" transform="translate(151.94,278.25)" d="M3,0A3,3 0 1,1 0,-3A3,3 0 0,1 3,0Z" style="opacity: 1; stroke-width: 0px; fill: rgb(0, 128, 0); fill-opacity: 1;"/><path class="point" transform="translate(142.72,278.25)" d="M3,0A3,3 0 1,1 0,-3A3,3 0 0,1 3,0Z" style="opacity: 1; stroke-width: 0px; fill: rgb(0, 128, 0); fill-opacity: 1;"/><path class="point" transform="translate(153.99,278.25)" d="M3,0A3,3 0 1,1 0,-3A3,3 0 0,1 3,0Z" style="opacity: 1; stroke-width: 0px; fill: rgb(0, 128, 0); fill-opacity: 1;"/><path class="point" transform="translate(141.06,278.25)" d="M3,0A3,3 0 1,1 0,-3A3,3 0 0,1 3,0Z" style="opacity: 1; stroke-width: 0px; fill: rgb(0, 128, 0); fill-opacity: 1;"/><path class="point" transform="translate(145.84,278.25)" d="M3,0A3,3 0 1,1 0,-3A3,3 0 0,1 3,0Z" style="opacity: 1; stroke-width: 0px; fill: rgb(0, 128, 0); fill-opacity: 1;"/><path class="point" transform="translate(151.99,278.25)" d="M3,0A3,3 0 1,1 0,-3A3,3 0 0,1 3,0Z" style="opacity: 1; stroke-width: 0px; fill: rgb(0, 128, 0); fill-opacity: 1;"/><path class="point" transform="translate(147.5,278.25)" d="M3,0A3,3 0 1,1 0,-3A3,3 0 0,1 3,0Z" style="opacity: 1; stroke-width: 0px; fill: rgb(0, 128, 0); fill-opacity: 1;"/><path class="point" transform="translate(150.11,278.25)" d="M3,0A3,3 0 1,1 0,-3A3,3 0 0,1 3,0Z" style="opacity: 1; stroke-width: 0px; fill: rgb(0, 128, 0); fill-opacity: 1;"/><path class="point" transform="translate(145.26,278.25)" d="M3,0A3,3 0 1,1 0,-3A3,3 0 0,1 3,0Z" style="opacity: 1; stroke-width: 0px; fill: rgb(0, 128, 0); fill-opacity: 1;"/><path class="point" transform="translate(141.95,278.25)" d="M3,0A3,3 0 1,1 0,-3A3,3 0 0,1 3,0Z" style="opacity: 1; stroke-width: 0px; fill: rgb(0, 128, 0); fill-opacity: 1;"/><path class="point" transform="translate(149.93,278.25)" d="M3,0A3,3 0 1,1 0,-3A3,3 0 0,1 3,0Z" style="opacity: 1; stroke-width: 0px; fill: rgb(0, 128, 0); fill-opacity: 1;"/><path class="point" transform="translate(145.18,278.25)" d="M3,0A3,3 0 1,1 0,-3A3,3 0 0,1 3,0Z" style="opacity: 1; stroke-width: 0px; fill: rgb(0, 128, 0); fill-opacity: 1;"/><path class="point" transform="translate(152.86,278.25)" d="M3,0A3,3 0 1,1 0,-3A3,3 0 0,1 3,0Z" style="opacity: 1; stroke-width: 0px; fill: rgb(0, 128, 0); fill-opacity: 1;"/><path class="point" transform="translate(140.04,278.25)" d="M3,0A3,3 0 1,1 0,-3A3,3 0 0,1 3,0Z" style="opacity: 1; stroke-width: 0px; fill: rgb(0, 128, 0); fill-opacity: 1;"/><path class="point" transform="translate(143.19,278.25)" d="M3,0A3,3 0 1,1 0,-3A3,3 0 0,1 3,0Z" style="opacity: 1; stroke-width: 0px; fill: rgb(0, 128, 0); fill-opacity: 1;"/><path class="point" transform="translate(154.86,278.25)" d="M3,0A3,3 0 1,1 0,-3A3,3 0 0,1 3,0Z" style="opacity: 1; stroke-width: 0px; fill: rgb(0, 128, 0); fill-opacity: 1;"/><path class="point" transform="translate(145.8,278.25)" d="M3,0A3,3 0 1,1 0,-3A3,3 0 0,1 3,0Z" style="opacity: 1; stroke-width: 0px; fill: rgb(0, 128, 0); fill-opacity: 1;"/><path class="point" transform="translate(140.95,278.25)" d="M3,0A3,3 0 1,1 0,-3A3,3 0 0,1 3,0Z" style="opacity: 1; stroke-width: 0px; fill: rgb(0, 128, 0); fill-opacity: 1;"/><path class="point" transform="translate(145.17,278.25)" d="M3,0A3,3 0 1,1 0,-3A3,3 0 0,1 3,0Z" style="opacity: 1; stroke-width: 0px; fill: rgb(0, 128, 0); fill-opacity: 1;"/><path class="point" transform="translate(147.63,278.25)" d="M3,0A3,3 0 1,1 0,-3A3,3 0 0,1 3,0Z" style="opacity: 1; stroke-width: 0px; fill: rgb(0, 128, 0); fill-opacity: 1;"/><path class="point" transform="translate(151.39,278.25)" d="M3,0A3,3 0 1,1 0,-3A3,3 0 0,1 3,0Z" style="opacity: 1; stroke-width: 0px; fill: rgb(0, 128, 0); fill-opacity: 1;"/><path class="point" transform="translate(148.69,278.25)" d="M3,0A3,3 0 1,1 0,-3A3,3 0 0,1 3,0Z" style="opacity: 1; stroke-width: 0px; fill: rgb(0, 128, 0); fill-opacity: 1;"/><path class="point" transform="translate(145.55,278.25)" d="M3,0A3,3 0 1,1 0,-3A3,3 0 0,1 3,0Z" style="opacity: 1; stroke-width: 0px; fill: rgb(0, 128, 0); fill-opacity: 1;"/><path class="point" transform="translate(145.69,278.25)" d="M3,0A3,3 0 1,1 0,-3A3,3 0 0,1 3,0Z" style="opacity: 1; stroke-width: 0px; fill: rgb(0, 128, 0); fill-opacity: 1;"/><path class="point" transform="translate(147.79,278.25)" d="M3,0A3,3 0 1,1 0,-3A3,3 0 0,1 3,0Z" style="opacity: 1; stroke-width: 0px; fill: rgb(0, 128, 0); fill-opacity: 1;"/><path class="point" transform="translate(147.06,278.25)" d="M3,0A3,3 0 1,1 0,-3A3,3 0 0,1 3,0Z" style="opacity: 1; stroke-width: 0px; fill: rgb(0, 128, 0); fill-opacity: 1;"/><path class="point" transform="translate(148.98,278.25)" d="M3,0A3,3 0 1,1 0,-3A3,3 0 0,1 3,0Z" style="opacity: 1; stroke-width: 0px; fill: rgb(0, 128, 0); fill-opacity: 1;"/><path class="point" transform="translate(147.58,278.25)" d="M3,0A3,3 0 1,1 0,-3A3,3 0 0,1 3,0Z" style="opacity: 1; stroke-width: 0px; fill: rgb(0, 128, 0); fill-opacity: 1;"/><path class="point" transform="translate(146.15,275.26)" d="M3,0A3,3 0 1,1 0,-3A3,3 0 0,1 3,0Z" style="opacity: 1; stroke-width: 0px; fill: rgb(0, 128, 0); fill-opacity: 1;"/><path class="point" transform="translate(145.45,275.26)" d="M3,0A3,3 0 1,1 0,-3A3,3 0 0,1 3,0Z" style="opacity: 1; stroke-width: 0px; fill: rgb(0, 128, 0); fill-opacity: 1;"/><path class="point" transform="translate(148.81,275.26)" d="M3,0A3,3 0 1,1 0,-3A3,3 0 0,1 3,0Z" style="opacity: 1; stroke-width: 0px; fill: rgb(0, 128, 0); fill-opacity: 1;"/><path class="point" transform="translate(146.28,275.26)" d="M3,0A3,3 0 1,1 0,-3A3,3 0 0,1 3,0Z" style="opacity: 1; stroke-width: 0px; fill: rgb(0, 128, 0); fill-opacity: 1;"/><path class="point" transform="translate(148.86,275.26)" d="M3,0A3,3 0 1,1 0,-3A3,3 0 0,1 3,0Z" style="opacity: 1; stroke-width: 0px; fill: rgb(0, 128, 0); fill-opacity: 1;"/><path class="point" transform="translate(148.35,275.26)" d="M3,0A3,3 0 1,1 0,-3A3,3 0 0,1 3,0Z" style="opacity: 1; stroke-width: 0px; fill: rgb(0, 128, 0); fill-opacity: 1;"/><path class="point" transform="translate(147.05,275.26)" d="M3,0A3,3 0 1,1 0,-3A3,3 0 0,1 3,0Z" style="opacity: 1; stroke-width: 0px; fill: rgb(0, 128, 0); fill-opacity: 1;"/><path class="point" transform="translate(146.75,272.26)" d="M3,0A3,3 0 1,1 0,-3A3,3 0 0,1 3,0Z" style="opacity: 1; stroke-width: 0px; fill: rgb(0, 128, 0); fill-opacity: 1;"/><path class="point" transform="translate(148.46,272.26)" d="M3,0A3,3 0 1,1 0,-3A3,3 0 0,1 3,0Z" style="opacity: 1; stroke-width: 0px; fill: rgb(0, 128, 0); fill-opacity: 1;"/><path class="point" transform="translate(147.65,272.26)" d="M3,0A3,3 0 1,1 0,-3A3,3 0 0,1 3,0Z" style="opacity: 1; stroke-width: 0px; fill: rgb(0, 128, 0); fill-opacity: 1;"/><path class="point" transform="translate(148.7,272.26)" d="M3,0A3,3 0 1,1 0,-3A3,3 0 0,1 3,0Z" style="opacity: 1; stroke-width: 0px; fill: rgb(0, 128, 0); fill-opacity: 1;"/><path class="point" transform="translate(146.78,272.26)" d="M3,0A3,3 0 1,1 0,-3A3,3 0 0,1 3,0Z" style="opacity: 1; stroke-width: 0px; fill: rgb(0, 128, 0); fill-opacity: 1;"/><path class="point" transform="translate(148.68,269.26)" d="M3,0A3,3 0 1,1 0,-3A3,3 0 0,1 3,0Z" style="opacity: 1; stroke-width: 0px; fill: rgb(0, 128, 0); fill-opacity: 1;"/><path class="point" transform="translate(147.7,266.27)" d="M3,0A3,3 0 1,1 0,-3A3,3 0 0,1 3,0Z" style="opacity: 1; stroke-width: 0px; fill: rgb(0, 128, 0); fill-opacity: 1;"/></g></g><g class="trace violins" style="opacity: 1;"><path class="violin" d="M251.5,214.63L251.28,214.63Q251.17,215.36 251.1,215.73C251.03,216.1 250.94,216.47 250.85,216.83C250.76,217.2 250.64,217.56 250.54,217.92C250.44,218.29 250.32,218.65 250.23,219.02C250.14,219.39 250.05,219.75 249.99,220.12C249.93,220.48 249.89,220.85 249.89,221.22C249.89,221.59 249.91,221.95 249.96,222.32C250.01,222.69 250.09,223.05 250.18,223.42C250.27,223.79 250.38,224.15 250.48,224.52C250.58,224.88 250.7,225.24 250.8,225.61C250.9,225.97 250.98,226.34 251.06,226.71C251.14,227.08 251.21,227.44 251.26,227.81C251.31,228.18 251.35,228.54 251.38,228.91C251.41,229.28 251.42,229.64 251.44,230.01C251.45,230.38 251.46,230.74 251.47,231.11C251.48,231.48 251.48,231.84 251.48,232.21C251.48,232.57 251.46,232.94 251.45,233.3C251.44,233.67 251.43,234.03 251.4,234.4C251.37,234.77 251.34,235.13 251.29,235.5C251.24,235.87 251.19,236.23 251.12,236.6C251.05,236.97 250.96,237.33 250.86,237.7C250.76,238.07 250.65,238.43 250.54,238.8C250.42,239.17 250.29,239.53 250.17,239.9C250.05,240.26 249.94,240.63 249.83,240.99C249.72,241.36 249.62,241.72 249.52,242.09C249.43,242.46 249.35,242.82 249.26,243.19C249.17,243.56 249.08,243.93 248.97,244.29C248.85,244.66 248.73,245.03 248.57,245.39C248.41,245.76 248.22,246.13 248.01,246.49C247.79,246.86 247.54,247.23 247.28,247.59C247.02,247.96 246.73,248.31 246.46,248.68C246.19,249.04 245.91,249.41 245.68,249.78C245.46,250.14 245.24,250.5 245.1,250.88C244.96,251.24 244.85,251.61 244.83,251.98C244.81,252.34 244.86,252.72 244.95,253.08C245.05,253.45 245.22,253.82 245.41,254.18C245.61,254.56 245.87,254.92 246.12,255.28C246.37,255.65 246.65,256 246.9,256.37C247.14,256.73 247.4,257.1 247.6,257.47C247.8,257.83 247.98,258.2 248.11,258.57C248.24,258.93 248.34,259.3 248.38,259.67C248.42,260.03 248.43,260.41 248.38,260.77C248.33,261.14 248.23,261.51 248.09,261.87C247.94,262.25 247.75,262.62 247.51,262.97C247.25,263.35 246.93,263.71 246.59,264.06C246.22,264.44 245.8,264.81 245.34,265.16C244.85,265.54 244.3,265.91 243.72,266.26C243.09,266.64 242.41,267.01 241.68,267.36C240.88,267.75 240.02,268.11 239.11,268.46C238.1,268.85 237.02,269.21 235.88,269.56C234.63,269.95 233.29,270.31 231.92,270.66C230.44,271.04 228.87,271.39 227.3,271.75C225.67,272.12 223.96,272.48 222.31,272.85C220.69,273.21 219.01,273.56 217.5,273.95C216.14,274.3 214.71,274.62 213.65,275.05C212.84,275.38 211.78,275.7 211.62,276.15C211.5,276.47 211.74,276.94 212.07,277.25C212.62,277.77 214.01,278.02 215.22,278.35C216.77,278.77 218.74,279.09 220.65,279.44C222.77,279.83 225.14,280.18 227.4,280.54C229.68,280.91 232.07,281.26 234.29,281.64C236.37,282 238.44,282.35 240.31,282.74C241.95,283.09 243.53,283.43 244.9,283.84Q246.04,284.18 247.98,284.94L251.5,284.94" style="vector-effect: none; stroke-width: 2px; stroke: rgb(255, 255, 0); stroke-opacity: 1; fill: rgb(255, 255, 0); fill-opacity: 0.5;"/><path class="meanline" d="M234.2164306640625,270.05H251.5" style="fill: none; vector-effect: none; stroke-width: 2px; stroke-dasharray: 4px, 2px; stroke: rgb(255, 255, 0); stroke-opacity: 1;"/><g class="points"><path class="point" transform="translate(199.8,278.25)" d="M3,0A3,3 0 1,1 0,-3A3,3 0 0,1 3,0Z" style="opacity: 1; stroke-width: 0px; fill: rgb(255, 255, 0); fill-opacity: 1;"/><path class="point" transform="translate(190.58,278.25)" d="M3,0A3,3 0 1,1 0,-3A3,3 0 0,1 3,0Z" style="opacity: 1; stroke-width: 0px; fill: rgb(255, 255, 0); fill-opacity: 1;"/><path class="point" transform="translate(201.85,278.25)" d="M3,0A3,3 0 1,1 0,-3A3,3 0 0,1 3,0Z" style="opacity: 1; stroke-width: 0px; fill: rgb(255, 255, 0); fill-opacity: 1;"/><path class="point" transform="translate(188.92,278.25)" d="M3,0A3,3 0 1,1 0,-3A3,3 0 0,1 3,0Z" style="opacity: 1; stroke-width: 0px; fill: rgb(255, 255, 0); fill-opacity: 1;"/><path class="point" transform="translate(193.7,278.25)" d="M3,0A3,3 0 1,1 0,-3A3,3 0 0,1 3,0Z" style="opacity: 1; stroke-width: 0px; fill: rgb(255, 255, 0); fill-opacity: 1;"/><path class="point" transform="translate(199.85,278.25)" d="M3,0A3,3 0 1,1 0,-3A3,3 0 0,1 3,0Z" style="opacity: 1; stroke-width: 0px; fill: rgb(255, 255, 0); fill-opacity: 1;"/><path class="point" transform="translate(195.37,278.25)" d="M3,0A3,3 0 1,1 0,-3A3,3 0 0,1 3,0Z" style="opacity: 1; stroke-width: 0px; fill: rgb(255, 255, 0); fill-opacity: 1;"/><path class="point" transform="translate(197.98,278.25)" d="M3,0A3,3 0 1,1 0,-3A3,3 0 0,1 3,0Z" style="opacity: 1; stroke-width: 0px; fill: rgb(255, 255, 0); fill-opacity: 1;"/><path class="point" transform="translate(193.12,278.25)" d="M3,0A3,3 0 1,1 0,-3A3,3 0 0,1 3,0Z" style="opacity: 1; stroke-width: 0px; fill: rgb(255, 255, 0); fill-opacity: 1;"/><path class="point" transform="translate(189.82,278.25)" d="M3,0A3,3 0 1,1 0,-3A3,3 0 0,1 3,0Z" style="opacity: 1; stroke-width: 0px; fill: rgb(255, 255, 0); fill-opacity: 1;"/><path class="point" transform="translate(196.83,278.25)" d="M3,0A3,3 0 1,1 0,-3A3,3 0 0,1 3,0Z" style="opacity: 1; stroke-width: 0px; fill: rgb(255, 255, 0); fill-opacity: 1;"/><path class="point" transform="translate(194.22,278.25)" d="M3,0A3,3 0 1,1 0,-3A3,3 0 0,1 3,0Z" style="opacity: 1; stroke-width: 0px; fill: rgb(255, 255, 0); fill-opacity: 1;"/><path class="point" transform="translate(198.43,278.25)" d="M3,0A3,3 0 1,1 0,-3A3,3 0 0,1 3,0Z" style="opacity: 1; stroke-width: 0px; fill: rgb(255, 255, 0); fill-opacity: 1;"/><path class="point" transform="translate(191.41,278.25)" d="M3,0A3,3 0 1,1 0,-3A3,3 0 0,1 3,0Z" style="opacity: 1; stroke-width: 0px; fill: rgb(255, 255, 0); fill-opacity: 1;"/><path class="point" transform="translate(193.13,278.25)" d="M3,0A3,3 0 1,1 0,-3A3,3 0 0,1 3,0Z" style="opacity: 1; stroke-width: 0px; fill: rgb(255, 255, 0); fill-opacity: 1;"/><path class="point" transform="translate(199.53,275.26)" d="M3,0A3,3 0 1,1 0,-3A3,3 0 0,1 3,0Z" style="opacity: 1; stroke-width: 0px; fill: rgb(255, 255, 0); fill-opacity: 1;"/><path class="point" transform="translate(194.57,275.26)" d="M3,0A3,3 0 1,1 0,-3A3,3 0 0,1 3,0Z" style="opacity: 1; stroke-width: 0px; fill: rgb(255, 255, 0); fill-opacity: 1;"/><path class="point" transform="translate(191.91,275.26)" d="M3,0A3,3 0 1,1 0,-3A3,3 0 0,1 3,0Z" style="opacity: 1; stroke-width: 0px; fill: rgb(255, 255, 0); fill-opacity: 1;"/><path class="point" transform="translate(194.22,275.26)" d="M3,0A3,3 0 1,1 0,-3A3,3 0 0,1 3,0Z" style="opacity: 1; stroke-width: 0px; fill: rgb(255, 255, 0); fill-opacity: 1;"/><path class="point" transform="translate(195.57,275.26)" d="M3,0A3,3 0 1,1 0,-3A3,3 0 0,1 3,0Z" style="opacity: 1; stroke-width: 0px; fill: rgb(255, 255, 0); fill-opacity: 1;"/><path class="point" transform="translate(197.63,275.26)" d="M3,0A3,3 0 1,1 0,-3A3,3 0 0,1 3,0Z" style="opacity: 1; stroke-width: 0px; fill: rgb(255, 255, 0); fill-opacity: 1;"/><path class="point" transform="translate(196.15,275.26)" d="M3,0A3,3 0 1,1 0,-3A3,3 0 0,1 3,0Z" style="opacity: 1; stroke-width: 0px; fill: rgb(255, 255, 0); fill-opacity: 1;"/><path class="point" transform="translate(194.43,275.26)" d="M3,0A3,3 0 1,1 0,-3A3,3 0 0,1 3,0Z" style="opacity: 1; stroke-width: 0px; fill: rgb(255, 255, 0); fill-opacity: 1;"/><path class="point" transform="translate(192.01,275.26)" d="M3,0A3,3 0 1,1 0,-3A3,3 0 0,1 3,0Z" style="opacity: 1; stroke-width: 0px; fill: rgb(255, 255, 0); fill-opacity: 1;"/><path class="point" transform="translate(195.65,275.26)" d="M3,0A3,3 0 1,1 0,-3A3,3 0 0,1 3,0Z" style="opacity: 1; stroke-width: 0px; fill: rgb(255, 255, 0); fill-opacity: 1;"/><path class="point" transform="translate(194.76,272.26)" d="M3,0A3,3 0 1,1 0,-3A3,3 0 0,1 3,0Z" style="opacity: 1; stroke-width: 0px; fill: rgb(255, 255, 0); fill-opacity: 1;"/><path class="point" transform="translate(197.1,272.26)" d="M3,0A3,3 0 1,1 0,-3A3,3 0 0,1 3,0Z" style="opacity: 1; stroke-width: 0px; fill: rgb(255, 255, 0); fill-opacity: 1;"/><path class="point" transform="translate(195.44,272.26)" d="M3,0A3,3 0 1,1 0,-3A3,3 0 0,1 3,0Z" style="opacity: 1; stroke-width: 0px; fill: rgb(255, 255, 0); fill-opacity: 1;"/><path class="point" transform="translate(194.01,272.26)" d="M3,0A3,3 0 1,1 0,-3A3,3 0 0,1 3,0Z" style="opacity: 1; stroke-width: 0px; fill: rgb(255, 255, 0); fill-opacity: 1;"/><path class="point" transform="translate(193.84,272.26)" d="M3,0A3,3 0 1,1 0,-3A3,3 0 0,1 3,0Z" style="opacity: 1; stroke-width: 0px; fill: rgb(255, 255, 0); fill-opacity: 1;"/><path class="point" transform="translate(196.67,269.26)" d="M3,0A3,3 0 1,1 0,-3A3,3 0 0,1 3,0Z" style="opacity: 1; stroke-width: 0px; fill: rgb(255, 255, 0); fill-opacity: 1;"/><path class="point" transform="translate(194.14,269.26)" d="M3,0A3,3 0 1,1 0,-3A3,3 0 0,1 3,0Z" style="opacity: 1; stroke-width: 0px; fill: rgb(255, 255, 0); fill-opacity: 1;"/><path class="point" transform="translate(196.64,266.27)" d="M3,0A3,3 0 1,1 0,-3A3,3 0 0,1 3,0Z" style="opacity: 1; stroke-width: 0px; fill: rgb(255, 255, 0); fill-opacity: 1;"/><path class="point" transform="translate(196.02,266.27)" d="M3,0A3,3 0 1,1 0,-3A3,3 0 0,1 3,0Z" style="opacity: 1; stroke-width: 0px; fill: rgb(255, 255, 0); fill-opacity: 1;"/><path class="point" transform="translate(195.2,260.27)" d="M3,0A3,3 0 1,1 0,-3A3,3 0 0,1 3,0Z" style="opacity: 1; stroke-width: 0px; fill: rgb(255, 255, 0); fill-opacity: 1;"/><path class="point" transform="translate(194.8,254.28)" d="M3,0A3,3 0 1,1 0,-3A3,3 0 0,1 3,0Z" style="opacity: 1; stroke-width: 0px; fill: rgb(255, 255, 0); fill-opacity: 1;"/><path class="point" transform="translate(196.16,254.28)" d="M3,0A3,3 0 1,1 0,-3A3,3 0 0,1 3,0Z" style="opacity: 1; stroke-width: 0px; fill: rgb(255, 255, 0); fill-opacity: 1;"/><path class="point" transform="translate(195.55,251.28)" d="M3,0A3,3 0 1,1 0,-3A3,3 0 0,1 3,0Z" style="opacity: 1; stroke-width: 0px; fill: rgb(255, 255, 0); fill-opacity: 1;"/><path class="point" transform="translate(196.36,251.28)" d="M3,0A3,3 0 1,1 0,-3A3,3 0 0,1 3,0Z" style="opacity: 1; stroke-width: 0px; fill: rgb(255, 255, 0); fill-opacity: 1;"/><path class="point" transform="translate(194.81,248.28)" d="M3,0A3,3 0 1,1 0,-3A3,3 0 0,1 3,0Z" style="opacity: 1; stroke-width: 0px; fill: rgb(255, 255, 0); fill-opacity: 1;"/><path class="point" transform="translate(196.31,242.29)" d="M3,0A3,3 0 1,1 0,-3A3,3 0 0,1 3,0Z" style="opacity: 1; stroke-width: 0px; fill: rgb(255, 255, 0); fill-opacity: 1;"/><path class="point" transform="translate(195.59,221.31)" d="M3,0A3,3 0 1,1 0,-3A3,3 0 0,1 3,0Z" style="opacity: 1; stroke-width: 0px; fill: rgb(255, 255, 0); fill-opacity: 1;"/></g></g><g class="trace violins" style="opacity: 1;"><path class="violin" d="M251.5,303.76L255.72,303.76Q258.02,300.87 259.46,299.52C261.06,298.03 262.99,296.65 264.98,295.29C267.15,293.82 269.62,292.45 272.03,291.06C274.51,289.63 277.21,288.28 279.64,286.83C281.96,285.45 284.42,284.12 286.32,282.6C287.97,281.28 289.7,279.92 290.53,278.37C291.23,277.05 291.59,275.51 291.38,274.13C291.16,272.68 290.09,271.24 289.07,269.9C287.93,268.4 286.23,267.06 284.7,265.67C283.12,264.23 281.32,262.87 279.72,261.44C278.17,260.05 276.61,258.66 275.24,257.21C273.94,255.84 272.75,254.42 271.68,252.98C270.65,251.6 269.77,250.17 268.91,248.74C268.08,247.35 267.34,245.93 266.6,244.51C265.87,243.11 265.17,241.7 264.52,240.28C263.88,238.88 263.24,237.47 262.71,236.05C262.19,234.65 261.7,233.24 261.34,231.82C260.98,230.42 260.71,229.01 260.53,227.59C260.35,226.18 260.3,224.76 260.26,223.35C260.22,221.94 260.29,220.53 260.3,219.12C260.31,217.71 260.37,216.3 260.33,214.89C260.29,213.48 260.23,212.07 260.06,210.66C259.89,209.25 259.65,207.83 259.33,206.43C259.01,205.01 258.58,203.6 258.15,202.2C257.71,200.78 257.2,199.37 256.71,197.96C256.22,196.55 255.69,195.14 255.23,193.73C254.77,192.32 254.32,190.92 253.95,189.5C253.58,188.1 253.26,186.69 253,185.27C252.74,183.87 252.54,182.45 252.39,181.04C252.25,179.63 252.17,178.21 252.13,176.8C252.09,175.39 252.11,173.98 252.16,172.57C252.21,171.16 252.31,169.75 252.44,168.34C252.57,166.93 252.75,165.52 252.93,164.11C253.11,162.7 253.32,161.29 253.52,159.88C253.71,158.47 253.94,157.06 254.1,155.65C254.26,154.24 254.42,152.82 254.5,151.41C254.58,150 254.63,148.59 254.61,147.18C254.59,145.77 254.51,144.36 254.39,142.95C254.27,141.54 254.09,140.13 253.91,138.72C253.73,137.31 253.51,135.9 253.31,134.49C253.11,133.08 252.89,131.67 252.71,130.26C252.53,128.85 252.37,127.43 252.23,126.02C252.09,124.61 251.98,123.2 251.89,121.79C251.8,120.38 251.74,118.97 251.69,117.56C251.64,116.15 251.61,114.74 251.58,113.33C251.55,111.92 251.54,110.51 251.53,109.1C251.52,107.69 251.51,106.28 251.51,104.87C251.5,103.46 251.5,102.04 251.5,100.63C251.5,99.22 251.5,97.81 251.5,96.4C251.5,94.99 251.5,93.58 251.5,92.17C251.5,90.76 251.5,89.35 251.5,87.94C251.5,86.53 251.51,85.12 251.51,83.71C251.51,82.3 251.51,80.89 251.52,79.48C251.53,78.07 251.53,76.65 251.55,75.24C251.56,73.83 251.58,72.42 251.61,71.01C251.64,69.6 251.67,68.19 251.72,66.78C251.77,65.37 251.83,63.96 251.9,62.55C251.97,61.14 252.07,59.73 252.16,58.32C252.25,56.91 252.36,55.5 252.46,54.09C252.56,52.68 252.68,51.26 252.77,49.85C252.86,48.44 252.94,47.03 252.99,45.62C253.04,44.21 253.07,42.8 253.07,41.39C253.07,39.98 253.03,38.57 252.98,37.16C252.93,35.75 252.84,34.34 252.75,32.93C252.66,31.52 252.55,30.11 252.45,28.7C252.35,27.29 252.23,25.87 252.14,24.46C252.05,23.05 251.96,21.64 251.89,20.23Q251.82,18.82 251.71,16L251.5,16" style="vector-effect: none; stroke-width: 2px; stroke: rgb(255, 165, 0); stroke-opacity: 1; fill: rgb(255, 165, 0); fill-opacity: 0.5;"/><path class="meanline" d="M269.7388000488281,250.1H251.5" style="fill: none; vector-effect: none; stroke-width: 2px; stroke-dasharray: 4px, 2px; stroke: rgb(255, 165, 0); stroke-opacity: 1;"/><g class="points"><path class="point" transform="translate(311.48,278.25)" d="M3,0A3,3 0 1,1 0,-3A3,3 0 0,1 3,0Z" style="opacity: 1; stroke-width: 0px; fill: rgb(255, 165, 0); fill-opacity: 1;"/><path class="point" transform="translate(302.25,278.25)" d="M3,0A3,3 0 1,1 0,-3A3,3 0 0,1 3,0Z" style="opacity: 1; stroke-width: 0px; fill: rgb(255, 165, 0); fill-opacity: 1;"/><path class="point" transform="translate(313.52,278.25)" d="M3,0A3,3 0 1,1 0,-3A3,3 0 0,1 3,0Z" style="opacity: 1; stroke-width: 0px; fill: rgb(255, 165, 0); fill-opacity: 1;"/><path class="point" transform="translate(300.59,278.25)" d="M3,0A3,3 0 1,1 0,-3A3,3 0 0,1 3,0Z" style="opacity: 1; stroke-width: 0px; fill: rgb(255, 165, 0); fill-opacity: 1;"/><path class="point" transform="translate(305.37,278.25)" d="M3,0A3,3 0 1,1 0,-3A3,3 0 0,1 3,0Z" style="opacity: 1; stroke-width: 0px; fill: rgb(255, 165, 0); fill-opacity: 1;"/><path class="point" transform="translate(311.53,278.25)" d="M3,0A3,3 0 1,1 0,-3A3,3 0 0,1 3,0Z" style="opacity: 1; stroke-width: 0px; fill: rgb(255, 165, 0); fill-opacity: 1;"/><path class="point" transform="translate(307.04,278.25)" d="M3,0A3,3 0 1,1 0,-3A3,3 0 0,1 3,0Z" style="opacity: 1; stroke-width: 0px; fill: rgb(255, 165, 0); fill-opacity: 1;"/><path class="point" transform="translate(309.65,278.25)" d="M3,0A3,3 0 1,1 0,-3A3,3 0 0,1 3,0Z" style="opacity: 1; stroke-width: 0px; fill: rgb(255, 165, 0); fill-opacity: 1;"/><path class="point" transform="translate(304.79,278.25)" d="M3,0A3,3 0 1,1 0,-3A3,3 0 0,1 3,0Z" style="opacity: 1; stroke-width: 0px; fill: rgb(255, 165, 0); fill-opacity: 1;"/><path class="point" transform="translate(301.49,278.25)" d="M3,0A3,3 0 1,1 0,-3A3,3 0 0,1 3,0Z" style="opacity: 1; stroke-width: 0px; fill: rgb(255, 165, 0); fill-opacity: 1;"/><path class="point" transform="translate(309.47,278.25)" d="M3,0A3,3 0 1,1 0,-3A3,3 0 0,1 3,0Z" style="opacity: 1; stroke-width: 0px; fill: rgb(255, 165, 0); fill-opacity: 1;"/><path class="point" transform="translate(304.71,278.25)" d="M3,0A3,3 0 1,1 0,-3A3,3 0 0,1 3,0Z" style="opacity: 1; stroke-width: 0px; fill: rgb(255, 165, 0); fill-opacity: 1;"/><path class="point" transform="translate(312.39,278.25)" d="M3,0A3,3 0 1,1 0,-3A3,3 0 0,1 3,0Z" style="opacity: 1; stroke-width: 0px; fill: rgb(255, 165, 0); fill-opacity: 1;"/><path class="point" transform="translate(299.57,278.25)" d="M3,0A3,3 0 1,1 0,-3A3,3 0 0,1 3,0Z" style="opacity: 1; stroke-width: 0px; fill: rgb(255, 165, 0); fill-opacity: 1;"/><path class="point" transform="translate(302.72,278.25)" d="M3,0A3,3 0 1,1 0,-3A3,3 0 0,1 3,0Z" style="opacity: 1; stroke-width: 0px; fill: rgb(255, 165, 0); fill-opacity: 1;"/><path class="point" transform="translate(314.39,275.26)" d="M3,0A3,3 0 1,1 0,-3A3,3 0 0,1 3,0Z" style="opacity: 1; stroke-width: 0px; fill: rgb(255, 165, 0); fill-opacity: 1;"/><path class="point" transform="translate(305.34,275.26)" d="M3,0A3,3 0 1,1 0,-3A3,3 0 0,1 3,0Z" style="opacity: 1; stroke-width: 0px; fill: rgb(255, 165, 0); fill-opacity: 1;"/><path class="point" transform="translate(302.15,275.26)" d="M3,0A3,3 0 1,1 0,-3A3,3 0 0,1 3,0Z" style="opacity: 1; stroke-width: 0px; fill: rgb(255, 165, 0); fill-opacity: 1;"/><path class="point" transform="translate(305.71,275.26)" d="M3,0A3,3 0 1,1 0,-3A3,3 0 0,1 3,0Z" style="opacity: 1; stroke-width: 0px; fill: rgb(255, 165, 0); fill-opacity: 1;"/><path class="point" transform="translate(307.25,275.26)" d="M3,0A3,3 0 1,1 0,-3A3,3 0 0,1 3,0Z" style="opacity: 1; stroke-width: 0px; fill: rgb(255, 165, 0); fill-opacity: 1;"/><path class="point" transform="translate(308.91,275.26)" d="M3,0A3,3 0 1,1 0,-3A3,3 0 0,1 3,0Z" style="opacity: 1; stroke-width: 0px; fill: rgb(255, 165, 0); fill-opacity: 1;"/><path class="point" transform="translate(307.7,275.26)" d="M3,0A3,3 0 1,1 0,-3A3,3 0 0,1 3,0Z" style="opacity: 1; stroke-width: 0px; fill: rgb(255, 165, 0); fill-opacity: 1;"/><path class="point" transform="translate(306.48,272.26)" d="M3,0A3,3 0 1,1 0,-3A3,3 0 0,1 3,0Z" style="opacity: 1; stroke-width: 0px; fill: rgb(255, 165, 0); fill-opacity: 1;"/><path class="point" transform="translate(304.95,269.26)" d="M3,0A3,3 0 1,1 0,-3A3,3 0 0,1 3,0Z" style="opacity: 1; stroke-width: 0px; fill: rgb(255, 165, 0); fill-opacity: 1;"/><path class="point" transform="translate(307.33,266.27)" d="M3,0A3,3 0 1,1 0,-3A3,3 0 0,1 3,0Z" style="opacity: 1; stroke-width: 0px; fill: rgb(255, 165, 0); fill-opacity: 1;"/><path class="point" transform="translate(306.5,257.28)" d="M3,0A3,3 0 1,1 0,-3A3,3 0 0,1 3,0Z" style="opacity: 1; stroke-width: 0px; fill: rgb(255, 165, 0); fill-opacity: 1;"/><path class="point" transform="translate(308.67,254.28)" d="M3,0A3,3 0 1,1 0,-3A3,3 0 0,1 3,0Z" style="opacity: 1; stroke-width: 0px; fill: rgb(255, 165, 0); fill-opacity: 1;"/><path class="point" transform="translate(307.1,251.28)" d="M3,0A3,3 0 1,1 0,-3A3,3 0 0,1 3,0Z" style="opacity: 1; stroke-width: 0px; fill: rgb(255, 165, 0); fill-opacity: 1;"/><path class="point" transform="translate(305.65,248.28)" d="M3,0A3,3 0 1,1 0,-3A3,3 0 0,1 3,0Z" style="opacity: 1; stroke-width: 0px; fill: rgb(255, 165, 0); fill-opacity: 1;"/><path class="point" transform="translate(305.2,248.28)" d="M3,0A3,3 0 1,1 0,-3A3,3 0 0,1 3,0Z" style="opacity: 1; stroke-width: 0px; fill: rgb(255, 165, 0); fill-opacity: 1;"/><path class="point" transform="translate(308.63,248.28)" d="M3,0A3,3 0 1,1 0,-3A3,3 0 0,1 3,0Z" style="opacity: 1; stroke-width: 0px; fill: rgb(255, 165, 0); fill-opacity: 1;"/><path class="point" transform="translate(305.31,248.28)" d="M3,0A3,3 0 1,1 0,-3A3,3 0 0,1 3,0Z" style="opacity: 1; stroke-width: 0px; fill: rgb(255, 165, 0); fill-opacity: 1;"/><path class="point" transform="translate(308.7,242.29)" d="M3,0A3,3 0 1,1 0,-3A3,3 0 0,1 3,0Z" style="opacity: 1; stroke-width: 0px; fill: rgb(255, 165, 0); fill-opacity: 1;"/><path class="point" transform="translate(307.84,236.3)" d="M3,0A3,3 0 1,1 0,-3A3,3 0 0,1 3,0Z" style="opacity: 1; stroke-width: 0px; fill: rgb(255, 165, 0); fill-opacity: 1;"/><path class="point" transform="translate(306.68,224.31)" d="M3,0A3,3 0 1,1 0,-3A3,3 0 0,1 3,0Z" style="opacity: 1; stroke-width: 0px; fill: rgb(255, 165, 0); fill-opacity: 1;"/><path class="point" transform="translate(306.46,215.32)" d="M3,0A3,3 0 1,1 0,-3A3,3 0 0,1 3,0Z" style="opacity: 1; stroke-width: 0px; fill: rgb(255, 165, 0); fill-opacity: 1;"/><path class="point" transform="translate(308,215.32)" d="M3,0A3,3 0 1,1 0,-3A3,3 0 0,1 3,0Z" style="opacity: 1; stroke-width: 0px; fill: rgb(255, 165, 0); fill-opacity: 1;"/><path class="point" transform="translate(307.23,209.33)" d="M3,0A3,3 0 1,1 0,-3A3,3 0 0,1 3,0Z" style="opacity: 1; stroke-width: 0px; fill: rgb(255, 165, 0); fill-opacity: 1;"/><path class="point" transform="translate(308.03,206.33)" d="M3,0A3,3 0 1,1 0,-3A3,3 0 0,1 3,0Z" style="opacity: 1; stroke-width: 0px; fill: rgb(255, 165, 0); fill-opacity: 1;"/><path class="point" transform="translate(306.51,203.33)" d="M3,0A3,3 0 1,1 0,-3A3,3 0 0,1 3,0Z" style="opacity: 1; stroke-width: 0px; fill: rgb(255, 165, 0); fill-opacity: 1;"/><path class="point" transform="translate(307.94,149.39)" d="M3,0A3,3 0 1,1 0,-3A3,3 0 0,1 3,0Z" style="opacity: 1; stroke-width: 0px; fill: rgb(255, 165, 0); fill-opacity: 1;"/><path class="point" transform="translate(307.27,146.39)" d="M3,0A3,3 0 1,1 0,-3A3,3 0 0,1 3,0Z" style="opacity: 1; stroke-width: 0px; fill: rgb(255, 165, 0); fill-opacity: 1;"/><path class="point" transform="translate(307.02,41.5)" d="M3,0A3,3 0 1,1 0,-3A3,3 0 0,1 3,0Z" style="opacity: 1; stroke-width: 0px; fill: rgb(255, 165, 0); fill-opacity: 1;"/></g></g><g class="trace violins" style="opacity: 1;"><path class="violin" d="M411.04,175.67L410.82,175.67Q410.71,176.4 410.64,176.77C410.57,177.14 410.48,177.51 410.39,177.88C410.3,178.25 410.18,178.61 410.08,178.98C409.98,179.35 409.86,179.71 409.77,180.08C409.68,180.45 409.6,180.82 409.54,181.19C409.49,181.56 409.44,181.92 409.44,182.29C409.44,182.66 409.47,183.03 409.52,183.4C409.57,183.77 409.65,184.13 409.74,184.5C409.83,184.87 409.94,185.23 410.04,185.6C410.14,185.97 410.25,186.34 410.35,186.71C410.45,187.08 410.54,187.44 410.62,187.81C410.69,188.18 410.75,188.54 410.8,188.91C410.85,189.28 410.89,189.65 410.92,190.02C410.95,190.39 410.96,190.75 410.98,191.12C411,191.49 411.01,191.86 411.02,192.23C411.03,192.6 411.03,192.96 411.03,193.33C411.03,193.7 411.03,194.06 411.03,194.43C411.03,194.8 411.03,195.17 411.03,195.54C411.03,195.91 411.02,196.27 411.01,196.64C411,197.01 411,197.37 410.98,197.74C410.96,198.11 410.94,198.48 410.91,198.85C410.88,199.22 410.83,199.58 410.78,199.95C410.72,200.32 410.66,200.69 410.58,201.06C410.5,201.43 410.4,201.79 410.3,202.16C410.2,202.53 410.09,202.89 409.99,203.26C409.89,203.63 409.77,204 409.69,204.37C409.61,204.74 409.53,205.1 409.49,205.47C409.45,205.84 409.44,206.2 409.45,206.57C409.46,206.94 409.51,207.31 409.57,207.68C409.63,208.05 409.73,208.41 409.82,208.78C409.91,209.15 410.03,209.52 410.13,209.89C410.23,210.26 410.34,210.62 410.43,210.99C410.52,211.36 410.61,211.72 410.68,212.09C410.75,212.46 410.8,212.83 410.84,213.2C410.88,213.57 410.91,213.93 410.94,214.3C410.97,214.67 410.99,215.03 411,215.4C411.01,215.77 411.01,216.14 411.02,216.51C411.02,216.88 411.03,217.24 411.03,217.61C411.03,217.98 411.03,218.34 411.03,218.71C411.03,219.08 411.04,219.45 411.04,219.82C411.04,220.19 411.04,220.55 411.04,220.92C411.04,221.29 411.04,221.66 411.04,222.03C411.04,222.4 411.04,222.76 411.04,223.13C411.04,223.5 411.04,223.86 411.04,224.23C411.04,224.6 411.04,224.97 411.04,225.34C411.04,225.71 411.04,226.07 411.04,226.44C411.04,226.81 411.04,227.17 411.04,227.54C411.04,227.91 411.04,228.28 411.04,228.65C411.04,229.02 411.04,229.38 411.04,229.75C411.04,230.12 411.04,230.49 411.04,230.86C411.04,231.23 411.04,231.59 411.04,231.96C411.04,232.33 411.03,232.69 411.03,233.06C411.03,233.43 411.03,233.8 411.03,234.17C411.03,234.54 411.03,234.9 411.02,235.27C411.01,235.64 411,236 410.99,236.37C410.97,236.74 410.96,237.11 410.93,237.48C410.9,237.85 410.87,238.21 410.82,238.58C410.77,238.95 410.71,239.32 410.64,239.69C410.57,240.06 410.48,240.42 410.38,240.79C410.28,241.16 410.16,241.52 410.05,241.89C409.94,242.26 409.81,242.63 409.7,243C409.59,243.37 409.47,243.73 409.38,244.1C409.29,244.47 409.21,244.83 409.14,245.2C409.07,245.57 409.02,245.94 408.98,246.31C408.94,246.68 408.92,247.04 408.9,247.41C408.88,247.78 408.86,248.15 408.85,248.52C408.84,248.89 408.83,249.25 408.82,249.62C408.81,249.99 408.81,250.35 408.81,250.72C408.81,251.09 408.8,251.46 408.8,251.83C408.8,252.2 408.81,252.56 408.81,252.93C408.81,253.3 408.82,253.66 408.82,254.03C408.82,254.4 408.82,254.77 408.81,255.14C408.8,255.51 408.79,255.87 408.78,256.24C408.77,256.61 408.76,256.97 408.74,257.34C408.72,257.71 408.7,258.08 408.66,258.45C408.62,258.82 408.57,259.19 408.48,259.55C408.39,259.92 408.29,260.3 408.13,260.66C407.96,261.04 407.75,261.41 407.49,261.76C407.21,262.14 406.86,262.51 406.47,262.86C406.04,263.25 405.54,263.62 405,263.97C404.41,264.36 403.75,264.72 403.07,265.07C402.33,265.45 401.53,265.81 400.72,266.17C399.87,266.55 398.98,266.92 398.09,267.28C397.18,267.65 396.25,268.01 395.31,268.38C394.36,268.75 393.4,269.13 392.42,269.49C391.4,269.86 390.38,270.23 389.3,270.59C388.16,270.97 386.97,271.33 385.75,271.69C384.45,272.07 383.08,272.44 381.71,272.8C380.31,273.17 378.81,273.52 377.43,273.9C376.12,274.26 374.71,274.59 373.6,275C372.69,275.34 371.53,275.62 371.2,276.11C370.99,276.43 370.95,276.9 371.15,277.21C371.48,277.72 372.81,277.99 373.89,278.32C375.34,278.76 377.27,279.07 379.13,279.42C381.24,279.81 383.64,280.16 385.93,280.52C388.27,280.89 390.73,281.25 393.02,281.63C395.18,281.99 397.34,282.34 399.29,282.73C401.01,283.08 402.67,283.42 404.11,283.83Q405.3,284.17 407.34,284.94L411.04,284.94" style="vector-effect: none; stroke-width: 2px; stroke: rgb(128, 0, 0); stroke-opacity: 1; fill: rgb(128, 0, 0); fill-opacity: 0.5;"/><path class="meanline" d="M393.0365905761719,269.26H411.04" style="fill: none; vector-effect: none; stroke-width: 2px; stroke-dasharray: 4px, 2px; stroke: rgb(128, 0, 0); stroke-opacity: 1;"/><g class="points"><path class="point" transform="translate(359.34,278.25)" d="M3,0A3,3 0 1,1 0,-3A3,3 0 0,1 3,0Z" style="opacity: 1; stroke-width: 0px; fill: rgb(128, 0, 0); fill-opacity: 1;"/><path class="point" transform="translate(350.11,278.25)" d="M3,0A3,3 0 1,1 0,-3A3,3 0 0,1 3,0Z" style="opacity: 1; stroke-width: 0px; fill: rgb(128, 0, 0); fill-opacity: 1;"/><path class="point" transform="translate(361.38,278.25)" d="M3,0A3,3 0 1,1 0,-3A3,3 0 0,1 3,0Z" style="opacity: 1; stroke-width: 0px; fill: rgb(128, 0, 0); fill-opacity: 1;"/><path class="point" transform="translate(348.45,278.25)" d="M3,0A3,3 0 1,1 0,-3A3,3 0 0,1 3,0Z" style="opacity: 1; stroke-width: 0px; fill: rgb(128, 0, 0); fill-opacity: 1;"/><path class="point" transform="translate(353.23,278.25)" d="M3,0A3,3 0 1,1 0,-3A3,3 0 0,1 3,0Z" style="opacity: 1; stroke-width: 0px; fill: rgb(128, 0, 0); fill-opacity: 1;"/><path class="point" transform="translate(359.39,278.25)" d="M3,0A3,3 0 1,1 0,-3A3,3 0 0,1 3,0Z" style="opacity: 1; stroke-width: 0px; fill: rgb(128, 0, 0); fill-opacity: 1;"/><path class="point" transform="translate(354.9,278.25)" d="M3,0A3,3 0 1,1 0,-3A3,3 0 0,1 3,0Z" style="opacity: 1; stroke-width: 0px; fill: rgb(128, 0, 0); fill-opacity: 1;"/><path class="point" transform="translate(357.51,278.25)" d="M3,0A3,3 0 1,1 0,-3A3,3 0 0,1 3,0Z" style="opacity: 1; stroke-width: 0px; fill: rgb(128, 0, 0); fill-opacity: 1;"/><path class="point" transform="translate(352.65,278.25)" d="M3,0A3,3 0 1,1 0,-3A3,3 0 0,1 3,0Z" style="opacity: 1; stroke-width: 0px; fill: rgb(128, 0, 0); fill-opacity: 1;"/><path class="point" transform="translate(349.35,278.25)" d="M3,0A3,3 0 1,1 0,-3A3,3 0 0,1 3,0Z" style="opacity: 1; stroke-width: 0px; fill: rgb(128, 0, 0); fill-opacity: 1;"/><path class="point" transform="translate(357.33,278.25)" d="M3,0A3,3 0 1,1 0,-3A3,3 0 0,1 3,0Z" style="opacity: 1; stroke-width: 0px; fill: rgb(128, 0, 0); fill-opacity: 1;"/><path class="point" transform="translate(353.71,278.25)" d="M3,0A3,3 0 1,1 0,-3A3,3 0 0,1 3,0Z" style="opacity: 1; stroke-width: 0px; fill: rgb(128, 0, 0); fill-opacity: 1;"/><path class="point" transform="translate(358.06,278.25)" d="M3,0A3,3 0 1,1 0,-3A3,3 0 0,1 3,0Z" style="opacity: 1; stroke-width: 0px; fill: rgb(128, 0, 0); fill-opacity: 1;"/><path class="point" transform="translate(350.81,278.25)" d="M3,0A3,3 0 1,1 0,-3A3,3 0 0,1 3,0Z" style="opacity: 1; stroke-width: 0px; fill: rgb(128, 0, 0); fill-opacity: 1;"/><path class="point" transform="translate(352.59,278.25)" d="M3,0A3,3 0 1,1 0,-3A3,3 0 0,1 3,0Z" style="opacity: 1; stroke-width: 0px; fill: rgb(128, 0, 0); fill-opacity: 1;"/><path class="point" transform="translate(359.19,278.25)" d="M3,0A3,3 0 1,1 0,-3A3,3 0 0,1 3,0Z" style="opacity: 1; stroke-width: 0px; fill: rgb(128, 0, 0); fill-opacity: 1;"/><path class="point" transform="translate(354.07,275.26)" d="M3,0A3,3 0 1,1 0,-3A3,3 0 0,1 3,0Z" style="opacity: 1; stroke-width: 0px; fill: rgb(128, 0, 0); fill-opacity: 1;"/><path class="point" transform="translate(351.32,275.26)" d="M3,0A3,3 0 1,1 0,-3A3,3 0 0,1 3,0Z" style="opacity: 1; stroke-width: 0px; fill: rgb(128, 0, 0); fill-opacity: 1;"/><path class="point" transform="translate(353.71,275.26)" d="M3,0A3,3 0 1,1 0,-3A3,3 0 0,1 3,0Z" style="opacity: 1; stroke-width: 0px; fill: rgb(128, 0, 0); fill-opacity: 1;"/><path class="point" transform="translate(355.1,275.26)" d="M3,0A3,3 0 1,1 0,-3A3,3 0 0,1 3,0Z" style="opacity: 1; stroke-width: 0px; fill: rgb(128, 0, 0); fill-opacity: 1;"/><path class="point" transform="translate(357.23,275.26)" d="M3,0A3,3 0 1,1 0,-3A3,3 0 0,1 3,0Z" style="opacity: 1; stroke-width: 0px; fill: rgb(128, 0, 0); fill-opacity: 1;"/><path class="point" transform="translate(355.7,275.26)" d="M3,0A3,3 0 1,1 0,-3A3,3 0 0,1 3,0Z" style="opacity: 1; stroke-width: 0px; fill: rgb(128, 0, 0); fill-opacity: 1;"/><path class="point" transform="translate(353.93,275.26)" d="M3,0A3,3 0 1,1 0,-3A3,3 0 0,1 3,0Z" style="opacity: 1; stroke-width: 0px; fill: rgb(128, 0, 0); fill-opacity: 1;"/><path class="point" transform="translate(351.43,275.26)" d="M3,0A3,3 0 1,1 0,-3A3,3 0 0,1 3,0Z" style="opacity: 1; stroke-width: 0px; fill: rgb(128, 0, 0); fill-opacity: 1;"/><path class="point" transform="translate(355.19,275.26)" d="M3,0A3,3 0 1,1 0,-3A3,3 0 0,1 3,0Z" style="opacity: 1; stroke-width: 0px; fill: rgb(128, 0, 0); fill-opacity: 1;"/><path class="point" transform="translate(354.27,275.26)" d="M3,0A3,3 0 1,1 0,-3A3,3 0 0,1 3,0Z" style="opacity: 1; stroke-width: 0px; fill: rgb(128, 0, 0); fill-opacity: 1;"/><path class="point" transform="translate(356.68,272.26)" d="M3,0A3,3 0 1,1 0,-3A3,3 0 0,1 3,0Z" style="opacity: 1; stroke-width: 0px; fill: rgb(128, 0, 0); fill-opacity: 1;"/><path class="point" transform="translate(354.92,272.26)" d="M3,0A3,3 0 1,1 0,-3A3,3 0 0,1 3,0Z" style="opacity: 1; stroke-width: 0px; fill: rgb(128, 0, 0); fill-opacity: 1;"/><path class="point" transform="translate(353.11,272.26)" d="M3,0A3,3 0 1,1 0,-3A3,3 0 0,1 3,0Z" style="opacity: 1; stroke-width: 0px; fill: rgb(128, 0, 0); fill-opacity: 1;"/><path class="point" transform="translate(352.22,269.26)" d="M3,0A3,3 0 1,1 0,-3A3,3 0 0,1 3,0Z" style="opacity: 1; stroke-width: 0px; fill: rgb(128, 0, 0); fill-opacity: 1;"/><path class="point" transform="translate(356.67,269.26)" d="M3,0A3,3 0 1,1 0,-3A3,3 0 0,1 3,0Z" style="opacity: 1; stroke-width: 0px; fill: rgb(128, 0, 0); fill-opacity: 1;"/><path class="point" transform="translate(352.97,269.26)" d="M3,0A3,3 0 1,1 0,-3A3,3 0 0,1 3,0Z" style="opacity: 1; stroke-width: 0px; fill: rgb(128, 0, 0); fill-opacity: 1;"/><path class="point" transform="translate(356.4,269.26)" d="M3,0A3,3 0 1,1 0,-3A3,3 0 0,1 3,0Z" style="opacity: 1; stroke-width: 0px; fill: rgb(128, 0, 0); fill-opacity: 1;"/><path class="point" transform="translate(355.57,269.26)" d="M3,0A3,3 0 1,1 0,-3A3,3 0 0,1 3,0Z" style="opacity: 1; stroke-width: 0px; fill: rgb(128, 0, 0); fill-opacity: 1;"/><path class="point" transform="translate(354.72,269.26)" d="M3,0A3,3 0 1,1 0,-3A3,3 0 0,1 3,0Z" style="opacity: 1; stroke-width: 0px; fill: rgb(128, 0, 0); fill-opacity: 1;"/><path class="point" transform="translate(354.62,266.27)" d="M3,0A3,3 0 1,1 0,-3A3,3 0 0,1 3,0Z" style="opacity: 1; stroke-width: 0px; fill: rgb(128, 0, 0); fill-opacity: 1;"/><path class="point" transform="translate(355.58,263.27)" d="M3,0A3,3 0 1,1 0,-3A3,3 0 0,1 3,0Z" style="opacity: 1; stroke-width: 0px; fill: rgb(128, 0, 0); fill-opacity: 1;"/><path class="point" transform="translate(355.11,257.28)" d="M3,0A3,3 0 1,1 0,-3A3,3 0 0,1 3,0Z" style="opacity: 1; stroke-width: 0px; fill: rgb(128, 0, 0); fill-opacity: 1;"/><path class="point" transform="translate(355.71,251.28)" d="M3,0A3,3 0 1,1 0,-3A3,3 0 0,1 3,0Z" style="opacity: 1; stroke-width: 0px; fill: rgb(128, 0, 0); fill-opacity: 1;"/><path class="point" transform="translate(354.61,245.29)" d="M3,0A3,3 0 1,1 0,-3A3,3 0 0,1 3,0Z" style="opacity: 1; stroke-width: 0px; fill: rgb(128, 0, 0); fill-opacity: 1;"/><path class="point" transform="translate(355.62,206.33)" d="M3,0A3,3 0 1,1 0,-3A3,3 0 0,1 3,0Z" style="opacity: 1; stroke-width: 0px; fill: rgb(128, 0, 0); fill-opacity: 1;"/><path class="point" transform="translate(355.15,182.35)" d="M3,0A3,3 0 1,1 0,-3A3,3 0 0,1 3,0Z" style="opacity: 1; stroke-width: 0px; fill: rgb(128, 0, 0); fill-opacity: 1;"/></g></g><g class="trace violins" style="opacity: 1;"><path class="violin" d="M411.04,304L414.21,304Q415.98,301.13 417.15,299.78C418.43,298.3 419.99,296.9 421.67,295.55C423.5,294.07 425.64,292.7 427.78,291.33C430.05,289.88 432.55,288.52 434.93,287.11C437.3,285.71 439.82,284.36 442.02,282.89C444.05,281.53 446.17,280.19 447.69,278.66C449,277.34 450.28,275.93 450.79,274.44C451.25,273.1 451.26,271.58 450.92,270.22C450.56,268.76 449.51,267.34 448.51,265.99C447.43,264.52 445.94,263.16 444.58,261.77C443.18,260.34 441.63,258.97 440.22,257.55C438.83,256.16 437.45,254.76 436.18,253.33C434.96,251.94 433.8,250.53 432.73,249.1C431.69,247.71 430.73,246.3 429.82,244.88C428.92,243.49 428.09,242.08 427.29,240.66C426.5,239.26 425.74,237.85 425.04,236.43C424.35,235.03 423.69,233.63 423.1,232.21C422.52,230.81 421.98,229.41 421.52,227.99C421.06,226.59 420.67,225.18 420.34,223.77C420.01,222.37 419.76,220.95 419.55,219.54C419.34,218.14 419.2,216.73 419.07,215.32C418.94,213.91 418.85,212.51 418.75,211.1C418.65,209.69 418.57,208.28 418.46,206.87C418.35,205.46 418.24,204.06 418.09,202.65C417.94,201.24 417.77,199.84 417.58,198.43C417.39,197.02 417.17,195.62 416.96,194.21C416.74,192.8 416.51,191.39 416.29,189.98C416.08,188.57 415.86,187.17 415.67,185.76C415.48,184.35 415.3,182.95 415.15,181.54C415,180.13 414.89,178.72 414.79,177.31C414.69,175.9 414.62,174.5 414.56,173.09C414.5,171.68 414.47,170.28 414.43,168.87C414.39,167.46 414.38,166.06 414.34,164.65C414.3,163.24 414.26,161.83 414.2,160.42C414.14,159.01 414.06,157.61 413.97,156.2C413.87,154.79 413.76,153.39 413.63,151.98C413.5,150.57 413.35,149.16 413.19,147.75C413.03,146.34 412.85,144.94 412.69,143.53C412.53,142.12 412.36,140.72 412.21,139.31C412.06,137.9 411.92,136.5 411.8,135.09C411.68,133.68 411.58,132.27 411.49,130.86Q411.4,129.45 411.28,126.64L411.04,126.64" style="vector-effect: none; stroke-width: 2px; stroke: rgb(255, 0, 0); stroke-opacity: 1; fill: rgb(255, 0, 0); fill-opacity: 0.5;"/><path class="meanline" d="M434.92816162109375,251.87H411.04" style="fill: none; vector-effect: none; stroke-width: 2px; stroke-dasharray: 4px, 2px; stroke: rgb(255, 0, 0); stroke-opacity: 1;"/><g class="points"><path class="point" transform="translate(471.01,278.25)" d="M3,0A3,3 0 1,1 0,-3A3,3 0 0,1 3,0Z" style="opacity: 1; stroke-width: 0px; fill: rgb(255, 0, 0); fill-opacity: 1;"/><path class="point" transform="translate(461.79,278.25)" d="M3,0A3,3 0 1,1 0,-3A3,3 0 0,1 3,0Z" style="opacity: 1; stroke-width: 0px; fill: rgb(255, 0, 0); fill-opacity: 1;"/><path class="point" transform="translate(473.06,278.25)" d="M3,0A3,3 0 1,1 0,-3A3,3 0 0,1 3,0Z" style="opacity: 1; stroke-width: 0px; fill: rgb(255, 0, 0); fill-opacity: 1;"/><path class="point" transform="translate(460.4,278.25)" d="M3,0A3,3 0 1,1 0,-3A3,3 0 0,1 3,0Z" style="opacity: 1; stroke-width: 0px; fill: rgb(255, 0, 0); fill-opacity: 1;"/><path class="point" transform="translate(464.91,278.25)" d="M3,0A3,3 0 1,1 0,-3A3,3 0 0,1 3,0Z" style="opacity: 1; stroke-width: 0px; fill: rgb(255, 0, 0); fill-opacity: 1;"/><path class="point" transform="translate(471.06,278.25)" d="M3,0A3,3 0 1,1 0,-3A3,3 0 0,1 3,0Z" style="opacity: 1; stroke-width: 0px; fill: rgb(255, 0, 0); fill-opacity: 1;"/><path class="point" transform="translate(466.58,278.25)" d="M3,0A3,3 0 1,1 0,-3A3,3 0 0,1 3,0Z" style="opacity: 1; stroke-width: 0px; fill: rgb(255, 0, 0); fill-opacity: 1;"/><path class="point" transform="translate(469.19,278.25)" d="M3,0A3,3 0 1,1 0,-3A3,3 0 0,1 3,0Z" style="opacity: 1; stroke-width: 0px; fill: rgb(255, 0, 0); fill-opacity: 1;"/><path class="point" transform="translate(464.33,275.26)" d="M3,0A3,3 0 1,1 0,-3A3,3 0 0,1 3,0Z" style="opacity: 1; stroke-width: 0px; fill: rgb(255, 0, 0); fill-opacity: 1;"/><path class="point" transform="translate(462.44,275.26)" d="M3,0A3,3 0 1,1 0,-3A3,3 0 0,1 3,0Z" style="opacity: 1; stroke-width: 0px; fill: rgb(255, 0, 0); fill-opacity: 1;"/><path class="point" transform="translate(468.49,275.26)" d="M3,0A3,3 0 1,1 0,-3A3,3 0 0,1 3,0Z" style="opacity: 1; stroke-width: 0px; fill: rgb(255, 0, 0); fill-opacity: 1;"/><path class="point" transform="translate(464.88,275.26)" d="M3,0A3,3 0 1,1 0,-3A3,3 0 0,1 3,0Z" style="opacity: 1; stroke-width: 0px; fill: rgb(255, 0, 0); fill-opacity: 1;"/><path class="point" transform="translate(470.71,275.26)" d="M3,0A3,3 0 1,1 0,-3A3,3 0 0,1 3,0Z" style="opacity: 1; stroke-width: 0px; fill: rgb(255, 0, 0); fill-opacity: 1;"/><path class="point" transform="translate(460.98,275.26)" d="M3,0A3,3 0 1,1 0,-3A3,3 0 0,1 3,0Z" style="opacity: 1; stroke-width: 0px; fill: rgb(255, 0, 0); fill-opacity: 1;"/><path class="point" transform="translate(463.37,272.26)" d="M3,0A3,3 0 1,1 0,-3A3,3 0 0,1 3,0Z" style="opacity: 1; stroke-width: 0px; fill: rgb(255, 0, 0); fill-opacity: 1;"/><path class="point" transform="translate(471.24,272.26)" d="M3,0A3,3 0 1,1 0,-3A3,3 0 0,1 3,0Z" style="opacity: 1; stroke-width: 0px; fill: rgb(255, 0, 0); fill-opacity: 1;"/><path class="point" transform="translate(465.63,272.26)" d="M3,0A3,3 0 1,1 0,-3A3,3 0 0,1 3,0Z" style="opacity: 1; stroke-width: 0px; fill: rgb(255, 0, 0); fill-opacity: 1;"/><path class="point" transform="translate(462.63,272.26)" d="M3,0A3,3 0 1,1 0,-3A3,3 0 0,1 3,0Z" style="opacity: 1; stroke-width: 0px; fill: rgb(255, 0, 0); fill-opacity: 1;"/><path class="point" transform="translate(465.72,269.26)" d="M3,0A3,3 0 1,1 0,-3A3,3 0 0,1 3,0Z" style="opacity: 1; stroke-width: 0px; fill: rgb(255, 0, 0); fill-opacity: 1;"/><path class="point" transform="translate(466.8,269.26)" d="M3,0A3,3 0 1,1 0,-3A3,3 0 0,1 3,0Z" style="opacity: 1; stroke-width: 0px; fill: rgb(255, 0, 0); fill-opacity: 1;"/><path class="point" transform="translate(468.33,266.27)" d="M3,0A3,3 0 1,1 0,-3A3,3 0 0,1 3,0Z" style="opacity: 1; stroke-width: 0px; fill: rgb(255, 0, 0); fill-opacity: 1;"/><path class="point" transform="translate(467.23,266.27)" d="M3,0A3,3 0 1,1 0,-3A3,3 0 0,1 3,0Z" style="opacity: 1; stroke-width: 0px; fill: rgb(255, 0, 0); fill-opacity: 1;"/><path class="point" transform="translate(466.02,266.27)" d="M3,0A3,3 0 1,1 0,-3A3,3 0 0,1 3,0Z" style="opacity: 1; stroke-width: 0px; fill: rgb(255, 0, 0); fill-opacity: 1;"/><path class="point" transform="translate(464.17,257.28)" d="M3,0A3,3 0 1,1 0,-3A3,3 0 0,1 3,0Z" style="opacity: 1; stroke-width: 0px; fill: rgb(255, 0, 0); fill-opacity: 1;"/><path class="point" transform="translate(466.86,254.28)" d="M3,0A3,3 0 1,1 0,-3A3,3 0 0,1 3,0Z" style="opacity: 1; stroke-width: 0px; fill: rgb(255, 0, 0); fill-opacity: 1;"/><path class="point" transform="translate(465.99,251.28)" d="M3,0A3,3 0 1,1 0,-3A3,3 0 0,1 3,0Z" style="opacity: 1; stroke-width: 0px; fill: rgb(255, 0, 0); fill-opacity: 1;"/><path class="point" transform="translate(468.13,251.28)" d="M3,0A3,3 0 1,1 0,-3A3,3 0 0,1 3,0Z" style="opacity: 1; stroke-width: 0px; fill: rgb(255, 0, 0); fill-opacity: 1;"/><path class="point" transform="translate(466.65,248.28)" d="M3,0A3,3 0 1,1 0,-3A3,3 0 0,1 3,0Z" style="opacity: 1; stroke-width: 0px; fill: rgb(255, 0, 0); fill-opacity: 1;"/><path class="point" transform="translate(465.1,248.28)" d="M3,0A3,3 0 1,1 0,-3A3,3 0 0,1 3,0Z" style="opacity: 1; stroke-width: 0px; fill: rgb(255, 0, 0); fill-opacity: 1;"/><path class="point" transform="translate(464.66,245.29)" d="M3,0A3,3 0 1,1 0,-3A3,3 0 0,1 3,0Z" style="opacity: 1; stroke-width: 0px; fill: rgb(255, 0, 0); fill-opacity: 1;"/><path class="point" transform="translate(468.16,242.29)" d="M3,0A3,3 0 1,1 0,-3A3,3 0 0,1 3,0Z" style="opacity: 1; stroke-width: 0px; fill: rgb(255, 0, 0); fill-opacity: 1;"/><path class="point" transform="translate(465.05,236.3)" d="M3,0A3,3 0 1,1 0,-3A3,3 0 0,1 3,0Z" style="opacity: 1; stroke-width: 0px; fill: rgb(255, 0, 0); fill-opacity: 1;"/><path class="point" transform="translate(468.11,230.3)" d="M3,0A3,3 0 1,1 0,-3A3,3 0 0,1 3,0Z" style="opacity: 1; stroke-width: 0px; fill: rgb(255, 0, 0); fill-opacity: 1;"/><path class="point" transform="translate(467.28,227.31)" d="M3,0A3,3 0 1,1 0,-3A3,3 0 0,1 3,0Z" style="opacity: 1; stroke-width: 0px; fill: rgb(255, 0, 0); fill-opacity: 1;"/><path class="point" transform="translate(466.37,215.32)" d="M3,0A3,3 0 1,1 0,-3A3,3 0 0,1 3,0Z" style="opacity: 1; stroke-width: 0px; fill: rgb(255, 0, 0); fill-opacity: 1;"/><path class="point" transform="translate(465.95,209.33)" d="M3,0A3,3 0 1,1 0,-3A3,3 0 0,1 3,0Z" style="opacity: 1; stroke-width: 0px; fill: rgb(255, 0, 0); fill-opacity: 1;"/><path class="point" transform="translate(467.57,203.33)" d="M3,0A3,3 0 1,1 0,-3A3,3 0 0,1 3,0Z" style="opacity: 1; stroke-width: 0px; fill: rgb(255, 0, 0); fill-opacity: 1;"/><path class="point" transform="translate(466.71,197.34)" d="M3,0A3,3 0 1,1 0,-3A3,3 0 0,1 3,0Z" style="opacity: 1; stroke-width: 0px; fill: rgb(255, 0, 0); fill-opacity: 1;"/><path class="point" transform="translate(467.86,185.35)" d="M3,0A3,3 0 1,1 0,-3A3,3 0 0,1 3,0Z" style="opacity: 1; stroke-width: 0px; fill: rgb(255, 0, 0); fill-opacity: 1;"/><path class="point" transform="translate(465.66,167.37)" d="M3,0A3,3 0 1,1 0,-3A3,3 0 0,1 3,0Z" style="opacity: 1; stroke-width: 0px; fill: rgb(255, 0, 0); fill-opacity: 1;"/><path class="point" transform="translate(467.76,152.39)" d="M3,0A3,3 0 1,1 0,-3A3,3 0 0,1 3,0Z" style="opacity: 1; stroke-width: 0px; fill: rgb(255, 0, 0); fill-opacity: 1;"/></g></g></g></g><g class="overplot"/><path class="xlines-above crisp" d="M0,0" style="fill: none;"/><path class="ylines-above crisp" d="M0,0" style="fill: none;"/><g class="overlines-above"/><g class="xaxislayer-above"><g class="xtick"><text text-anchor="middle" x="0" y="433" transform="translate(171.95999999999998,0)" style="font-family: 'Open Sans', verdana, arial, sans-serif; font-size: 12px; fill: rgb(42, 63, 95); fill-opacity: 1; white-space: pre; opacity: 1;">L</text></g><g class="xtick"><text text-anchor="middle" x="0" y="433" transform="translate(331.5,0)" style="font-family: 'Open Sans', verdana, arial, sans-serif; font-size: 12px; fill: rgb(42, 63, 95); fill-opacity: 1; white-space: pre; opacity: 1;">SIM</text></g><g class="xtick"><text text-anchor="middle" x="0" y="433" transform="translate(491.04,0)" style="font-family: 'Open Sans', verdana, arial, sans-serif; font-size: 12px; fill: rgb(42, 63, 95); fill-opacity: 1; white-space: pre; opacity: 1;">SOM</text></g></g><g class="yaxislayer-above"><g class="ytick"><text text-anchor="end" x="79" y="4.199999999999999" transform="translate(0,378.25)" style="font-family: 'Open Sans', verdana, arial, sans-serif; font-size: 12px; fill: rgb(42, 63, 95); fill-opacity: 1; white-space: pre; opacity: 1;">0</text></g><g class="ytick"><text text-anchor="end" x="79" y="4.199999999999999" style="font-family: 'Open Sans', verdana, arial, sans-serif; font-size: 12px; fill: rgb(42, 63, 95); fill-opacity: 1; white-space: pre; opacity: 1;" transform="translate(0,331.2)">2</text></g><g class="ytick"><text text-anchor="end" x="79" y="4.199999999999999" style="font-family: 'Open Sans', verdana, arial, sans-serif; font-size: 12px; fill: rgb(42, 63, 95); fill-opacity: 1; white-space: pre; opacity: 1;" transform="translate(0,284.15)">4</text></g><g class="ytick"><text text-anchor="end" x="79" y="4.199999999999999" style="font-family: 'Open Sans', verdana, arial, sans-serif; font-size: 12px; fill: rgb(42, 63, 95); fill-opacity: 1; white-space: pre; opacity: 1;" transform="translate(0,237.1)">6</text></g><g class="ytick"><text text-anchor="end" x="79" y="4.199999999999999" style="font-family: 'Open Sans', verdana, arial, sans-serif; font-size: 12px; fill: rgb(42, 63, 95); fill-opacity: 1; white-space: pre; opacity: 1;" transform="translate(0,190.05)">8</text></g><g class="ytick"><text text-anchor="end" x="79" y="4.199999999999999" style="font-family: 'Open Sans', verdana, arial, sans-serif; font-size: 12px; fill: rgb(42, 63, 95); fill-opacity: 1; white-space: pre; opacity: 1;" transform="translate(0,143)">10</text></g></g><g class="overaxes-above"/></g></g><g class="polarlayer"/><g class="smithlayer"/><g class="ternarylayer"/><g class="geolayer"/><g class="funnelarealayer"/><g class="pielayer"/><g class="iciclelayer"/><g class="treemaplayer"/><g class="sunburstlayer"/><g class="glimages"/><defs id="topdefs-d860db"><g class="clips"/><clipPath id="legendd860db"><rect width="95" height="124" x="0" y="0"/></clipPath></defs><g class="layer-above"><g class="imagelayer"/><g class="shapelayer"/></g><g class="infolayer"><g class="legend" pointer-events="all" transform="translate(593.0600000000001,100)"><rect class="bg" shape-rendering="crispEdges" width="95" height="124" x="0" y="0" style="stroke: rgb(68, 68, 68); stroke-opacity: 1; fill: rgb(255, 255, 255); fill-opacity: 1; stroke-width: 0px;"/><g class="scrollbox" transform="" clip-path="url(#legendd860db)"><g class="groups"><g class="traces" transform="translate(0,14.5)" style="opacity: 1;"><text class="legendtext" text-anchor="start" x="40" y="4.680000000000001" style="font-family: 'Open Sans', verdana, arial, sans-serif; font-size: 12px; fill: rgb(42, 63, 95); fill-opacity: 1; white-space: pre;">L SB</text><g class="layers" style="opacity: 1;"><g class="legendfill"/><g class="legendlines"/><g class="legendsymbols"><g class="legendpoints"><path class="legendbox" d="M6,6H-6V-6H6Z" transform="translate(20,0)" style="stroke-width: 2px; fill: rgb(144, 238, 144); fill-opacity: 0.5; stroke: rgb(144, 238, 144); stroke-opacity: 1;"/></g></g></g><rect class="legendtoggle" x="0" y="-9.5" width="89.1875" height="19" style="fill: rgb(0, 0, 0); fill-opacity: 0;"/></g><g class="traces" transform="translate(0,33.5)" style="opacity: 1;"><text class="legendtext" text-anchor="start" x="40" y="4.680000000000001" style="font-family: 'Open Sans', verdana, arial, sans-serif; font-size: 12px; fill: rgb(42, 63, 95); fill-opacity: 1; white-space: pre;">L NB</text><g class="layers" style="opacity: 1;"><g class="legendfill"/><g class="legendlines"/><g class="legendsymbols"><g class="legendpoints"><path class="legendbox" d="M6,6H-6V-6H6Z" transform="translate(20,0)" style="stroke-width: 2px; fill: rgb(0, 128, 0); fill-opacity: 0.5; stroke: rgb(0, 128, 0); stroke-opacity: 1;"/></g></g></g><rect class="legendtoggle" x="0" y="-9.5" width="89.1875" height="19" style="fill: rgb(0, 0, 0); fill-opacity: 0;"/></g><g class="traces" transform="translate(0,52.5)" style="opacity: 1;"><text class="legendtext" text-anchor="start" x="40" y="4.680000000000001" style="font-family: 'Open Sans', verdana, arial, sans-serif; font-size: 12px; fill: rgb(42, 63, 95); fill-opacity: 1; white-space: pre;">SIM SB</text><g class="layers" style="opacity: 1;"><g class="legendfill"/><g class="legendlines"/><g class="legendsymbols"><g class="legendpoints"><path class="legendbox" d="M6,6H-6V-6H6Z" transform="translate(20,0)" style="stroke-width: 2px; fill: rgb(255, 255, 0); fill-opacity: 0.5; stroke: rgb(255, 255, 0); stroke-opacity: 1;"/></g></g></g><rect class="legendtoggle" x="0" y="-9.5" width="89.1875" height="19" style="fill: rgb(0, 0, 0); fill-opacity: 0;"/></g><g class="traces" transform="translate(0,71.5)" style="opacity: 1;"><text class="legendtext" text-anchor="start" x="40" y="4.680000000000001" style="font-family: 'Open Sans', verdana, arial, sans-serif; font-size: 12px; fill: rgb(42, 63, 95); fill-opacity: 1; white-space: pre;">SIM NB</text><g class="layers" style="opacity: 1;"><g class="legendfill"/><g class="legendlines"/><g class="legendsymbols"><g class="legendpoints"><path class="legendbox" d="M6,6H-6V-6H6Z" transform="translate(20,0)" style="stroke-width: 2px; fill: rgb(255, 165, 0); fill-opacity: 0.5; stroke: rgb(255, 165, 0); stroke-opacity: 1;"/></g></g></g><rect class="legendtoggle" x="0" y="-9.5" width="89.1875" height="19" style="fill: rgb(0, 0, 0); fill-opacity: 0;"/></g><g class="traces" transform="translate(0,90.5)" style="opacity: 1;"><text class="legendtext" text-anchor="start" x="40" y="4.680000000000001" style="font-family: 'Open Sans', verdana, arial, sans-serif; font-size: 12px; fill: rgb(42, 63, 95); fill-opacity: 1; white-space: pre;">SOM SB</text><g class="layers" style="opacity: 1;"><g class="legendfill"/><g class="legendlines"/><g class="legendsymbols"><g class="legendpoints"><path class="legendbox" d="M6,6H-6V-6H6Z" transform="translate(20,0)" style="stroke-width: 2px; fill: rgb(128, 0, 0); fill-opacity: 0.5; stroke: rgb(128, 0, 0); stroke-opacity: 1;"/></g></g></g><rect class="legendtoggle" x="0" y="-9.5" width="89.1875" height="19" style="fill: rgb(0, 0, 0); fill-opacity: 0;"/></g><g class="traces" transform="translate(0,109.5)" style="opacity: 1;"><text class="legendtext" text-anchor="start" x="40" y="4.680000000000001" style="font-family: 'Open Sans', verdana, arial, sans-serif; font-size: 12px; fill: rgb(42, 63, 95); fill-opacity: 1; white-space: pre;">SOM NB</text><g class="layers" style="opacity: 1;"><g class="legendfill"/><g class="legendlines"/><g class="legendsymbols"><g class="legendpoints"><path class="legendbox" d="M6,6H-6V-6H6Z" transform="translate(20,0)" style="stroke-width: 2px; fill: rgb(255, 0, 0); fill-opacity: 0.5; stroke: rgb(255, 0, 0); stroke-opacity: 1;"/></g></g></g><rect class="legendtoggle" x="0" y="-9.5" width="89.1875" height="19" style="fill: rgb(0, 0, 0); fill-opacity: 0;"/></g></g></g><rect class="scrollbar" rx="20" ry="3" width="0" height="0" x="0" y="0" style="fill: rgb(128, 139, 164); fill-opacity: 1;"/></g><g class="g-gtitle"><text class="gtitle" x="35" y="50" text-anchor="start" dy="0em" style="font-family: 'Open Sans', verdana, arial, sans-serif; font-size: 17px; fill: rgb(42, 63, 95); opacity: 1; font-weight: normal; white-space: pre;">Distribution of Nonion_sp across habitats and sites</text></g><g class="g-xtitle"><text class="xtitle" x="331.5" y="459.8" text-anchor="middle" style="font-family: 'Open Sans', verdana, arial, sans-serif; font-size: 14px; fill: rgb(42, 63, 95); opacity: 1; font-weight: normal; white-space: pre;">Habitat and Site</text></g><g class="g-ytitle"><text class="ytitle" transform="rotate(-90,39.434375,260)" x="39.434375" y="260" text-anchor="middle" style="font-family: 'Open Sans', verdana, arial, sans-serif; font-size: 14px; fill: rgb(42, 63, 95); opacity: 1; font-weight: normal; white-space: pre;">Value</text></g></g></svg>