<svg class="main-svg" xmlns="http://www.w3.org/2000/svg" xmlns:xlink="http://www.w3.org/1999/xlink" width="700" height="500" style="" viewBox="0 0 700 500"><rect x="0" y="0" width="700" height="500" style="fill: rgb(255, 255, 255); fill-opacity: 1;"/><defs id="defs-436174"><g class="clips"><clipPath id="clip436174xyplot" class="plotclip"><rect width="503" height="320"/></clipPath><clipPath class="axesclip" id="clip436174x"><rect x="80" y="0" width="503" height="500"/></clipPath><clipPath class="axesclip" id="clip436174y"><rect x="0" y="100" width="700" height="320"/></clipPath><clipPath class="axesclip" id="clip436174xy"><rect x="80" y="100" width="503" height="320"/></clipPath></g><g class="gradients"/><g class="patterns"/></defs><g class="bglayer"><rect class="bg" x="80" y="100" width="503" height="320" style="fill: rgb(229, 236, 246); fill-opacity: 1; stroke-width: 0;"/></g><g class="layer-below"><g class="imagelayer"/><g class="shapelayer"/></g><g class="cartesianlayer"><g class="subplot xy"><g class="layer-subplot"><g class="shapelayer"/><g class="imagelayer"/></g><g class="minor-gridlayer"><g class="x"/><g class="y"/></g><g class="gridlayer"><g class="x"/><g class="y"><path class="ygrid crisp" transform="translate(0,279.36)" d="M80,0h503" style="stroke: rgb(255, 255, 255); stroke-opacity: 1; stroke-width: 1px;"/><path class="ygrid crisp" transform="translate(0,205.22)" d="M80,0h503" style="stroke: rgb(255, 255, 255); stroke-opacity: 1; stroke-width: 1px;"/><path class="ygrid crisp" transform="translate(0,131.09)" d="M80,0h503" style="stroke: rgb(255, 255, 255); stroke-opacity: 1; stroke-width: 1px;"/></g></g><g class="zerolinelayer"><path class="yzl zl crisp" transform="translate(0,353.5)" d="M80,0h503" style="stroke: rgb(255, 255, 255); stroke-opacity: 1; stroke-width: 2px;"/></g><path class="xlines-below"/><path class="ylines-below"/><g class="overlines-below"/><g class="xaxislayer-below"/><g class="yaxislayer-below"/><g class="overaxes-below"/><g class="plot" transform="translate(80,100)" clip-path="url(#clip436174xyplot)"><g class="violinlayer mlayer"><g class="trace violins" style="opacity: 1;"><path class="violin" d="M91.96,16L91.73,16Q91.61,21.49 91.53,24.23C91.45,26.97 91.35,29.72 91.24,32.46C91.12,35.2 90.99,37.95 90.84,40.69C90.69,43.43 90.52,46.17 90.35,48.91C90.18,51.65 89.99,54.4 89.8,57.14C89.61,59.88 89.4,62.63 89.19,65.37C88.97,68.11 88.75,70.86 88.51,73.6C88.26,76.34 88.01,79.09 87.72,81.83C87.43,84.57 87.12,87.32 86.79,90.06C86.46,92.8 86.09,95.55 85.72,98.29C85.35,101.03 84.94,103.77 84.55,106.51C84.16,109.25 83.76,112 83.37,114.74C82.98,117.48 82.59,120.23 82.2,122.97C81.81,125.71 81.43,128.46 81.03,131.2C80.63,133.94 80.23,136.69 79.8,139.43C79.37,142.17 78.92,144.92 78.45,147.66C77.98,150.4 77.47,153.15 76.99,155.89C76.51,158.63 76.01,161.37 75.55,164.11C75.09,166.85 74.65,169.59 74.24,172.34C73.83,175.08 73.47,177.83 73.07,180.57C72.67,183.31 72.33,186.06 71.84,188.8C71.35,191.55 70.84,194.31 70.12,197.03C69.39,199.79 68.53,202.55 67.48,205.26C66.41,208.04 65.09,210.77 63.72,213.49C62.33,216.26 60.68,218.96 59.2,221.71C57.73,224.45 56.07,227.15 54.88,229.94C53.73,232.64 52.58,235.39 52.12,238.17C51.67,240.88 51.59,243.7 52.08,246.4C52.59,249.19 53.8,251.97 55.22,254.63C56.73,257.47 58.91,260.17 61.03,262.86C63.25,265.66 65.87,268.35 68.29,271.09C70.71,273.83 73.27,276.52 75.53,279.31C77.71,282.01 79.85,284.73 81.64,287.54C83.35,290.22 84.87,292.98 86.1,295.77Q87.29,298.47 88.95,304L91.96,304" style="vector-effect: none; stroke-width: 2px; stroke: rgb(144, 238, 144); stroke-opacity: 1; fill: rgb(144, 238, 144); fill-opacity: 0.5;"/><path class="meanline" d="M66.2296142578125,208.26H91.96" style="fill: none; vector-effect: none; stroke-width: 2px; stroke-dasharray: 4px, 2px; stroke: rgb(144, 238, 144); stroke-opacity: 1;"/><g class="points"><path class="point" transform="translate(40.16,253.5)" d="M3,0A3,3 0 1,1 0,-3A3,3 0 0,1 3,0Z" style="opacity: 1; stroke-width: 0px; fill: rgb(144, 238, 144); fill-opacity: 1;"/><path class="point" transform="translate(31.04,253.5)" d="M3,0A3,3 0 1,1 0,-3A3,3 0 0,1 3,0Z" style="opacity: 1; stroke-width: 0px; fill: rgb(144, 238, 144); fill-opacity: 1;"/><path class="point" transform="translate(42.31,251.61)" d="M3,0A3,3 0 1,1 0,-3A3,3 0 0,1 3,0Z" style="opacity: 1; stroke-width: 0px; fill: rgb(144, 238, 144); fill-opacity: 1;"/><path class="point" transform="translate(29.38,251.61)" d="M3,0A3,3 0 1,1 0,-3A3,3 0 0,1 3,0Z" style="opacity: 1; stroke-width: 0px; fill: rgb(144, 238, 144); fill-opacity: 1;"/><path class="point" transform="translate(34.16,251.61)" d="M3,0A3,3 0 1,1 0,-3A3,3 0 0,1 3,0Z" style="opacity: 1; stroke-width: 0px; fill: rgb(144, 238, 144); fill-opacity: 1;"/><path class="point" transform="translate(40.31,249.72)" d="M3,0A3,3 0 1,1 0,-3A3,3 0 0,1 3,0Z" style="opacity: 1; stroke-width: 0px; fill: rgb(144, 238, 144); fill-opacity: 1;"/><path class="point" transform="translate(35.83,249.72)" d="M3,0A3,3 0 1,1 0,-3A3,3 0 0,1 3,0Z" style="opacity: 1; stroke-width: 0px; fill: rgb(144, 238, 144); fill-opacity: 1;"/><path class="point" transform="translate(38.44,249.72)" d="M3,0A3,3 0 1,1 0,-3A3,3 0 0,1 3,0Z" style="opacity: 1; stroke-width: 0px; fill: rgb(144, 238, 144); fill-opacity: 1;"/><path class="point" transform="translate(33.58,249.72)" d="M3,0A3,3 0 1,1 0,-3A3,3 0 0,1 3,0Z" style="opacity: 1; stroke-width: 0px; fill: rgb(144, 238, 144); fill-opacity: 1;"/><path class="point" transform="translate(30.28,247.83)" d="M3,0A3,3 0 1,1 0,-3A3,3 0 0,1 3,0Z" style="opacity: 1; stroke-width: 0px; fill: rgb(144, 238, 144); fill-opacity: 1;"/><path class="point" transform="translate(38.26,247.83)" d="M3,0A3,3 0 1,1 0,-3A3,3 0 0,1 3,0Z" style="opacity: 1; stroke-width: 0px; fill: rgb(144, 238, 144); fill-opacity: 1;"/><path class="point" transform="translate(33.57,247.83)" d="M3,0A3,3 0 1,1 0,-3A3,3 0 0,1 3,0Z" style="opacity: 1; stroke-width: 0px; fill: rgb(144, 238, 144); fill-opacity: 1;"/><path class="point" transform="translate(41.06,247.83)" d="M3,0A3,3 0 1,1 0,-3A3,3 0 0,1 3,0Z" style="opacity: 1; stroke-width: 0px; fill: rgb(144, 238, 144); fill-opacity: 1;"/><path class="point" transform="translate(28.56,247.83)" d="M3,0A3,3 0 1,1 0,-3A3,3 0 0,1 3,0Z" style="opacity: 1; stroke-width: 0px; fill: rgb(144, 238, 144); fill-opacity: 1;"/><path class="point" transform="translate(32.1,245.94)" d="M3,0A3,3 0 1,1 0,-3A3,3 0 0,1 3,0Z" style="opacity: 1; stroke-width: 0px; fill: rgb(144, 238, 144); fill-opacity: 1;"/><path class="point" transform="translate(42.28,244.05)" d="M3,0A3,3 0 1,1 0,-3A3,3 0 0,1 3,0Z" style="opacity: 1; stroke-width: 0px; fill: rgb(144, 238, 144); fill-opacity: 1;"/><path class="point" transform="translate(34.75,242.16)" d="M3,0A3,3 0 1,1 0,-3A3,3 0 0,1 3,0Z" style="opacity: 1; stroke-width: 0px; fill: rgb(144, 238, 144); fill-opacity: 1;"/><path class="point" transform="translate(31.68,242.16)" d="M3,0A3,3 0 1,1 0,-3A3,3 0 0,1 3,0Z" style="opacity: 1; stroke-width: 0px; fill: rgb(144, 238, 144); fill-opacity: 1;"/><path class="point" transform="translate(34.75,242.16)" d="M3,0A3,3 0 1,1 0,-3A3,3 0 0,1 3,0Z" style="opacity: 1; stroke-width: 0px; fill: rgb(144, 238, 144); fill-opacity: 1;"/><path class="point" transform="translate(36.04,238.39)" d="M3,0A3,3 0 1,1 0,-3A3,3 0 0,1 3,0Z" style="opacity: 1; stroke-width: 0px; fill: rgb(144, 238, 144); fill-opacity: 1;"/><path class="point" transform="translate(37.59,238.39)" d="M3,0A3,3 0 1,1 0,-3A3,3 0 0,1 3,0Z" style="opacity: 1; stroke-width: 0px; fill: rgb(144, 238, 144); fill-opacity: 1;"/><path class="point" transform="translate(36.49,232.72)" d="M3,0A3,3 0 1,1 0,-3A3,3 0 0,1 3,0Z" style="opacity: 1; stroke-width: 0px; fill: rgb(144, 238, 144); fill-opacity: 1;"/><path class="point" transform="translate(35.21,230.83)" d="M3,0A3,3 0 1,1 0,-3A3,3 0 0,1 3,0Z" style="opacity: 1; stroke-width: 0px; fill: rgb(144, 238, 144); fill-opacity: 1;"/><path class="point" transform="translate(33.71,221.39)" d="M3,0A3,3 0 1,1 0,-3A3,3 0 0,1 3,0Z" style="opacity: 1; stroke-width: 0px; fill: rgb(144, 238, 144); fill-opacity: 1;"/><path class="point" transform="translate(36.12,217.61)" d="M3,0A3,3 0 1,1 0,-3A3,3 0 0,1 3,0Z" style="opacity: 1; stroke-width: 0px; fill: rgb(144, 238, 144); fill-opacity: 1;"/><path class="point" transform="translate(35.31,200.61)" d="M3,0A3,3 0 1,1 0,-3A3,3 0 0,1 3,0Z" style="opacity: 1; stroke-width: 0px; fill: rgb(144, 238, 144); fill-opacity: 1;"/><path class="point" transform="translate(37.45,198.72)" d="M3,0A3,3 0 1,1 0,-3A3,3 0 0,1 3,0Z" style="opacity: 1; stroke-width: 0px; fill: rgb(144, 238, 144); fill-opacity: 1;"/><path class="point" transform="translate(35.87,198.72)" d="M3,0A3,3 0 1,1 0,-3A3,3 0 0,1 3,0Z" style="opacity: 1; stroke-width: 0px; fill: rgb(144, 238, 144); fill-opacity: 1;"/><path class="point" transform="translate(34.3,187.39)" d="M3,0A3,3 0 1,1 0,-3A3,3 0 0,1 3,0Z" style="opacity: 1; stroke-width: 0px; fill: rgb(144, 238, 144); fill-opacity: 1;"/><path class="point" transform="translate(33.48,179.83)" d="M3,0A3,3 0 1,1 0,-3A3,3 0 0,1 3,0Z" style="opacity: 1; stroke-width: 0px; fill: rgb(144, 238, 144); fill-opacity: 1;"/><path class="point" transform="translate(38,179.83)" d="M3,0A3,3 0 1,1 0,-3A3,3 0 0,1 3,0Z" style="opacity: 1; stroke-width: 0px; fill: rgb(144, 238, 144); fill-opacity: 1;"/><path class="point" transform="translate(33.81,176.06)" d="M3,0A3,3 0 1,1 0,-3A3,3 0 0,1 3,0Z" style="opacity: 1; stroke-width: 0px; fill: rgb(144, 238, 144); fill-opacity: 1;"/><path class="point" transform="translate(37.67,176.06)" d="M3,0A3,3 0 1,1 0,-3A3,3 0 0,1 3,0Z" style="opacity: 1; stroke-width: 0px; fill: rgb(144, 238, 144); fill-opacity: 1;"/><path class="point" transform="translate(36.7,162.83)" d="M3,0A3,3 0 1,1 0,-3A3,3 0 0,1 3,0Z" style="opacity: 1; stroke-width: 0px; fill: rgb(144, 238, 144); fill-opacity: 1;"/><path class="point" transform="translate(35.32,160.94)" d="M3,0A3,3 0 1,1 0,-3A3,3 0 0,1 3,0Z" style="opacity: 1; stroke-width: 0px; fill: rgb(144, 238, 144); fill-opacity: 1;"/><path class="point" transform="translate(34.72,159.06)" d="M3,0A3,3 0 1,1 0,-3A3,3 0 0,1 3,0Z" style="opacity: 1; stroke-width: 0px; fill: rgb(144, 238, 144); fill-opacity: 1;"/><path class="point" transform="translate(37.05,136.39)" d="M3,0A3,3 0 1,1 0,-3A3,3 0 0,1 3,0Z" style="opacity: 1; stroke-width: 0px; fill: rgb(144, 238, 144); fill-opacity: 1;"/><path class="point" transform="translate(35.92,130.72)" d="M3,0A3,3 0 1,1 0,-3A3,3 0 0,1 3,0Z" style="opacity: 1; stroke-width: 0px; fill: rgb(144, 238, 144); fill-opacity: 1;"/><path class="point" transform="translate(37.46,121.28)" d="M3,0A3,3 0 1,1 0,-3A3,3 0 0,1 3,0Z" style="opacity: 1; stroke-width: 0px; fill: rgb(144, 238, 144); fill-opacity: 1;"/><path class="point" transform="translate(34.58,117.5)" d="M3,0A3,3 0 1,1 0,-3A3,3 0 0,1 3,0Z" style="opacity: 1; stroke-width: 0px; fill: rgb(144, 238, 144); fill-opacity: 1;"/><path class="point" transform="translate(37.23,98.61)" d="M3,0A3,3 0 1,1 0,-3A3,3 0 0,1 3,0Z" style="opacity: 1; stroke-width: 0px; fill: rgb(144, 238, 144); fill-opacity: 1;"/><path class="point" transform="translate(35.98,66.5)" d="M3,0A3,3 0 1,1 0,-3A3,3 0 0,1 3,0Z" style="opacity: 1; stroke-width: 0px; fill: rgb(144, 238, 144); fill-opacity: 1;"/></g></g><g class="trace violins" style="opacity: 1;"><path class="violin" d="M91.96,257.71L95.72,257.71Q97.8,257.23 99.01,257.02C100.48,256.76 102.16,256.54 103.9,256.32C105.88,256.07 108.08,255.85 110.26,255.63C112.58,255.39 115.08,255.17 117.44,254.94C119.75,254.71 122.16,254.49 124.27,254.24C126.11,254.02 128.02,253.84 129.41,253.55C130.38,253.35 131.75,253.19 131.85,252.86C131.91,252.66 131.59,252.36 131.28,252.16C130.7,251.8 129.37,251.68 128.27,251.47C126.96,251.22 125.38,251.01 123.93,250.78C122.47,250.55 120.92,250.32 119.52,250.08C118.25,249.86 116.99,249.64 115.88,249.39C114.93,249.17 114.05,248.94 113.24,248.69C112.54,248.47 111.93,248.24 111.31,248C110.72,247.78 110.17,247.54 109.58,247.31C108.96,247.07 108.33,246.84 107.67,246.61C106.98,246.37 106.24,246.15 105.52,245.92C104.8,245.69 104.04,245.47 103.34,245.23C102.68,245 102,244.78 101.42,244.53C100.91,244.31 100.41,244.1 100.01,243.84C99.68,243.63 99.37,243.41 99.18,243.15C99.02,242.94 98.92,242.69 98.89,242.45C98.86,242.22 98.94,241.99 99.01,241.76C99.08,241.53 99.22,241.3 99.32,241.07C99.43,240.84 99.56,240.61 99.64,240.37C99.72,240.14 99.79,239.91 99.79,239.68C99.79,239.45 99.75,239.2 99.66,238.98C99.56,238.74 99.38,238.51 99.19,238.29C98.97,238.05 98.69,237.82 98.4,237.6C98.09,237.36 97.74,237.13 97.39,236.9C97.03,236.66 96.63,236.44 96.26,236.21C95.89,235.98 95.51,235.76 95.16,235.52C94.82,235.29 94.48,235.06 94.17,234.82C93.89,234.6 93.61,234.37 93.38,234.13C93.16,233.91 92.96,233.68 92.8,233.44C92.65,233.21 92.52,232.98 92.42,232.74C92.32,232.51 92.26,232.28 92.2,232.05C92.15,231.82 92.11,231.59 92.09,231.36C92.07,231.13 92.06,230.89 92.06,230.66C92.06,230.43 92.08,230.2 92.11,229.97C92.14,229.74 92.18,229.5 92.23,229.27C92.28,229.04 92.35,228.81 92.43,228.58C92.51,228.35 92.61,228.12 92.71,227.89C92.81,227.66 92.94,227.42 93.05,227.19C93.16,226.96 93.28,226.73 93.37,226.5C93.46,226.27 93.56,226.04 93.61,225.81C93.66,225.58 93.7,225.34 93.69,225.11C93.68,224.88 93.64,224.65 93.58,224.42C93.52,224.19 93.43,223.96 93.33,223.73C93.23,223.5 93.11,223.26 93,223.03C92.89,222.8 92.77,222.57 92.67,222.34C92.57,222.11 92.47,221.88 92.39,221.65Q92.31,221.42 92.2,220.95L91.96,220.95" style="vector-effect: none; stroke-width: 2px; stroke: rgb(0, 128, 0); stroke-opacity: 1; fill: rgb(0, 128, 0); fill-opacity: 0.5;"/><path class="meanline" d="M113.67201232910156,248.82H91.96" style="fill: none; vector-effect: none; stroke-width: 2px; stroke-dasharray: 4px, 2px; stroke: rgb(0, 128, 0); stroke-opacity: 1;"/><g class="points"><path class="point" transform="translate(151.94,253.5)" d="M3,0A3,3 0 1,1 0,-3A3,3 0 0,1 3,0Z" style="opacity: 1; stroke-width: 0px; fill: rgb(0, 128, 0); fill-opacity: 1;"/><path class="point" transform="translate(142.72,253.5)" d="M3,0A3,3 0 1,1 0,-3A3,3 0 0,1 3,0Z" style="opacity: 1; stroke-width: 0px; fill: rgb(0, 128, 0); fill-opacity: 1;"/><path class="point" transform="translate(153.99,253.5)" d="M3,0A3,3 0 1,1 0,-3A3,3 0 0,1 3,0Z" style="opacity: 1; stroke-width: 0px; fill: rgb(0, 128, 0); fill-opacity: 1;"/><path class="point" transform="translate(141.06,253.5)" d="M3,0A3,3 0 1,1 0,-3A3,3 0 0,1 3,0Z" style="opacity: 1; stroke-width: 0px; fill: rgb(0, 128, 0); fill-opacity: 1;"/><path class="point" transform="translate(145.84,253.5)" d="M3,0A3,3 0 1,1 0,-3A3,3 0 0,1 3,0Z" style="opacity: 1; stroke-width: 0px; fill: rgb(0, 128, 0); fill-opacity: 1;"/><path class="point" transform="translate(151.99,253.5)" d="M3,0A3,3 0 1,1 0,-3A3,3 0 0,1 3,0Z" style="opacity: 1; stroke-width: 0px; fill: rgb(0, 128, 0); fill-opacity: 1;"/><path class="point" transform="translate(147.5,253.5)" d="M3,0A3,3 0 1,1 0,-3A3,3 0 0,1 3,0Z" style="opacity: 1; stroke-width: 0px; fill: rgb(0, 128, 0); fill-opacity: 1;"/><path class="point" transform="translate(150.11,253.5)" d="M3,0A3,3 0 1,1 0,-3A3,3 0 0,1 3,0Z" style="opacity: 1; stroke-width: 0px; fill: rgb(0, 128, 0); fill-opacity: 1;"/><path class="point" transform="translate(145.26,253.5)" d="M3,0A3,3 0 1,1 0,-3A3,3 0 0,1 3,0Z" style="opacity: 1; stroke-width: 0px; fill: rgb(0, 128, 0); fill-opacity: 1;"/><path class="point" transform="translate(141.95,253.5)" d="M3,0A3,3 0 1,1 0,-3A3,3 0 0,1 3,0Z" style="opacity: 1; stroke-width: 0px; fill: rgb(0, 128, 0); fill-opacity: 1;"/><path class="point" transform="translate(148.97,253.5)" d="M3,0A3,3 0 1,1 0,-3A3,3 0 0,1 3,0Z" style="opacity: 1; stroke-width: 0px; fill: rgb(0, 128, 0); fill-opacity: 1;"/><path class="point" transform="translate(146.36,253.5)" d="M3,0A3,3 0 1,1 0,-3A3,3 0 0,1 3,0Z" style="opacity: 1; stroke-width: 0px; fill: rgb(0, 128, 0); fill-opacity: 1;"/><path class="point" transform="translate(150.57,253.5)" d="M3,0A3,3 0 1,1 0,-3A3,3 0 0,1 3,0Z" style="opacity: 1; stroke-width: 0px; fill: rgb(0, 128, 0); fill-opacity: 1;"/><path class="point" transform="translate(143.55,253.5)" d="M3,0A3,3 0 1,1 0,-3A3,3 0 0,1 3,0Z" style="opacity: 1; stroke-width: 0px; fill: rgb(0, 128, 0); fill-opacity: 1;"/><path class="point" transform="translate(145.27,253.5)" d="M3,0A3,3 0 1,1 0,-3A3,3 0 0,1 3,0Z" style="opacity: 1; stroke-width: 0px; fill: rgb(0, 128, 0); fill-opacity: 1;"/><path class="point" transform="translate(151.67,251.61)" d="M3,0A3,3 0 1,1 0,-3A3,3 0 0,1 3,0Z" style="opacity: 1; stroke-width: 0px; fill: rgb(0, 128, 0); fill-opacity: 1;"/><path class="point" transform="translate(146.71,251.61)" d="M3,0A3,3 0 1,1 0,-3A3,3 0 0,1 3,0Z" style="opacity: 1; stroke-width: 0px; fill: rgb(0, 128, 0); fill-opacity: 1;"/><path class="point" transform="translate(144.05,251.61)" d="M3,0A3,3 0 1,1 0,-3A3,3 0 0,1 3,0Z" style="opacity: 1; stroke-width: 0px; fill: rgb(0, 128, 0); fill-opacity: 1;"/><path class="point" transform="translate(146.36,251.61)" d="M3,0A3,3 0 1,1 0,-3A3,3 0 0,1 3,0Z" style="opacity: 1; stroke-width: 0px; fill: rgb(0, 128, 0); fill-opacity: 1;"/><path class="point" transform="translate(147.71,251.61)" d="M3,0A3,3 0 1,1 0,-3A3,3 0 0,1 3,0Z" style="opacity: 1; stroke-width: 0px; fill: rgb(0, 128, 0); fill-opacity: 1;"/><path class="point" transform="translate(149.19,251.61)" d="M3,0A3,3 0 1,1 0,-3A3,3 0 0,1 3,0Z" style="opacity: 1; stroke-width: 0px; fill: rgb(0, 128, 0); fill-opacity: 1;"/><path class="point" transform="translate(148.15,251.61)" d="M3,0A3,3 0 1,1 0,-3A3,3 0 0,1 3,0Z" style="opacity: 1; stroke-width: 0px; fill: rgb(0, 128, 0); fill-opacity: 1;"/><path class="point" transform="translate(146.93,251.61)" d="M3,0A3,3 0 1,1 0,-3A3,3 0 0,1 3,0Z" style="opacity: 1; stroke-width: 0px; fill: rgb(0, 128, 0); fill-opacity: 1;"/><path class="point" transform="translate(145.22,251.61)" d="M3,0A3,3 0 1,1 0,-3A3,3 0 0,1 3,0Z" style="opacity: 1; stroke-width: 0px; fill: rgb(0, 128, 0); fill-opacity: 1;"/><path class="point" transform="translate(147.79,251.61)" d="M3,0A3,3 0 1,1 0,-3A3,3 0 0,1 3,0Z" style="opacity: 1; stroke-width: 0px; fill: rgb(0, 128, 0); fill-opacity: 1;"/><path class="point" transform="translate(146.9,247.83)" d="M3,0A3,3 0 1,1 0,-3A3,3 0 0,1 3,0Z" style="opacity: 1; stroke-width: 0px; fill: rgb(0, 128, 0); fill-opacity: 1;"/><path class="point" transform="translate(149.24,247.83)" d="M3,0A3,3 0 1,1 0,-3A3,3 0 0,1 3,0Z" style="opacity: 1; stroke-width: 0px; fill: rgb(0, 128, 0); fill-opacity: 1;"/><path class="point" transform="translate(147.58,247.83)" d="M3,0A3,3 0 1,1 0,-3A3,3 0 0,1 3,0Z" style="opacity: 1; stroke-width: 0px; fill: rgb(0, 128, 0); fill-opacity: 1;"/><path class="point" transform="translate(146.15,247.83)" d="M3,0A3,3 0 1,1 0,-3A3,3 0 0,1 3,0Z" style="opacity: 1; stroke-width: 0px; fill: rgb(0, 128, 0); fill-opacity: 1;"/><path class="point" transform="translate(145.76,247.83)" d="M3,0A3,3 0 1,1 0,-3A3,3 0 0,1 3,0Z" style="opacity: 1; stroke-width: 0px; fill: rgb(0, 128, 0); fill-opacity: 1;"/><path class="point" transform="translate(149.22,247.83)" d="M3,0A3,3 0 1,1 0,-3A3,3 0 0,1 3,0Z" style="opacity: 1; stroke-width: 0px; fill: rgb(0, 128, 0); fill-opacity: 1;"/><path class="point" transform="translate(145.94,247.83)" d="M3,0A3,3 0 1,1 0,-3A3,3 0 0,1 3,0Z" style="opacity: 1; stroke-width: 0px; fill: rgb(0, 128, 0); fill-opacity: 1;"/><path class="point" transform="translate(149.1,245.94)" d="M3,0A3,3 0 1,1 0,-3A3,3 0 0,1 3,0Z" style="opacity: 1; stroke-width: 0px; fill: rgb(0, 128, 0); fill-opacity: 1;"/><path class="point" transform="translate(148.23,245.94)" d="M3,0A3,3 0 1,1 0,-3A3,3 0 0,1 3,0Z" style="opacity: 1; stroke-width: 0px; fill: rgb(0, 128, 0); fill-opacity: 1;"/><path class="point" transform="translate(147.22,244.05)" d="M3,0A3,3 0 1,1 0,-3A3,3 0 0,1 3,0Z" style="opacity: 1; stroke-width: 0px; fill: rgb(0, 128, 0); fill-opacity: 1;"/><path class="point" transform="translate(146.75,242.16)" d="M3,0A3,3 0 1,1 0,-3A3,3 0 0,1 3,0Z" style="opacity: 1; stroke-width: 0px; fill: rgb(0, 128, 0); fill-opacity: 1;"/><path class="point" transform="translate(148.37,240.28)" d="M3,0A3,3 0 1,1 0,-3A3,3 0 0,1 3,0Z" style="opacity: 1; stroke-width: 0px; fill: rgb(0, 128, 0); fill-opacity: 1;"/><path class="point" transform="translate(147.67,240.28)" d="M3,0A3,3 0 1,1 0,-3A3,3 0 0,1 3,0Z" style="opacity: 1; stroke-width: 0px; fill: rgb(0, 128, 0); fill-opacity: 1;"/><path class="point" transform="translate(148.61,238.39)" d="M3,0A3,3 0 1,1 0,-3A3,3 0 0,1 3,0Z" style="opacity: 1; stroke-width: 0px; fill: rgb(0, 128, 0); fill-opacity: 1;"/><path class="point" transform="translate(146.83,238.39)" d="M3,0A3,3 0 1,1 0,-3A3,3 0 0,1 3,0Z" style="opacity: 1; stroke-width: 0px; fill: rgb(0, 128, 0); fill-opacity: 1;"/><path class="point" transform="translate(148.52,236.5)" d="M3,0A3,3 0 1,1 0,-3A3,3 0 0,1 3,0Z" style="opacity: 1; stroke-width: 0px; fill: rgb(0, 128, 0); fill-opacity: 1;"/><path class="point" transform="translate(147.71,225.17)" d="M3,0A3,3 0 1,1 0,-3A3,3 0 0,1 3,0Z" style="opacity: 1; stroke-width: 0px; fill: rgb(0, 128, 0); fill-opacity: 1;"/></g></g><g class="trace violins" style="opacity: 1;"><path class="violin" d="M251.5,181.82L251.3,181.82Q251.2,183.05 251.13,183.66C251.06,184.28 250.99,184.89 250.9,185.51C250.82,186.12 250.71,186.74 250.62,187.35C250.52,187.96 250.42,188.58 250.33,189.19C250.25,189.8 250.16,190.41 250.11,191.03C250.06,191.64 250.02,192.26 250.01,192.88C250,193.49 250.02,194.11 250.05,194.72C250.08,195.33 250.14,195.95 250.2,196.56C250.26,197.17 250.34,197.79 250.39,198.4C250.45,199.02 250.5,199.63 250.53,200.25C250.56,200.86 250.56,201.48 250.55,202.09C250.54,202.7 250.49,203.32 250.44,203.93C250.39,204.54 250.32,205.16 250.25,205.77C250.18,206.39 250.1,207 250.03,207.62C249.96,208.23 249.9,208.85 249.85,209.46C249.8,210.07 249.77,210.69 249.74,211.3C249.71,211.91 249.69,212.53 249.67,213.14C249.64,213.76 249.63,214.37 249.59,214.99C249.55,215.6 249.5,216.22 249.41,216.83C249.32,217.45 249.22,218.06 249.07,218.67C248.92,219.29 248.74,219.9 248.5,220.51C248.26,221.13 247.97,221.76 247.63,222.36C247.28,222.99 246.87,223.6 246.42,224.2C245.96,224.83 245.43,225.44 244.89,226.04C244.34,226.66 243.73,227.27 243.15,227.88C242.57,228.5 241.94,229.1 241.39,229.73C240.86,230.33 240.32,230.94 239.88,231.57C239.46,232.17 239.09,232.78 238.79,233.41C238.5,234.01 238.31,234.63 238.11,235.25C237.91,235.86 237.81,236.48 237.59,237.09C237.36,237.71 237.14,238.35 236.75,238.94C236.32,239.59 235.74,240.21 235.05,240.78C234.23,241.45 233.17,242.05 232.05,242.62C230.74,243.29 229.19,243.87 227.64,244.46C225.95,245.1 224.06,245.69 222.27,246.31C220.49,246.92 218.56,247.49 216.92,248.15C215.48,248.73 213.86,249.24 212.95,249.99C212.29,250.53 211.57,251.24 211.62,251.83C211.68,252.47 212.69,253.14 213.56,253.68C214.78,254.44 216.72,254.95 218.53,255.52C220.63,256.19 223.09,256.76 225.43,257.36C227.84,257.98 230.42,258.57 232.8,259.2C235.05,259.8 237.32,260.39 239.35,261.05C241.15,261.63 242.89,262.22 244.37,262.89Q245.62,263.46 247.72,264.73L251.5,264.73" style="vector-effect: none; stroke-width: 2px; stroke: rgb(255, 255, 0); stroke-opacity: 1; fill: rgb(255, 255, 0); fill-opacity: 0.5;"/><path class="meanline" d="M227.53421020507812,244.5H251.5" style="fill: none; vector-effect: none; stroke-width: 2px; stroke-dasharray: 4px, 2px; stroke: rgb(255, 255, 0); stroke-opacity: 1;"/><g class="points"><path class="point" transform="translate(199.8,253.5)" d="M3,0A3,3 0 1,1 0,-3A3,3 0 0,1 3,0Z" style="opacity: 1; stroke-width: 0px; fill: rgb(255, 255, 0); fill-opacity: 1;"/><path class="point" transform="translate(190.58,253.5)" d="M3,0A3,3 0 1,1 0,-3A3,3 0 0,1 3,0Z" style="opacity: 1; stroke-width: 0px; fill: rgb(255, 255, 0); fill-opacity: 1;"/><path class="point" transform="translate(201.85,253.5)" d="M3,0A3,3 0 1,1 0,-3A3,3 0 0,1 3,0Z" style="opacity: 1; stroke-width: 0px; fill: rgb(255, 255, 0); fill-opacity: 1;"/><path class="point" transform="translate(188.92,253.5)" d="M3,0A3,3 0 1,1 0,-3A3,3 0 0,1 3,0Z" style="opacity: 1; stroke-width: 0px; fill: rgb(255, 255, 0); fill-opacity: 1;"/><path class="point" transform="translate(193.7,253.5)" d="M3,0A3,3 0 1,1 0,-3A3,3 0 0,1 3,0Z" style="opacity: 1; stroke-width: 0px; fill: rgb(255, 255, 0); fill-opacity: 1;"/><path class="point" transform="translate(199.85,253.5)" d="M3,0A3,3 0 1,1 0,-3A3,3 0 0,1 3,0Z" style="opacity: 1; stroke-width: 0px; fill: rgb(255, 255, 0); fill-opacity: 1;"/><path class="point" transform="translate(195.37,253.5)" d="M3,0A3,3 0 1,1 0,-3A3,3 0 0,1 3,0Z" style="opacity: 1; stroke-width: 0px; fill: rgb(255, 255, 0); fill-opacity: 1;"/><path class="point" transform="translate(197.98,253.5)" d="M3,0A3,3 0 1,1 0,-3A3,3 0 0,1 3,0Z" style="opacity: 1; stroke-width: 0px; fill: rgb(255, 255, 0); fill-opacity: 1;"/><path class="point" transform="translate(193.12,253.5)" d="M3,0A3,3 0 1,1 0,-3A3,3 0 0,1 3,0Z" style="opacity: 1; stroke-width: 0px; fill: rgb(255, 255, 0); fill-opacity: 1;"/><path class="point" transform="translate(189.82,253.5)" d="M3,0A3,3 0 1,1 0,-3A3,3 0 0,1 3,0Z" style="opacity: 1; stroke-width: 0px; fill: rgb(255, 255, 0); fill-opacity: 1;"/><path class="point" transform="translate(197.57,253.5)" d="M3,0A3,3 0 1,1 0,-3A3,3 0 0,1 3,0Z" style="opacity: 1; stroke-width: 0px; fill: rgb(255, 255, 0); fill-opacity: 1;"/><path class="point" transform="translate(193.31,253.5)" d="M3,0A3,3 0 1,1 0,-3A3,3 0 0,1 3,0Z" style="opacity: 1; stroke-width: 0px; fill: rgb(255, 255, 0); fill-opacity: 1;"/><path class="point" transform="translate(200.19,253.5)" d="M3,0A3,3 0 1,1 0,-3A3,3 0 0,1 3,0Z" style="opacity: 1; stroke-width: 0px; fill: rgb(255, 255, 0); fill-opacity: 1;"/><path class="point" transform="translate(188.72,253.5)" d="M3,0A3,3 0 1,1 0,-3A3,3 0 0,1 3,0Z" style="opacity: 1; stroke-width: 0px; fill: rgb(255, 255, 0); fill-opacity: 1;"/><path class="point" transform="translate(191.53,253.5)" d="M3,0A3,3 0 1,1 0,-3A3,3 0 0,1 3,0Z" style="opacity: 1; stroke-width: 0px; fill: rgb(255, 255, 0); fill-opacity: 1;"/><path class="point" transform="translate(201.97,251.61)" d="M3,0A3,3 0 1,1 0,-3A3,3 0 0,1 3,0Z" style="opacity: 1; stroke-width: 0px; fill: rgb(255, 255, 0); fill-opacity: 1;"/><path class="point" transform="translate(194.4,251.61)" d="M3,0A3,3 0 1,1 0,-3A3,3 0 0,1 3,0Z" style="opacity: 1; stroke-width: 0px; fill: rgb(255, 255, 0); fill-opacity: 1;"/><path class="point" transform="translate(191.33,251.61)" d="M3,0A3,3 0 1,1 0,-3A3,3 0 0,1 3,0Z" style="opacity: 1; stroke-width: 0px; fill: rgb(255, 255, 0); fill-opacity: 1;"/><path class="point" transform="translate(193.99,251.61)" d="M3,0A3,3 0 1,1 0,-3A3,3 0 0,1 3,0Z" style="opacity: 1; stroke-width: 0px; fill: rgb(255, 255, 0); fill-opacity: 1;"/><path class="point" transform="translate(195.55,251.61)" d="M3,0A3,3 0 1,1 0,-3A3,3 0 0,1 3,0Z" style="opacity: 1; stroke-width: 0px; fill: rgb(255, 255, 0); fill-opacity: 1;"/><path class="point" transform="translate(197.93,251.61)" d="M3,0A3,3 0 1,1 0,-3A3,3 0 0,1 3,0Z" style="opacity: 1; stroke-width: 0px; fill: rgb(255, 255, 0); fill-opacity: 1;"/><path class="point" transform="translate(196.12,249.72)" d="M3,0A3,3 0 1,1 0,-3A3,3 0 0,1 3,0Z" style="opacity: 1; stroke-width: 0px; fill: rgb(255, 255, 0); fill-opacity: 1;"/><path class="point" transform="translate(194.5,249.72)" d="M3,0A3,3 0 1,1 0,-3A3,3 0 0,1 3,0Z" style="opacity: 1; stroke-width: 0px; fill: rgb(255, 255, 0); fill-opacity: 1;"/><path class="point" transform="translate(192.22,249.72)" d="M3,0A3,3 0 1,1 0,-3A3,3 0 0,1 3,0Z" style="opacity: 1; stroke-width: 0px; fill: rgb(255, 255, 0); fill-opacity: 1;"/><path class="point" transform="translate(195.65,249.72)" d="M3,0A3,3 0 1,1 0,-3A3,3 0 0,1 3,0Z" style="opacity: 1; stroke-width: 0px; fill: rgb(255, 255, 0); fill-opacity: 1;"/><path class="point" transform="translate(194.87,247.83)" d="M3,0A3,3 0 1,1 0,-3A3,3 0 0,1 3,0Z" style="opacity: 1; stroke-width: 0px; fill: rgb(255, 255, 0); fill-opacity: 1;"/><path class="point" transform="translate(197.02,245.94)" d="M3,0A3,3 0 1,1 0,-3A3,3 0 0,1 3,0Z" style="opacity: 1; stroke-width: 0px; fill: rgb(255, 255, 0); fill-opacity: 1;"/><path class="point" transform="translate(195.42,245.94)" d="M3,0A3,3 0 1,1 0,-3A3,3 0 0,1 3,0Z" style="opacity: 1; stroke-width: 0px; fill: rgb(255, 255, 0); fill-opacity: 1;"/><path class="point" transform="translate(194.01,245.94)" d="M3,0A3,3 0 1,1 0,-3A3,3 0 0,1 3,0Z" style="opacity: 1; stroke-width: 0px; fill: rgb(255, 255, 0); fill-opacity: 1;"/><path class="point" transform="translate(193.44,242.16)" d="M3,0A3,3 0 1,1 0,-3A3,3 0 0,1 3,0Z" style="opacity: 1; stroke-width: 0px; fill: rgb(255, 255, 0); fill-opacity: 1;"/><path class="point" transform="translate(197.09,238.39)" d="M3,0A3,3 0 1,1 0,-3A3,3 0 0,1 3,0Z" style="opacity: 1; stroke-width: 0px; fill: rgb(255, 255, 0); fill-opacity: 1;"/><path class="point" transform="translate(193.36,238.39)" d="M3,0A3,3 0 1,1 0,-3A3,3 0 0,1 3,0Z" style="opacity: 1; stroke-width: 0px; fill: rgb(255, 255, 0); fill-opacity: 1;"/><path class="point" transform="translate(197.16,236.5)" d="M3,0A3,3 0 1,1 0,-3A3,3 0 0,1 3,0Z" style="opacity: 1; stroke-width: 0px; fill: rgb(255, 255, 0); fill-opacity: 1;"/><path class="point" transform="translate(196.18,234.61)" d="M3,0A3,3 0 1,1 0,-3A3,3 0 0,1 3,0Z" style="opacity: 1; stroke-width: 0px; fill: rgb(255, 255, 0); fill-opacity: 1;"/><path class="point" transform="translate(195.02,232.72)" d="M3,0A3,3 0 1,1 0,-3A3,3 0 0,1 3,0Z" style="opacity: 1; stroke-width: 0px; fill: rgb(255, 255, 0); fill-opacity: 1;"/><path class="point" transform="translate(194.57,232.72)" d="M3,0A3,3 0 1,1 0,-3A3,3 0 0,1 3,0Z" style="opacity: 1; stroke-width: 0px; fill: rgb(255, 255, 0); fill-opacity: 1;"/><path class="point" transform="translate(196.32,232.72)" d="M3,0A3,3 0 1,1 0,-3A3,3 0 0,1 3,0Z" style="opacity: 1; stroke-width: 0px; fill: rgb(255, 255, 0); fill-opacity: 1;"/><path class="point" transform="translate(195.51,230.83)" d="M3,0A3,3 0 1,1 0,-3A3,3 0 0,1 3,0Z" style="opacity: 1; stroke-width: 0px; fill: rgb(255, 255, 0); fill-opacity: 1;"/><path class="point" transform="translate(196.6,228.94)" d="M3,0A3,3 0 1,1 0,-3A3,3 0 0,1 3,0Z" style="opacity: 1; stroke-width: 0px; fill: rgb(255, 255, 0); fill-opacity: 1;"/><path class="point" transform="translate(194.57,221.39)" d="M3,0A3,3 0 1,1 0,-3A3,3 0 0,1 3,0Z" style="opacity: 1; stroke-width: 0px; fill: rgb(255, 255, 0); fill-opacity: 1;"/><path class="point" transform="translate(196.43,210.05)" d="M3,0A3,3 0 1,1 0,-3A3,3 0 0,1 3,0Z" style="opacity: 1; stroke-width: 0px; fill: rgb(255, 255, 0); fill-opacity: 1;"/><path class="point" transform="translate(195.57,193.05)" d="M3,0A3,3 0 1,1 0,-3A3,3 0 0,1 3,0Z" style="opacity: 1; stroke-width: 0px; fill: rgb(255, 255, 0); fill-opacity: 1;"/></g></g><g class="trace violins" style="opacity: 1;"><path class="violin" d="M251.5,253.95L256.9,253.95Q259.8,253.9 261.45,253.88C263.41,253.85 265.65,253.83 267.9,253.8C270.37,253.77 273.1,253.75 275.69,253.72C278.28,253.7 281.04,253.68 283.44,253.65C285.51,253.63 287.77,253.6 289.23,253.57C290.12,253.55 291.38,253.52 291.38,253.5C291.38,253.47 290.12,253.44 289.23,253.42C287.77,253.38 285.51,253.37 283.44,253.35C281.04,253.32 278.28,253.29 275.69,253.27C273.1,253.24 270.37,253.23 267.9,253.2C265.65,253.18 263.41,253.15 261.45,253.12C259.8,253.1 258.23,253.07 256.9,253.04C255.86,253.02 254.9,253 254.12,252.97C253.55,252.95 253.04,252.92 252.64,252.89C252.36,252.87 252.12,252.85 251.94,252.82C251.82,252.8 251.72,252.77 251.65,252.74C251.61,252.72 251.57,252.7 251.55,252.67C251.53,252.65 251.52,252.62 251.51,252.59C251.5,252.57 251.5,252.54 251.5,252.52C251.5,252.49 251.5,252.47 251.5,252.44C251.5,252.41 251.5,252.39 251.5,252.36C251.5,252.34 251.5,252.31 251.5,252.29C251.5,252.26 251.5,252.24 251.5,252.21C251.5,252.19 251.5,252.16 251.5,252.14C251.5,252.11 251.5,252.09 251.5,252.06C251.5,252.04 251.5,252.01 251.5,251.99C251.5,251.96 251.5,251.94 251.5,251.91C251.5,251.89 251.5,251.86 251.5,251.84C251.5,251.81 251.5,251.79 251.5,251.76C251.5,251.73 251.5,251.71 251.5,251.68C251.5,251.66 251.5,251.63 251.5,251.61C251.5,251.58 251.5,251.56 251.5,251.53C251.5,251.51 251.5,251.48 251.5,251.46C251.5,251.43 251.5,251.41 251.5,251.38C251.5,251.36 251.5,251.33 251.5,251.31C251.5,251.28 251.5,251.26 251.5,251.23C251.5,251.21 251.5,251.18 251.5,251.16C251.5,251.13 251.5,251.11 251.5,251.08C251.5,251.05 251.5,251.03 251.5,251C251.5,250.98 251.5,250.95 251.5,250.93C251.5,250.9 251.5,250.88 251.5,250.85C251.5,250.83 251.5,250.8 251.5,250.78C251.5,250.75 251.5,250.73 251.5,250.7C251.5,250.68 251.5,250.65 251.5,250.63C251.5,250.6 251.5,250.58 251.5,250.55C251.5,250.53 251.5,250.5 251.5,250.48C251.5,250.45 251.51,250.43 251.51,250.4C251.52,250.37 251.52,250.35 251.53,250.32C251.54,250.3 251.55,250.27 251.57,250.25C251.59,250.22 251.61,250.19 251.64,250.17C251.67,250.14 251.72,250.12 251.76,250.1C251.81,250.07 251.86,250.04 251.92,250.02C251.98,249.99 252.05,249.97 252.12,249.95C252.19,249.92 252.26,249.9 252.32,249.87C252.37,249.85 252.44,249.83 252.47,249.8C252.5,249.78 252.52,249.75 252.52,249.72C252.52,249.69 252.5,249.66 252.47,249.64C252.44,249.61 252.37,249.59 252.32,249.57C252.26,249.54 252.19,249.52 252.12,249.49C252.05,249.47 251.98,249.45 251.92,249.42C251.86,249.4 251.81,249.37 251.76,249.34C251.72,249.32 251.67,249.3 251.64,249.27C251.61,249.25 251.59,249.22 251.57,249.19C251.55,249.17 251.54,249.14 251.53,249.12C251.52,249.09 251.52,249.07 251.51,249.04C251.51,249.01 251.5,248.99 251.5,248.96C251.5,248.94 251.5,248.91 251.5,248.89C251.5,248.86 251.5,248.84 251.5,248.81C251.5,248.79 251.5,248.76 251.5,248.74C251.5,248.71 251.5,248.69 251.5,248.66C251.5,248.64 251.5,248.61 251.5,248.59C251.5,248.56 251.5,248.54 251.5,248.51C251.5,248.49 251.5,248.46 251.5,248.44C251.5,248.41 251.5,248.39 251.5,248.36C251.5,248.33 251.5,248.31 251.5,248.28C251.5,248.26 251.5,248.23 251.5,248.21C251.5,248.18 251.5,248.16 251.5,248.13C251.5,248.11 251.5,248.08 251.5,248.06C251.5,248.03 251.5,248.01 251.5,247.98C251.5,247.96 251.5,247.93 251.5,247.91C251.5,247.88 251.5,247.86 251.5,247.83C251.5,247.81 251.5,247.78 251.5,247.76C251.5,247.73 251.5,247.71 251.5,247.68C251.5,247.65 251.5,247.63 251.5,247.6C251.5,247.58 251.5,247.55 251.5,247.53C251.5,247.5 251.5,247.48 251.5,247.45C251.5,247.43 251.5,247.4 251.5,247.38C251.5,247.35 251.5,247.33 251.5,247.3C251.5,247.28 251.5,247.25 251.5,247.23C251.5,247.2 251.5,247.18 251.5,247.15C251.5,247.13 251.5,247.1 251.5,247.08C251.5,247.05 251.5,247.03 251.5,247C251.5,246.97 251.5,246.95 251.5,246.92C251.5,246.9 251.5,246.87 251.5,246.85C251.5,246.82 251.5,246.8 251.5,246.77C251.5,246.75 251.5,246.72 251.5,246.7C251.5,246.67 251.5,246.65 251.51,246.62C251.51,246.6 251.52,246.57 251.53,246.55C251.54,246.52 251.55,246.49 251.57,246.47C251.59,246.44 251.61,246.42 251.64,246.4C251.67,246.37 251.72,246.35 251.76,246.32C251.81,246.29 251.86,246.26 251.92,246.24C251.98,246.21 252.05,246.19 252.12,246.17C252.19,246.14 252.26,246.12 252.32,246.09C252.37,246.07 252.44,246.05 252.47,246.02C252.5,246 252.52,245.97 252.52,245.94C252.52,245.92 252.49,245.89 252.47,245.87C252.44,245.84 252.37,245.81 252.32,245.79C252.26,245.76 252.19,245.74 252.12,245.72C252.05,245.69 251.98,245.67 251.92,245.64C251.86,245.61 251.81,245.59 251.76,245.56C251.72,245.54 251.67,245.52 251.64,245.49C251.61,245.47 251.59,245.44 251.57,245.41C251.55,245.39 251.54,245.36 251.53,245.34C251.52,245.31 251.52,245.29 251.51,245.26C251.51,245.24 251.5,245.21 251.5,245.19C251.5,245.16 251.5,245.14 251.5,245.11C251.5,245.09 251.5,245.06 251.5,245.04C251.5,245.01 251.5,244.99 251.5,244.96C251.5,244.93 251.5,244.91 251.5,244.88C251.5,244.86 251.5,244.83 251.5,244.81C251.5,244.78 251.5,244.76 251.51,244.73C251.51,244.71 251.52,244.68 251.53,244.66C251.54,244.63 251.55,244.6 251.57,244.58C251.59,244.55 251.61,244.53 251.64,244.51C251.67,244.48 251.72,244.45 251.76,244.43C251.81,244.4 251.86,244.38 251.92,244.36C251.98,244.33 252.05,244.31 252.12,244.28C252.19,244.25 252.26,244.23 252.32,244.2C252.37,244.18 252.44,244.16 252.47,244.13C252.5,244.11 252.52,244.08 252.52,244.05C252.52,244.03 252.49,244 252.47,243.98C252.44,243.95 252.37,243.92 252.32,243.9C252.26,243.87 252.19,243.85 252.12,243.83C252.05,243.8 251.98,243.78 251.92,243.75C251.86,243.73 251.81,243.71 251.76,243.68C251.72,243.66 251.67,243.63 251.64,243.6C251.61,243.58 251.59,243.55 251.57,243.52C251.55,243.5 251.54,243.47 251.53,243.45C251.52,243.42 251.52,243.4 251.51,243.37C251.51,243.35 251.5,243.32 251.5,243.3C251.5,243.27 251.5,243.25 251.5,243.22C251.5,243.2 251.5,243.17 251.5,243.15C251.5,243.12 251.5,243.1 251.5,243.07C251.5,243.05 251.5,243.02 251.5,243C251.5,242.97 251.5,242.95 251.5,242.92C251.5,242.89 251.5,242.87 251.5,242.84C251.5,242.82 251.5,242.79 251.5,242.77C251.5,242.74 251.5,242.72 251.5,242.69C251.5,242.67 251.5,242.64 251.5,242.62C251.5,242.59 251.5,242.57 251.5,242.54C251.5,242.52 251.5,242.49 251.5,242.47C251.5,242.44 251.5,242.42 251.5,242.39C251.5,242.37 251.5,242.34 251.5,242.32C251.5,242.29 251.5,242.27 251.5,242.24C251.5,242.21 251.5,242.19 251.5,242.16C251.5,242.14 251.5,242.11 251.5,242.09C251.5,242.06 251.5,242.04 251.5,242.01C251.5,241.99 251.5,241.96 251.5,241.94C251.5,241.91 251.5,241.89 251.5,241.86C251.5,241.84 251.5,241.81 251.5,241.79C251.5,241.76 251.5,241.74 251.5,241.71C251.5,241.69 251.5,241.66 251.5,241.64C251.5,241.61 251.5,241.59 251.5,241.56C251.5,241.53 251.5,241.51 251.5,241.48C251.5,241.46 251.5,241.43 251.5,241.41C251.5,241.38 251.5,241.36 251.5,241.33C251.5,241.31 251.5,241.28 251.5,241.26C251.5,241.23 251.5,241.21 251.5,241.18C251.5,241.16 251.5,241.13 251.5,241.11C251.5,241.08 251.5,241.06 251.5,241.03C251.5,241.01 251.5,240.98 251.5,240.96C251.5,240.93 251.5,240.91 251.5,240.88C251.5,240.85 251.5,240.83 251.5,240.8C251.5,240.78 251.5,240.75 251.5,240.73C251.5,240.7 251.5,240.68 251.5,240.65C251.5,240.63 251.5,240.6 251.5,240.58C251.5,240.55 251.5,240.53 251.5,240.5C251.5,240.48 251.5,240.45 251.5,240.43C251.5,240.4 251.5,240.38 251.5,240.35C251.5,240.33 251.5,240.3 251.5,240.28C251.5,240.25 251.5,240.23 251.5,240.2C251.5,240.17 251.5,240.15 251.5,240.12C251.5,240.1 251.5,240.07 251.5,240.05C251.5,240.02 251.5,240 251.5,239.97C251.5,239.95 251.5,239.92 251.5,239.9C251.5,239.87 251.5,239.85 251.5,239.82C251.5,239.8 251.5,239.77 251.5,239.75C251.5,239.72 251.5,239.7 251.5,239.67C251.5,239.65 251.5,239.62 251.5,239.6C251.5,239.57 251.5,239.55 251.5,239.52C251.5,239.49 251.5,239.47 251.5,239.44C251.5,239.42 251.5,239.39 251.5,239.37C251.5,239.34 251.5,239.32 251.5,239.29C251.5,239.27 251.5,239.24 251.5,239.22C251.5,239.19 251.5,239.17 251.5,239.14C251.5,239.12 251.5,239.09 251.5,239.07C251.5,239.04 251.5,239.02 251.5,238.99C251.5,238.97 251.5,238.94 251.5,238.92C251.5,238.89 251.5,238.87 251.5,238.84C251.5,238.81 251.5,238.79 251.5,238.76C251.5,238.74 251.5,238.71 251.5,238.69C251.5,238.66 251.5,238.64 251.5,238.61C251.5,238.59 251.5,238.56 251.5,238.54C251.5,238.51 251.5,238.49 251.5,238.46C251.5,238.44 251.5,238.41 251.5,238.39C251.5,238.36 251.5,238.34 251.5,238.31C251.5,238.29 251.5,238.26 251.5,238.24C251.5,238.21 251.5,238.19 251.5,238.16C251.5,238.13 251.5,238.11 251.5,238.08C251.5,238.06 251.5,238.03 251.5,238.01C251.5,237.98 251.5,237.96 251.5,237.93C251.5,237.91 251.5,237.88 251.5,237.86C251.5,237.83 251.5,237.81 251.5,237.78C251.5,237.76 251.5,237.73 251.5,237.71C251.5,237.68 251.5,237.66 251.5,237.63C251.5,237.61 251.5,237.58 251.5,237.56C251.5,237.53 251.5,237.51 251.5,237.48C251.5,237.45 251.5,237.43 251.5,237.4C251.5,237.38 251.5,237.35 251.5,237.33C251.5,237.3 251.5,237.28 251.5,237.25C251.5,237.23 251.5,237.2 251.5,237.18C251.5,237.15 251.5,237.13 251.5,237.1C251.5,237.08 251.5,237.05 251.5,237.03C251.5,237 251.5,236.98 251.5,236.95C251.5,236.93 251.5,236.9 251.5,236.88C251.5,236.85 251.5,236.83 251.5,236.8C251.5,236.77 251.5,236.75 251.5,236.72C251.5,236.7 251.5,236.67 251.5,236.65C251.5,236.62 251.5,236.6 251.5,236.57C251.5,236.55 251.5,236.52 251.5,236.5C251.5,236.47 251.5,236.45 251.5,236.42C251.5,236.4 251.5,236.37 251.5,236.35C251.5,236.32 251.5,236.3 251.5,236.27C251.5,236.25 251.5,236.22 251.5,236.2C251.5,236.17 251.5,236.15 251.5,236.12C251.5,236.09 251.5,236.07 251.5,236.04C251.5,236.02 251.5,235.99 251.5,235.97C251.5,235.94 251.5,235.92 251.5,235.89C251.5,235.87 251.5,235.84 251.5,235.82C251.5,235.79 251.5,235.77 251.5,235.74C251.5,235.72 251.5,235.69 251.5,235.67C251.5,235.64 251.5,235.62 251.5,235.59C251.5,235.57 251.5,235.54 251.5,235.52C251.5,235.49 251.5,235.47 251.5,235.44C251.5,235.41 251.5,235.39 251.5,235.36C251.5,235.34 251.5,235.31 251.5,235.29C251.5,235.26 251.5,235.24 251.5,235.21C251.5,235.19 251.5,235.16 251.5,235.14C251.5,235.11 251.5,235.09 251.5,235.06C251.5,235.04 251.5,235.01 251.5,234.99C251.5,234.96 251.5,234.94 251.5,234.91C251.5,234.89 251.5,234.86 251.5,234.84C251.5,234.81 251.5,234.79 251.5,234.76C251.5,234.73 251.5,234.71 251.5,234.68C251.5,234.66 251.5,234.63 251.5,234.61C251.5,234.58 251.5,234.56 251.5,234.53C251.5,234.51 251.5,234.48 251.5,234.46C251.5,234.43 251.5,234.41 251.5,234.38C251.5,234.36 251.5,234.33 251.5,234.31C251.5,234.28 251.5,234.26 251.5,234.23C251.5,234.21 251.5,234.18 251.5,234.16C251.5,234.13 251.5,234.11 251.5,234.08C251.5,234.05 251.5,234.03 251.5,234C251.5,233.98 251.5,233.95 251.5,233.93C251.5,233.9 251.5,233.88 251.5,233.85C251.5,233.83 251.5,233.8 251.5,233.78C251.5,233.75 251.5,233.73 251.5,233.7C251.5,233.68 251.5,233.65 251.5,233.63C251.5,233.6 251.5,233.58 251.5,233.55C251.5,233.53 251.5,233.5 251.5,233.48C251.5,233.45 251.5,233.43 251.5,233.4C251.5,233.37 251.5,233.35 251.5,233.32C251.5,233.3 251.5,233.27 251.5,233.25C251.5,233.22 251.5,233.2 251.5,233.17C251.5,233.15 251.5,233.12 251.5,233.1C251.5,233.07 251.5,233.05 251.5,233.02C251.5,233 251.5,232.97 251.5,232.95C251.5,232.92 251.5,232.9 251.5,232.87C251.5,232.85 251.5,232.82 251.5,232.8C251.5,232.77 251.5,232.75 251.5,232.72C251.5,232.7 251.5,232.67 251.5,232.65C251.5,232.62 251.5,232.6 251.5,232.57C251.5,232.54 251.5,232.52 251.5,232.49C251.5,232.47 251.5,232.44 251.5,232.42C251.5,232.39 251.5,232.37 251.5,232.34C251.5,232.32 251.5,232.29 251.5,232.27C251.5,232.24 251.5,232.22 251.5,232.19C251.5,232.17 251.5,232.14 251.5,232.12C251.5,232.09 251.5,232.07 251.5,232.04C251.5,232.02 251.5,231.99 251.5,231.97C251.5,231.94 251.5,231.92 251.5,231.89C251.5,231.86 251.5,231.84 251.5,231.81C251.5,231.79 251.5,231.76 251.5,231.74C251.5,231.71 251.5,231.69 251.5,231.66C251.5,231.64 251.5,231.61 251.5,231.59C251.5,231.56 251.5,231.54 251.51,231.51C251.51,231.49 251.52,231.46 251.53,231.44C251.54,231.41 251.55,231.38 251.57,231.36C251.59,231.33 251.61,231.31 251.64,231.29C251.67,231.26 251.72,231.24 251.76,231.21C251.81,231.18 251.86,231.15 251.92,231.13C251.98,231.1 252.05,231.08 252.12,231.06C252.19,231.03 252.26,231.01 252.32,230.98C252.37,230.96 252.44,230.94 252.47,230.91C252.5,230.89 252.52,230.86 252.52,230.83C252.52,230.81 252.49,230.78 252.47,230.76C252.44,230.73 252.37,230.7 252.32,230.68C252.26,230.65 252.19,230.63 252.12,230.61C252.05,230.58 251.98,230.56 251.92,230.53C251.86,230.5 251.81,230.48 251.76,230.45Q251.72,230.43 251.64,230.38L251.5,230.38" style="vector-effect: none; stroke-width: 2px; stroke: rgb(255, 165, 0); stroke-opacity: 1; fill: rgb(255, 165, 0); fill-opacity: 0.5;"/><path class="meanline" d="M251.5,252.49H251.5" style="fill: none; vector-effect: none; stroke-width: 2px; stroke-dasharray: 4px, 2px; stroke: rgb(255, 165, 0); stroke-opacity: 1;"/><g class="points"><path class="point" transform="translate(311.48,253.5)" d="M3,0A3,3 0 1,1 0,-3A3,3 0 0,1 3,0Z" style="opacity: 1; stroke-width: 0px; fill: rgb(255, 165, 0); fill-opacity: 1;"/><path class="point" transform="translate(302.25,253.5)" d="M3,0A3,3 0 1,1 0,-3A3,3 0 0,1 3,0Z" style="opacity: 1; stroke-width: 0px; fill: rgb(255, 165, 0); fill-opacity: 1;"/><path class="point" transform="translate(313.52,253.5)" d="M3,0A3,3 0 1,1 0,-3A3,3 0 0,1 3,0Z" style="opacity: 1; stroke-width: 0px; fill: rgb(255, 165, 0); fill-opacity: 1;"/><path class="point" transform="translate(300.59,253.5)" d="M3,0A3,3 0 1,1 0,-3A3,3 0 0,1 3,0Z" style="opacity: 1; stroke-width: 0px; fill: rgb(255, 165, 0); fill-opacity: 1;"/><path class="point" transform="translate(305.37,253.5)" d="M3,0A3,3 0 1,1 0,-3A3,3 0 0,1 3,0Z" style="opacity: 1; stroke-width: 0px; fill: rgb(255, 165, 0); fill-opacity: 1;"/><path class="point" transform="translate(311.53,253.5)" d="M3,0A3,3 0 1,1 0,-3A3,3 0 0,1 3,0Z" style="opacity: 1; stroke-width: 0px; fill: rgb(255, 165, 0); fill-opacity: 1;"/><path class="point" transform="translate(307.04,253.5)" d="M3,0A3,3 0 1,1 0,-3A3,3 0 0,1 3,0Z" style="opacity: 1; stroke-width: 0px; fill: rgb(255, 165, 0); fill-opacity: 1;"/><path class="point" transform="translate(309.65,253.5)" d="M3,0A3,3 0 1,1 0,-3A3,3 0 0,1 3,0Z" style="opacity: 1; stroke-width: 0px; fill: rgb(255, 165, 0); fill-opacity: 1;"/><path class="point" transform="translate(304.79,253.5)" d="M3,0A3,3 0 1,1 0,-3A3,3 0 0,1 3,0Z" style="opacity: 1; stroke-width: 0px; fill: rgb(255, 165, 0); fill-opacity: 1;"/><path class="point" transform="translate(301.49,253.5)" d="M3,0A3,3 0 1,1 0,-3A3,3 0 0,1 3,0Z" style="opacity: 1; stroke-width: 0px; fill: rgb(255, 165, 0); fill-opacity: 1;"/><path class="point" transform="translate(309.47,253.5)" d="M3,0A3,3 0 1,1 0,-3A3,3 0 0,1 3,0Z" style="opacity: 1; stroke-width: 0px; fill: rgb(255, 165, 0); fill-opacity: 1;"/><path class="point" transform="translate(304.71,253.5)" d="M3,0A3,3 0 1,1 0,-3A3,3 0 0,1 3,0Z" style="opacity: 1; stroke-width: 0px; fill: rgb(255, 165, 0); fill-opacity: 1;"/><path class="point" transform="translate(312.39,253.5)" d="M3,0A3,3 0 1,1 0,-3A3,3 0 0,1 3,0Z" style="opacity: 1; stroke-width: 0px; fill: rgb(255, 165, 0); fill-opacity: 1;"/><path class="point" transform="translate(299.57,253.5)" d="M3,0A3,3 0 1,1 0,-3A3,3 0 0,1 3,0Z" style="opacity: 1; stroke-width: 0px; fill: rgb(255, 165, 0); fill-opacity: 1;"/><path class="point" transform="translate(302.72,253.5)" d="M3,0A3,3 0 1,1 0,-3A3,3 0 0,1 3,0Z" style="opacity: 1; stroke-width: 0px; fill: rgb(255, 165, 0); fill-opacity: 1;"/><path class="point" transform="translate(314.39,253.5)" d="M3,0A3,3 0 1,1 0,-3A3,3 0 0,1 3,0Z" style="opacity: 1; stroke-width: 0px; fill: rgb(255, 165, 0); fill-opacity: 1;"/><path class="point" transform="translate(305.34,253.5)" d="M3,0A3,3 0 1,1 0,-3A3,3 0 0,1 3,0Z" style="opacity: 1; stroke-width: 0px; fill: rgb(255, 165, 0); fill-opacity: 1;"/><path class="point" transform="translate(300.49,253.5)" d="M3,0A3,3 0 1,1 0,-3A3,3 0 0,1 3,0Z" style="opacity: 1; stroke-width: 0px; fill: rgb(255, 165, 0); fill-opacity: 1;"/><path class="point" transform="translate(304.7,253.5)" d="M3,0A3,3 0 1,1 0,-3A3,3 0 0,1 3,0Z" style="opacity: 1; stroke-width: 0px; fill: rgb(255, 165, 0); fill-opacity: 1;"/><path class="point" transform="translate(307.17,253.5)" d="M3,0A3,3 0 1,1 0,-3A3,3 0 0,1 3,0Z" style="opacity: 1; stroke-width: 0px; fill: rgb(255, 165, 0); fill-opacity: 1;"/><path class="point" transform="translate(310.93,253.5)" d="M3,0A3,3 0 1,1 0,-3A3,3 0 0,1 3,0Z" style="opacity: 1; stroke-width: 0px; fill: rgb(255, 165, 0); fill-opacity: 1;"/><path class="point" transform="translate(308.22,253.5)" d="M3,0A3,3 0 1,1 0,-3A3,3 0 0,1 3,0Z" style="opacity: 1; stroke-width: 0px; fill: rgb(255, 165, 0); fill-opacity: 1;"/><path class="point" transform="translate(305.09,253.5)" d="M3,0A3,3 0 1,1 0,-3A3,3 0 0,1 3,0Z" style="opacity: 1; stroke-width: 0px; fill: rgb(255, 165, 0); fill-opacity: 1;"/><path class="point" transform="translate(300.67,253.5)" d="M3,0A3,3 0 1,1 0,-3A3,3 0 0,1 3,0Z" style="opacity: 1; stroke-width: 0px; fill: rgb(255, 165, 0); fill-opacity: 1;"/><path class="point" transform="translate(307.31,253.5)" d="M3,0A3,3 0 1,1 0,-3A3,3 0 0,1 3,0Z" style="opacity: 1; stroke-width: 0px; fill: rgb(255, 165, 0); fill-opacity: 1;"/><path class="point" transform="translate(305.01,253.5)" d="M3,0A3,3 0 1,1 0,-3A3,3 0 0,1 3,0Z" style="opacity: 1; stroke-width: 0px; fill: rgb(255, 165, 0); fill-opacity: 1;"/><path class="point" transform="translate(311.05,253.5)" d="M3,0A3,3 0 1,1 0,-3A3,3 0 0,1 3,0Z" style="opacity: 1; stroke-width: 0px; fill: rgb(255, 165, 0); fill-opacity: 1;"/><path class="point" transform="translate(306.63,253.5)" d="M3,0A3,3 0 1,1 0,-3A3,3 0 0,1 3,0Z" style="opacity: 1; stroke-width: 0px; fill: rgb(255, 165, 0); fill-opacity: 1;"/><path class="point" transform="translate(302.12,253.5)" d="M3,0A3,3 0 1,1 0,-3A3,3 0 0,1 3,0Z" style="opacity: 1; stroke-width: 0px; fill: rgb(255, 165, 0); fill-opacity: 1;"/><path class="point" transform="translate(299.9,253.5)" d="M3,0A3,3 0 1,1 0,-3A3,3 0 0,1 3,0Z" style="opacity: 1; stroke-width: 0px; fill: rgb(255, 165, 0); fill-opacity: 1;"/><path class="point" transform="translate(311.84,253.5)" d="M3,0A3,3 0 1,1 0,-3A3,3 0 0,1 3,0Z" style="opacity: 1; stroke-width: 0px; fill: rgb(255, 165, 0); fill-opacity: 1;"/><path class="point" transform="translate(300.52,253.5)" d="M3,0A3,3 0 1,1 0,-3A3,3 0 0,1 3,0Z" style="opacity: 1; stroke-width: 0px; fill: rgb(255, 165, 0); fill-opacity: 1;"/><path class="point" transform="translate(312.08,253.5)" d="M3,0A3,3 0 1,1 0,-3A3,3 0 0,1 3,0Z" style="opacity: 1; stroke-width: 0px; fill: rgb(255, 165, 0); fill-opacity: 1;"/><path class="point" transform="translate(309.08,253.5)" d="M3,0A3,3 0 1,1 0,-3A3,3 0 0,1 3,0Z" style="opacity: 1; stroke-width: 0px; fill: rgb(255, 165, 0); fill-opacity: 1;"/><path class="point" transform="translate(306.75,253.5)" d="M3,0A3,3 0 1,1 0,-3A3,3 0 0,1 3,0Z" style="opacity: 1; stroke-width: 0px; fill: rgb(255, 165, 0); fill-opacity: 1;"/><path class="point" transform="translate(306.52,253.5)" d="M3,0A3,3 0 1,1 0,-3A3,3 0 0,1 3,0Z" style="opacity: 1; stroke-width: 0px; fill: rgb(255, 165, 0); fill-opacity: 1;"/><path class="point" transform="translate(307.9,253.5)" d="M3,0A3,3 0 1,1 0,-3A3,3 0 0,1 3,0Z" style="opacity: 1; stroke-width: 0px; fill: rgb(255, 165, 0); fill-opacity: 1;"/><path class="point" transform="translate(307.25,253.5)" d="M3,0A3,3 0 1,1 0,-3A3,3 0 0,1 3,0Z" style="opacity: 1; stroke-width: 0px; fill: rgb(255, 165, 0); fill-opacity: 1;"/><path class="point" transform="translate(307.86,253.5)" d="M3,0A3,3 0 1,1 0,-3A3,3 0 0,1 3,0Z" style="opacity: 1; stroke-width: 0px; fill: rgb(255, 165, 0); fill-opacity: 1;"/><path class="point" transform="translate(306.74,249.72)" d="M3,0A3,3 0 1,1 0,-3A3,3 0 0,1 3,0Z" style="opacity: 1; stroke-width: 0px; fill: rgb(255, 165, 0); fill-opacity: 1;"/><path class="point" transform="translate(307.76,245.94)" d="M3,0A3,3 0 1,1 0,-3A3,3 0 0,1 3,0Z" style="opacity: 1; stroke-width: 0px; fill: rgb(255, 165, 0); fill-opacity: 1;"/><path class="point" transform="translate(307.29,244.05)" d="M3,0A3,3 0 1,1 0,-3A3,3 0 0,1 3,0Z" style="opacity: 1; stroke-width: 0px; fill: rgb(255, 165, 0); fill-opacity: 1;"/><path class="point" transform="translate(307.12,230.83)" d="M3,0A3,3 0 1,1 0,-3A3,3 0 0,1 3,0Z" style="opacity: 1; stroke-width: 0px; fill: rgb(255, 165, 0); fill-opacity: 1;"/></g></g><g class="trace violins" style="opacity: 1;"><path class="violin" d="M411.04,251.57L410.9,251.57Q410.83,251.58 410.79,251.58C410.74,251.58 410.69,251.58 410.64,251.58C410.58,251.58 410.51,251.59 410.45,251.59C410.39,251.59 410.32,251.6 410.26,251.6C410.21,251.6 410.16,251.6 410.12,251.6C410.1,251.6 410.06,251.61 410.06,251.61C410.06,251.61 410.09,251.62 410.11,251.62C410.14,251.62 410.2,251.62 410.25,251.62C410.31,251.62 410.38,251.63 410.44,251.63C410.5,251.63 410.57,251.63 410.63,251.63C410.69,251.63 410.74,251.64 410.79,251.64C410.83,251.64 410.87,251.65 410.9,251.65C410.93,251.65 410.95,251.65 410.97,251.65C410.99,251.65 411,251.66 411.01,251.66C411.01,251.66 411.02,251.67 411.02,251.67C411.02,251.67 411.03,251.67 411.03,251.67C411.03,251.67 411.03,251.68 411.03,251.68C411.03,251.68 411.04,251.68 411.04,251.68C411.04,251.68 411.04,251.69 411.04,251.69C411.04,251.69 411.04,251.7 411.04,251.7C411.04,251.7 411.04,251.7 411.04,251.7C411.04,251.7 411.04,251.71 411.04,251.71C411.04,251.71 411.04,251.72 411.04,251.72C411.04,251.72 411.04,251.72 411.04,251.72C411.04,251.72 411.04,251.73 411.04,251.73C411.04,251.73 411.04,251.73 411.04,251.73C411.04,251.73 411.04,251.74 411.04,251.74C411.04,251.74 411.04,251.75 411.04,251.75C411.04,251.75 411.04,251.75 411.04,251.75C411.04,251.75 411.04,251.76 411.04,251.76C411.04,251.76 411.04,251.77 411.04,251.77C411.04,251.77 411.04,251.77 411.04,251.77C411.04,251.77 411.04,251.78 411.04,251.78C411.04,251.78 411.04,251.78 411.04,251.78C411.04,251.78 411.04,251.79 411.04,251.79C411.04,251.79 411.04,251.8 411.04,251.8C411.04,251.8 411.04,251.8 411.04,251.8C411.04,251.8 411.04,251.81 411.04,251.81C411.04,251.81 411.04,251.82 411.04,251.82C411.04,251.82 411.04,251.82 411.04,251.82C411.04,251.82 411.04,251.83 411.04,251.83C411.04,251.83 411.04,251.83 411.04,251.83C411.04,251.83 411.04,251.84 411.04,251.84C411.04,251.84 411.04,251.85 411.04,251.85C411.04,251.85 411.04,251.85 411.04,251.85C411.04,251.85 411.04,251.86 411.04,251.86C411.04,251.86 411.04,251.87 411.04,251.87C411.04,251.87 411.04,251.87 411.04,251.87C411.04,251.87 411.04,251.88 411.04,251.88C411.04,251.88 411.04,251.89 411.04,251.89C411.04,251.89 411.04,251.89 411.04,251.89C411.04,251.89 411.04,251.9 411.04,251.9C411.04,251.9 411.04,251.9 411.04,251.9C411.04,251.9 411.04,251.91 411.04,251.91C411.04,251.91 411.04,251.92 411.04,251.92C411.04,251.92 411.04,251.92 411.04,251.92C411.04,251.92 411.04,251.93 411.04,251.93C411.04,251.93 411.04,251.94 411.04,251.94C411.04,251.94 411.04,251.94 411.04,251.94C411.04,251.94 411.04,251.95 411.04,251.95C411.04,251.95 411.04,251.95 411.04,251.95C411.04,251.95 411.04,251.96 411.04,251.96C411.04,251.96 411.04,251.97 411.04,251.97C411.04,251.97 411.04,251.97 411.04,251.97C411.04,251.97 411.04,251.98 411.04,251.98C411.04,251.98 411.04,251.99 411.04,251.99C411.04,251.99 411.04,251.99 411.04,251.99C411.04,251.99 411.04,252 411.04,252C411.04,252 411.04,252 411.04,252C411.04,252 411.04,252.01 411.04,252.01C411.04,252.01 411.04,252.02 411.04,252.02C411.04,252.02 411.04,252.02 411.04,252.02C411.04,252.02 411.04,252.03 411.04,252.03C411.04,252.03 411.04,252.04 411.04,252.04C411.04,252.04 411.04,252.04 411.04,252.04C411.04,252.04 411.04,252.05 411.04,252.05C411.04,252.05 411.04,252.05 411.04,252.05C411.04,252.05 411.04,252.06 411.04,252.06C411.04,252.06 411.04,252.07 411.04,252.07C411.04,252.07 411.04,252.07 411.04,252.07C411.04,252.07 411.04,252.08 411.04,252.08C411.04,252.08 411.04,252.09 411.04,252.09C411.04,252.09 411.04,252.09 411.04,252.09C411.04,252.09 411.04,252.1 411.04,252.1C411.04,252.1 411.04,252.1 411.04,252.1C411.04,252.1 411.04,252.11 411.04,252.11C411.04,252.11 411.04,252.12 411.04,252.12C411.04,252.12 411.04,252.12 411.04,252.12C411.04,252.12 411.04,252.13 411.04,252.13C411.04,252.13 411.04,252.14 411.04,252.14C411.04,252.14 411.04,252.14 411.04,252.14C411.04,252.14 411.04,252.15 411.04,252.15C411.04,252.15 411.04,252.15 411.04,252.15C411.04,252.15 411.04,252.16 411.04,252.16C411.04,252.16 411.04,252.17 411.04,252.17C411.04,252.17 411.04,252.17 411.04,252.17C411.04,252.17 411.04,252.18 411.04,252.18C411.04,252.18 411.04,252.19 411.04,252.19C411.04,252.19 411.04,252.19 411.04,252.19C411.04,252.19 411.04,252.2 411.04,252.2C411.04,252.2 411.04,252.21 411.04,252.21C411.04,252.21 411.04,252.21 411.04,252.21C411.04,252.21 411.04,252.22 411.04,252.22C411.04,252.22 411.04,252.22 411.04,252.22C411.04,252.22 411.04,252.23 411.04,252.23C411.04,252.23 411.04,252.24 411.04,252.24C411.04,252.24 411.04,252.24 411.04,252.24C411.04,252.24 411.04,252.25 411.04,252.25C411.04,252.25 411.04,252.26 411.04,252.26C411.04,252.26 411.04,252.26 411.04,252.26C411.04,252.26 411.04,252.27 411.04,252.27C411.04,252.27 411.04,252.27 411.04,252.27C411.04,252.27 411.04,252.28 411.04,252.28C411.04,252.28 411.04,252.29 411.04,252.29C411.04,252.29 411.04,252.29 411.04,252.29C411.04,252.29 411.04,252.3 411.04,252.3C411.04,252.3 411.04,252.31 411.04,252.31C411.04,252.31 411.04,252.31 411.04,252.31C411.04,252.31 411.04,252.32 411.04,252.32C411.04,252.32 411.04,252.32 411.04,252.32C411.04,252.32 411.04,252.33 411.04,252.33C411.04,252.33 411.04,252.34 411.04,252.34C411.04,252.34 411.04,252.34 411.04,252.34C411.04,252.34 411.04,252.35 411.04,252.35C411.04,252.35 411.04,252.36 411.04,252.36C411.04,252.36 411.04,252.36 411.04,252.36C411.04,252.36 411.04,252.37 411.04,252.37C411.04,252.37 411.04,252.37 411.04,252.37C411.04,252.37 411.04,252.38 411.04,252.38C411.04,252.38 411.04,252.39 411.04,252.39C411.04,252.39 411.04,252.39 411.04,252.39C411.04,252.39 411.04,252.4 411.04,252.4C411.04,252.4 411.04,252.41 411.04,252.41C411.04,252.41 411.04,252.41 411.04,252.41C411.04,252.41 411.04,252.42 411.04,252.42C411.04,252.42 411.04,252.42 411.04,252.42C411.04,252.42 411.04,252.43 411.04,252.43C411.04,252.43 411.04,252.44 411.04,252.44C411.04,252.44 411.04,252.44 411.04,252.44C411.04,252.44 411.04,252.45 411.04,252.45C411.04,252.45 411.04,252.46 411.04,252.46C411.04,252.46 411.04,252.46 411.04,252.46C411.04,252.46 411.04,252.47 411.04,252.47C411.04,252.47 411.04,252.47 411.04,252.47C411.04,252.47 411.04,252.48 411.04,252.48C411.04,252.48 411.04,252.49 411.04,252.49C411.04,252.49 411.04,252.49 411.04,252.49C411.04,252.49 411.04,252.5 411.04,252.5C411.04,252.5 411.04,252.51 411.04,252.51C411.04,252.51 411.04,252.51 411.04,252.51C411.04,252.51 411.04,252.52 411.04,252.52C411.04,252.52 411.04,252.53 411.04,252.53C411.04,252.53 411.04,252.53 411.04,252.53C411.04,252.53 411.04,252.54 411.04,252.54C411.04,252.54 411.04,252.54 411.04,252.54C411.04,252.54 411.04,252.55 411.04,252.55C411.04,252.55 411.04,252.56 411.04,252.56C411.04,252.56 411.04,252.56 411.04,252.56C411.04,252.56 411.04,252.57 411.04,252.57C411.04,252.57 411.04,252.58 411.04,252.58C411.04,252.58 411.04,252.58 411.04,252.58C411.04,252.58 411.04,252.59 411.04,252.59C411.04,252.59 411.04,252.59 411.04,252.59C411.04,252.59 411.04,252.6 411.04,252.6C411.04,252.6 411.04,252.61 411.04,252.61C411.04,252.61 411.04,252.61 411.04,252.61C411.04,252.61 411.04,252.62 411.04,252.62C411.04,252.62 411.04,252.63 411.04,252.63C411.04,252.63 411.04,252.63 411.04,252.63C411.04,252.63 411.04,252.64 411.04,252.64C411.04,252.64 411.04,252.64 411.04,252.64C411.04,252.64 411.04,252.65 411.04,252.65C411.04,252.65 411.04,252.66 411.04,252.66C411.04,252.66 411.04,252.66 411.04,252.66C411.04,252.66 411.04,252.67 411.04,252.67C411.04,252.67 411.04,252.68 411.04,252.68C411.04,252.68 411.04,252.68 411.04,252.68C411.04,252.68 411.04,252.69 411.04,252.69C411.04,252.69 411.04,252.69 411.04,252.69C411.04,252.69 411.04,252.7 411.04,252.7C411.04,252.7 411.04,252.71 411.04,252.71C411.04,252.71 411.04,252.71 411.04,252.71C411.04,252.71 411.04,252.72 411.04,252.72C411.04,252.72 411.04,252.73 411.04,252.73C411.04,252.73 411.04,252.73 411.04,252.73C411.04,252.73 411.04,252.74 411.04,252.74C411.04,252.74 411.04,252.74 411.04,252.74C411.04,252.74 411.04,252.75 411.04,252.75C411.04,252.75 411.04,252.76 411.04,252.76C411.04,252.76 411.04,252.76 411.04,252.76C411.04,252.76 411.04,252.77 411.04,252.77C411.04,252.77 411.04,252.78 411.04,252.78C411.04,252.78 411.04,252.78 411.04,252.78C411.04,252.78 411.04,252.79 411.04,252.79C411.04,252.79 411.04,252.8 411.04,252.8C411.04,252.8 411.04,252.8 411.04,252.8C411.04,252.8 411.04,252.81 411.04,252.81C411.04,252.81 411.04,252.81 411.04,252.81C411.04,252.81 411.04,252.82 411.04,252.82C411.04,252.82 411.04,252.83 411.04,252.83C411.04,252.83 411.04,252.83 411.04,252.83C411.04,252.83 411.04,252.84 411.04,252.84C411.04,252.84 411.04,252.85 411.04,252.85C411.04,252.85 411.04,252.85 411.04,252.85C411.04,252.85 411.04,252.86 411.04,252.86C411.04,252.86 411.04,252.86 411.04,252.86C411.04,252.86 411.04,252.87 411.04,252.87C411.04,252.87 411.04,252.88 411.04,252.88C411.04,252.88 411.04,252.88 411.04,252.88C411.04,252.88 411.04,252.89 411.04,252.89C411.04,252.89 411.04,252.9 411.04,252.9C411.04,252.9 411.04,252.9 411.04,252.9C411.04,252.9 411.04,252.91 411.04,252.91C411.04,252.91 411.04,252.91 411.04,252.91C411.04,252.91 411.04,252.92 411.04,252.92C411.04,252.92 411.04,252.93 411.04,252.93C411.04,252.93 411.04,252.93 411.04,252.93C411.04,252.93 411.04,252.94 411.04,252.94C411.04,252.94 411.04,252.95 411.04,252.95C411.04,252.95 411.04,252.95 411.04,252.95C411.04,252.95 411.04,252.96 411.04,252.96C411.04,252.96 411.04,252.96 411.04,252.96C411.04,252.96 411.04,252.97 411.04,252.97C411.04,252.97 411.04,252.98 411.04,252.98C411.04,252.98 411.04,252.98 411.04,252.98C411.04,252.98 411.04,252.99 411.04,252.99C411.04,252.99 411.04,253 411.04,253C411.04,253 411.04,253 411.04,253C411.04,253 411.04,253.01 411.04,253.01C411.04,253.01 411.04,253.01 411.04,253.01C411.04,253.01 411.04,253.02 411.04,253.02C411.04,253.02 411.04,253.03 411.04,253.03C411.04,253.03 411.04,253.03 411.04,253.03C411.04,253.03 411.04,253.04 411.04,253.04C411.04,253.04 411.04,253.05 411.04,253.05C411.04,253.05 411.04,253.05 411.04,253.05C411.04,253.05 411.04,253.06 411.04,253.06C411.04,253.06 411.04,253.06 411.04,253.06C411.04,253.06 411.04,253.07 411.04,253.07C411.04,253.07 411.04,253.08 411.04,253.08C411.04,253.08 411.04,253.08 411.04,253.08C411.04,253.08 411.04,253.09 411.04,253.09C411.04,253.09 411.04,253.1 411.04,253.1C411.04,253.1 411.04,253.1 411.04,253.1C411.04,253.1 411.04,253.11 411.04,253.11C411.04,253.11 411.04,253.12 411.04,253.12C411.04,253.12 411.04,253.12 411.04,253.12C411.04,253.12 411.04,253.13 411.04,253.13C411.04,253.13 411.04,253.13 411.04,253.13C411.04,253.13 411.04,253.14 411.04,253.14C411.04,253.14 411.04,253.15 411.04,253.15C411.04,253.15 411.04,253.15 411.04,253.15C411.04,253.15 411.04,253.16 411.04,253.16C411.04,253.16 411.04,253.17 411.04,253.17C411.04,253.17 411.04,253.17 411.04,253.17C411.04,253.17 411.04,253.18 411.04,253.18C411.04,253.18 411.04,253.18 411.04,253.18C411.04,253.18 411.04,253.19 411.04,253.19C411.04,253.19 411.04,253.2 411.04,253.2C411.04,253.2 411.04,253.2 411.04,253.2C411.04,253.2 411.04,253.21 411.04,253.21C411.04,253.21 411.04,253.22 411.04,253.22C411.04,253.22 411.04,253.22 411.04,253.22C411.04,253.22 411.04,253.23 411.04,253.23C411.04,253.23 411.04,253.23 411.04,253.23C411.04,253.23 411.04,253.24 411.04,253.24C411.04,253.24 411.04,253.25 411.04,253.25C411.04,253.25 411.04,253.25 411.04,253.25C411.04,253.25 411.04,253.26 411.04,253.26C411.04,253.26 411.04,253.27 411.04,253.27C411.04,253.27 411.04,253.27 411.04,253.27C411.04,253.27 411.04,253.28 411.04,253.28C411.04,253.28 411.04,253.28 411.04,253.28C411.04,253.28 411.04,253.29 411.04,253.29C411.04,253.29 411.04,253.3 411.04,253.3C411.04,253.3 411.04,253.3 411.04,253.3C411.04,253.3 411.04,253.31 411.04,253.31C411.04,253.31 411.04,253.32 411.04,253.32C411.04,253.32 411.04,253.32 411.04,253.32C411.04,253.32 411.04,253.33 411.04,253.33C411.04,253.33 411.04,253.33 411.04,253.33C411.04,253.33 411.04,253.34 411.04,253.34C411.04,253.34 411.04,253.35 411.04,253.35C411.04,253.35 411.04,253.35 411.04,253.35C411.04,253.35 411.04,253.36 411.04,253.36C411.04,253.36 411.04,253.37 411.04,253.37C411.04,253.37 411.04,253.37 411.04,253.37C411.04,253.37 411.04,253.38 411.04,253.38C411.04,253.38 411.04,253.39 411.04,253.39C411.04,253.39 411.04,253.39 411.04,253.39C411.04,253.39 411.04,253.4 411.04,253.4C411.04,253.4 411.04,253.4 411.04,253.4C411.04,253.4 411.03,253.41 411.03,253.41C411.03,253.41 411.03,253.42 411.03,253.42C411.03,253.42 411.02,253.42 411.02,253.42C411.01,253.42 411,253.43 410.98,253.43C410.95,253.43 410.92,253.44 410.87,253.44C410.79,253.44 410.69,253.44 410.57,253.44C410.38,253.44 410.13,253.45 409.85,253.45C409.44,253.45 408.91,253.45 408.33,253.45C407.53,253.45 406.56,253.46 405.5,253.46C404.15,253.46 402.56,253.47 400.89,253.47C398.91,253.47 396.67,253.47 394.41,253.47C391.93,253.47 389.2,253.48 386.61,253.48C384.04,253.48 381.29,253.49 378.92,253.49C376.88,253.49 374.64,253.49 373.21,253.49C372.35,253.49 371.15,253.5 371.15,253.5C371.15,253.5 372.46,253.5 373.37,253.5C374.85,253.5 377.11,253.51 379.19,253.51C381.58,253.51 384.34,253.52 386.92,253.52C389.51,253.52 392.22,253.52 394.69,253.52C396.93,253.52 399.16,253.53 401.11,253.53Q402.75,253.53 405.64,253.54L411.04,253.54" style="vector-effect: none; stroke-width: 2px; stroke: rgb(128, 0, 0); stroke-opacity: 1; fill: rgb(128, 0, 0); fill-opacity: 0.5;"/><path class="meanline" d="M409.53802490234375,253.45H411.04" style="fill: none; vector-effect: none; stroke-width: 2px; stroke-dasharray: 4px, 2px; stroke: rgb(128, 0, 0); stroke-opacity: 1;"/><g class="points"><path class="point" transform="translate(359.34,253.5)" d="M3,0A3,3 0 1,1 0,-3A3,3 0 0,1 3,0Z" style="opacity: 1; stroke-width: 0px; fill: rgb(128, 0, 0); fill-opacity: 1;"/><path class="point" transform="translate(350.11,253.5)" d="M3,0A3,3 0 1,1 0,-3A3,3 0 0,1 3,0Z" style="opacity: 1; stroke-width: 0px; fill: rgb(128, 0, 0); fill-opacity: 1;"/><path class="point" transform="translate(361.38,253.5)" d="M3,0A3,3 0 1,1 0,-3A3,3 0 0,1 3,0Z" style="opacity: 1; stroke-width: 0px; fill: rgb(128, 0, 0); fill-opacity: 1;"/><path class="point" transform="translate(348.45,253.5)" d="M3,0A3,3 0 1,1 0,-3A3,3 0 0,1 3,0Z" style="opacity: 1; stroke-width: 0px; fill: rgb(128, 0, 0); fill-opacity: 1;"/><path class="point" transform="translate(353.23,253.5)" d="M3,0A3,3 0 1,1 0,-3A3,3 0 0,1 3,0Z" style="opacity: 1; stroke-width: 0px; fill: rgb(128, 0, 0); fill-opacity: 1;"/><path class="point" transform="translate(359.39,253.5)" d="M3,0A3,3 0 1,1 0,-3A3,3 0 0,1 3,0Z" style="opacity: 1; stroke-width: 0px; fill: rgb(128, 0, 0); fill-opacity: 1;"/><path class="point" transform="translate(354.9,253.5)" d="M3,0A3,3 0 1,1 0,-3A3,3 0 0,1 3,0Z" style="opacity: 1; stroke-width: 0px; fill: rgb(128, 0, 0); fill-opacity: 1;"/><path class="point" transform="translate(357.51,253.5)" d="M3,0A3,3 0 1,1 0,-3A3,3 0 0,1 3,0Z" style="opacity: 1; stroke-width: 0px; fill: rgb(128, 0, 0); fill-opacity: 1;"/><path class="point" transform="translate(352.65,253.5)" d="M3,0A3,3 0 1,1 0,-3A3,3 0 0,1 3,0Z" style="opacity: 1; stroke-width: 0px; fill: rgb(128, 0, 0); fill-opacity: 1;"/><path class="point" transform="translate(349.35,253.5)" d="M3,0A3,3 0 1,1 0,-3A3,3 0 0,1 3,0Z" style="opacity: 1; stroke-width: 0px; fill: rgb(128, 0, 0); fill-opacity: 1;"/><path class="point" transform="translate(357.33,253.5)" d="M3,0A3,3 0 1,1 0,-3A3,3 0 0,1 3,0Z" style="opacity: 1; stroke-width: 0px; fill: rgb(128, 0, 0); fill-opacity: 1;"/><path class="point" transform="translate(352.57,253.5)" d="M3,0A3,3 0 1,1 0,-3A3,3 0 0,1 3,0Z" style="opacity: 1; stroke-width: 0px; fill: rgb(128, 0, 0); fill-opacity: 1;"/><path class="point" transform="translate(360.26,253.5)" d="M3,0A3,3 0 1,1 0,-3A3,3 0 0,1 3,0Z" style="opacity: 1; stroke-width: 0px; fill: rgb(128, 0, 0); fill-opacity: 1;"/><path class="point" transform="translate(347.43,253.5)" d="M3,0A3,3 0 1,1 0,-3A3,3 0 0,1 3,0Z" style="opacity: 1; stroke-width: 0px; fill: rgb(128, 0, 0); fill-opacity: 1;"/><path class="point" transform="translate(350.58,253.5)" d="M3,0A3,3 0 1,1 0,-3A3,3 0 0,1 3,0Z" style="opacity: 1; stroke-width: 0px; fill: rgb(128, 0, 0); fill-opacity: 1;"/><path class="point" transform="translate(362.25,253.5)" d="M3,0A3,3 0 1,1 0,-3A3,3 0 0,1 3,0Z" style="opacity: 1; stroke-width: 0px; fill: rgb(128, 0, 0); fill-opacity: 1;"/><path class="point" transform="translate(353.2,253.5)" d="M3,0A3,3 0 1,1 0,-3A3,3 0 0,1 3,0Z" style="opacity: 1; stroke-width: 0px; fill: rgb(128, 0, 0); fill-opacity: 1;"/><path class="point" transform="translate(348.35,253.5)" d="M3,0A3,3 0 1,1 0,-3A3,3 0 0,1 3,0Z" style="opacity: 1; stroke-width: 0px; fill: rgb(128, 0, 0); fill-opacity: 1;"/><path class="point" transform="translate(352.56,253.5)" d="M3,0A3,3 0 1,1 0,-3A3,3 0 0,1 3,0Z" style="opacity: 1; stroke-width: 0px; fill: rgb(128, 0, 0); fill-opacity: 1;"/><path class="point" transform="translate(355.03,253.5)" d="M3,0A3,3 0 1,1 0,-3A3,3 0 0,1 3,0Z" style="opacity: 1; stroke-width: 0px; fill: rgb(128, 0, 0); fill-opacity: 1;"/><path class="point" transform="translate(358.79,253.5)" d="M3,0A3,3 0 1,1 0,-3A3,3 0 0,1 3,0Z" style="opacity: 1; stroke-width: 0px; fill: rgb(128, 0, 0); fill-opacity: 1;"/><path class="point" transform="translate(356.08,253.5)" d="M3,0A3,3 0 1,1 0,-3A3,3 0 0,1 3,0Z" style="opacity: 1; stroke-width: 0px; fill: rgb(128, 0, 0); fill-opacity: 1;"/><path class="point" transform="translate(352.95,253.5)" d="M3,0A3,3 0 1,1 0,-3A3,3 0 0,1 3,0Z" style="opacity: 1; stroke-width: 0px; fill: rgb(128, 0, 0); fill-opacity: 1;"/><path class="point" transform="translate(348.53,253.5)" d="M3,0A3,3 0 1,1 0,-3A3,3 0 0,1 3,0Z" style="opacity: 1; stroke-width: 0px; fill: rgb(128, 0, 0); fill-opacity: 1;"/><path class="point" transform="translate(355.17,253.5)" d="M3,0A3,3 0 1,1 0,-3A3,3 0 0,1 3,0Z" style="opacity: 1; stroke-width: 0px; fill: rgb(128, 0, 0); fill-opacity: 1;"/><path class="point" transform="translate(352.87,253.5)" d="M3,0A3,3 0 1,1 0,-3A3,3 0 0,1 3,0Z" style="opacity: 1; stroke-width: 0px; fill: rgb(128, 0, 0); fill-opacity: 1;"/><path class="point" transform="translate(358.91,253.5)" d="M3,0A3,3 0 1,1 0,-3A3,3 0 0,1 3,0Z" style="opacity: 1; stroke-width: 0px; fill: rgb(128, 0, 0); fill-opacity: 1;"/><path class="point" transform="translate(354.49,253.5)" d="M3,0A3,3 0 1,1 0,-3A3,3 0 0,1 3,0Z" style="opacity: 1; stroke-width: 0px; fill: rgb(128, 0, 0); fill-opacity: 1;"/><path class="point" transform="translate(349.98,253.5)" d="M3,0A3,3 0 1,1 0,-3A3,3 0 0,1 3,0Z" style="opacity: 1; stroke-width: 0px; fill: rgb(128, 0, 0); fill-opacity: 1;"/><path class="point" transform="translate(347.76,253.5)" d="M3,0A3,3 0 1,1 0,-3A3,3 0 0,1 3,0Z" style="opacity: 1; stroke-width: 0px; fill: rgb(128, 0, 0); fill-opacity: 1;"/><path class="point" transform="translate(359.7,253.5)" d="M3,0A3,3 0 1,1 0,-3A3,3 0 0,1 3,0Z" style="opacity: 1; stroke-width: 0px; fill: rgb(128, 0, 0); fill-opacity: 1;"/><path class="point" transform="translate(348.38,253.5)" d="M3,0A3,3 0 1,1 0,-3A3,3 0 0,1 3,0Z" style="opacity: 1; stroke-width: 0px; fill: rgb(128, 0, 0); fill-opacity: 1;"/><path class="point" transform="translate(359.94,253.5)" d="M3,0A3,3 0 1,1 0,-3A3,3 0 0,1 3,0Z" style="opacity: 1; stroke-width: 0px; fill: rgb(128, 0, 0); fill-opacity: 1;"/><path class="point" transform="translate(356.94,253.5)" d="M3,0A3,3 0 1,1 0,-3A3,3 0 0,1 3,0Z" style="opacity: 1; stroke-width: 0px; fill: rgb(128, 0, 0); fill-opacity: 1;"/><path class="point" transform="translate(352.82,253.5)" d="M3,0A3,3 0 1,1 0,-3A3,3 0 0,1 3,0Z" style="opacity: 1; stroke-width: 0px; fill: rgb(128, 0, 0); fill-opacity: 1;"/><path class="point" transform="translate(350.48,253.5)" d="M3,0A3,3 0 1,1 0,-3A3,3 0 0,1 3,0Z" style="opacity: 1; stroke-width: 0px; fill: rgb(128, 0, 0); fill-opacity: 1;"/><path class="point" transform="translate(355.56,253.5)" d="M3,0A3,3 0 1,1 0,-3A3,3 0 0,1 3,0Z" style="opacity: 1; stroke-width: 0px; fill: rgb(128, 0, 0); fill-opacity: 1;"/><path class="point" transform="translate(355.12,253.5)" d="M3,0A3,3 0 1,1 0,-3A3,3 0 0,1 3,0Z" style="opacity: 1; stroke-width: 0px; fill: rgb(128, 0, 0); fill-opacity: 1;"/><path class="point" transform="translate(355.69,253.5)" d="M3,0A3,3 0 1,1 0,-3A3,3 0 0,1 3,0Z" style="opacity: 1; stroke-width: 0px; fill: rgb(128, 0, 0); fill-opacity: 1;"/><path class="point" transform="translate(354.64,253.5)" d="M3,0A3,3 0 1,1 0,-3A3,3 0 0,1 3,0Z" style="opacity: 1; stroke-width: 0px; fill: rgb(128, 0, 0); fill-opacity: 1;"/><path class="point" transform="translate(355.59,253.5)" d="M3,0A3,3 0 1,1 0,-3A3,3 0 0,1 3,0Z" style="opacity: 1; stroke-width: 0px; fill: rgb(128, 0, 0); fill-opacity: 1;"/><path class="point" transform="translate(355.15,251.61)" d="M3,0A3,3 0 1,1 0,-3A3,3 0 0,1 3,0Z" style="opacity: 1; stroke-width: 0px; fill: rgb(128, 0, 0); fill-opacity: 1;"/></g></g><g class="trace violins" style="opacity: 1;"><path class="violin" d="M411.04,253.5L450.92,253.5L411.04,253.5" style="vector-effect: none; stroke-width: 2px; stroke: rgb(255, 0, 0); stroke-opacity: 1; fill: rgb(255, 0, 0); fill-opacity: 0.5;"/><path class="meanline" d="M450.9200134277344,253.5H411.04" style="fill: none; vector-effect: none; stroke-width: 2px; stroke-dasharray: 4px, 2px; stroke: rgb(255, 0, 0); stroke-opacity: 1;"/><g class="points"><path class="point" transform="translate(471.01,253.5)" d="M3,0A3,3 0 1,1 0,-3A3,3 0 0,1 3,0Z" style="opacity: 1; stroke-width: 0px; fill: rgb(255, 0, 0); fill-opacity: 1;"/><path class="point" transform="translate(461.79,253.5)" d="M3,0A3,3 0 1,1 0,-3A3,3 0 0,1 3,0Z" style="opacity: 1; stroke-width: 0px; fill: rgb(255, 0, 0); fill-opacity: 1;"/><path class="point" transform="translate(473.06,253.5)" d="M3,0A3,3 0 1,1 0,-3A3,3 0 0,1 3,0Z" style="opacity: 1; stroke-width: 0px; fill: rgb(255, 0, 0); fill-opacity: 1;"/><path class="point" transform="translate(460.13,253.5)" d="M3,0A3,3 0 1,1 0,-3A3,3 0 0,1 3,0Z" style="opacity: 1; stroke-width: 0px; fill: rgb(255, 0, 0); fill-opacity: 1;"/><path class="point" transform="translate(464.91,253.5)" d="M3,0A3,3 0 1,1 0,-3A3,3 0 0,1 3,0Z" style="opacity: 1; stroke-width: 0px; fill: rgb(255, 0, 0); fill-opacity: 1;"/><path class="point" transform="translate(471.06,253.5)" d="M3,0A3,3 0 1,1 0,-3A3,3 0 0,1 3,0Z" style="opacity: 1; stroke-width: 0px; fill: rgb(255, 0, 0); fill-opacity: 1;"/><path class="point" transform="translate(466.58,253.5)" d="M3,0A3,3 0 1,1 0,-3A3,3 0 0,1 3,0Z" style="opacity: 1; stroke-width: 0px; fill: rgb(255, 0, 0); fill-opacity: 1;"/><path class="point" transform="translate(469.19,253.5)" d="M3,0A3,3 0 1,1 0,-3A3,3 0 0,1 3,0Z" style="opacity: 1; stroke-width: 0px; fill: rgb(255, 0, 0); fill-opacity: 1;"/><path class="point" transform="translate(464.33,253.5)" d="M3,0A3,3 0 1,1 0,-3A3,3 0 0,1 3,0Z" style="opacity: 1; stroke-width: 0px; fill: rgb(255, 0, 0); fill-opacity: 1;"/><path class="point" transform="translate(461.03,253.5)" d="M3,0A3,3 0 1,1 0,-3A3,3 0 0,1 3,0Z" style="opacity: 1; stroke-width: 0px; fill: rgb(255, 0, 0); fill-opacity: 1;"/><path class="point" transform="translate(469,253.5)" d="M3,0A3,3 0 1,1 0,-3A3,3 0 0,1 3,0Z" style="opacity: 1; stroke-width: 0px; fill: rgb(255, 0, 0); fill-opacity: 1;"/><path class="point" transform="translate(464.25,253.5)" d="M3,0A3,3 0 1,1 0,-3A3,3 0 0,1 3,0Z" style="opacity: 1; stroke-width: 0px; fill: rgb(255, 0, 0); fill-opacity: 1;"/><path class="point" transform="translate(471.93,253.5)" d="M3,0A3,3 0 1,1 0,-3A3,3 0 0,1 3,0Z" style="opacity: 1; stroke-width: 0px; fill: rgb(255, 0, 0); fill-opacity: 1;"/><path class="point" transform="translate(459.11,253.5)" d="M3,0A3,3 0 1,1 0,-3A3,3 0 0,1 3,0Z" style="opacity: 1; stroke-width: 0px; fill: rgb(255, 0, 0); fill-opacity: 1;"/><path class="point" transform="translate(462.26,253.5)" d="M3,0A3,3 0 1,1 0,-3A3,3 0 0,1 3,0Z" style="opacity: 1; stroke-width: 0px; fill: rgb(255, 0, 0); fill-opacity: 1;"/><path class="point" transform="translate(473.93,253.5)" d="M3,0A3,3 0 1,1 0,-3A3,3 0 0,1 3,0Z" style="opacity: 1; stroke-width: 0px; fill: rgb(255, 0, 0); fill-opacity: 1;"/><path class="point" transform="translate(464.87,253.5)" d="M3,0A3,3 0 1,1 0,-3A3,3 0 0,1 3,0Z" style="opacity: 1; stroke-width: 0px; fill: rgb(255, 0, 0); fill-opacity: 1;"/><path class="point" transform="translate(460.03,253.5)" d="M3,0A3,3 0 1,1 0,-3A3,3 0 0,1 3,0Z" style="opacity: 1; stroke-width: 0px; fill: rgb(255, 0, 0); fill-opacity: 1;"/><path class="point" transform="translate(464.24,253.5)" d="M3,0A3,3 0 1,1 0,-3A3,3 0 0,1 3,0Z" style="opacity: 1; stroke-width: 0px; fill: rgb(255, 0, 0); fill-opacity: 1;"/><path class="point" transform="translate(466.7,253.5)" d="M3,0A3,3 0 1,1 0,-3A3,3 0 0,1 3,0Z" style="opacity: 1; stroke-width: 0px; fill: rgb(255, 0, 0); fill-opacity: 1;"/><path class="point" transform="translate(470.46,253.5)" d="M3,0A3,3 0 1,1 0,-3A3,3 0 0,1 3,0Z" style="opacity: 1; stroke-width: 0px; fill: rgb(255, 0, 0); fill-opacity: 1;"/><path class="point" transform="translate(467.76,253.5)" d="M3,0A3,3 0 1,1 0,-3A3,3 0 0,1 3,0Z" style="opacity: 1; stroke-width: 0px; fill: rgb(255, 0, 0); fill-opacity: 1;"/><path class="point" transform="translate(464.62,253.5)" d="M3,0A3,3 0 1,1 0,-3A3,3 0 0,1 3,0Z" style="opacity: 1; stroke-width: 0px; fill: rgb(255, 0, 0); fill-opacity: 1;"/><path class="point" transform="translate(460.2,253.5)" d="M3,0A3,3 0 1,1 0,-3A3,3 0 0,1 3,0Z" style="opacity: 1; stroke-width: 0px; fill: rgb(255, 0, 0); fill-opacity: 1;"/><path class="point" transform="translate(466.85,253.5)" d="M3,0A3,3 0 1,1 0,-3A3,3 0 0,1 3,0Z" style="opacity: 1; stroke-width: 0px; fill: rgb(255, 0, 0); fill-opacity: 1;"/><path class="point" transform="translate(464.54,253.5)" d="M3,0A3,3 0 1,1 0,-3A3,3 0 0,1 3,0Z" style="opacity: 1; stroke-width: 0px; fill: rgb(255, 0, 0); fill-opacity: 1;"/><path class="point" transform="translate(470.59,253.5)" d="M3,0A3,3 0 1,1 0,-3A3,3 0 0,1 3,0Z" style="opacity: 1; stroke-width: 0px; fill: rgb(255, 0, 0); fill-opacity: 1;"/><path class="point" transform="translate(466.17,253.5)" d="M3,0A3,3 0 1,1 0,-3A3,3 0 0,1 3,0Z" style="opacity: 1; stroke-width: 0px; fill: rgb(255, 0, 0); fill-opacity: 1;"/><path class="point" transform="translate(461.65,253.5)" d="M3,0A3,3 0 1,1 0,-3A3,3 0 0,1 3,0Z" style="opacity: 1; stroke-width: 0px; fill: rgb(255, 0, 0); fill-opacity: 1;"/><path class="point" transform="translate(459.43,253.5)" d="M3,0A3,3 0 1,1 0,-3A3,3 0 0,1 3,0Z" style="opacity: 1; stroke-width: 0px; fill: rgb(255, 0, 0); fill-opacity: 1;"/><path class="point" transform="translate(471.37,253.5)" d="M3,0A3,3 0 1,1 0,-3A3,3 0 0,1 3,0Z" style="opacity: 1; stroke-width: 0px; fill: rgb(255, 0, 0); fill-opacity: 1;"/><path class="point" transform="translate(460.06,253.5)" d="M3,0A3,3 0 1,1 0,-3A3,3 0 0,1 3,0Z" style="opacity: 1; stroke-width: 0px; fill: rgb(255, 0, 0); fill-opacity: 1;"/><path class="point" transform="translate(471.61,253.5)" d="M3,0A3,3 0 1,1 0,-3A3,3 0 0,1 3,0Z" style="opacity: 1; stroke-width: 0px; fill: rgb(255, 0, 0); fill-opacity: 1;"/><path class="point" transform="translate(468.62,253.5)" d="M3,0A3,3 0 1,1 0,-3A3,3 0 0,1 3,0Z" style="opacity: 1; stroke-width: 0px; fill: rgb(255, 0, 0); fill-opacity: 1;"/><path class="point" transform="translate(464.49,253.5)" d="M3,0A3,3 0 1,1 0,-3A3,3 0 0,1 3,0Z" style="opacity: 1; stroke-width: 0px; fill: rgb(255, 0, 0); fill-opacity: 1;"/><path class="point" transform="translate(462.15,253.5)" d="M3,0A3,3 0 1,1 0,-3A3,3 0 0,1 3,0Z" style="opacity: 1; stroke-width: 0px; fill: rgb(255, 0, 0); fill-opacity: 1;"/><path class="point" transform="translate(470.47,253.5)" d="M3,0A3,3 0 1,1 0,-3A3,3 0 0,1 3,0Z" style="opacity: 1; stroke-width: 0px; fill: rgb(255, 0, 0); fill-opacity: 1;"/><path class="point" transform="translate(466.02,253.5)" d="M3,0A3,3 0 1,1 0,-3A3,3 0 0,1 3,0Z" style="opacity: 1; stroke-width: 0px; fill: rgb(255, 0, 0); fill-opacity: 1;"/><path class="point" transform="translate(472.35,253.5)" d="M3,0A3,3 0 1,1 0,-3A3,3 0 0,1 3,0Z" style="opacity: 1; stroke-width: 0px; fill: rgb(255, 0, 0); fill-opacity: 1;"/><path class="point" transform="translate(460.16,253.5)" d="M3,0A3,3 0 1,1 0,-3A3,3 0 0,1 3,0Z" style="opacity: 1; stroke-width: 0px; fill: rgb(255, 0, 0); fill-opacity: 1;"/><path class="point" transform="translate(471.97,253.5)" d="M3,0A3,3 0 1,1 0,-3A3,3 0 0,1 3,0Z" style="opacity: 1; stroke-width: 0px; fill: rgb(255, 0, 0); fill-opacity: 1;"/></g></g></g></g><g class="overplot"/><path class="xlines-above crisp" d="M0,0" style="fill: none;"/><path class="ylines-above crisp" d="M0,0" style="fill: none;"/><g class="overlines-above"/><g class="xaxislayer-above"><g class="xtick"><text text-anchor="middle" x="0" y="433" transform="translate(171.95999999999998,0)" style="font-family: 'Open Sans', verdana, arial, sans-serif; font-size: 12px; fill: rgb(42, 63, 95); fill-opacity: 1; white-space: pre; opacity: 1;">L</text></g><g class="xtick"><text text-anchor="middle" x="0" y="433" transform="translate(331.5,0)" style="font-family: 'Open Sans', verdana, arial, sans-serif; font-size: 12px; fill: rgb(42, 63, 95); fill-opacity: 1; white-space: pre; opacity: 1;">SIM</text></g><g class="xtick"><text text-anchor="middle" x="0" y="433" transform="translate(491.04,0)" style="font-family: 'Open Sans', verdana, arial, sans-serif; font-size: 12px; fill: rgb(42, 63, 95); fill-opacity: 1; white-space: pre; opacity: 1;">SOM</text></g></g><g class="yaxislayer-above"><g class="ytick"><text text-anchor="end" x="79" y="4.199999999999999" transform="translate(0,353.5)" style="font-family: 'Open Sans', verdana, arial, sans-serif; font-size: 12px; fill: rgb(42, 63, 95); fill-opacity: 1; white-space: pre; opacity: 1;">0</text></g><g class="ytick"><text text-anchor="end" x="79" y="4.199999999999999" style="font-family: 'Open Sans', verdana, arial, sans-serif; font-size: 12px; fill: rgb(42, 63, 95); fill-opacity: 1; white-space: pre; opacity: 1;" transform="translate(0,279.36)">5</text></g><g class="ytick"><text text-anchor="end" x="79" y="4.199999999999999" style="font-family: 'Open Sans', verdana, arial, sans-serif; font-size: 12px; fill: rgb(42, 63, 95); fill-opacity: 1; white-space: pre; opacity: 1;" transform="translate(0,205.22)">10</text></g><g class="ytick"><text text-anchor="end" x="79" y="4.199999999999999" style="font-family: 'Open Sans', verdana, arial, sans-serif; font-size: 12px; fill: rgb(42, 63, 95); fill-opacity: 1; white-space: pre; opacity: 1;" transform="translate(0,131.09)">15</text></g></g><g class="overaxes-above"/></g></g><g class="polarlayer"/><g class="smithlayer"/><g class="ternarylayer"/><g class="geolayer"/><g class="funnelarealayer"/><g class="pielayer"/><g class="iciclelayer"/><g class="treemaplayer"/><g class="sunburstlayer"/><g class="glimages"/><defs id="topdefs-436174"><g class="clips"/><clipPath id="legend436174"><rect width="95" height="124" x="0" y="0"/></clipPath></defs><g class="layer-above"><g class="imagelayer"/><g class="shapelayer"/></g><g class="infolayer"><g class="legend" pointer-events="all" transform="translate(593.0600000000001,100)"><rect class="bg" shape-rendering="crispEdges" width="95" height="124" x="0" y="0" style="stroke: rgb(68, 68, 68); stroke-opacity: 1; fill: rgb(255, 255, 255); fill-opacity: 1; stroke-width: 0px;"/><g class="scrollbox" transform="" clip-path="url(#legend436174)"><g class="groups"><g class="traces" transform="translate(0,14.5)" style="opacity: 1;"><text class="legendtext" text-anchor="start" x="40" y="4.680000000000001" style="font-family: 'Open Sans', verdana, arial, sans-serif; font-size: 12px; fill: rgb(42, 63, 95); fill-opacity: 1; white-space: pre;">L SB</text><g class="layers" style="opacity: 1;"><g class="legendfill"/><g class="legendlines"/><g class="legendsymbols"><g class="legendpoints"><path class="legendbox" d="M6,6H-6V-6H6Z" transform="translate(20,0)" style="stroke-width: 2px; fill: rgb(144, 238, 144); fill-opacity: 0.5; stroke: rgb(144, 238, 144); stroke-opacity: 1;"/></g></g></g><rect class="legendtoggle" x="0" y="-9.5" width="89.1875" height="19" style="fill: rgb(0, 0, 0); fill-opacity: 0;"/></g><g class="traces" transform="translate(0,33.5)" style="opacity: 1;"><text class="legendtext" text-anchor="start" x="40" y="4.680000000000001" style="font-family: 'Open Sans', verdana, arial, sans-serif; font-size: 12px; fill: rgb(42, 63, 95); fill-opacity: 1; white-space: pre;">L NB</text><g class="layers" style="opacity: 1;"><g class="legendfill"/><g class="legendlines"/><g class="legendsymbols"><g class="legendpoints"><path class="legendbox" d="M6,6H-6V-6H6Z" transform="translate(20,0)" style="stroke-width: 2px; fill: rgb(0, 128, 0); fill-opacity: 0.5; stroke: rgb(0, 128, 0); stroke-opacity: 1;"/></g></g></g><rect class="legendtoggle" x="0" y="-9.5" width="89.1875" height="19" style="fill: rgb(0, 0, 0); fill-opacity: 0;"/></g><g class="traces" transform="translate(0,52.5)" style="opacity: 1;"><text class="legendtext" text-anchor="start" x="40" y="4.680000000000001" style="font-family: 'Open Sans', verdana, arial, sans-serif; font-size: 12px; fill: rgb(42, 63, 95); fill-opacity: 1; white-space: pre;">SIM SB</text><g class="layers" style="opacity: 1;"><g class="legendfill"/><g class="legendlines"/><g class="legendsymbols"><g class="legendpoints"><path class="legendbox" d="M6,6H-6V-6H6Z" transform="translate(20,0)" style="stroke-width: 2px; fill: rgb(255, 255, 0); fill-opacity: 0.5; stroke: rgb(255, 255, 0); stroke-opacity: 1;"/></g></g></g><rect class="legendtoggle" x="0" y="-9.5" width="89.1875" height="19" style="fill: rgb(0, 0, 0); fill-opacity: 0;"/></g><g class="traces" transform="translate(0,71.5)" style="opacity: 1;"><text class="legendtext" text-anchor="start" x="40" y="4.680000000000001" style="font-family: 'Open Sans', verdana, arial, sans-serif; font-size: 12px; fill: rgb(42, 63, 95); fill-opacity: 1; white-space: pre;">SIM NB</text><g class="layers" style="opacity: 1;"><g class="legendfill"/><g class="legendlines"/><g class="legendsymbols"><g class="legendpoints"><path class="legendbox" d="M6,6H-6V-6H6Z" transform="translate(20,0)" style="stroke-width: 2px; fill: rgb(255, 165, 0); fill-opacity: 0.5; stroke: rgb(255, 165, 0); stroke-opacity: 1;"/></g></g></g><rect class="legendtoggle" x="0" y="-9.5" width="89.1875" height="19" style="fill: rgb(0, 0, 0); fill-opacity: 0;"/></g><g class="traces" transform="translate(0,90.5)" style="opacity: 1;"><text class="legendtext" text-anchor="start" x="40" y="4.680000000000001" style="font-family: 'Open Sans', verdana, arial, sans-serif; font-size: 12px; fill: rgb(42, 63, 95); fill-opacity: 1; white-space: pre;">SOM SB</text><g class="layers" style="opacity: 1;"><g class="legendfill"/><g class="legendlines"/><g class="legendsymbols"><g class="legendpoints"><path class="legendbox" d="M6,6H-6V-6H6Z" transform="translate(20,0)" style="stroke-width: 2px; fill: rgb(128, 0, 0); fill-opacity: 0.5; stroke: rgb(128, 0, 0); stroke-opacity: 1;"/></g></g></g><rect class="legendtoggle" x="0" y="-9.5" width="89.1875" height="19" style="fill: rgb(0, 0, 0); fill-opacity: 0;"/></g><g class="traces" transform="translate(0,109.5)" style="opacity: 1;"><text class="legendtext" text-anchor="start" x="40" y="4.680000000000001" style="font-family: 'Open Sans', verdana, arial, sans-serif; font-size: 12px; fill: rgb(42, 63, 95); fill-opacity: 1; white-space: pre;">SOM NB</text><g class="layers" style="opacity: 1;"><g class="legendfill"/><g class="legendlines"/><g class="legendsymbols"><g class="legendpoints"><path class="legendbox" d="M6,6H-6V-6H6Z" transform="translate(20,0)" style="stroke-width: 2px; fill: rgb(255, 0, 0); fill-opacity: 0.5; stroke: rgb(255, 0, 0); stroke-opacity: 1;"/></g></g></g><rect class="legendtoggle" x="0" y="-9.5" width="89.1875" height="19" style="fill: rgb(0, 0, 0); fill-opacity: 0;"/></g></g></g><rect class="scrollbar" rx="20" ry="3" width="0" height="0" x="0" y="0" style="fill: rgb(128, 139, 164); fill-opacity: 1;"/></g><g class="g-gtitle"><text class="gtitle" x="35" y="50" text-anchor="start" dy="0em" style="font-family: 'Open Sans', verdana, arial, sans-serif; font-size: 17px; fill: rgb(42, 63, 95); opacity: 1; font-weight: normal; white-space: pre;">Distribution of Sorites across habitats and sites</text></g><g class="g-xtitle"><text class="xtitle" x="331.5" y="459.8" text-anchor="middle" style="font-family: 'Open Sans', verdana, arial, sans-serif; font-size: 14px; fill: rgb(42, 63, 95); opacity: 1; font-weight: normal; white-space: pre;">Habitat and Site</text></g><g class="g-ytitle"><text class="ytitle" transform="rotate(-90,39.434375,260)" x="39.434375" y="260" text-anchor="middle" style="font-family: 'Open Sans', verdana, arial, sans-serif; font-size: 14px; fill: rgb(42, 63, 95); opacity: 1; font-weight: normal; white-space: pre;">Value</text></g></g></svg>